<svg width="42" height="42" viewBox="0 0 42 42" fill="none" xmlns="http://www.w3.org/2000/svg">
<path d="M31.4992 3.93759C31.4997 3.67766 31.423 3.42345 31.2788 3.20718C31.1346 2.9909 30.9294 2.82232 30.6893 2.72278C30.4492 2.62325 30.1849 2.59725 29.93 2.64809C29.6751 2.69893 29.441 2.82431 29.2575 3.00834L24.0075 8.25834C23.8857 8.38045 23.7891 8.52538 23.7234 8.68482C23.6576 8.84427 23.6239 9.01511 23.6242 9.18759V16.5192L21.6791 18.4617C21.29 18.3585 20.8824 18.3459 20.4876 18.425C20.0929 18.5041 19.7216 18.6728 19.4023 18.918C19.083 19.1632 18.8243 19.4785 18.6461 19.8395C18.4678 20.2004 18.3748 20.5975 18.3742 21.0001C18.3748 21.3736 18.455 21.7426 18.6096 22.0826C18.7641 22.4226 18.9894 22.7256 19.2705 22.9716C19.5515 23.2176 19.8818 23.4007 20.2392 23.5088C20.5967 23.617 20.9731 23.6476 21.3434 23.5986C21.7136 23.5496 22.0691 23.4222 22.3862 23.2249C22.7033 23.0276 22.9746 22.7649 23.182 22.4543C23.3895 22.1437 23.5283 21.7925 23.5891 21.424C23.65 21.0556 23.6315 20.6784 23.535 20.3176L25.4801 18.3751H32.8117C32.9842 18.3754 33.155 18.3417 33.3145 18.2759C33.4739 18.2102 33.6189 18.1136 33.741 17.9918L38.991 12.7418C39.175 12.5583 39.3004 12.3242 39.3512 12.0693C39.4021 11.8144 39.3761 11.5501 39.2765 11.31C39.177 11.0699 39.0084 10.8647 38.7921 10.7205C38.5759 10.5763 38.3217 10.4996 38.0617 10.5001H31.4992V3.93759ZM36.6022 18.8423C37.0539 22.1109 36.4677 25.4388 34.9262 28.3562C33.3847 31.2737 30.9659 33.6333 28.0112 35.102C25.0565 36.5708 21.7151 37.0744 18.4587 36.5419C15.2023 36.0094 12.1954 34.4677 9.86248 32.1342C7.52952 29.8008 5.98833 26.7936 5.45646 23.5371C4.92459 20.2807 5.42891 16.9394 6.89823 13.9849C8.36755 11.0305 10.7277 8.61217 13.6454 7.07127C16.5631 5.53037 19.8911 4.94476 23.1596 5.39709L22.1542 6.40246C21.7882 6.76806 21.4978 7.20221 21.2996 7.68009C21.1014 8.15798 20.9993 8.67024 20.9992 9.18759C18.6629 9.18759 16.3791 9.88038 14.4366 11.1784C12.494 12.4763 10.98 14.3212 10.0859 16.4796C9.19184 18.6381 8.95792 21.0132 9.4137 23.3046C9.86949 25.596 10.9945 27.7008 12.6465 29.3528C14.2985 31.0048 16.4033 32.1298 18.6947 32.5856C20.9861 33.0414 23.3612 32.8075 25.5197 31.9134C27.6781 31.0194 29.523 29.5053 30.821 27.5628C32.1189 25.6202 32.8117 23.3364 32.8117 21.0001C33.8557 20.9992 34.8565 20.5837 35.5942 19.8451L36.6022 18.8423ZM20.9992 11.8126C19.1821 11.8126 17.4058 12.3514 15.8949 13.361C14.3841 14.3705 13.2065 15.8054 12.5111 17.4842C11.8157 19.163 11.6338 21.0103 11.9883 22.7925C12.3428 24.5747 13.2178 26.2117 14.5027 27.4966C15.7876 28.7815 17.4246 29.6566 19.2068 30.0111C20.989 30.3656 22.8363 30.1836 24.5151 29.4882C26.1939 28.7929 27.6288 27.6153 28.6384 26.1044C29.6479 24.5935 30.1867 22.8172 30.1867 21.0001H26.5669L26.2387 21.3282C26.1756 22.3367 25.8228 23.3055 25.2227 24.1184C24.6226 24.9313 23.8007 25.5538 22.8556 25.9111C21.9104 26.2684 20.8822 26.3454 19.8944 26.1328C18.9066 25.9203 18.0011 25.4271 17.2867 24.7127C16.5722 23.9982 16.0791 23.0927 15.8665 22.1049C15.6539 21.1171 15.7309 20.0889 16.0882 19.1438C16.4455 18.1986 17.068 17.3767 17.8809 16.7766C18.6938 16.1765 19.6626 15.8237 20.6711 15.7606L20.9992 15.4325V11.8126Z" fill="#6F249D"/>
</svg>
