<svg width="38" height="38" viewBox="0 0 38 38" fill="none" xmlns="http://www.w3.org/2000/svg">
<path d="M19 4.15625C9.16394 4.15625 1.1875 14.4109 1.1875 17.9503C1.1875 21.4896 9.16394 31.7443 19 31.7443C21.7402 31.7443 24.3348 30.9468 26.6546 29.7225L33.0006 33.8438V24.7511C35.3857 22.1386 36.8125 19.4459 36.8125 17.9503C36.8125 14.4109 28.8372 4.15625 19 4.15625ZM19 26.9467C14.082 26.9467 10.0938 22.9187 10.0938 17.9508C10.0938 12.9817 14.082 8.95494 19 8.95494C23.9192 8.95494 27.9062 12.9817 27.9062 17.9508C27.9062 22.9187 23.9192 26.9467 19 26.9467Z" fill="#630F96"/>
<path d="M19 12.553C18.4211 12.553 17.8653 12.6486 17.3434 12.8202C17.6758 13.1005 17.943 13.4498 18.1265 13.8439C18.3101 14.238 18.4055 14.6673 18.4062 15.102C18.4062 16.7574 17.0774 18.1004 15.4375 18.1004C14.802 18.0986 14.1844 17.8897 13.6782 17.5055C13.6652 17.6534 13.6579 17.8018 13.6562 17.9502C13.6562 20.9309 16.0485 23.348 19 23.348C21.9515 23.348 24.3438 20.9309 24.3438 17.9502C24.3438 14.969 21.9515 12.553 19 12.553Z" fill="#630F96"/>
</svg>
