<svg width="30" height="29" viewBox="0 0 30 29" fill="none" xmlns="http://www.w3.org/2000/svg">
<ellipse cx="14.8175" cy="14.4248" rx="14.8175" ry="14.4248" fill="#C4C4C4"/>
<path d="M17.7099 19.5462C17.5796 19.4969 16.756 19.068 17.2706 17.2606H17.2633C18.6048 15.6643 19.63 13.0956 19.63 10.5667C19.63 6.67812 17.3919 4.63965 14.7908 4.63965C12.188 4.63965 9.96215 6.67718 9.96215 10.5667C9.96215 13.106 10.9816 15.6851 12.3314 17.2776C12.8575 18.872 11.9167 19.4638 11.72 19.5471C8.99594 20.6852 5.7998 22.7596 5.7998 24.8076V25.5754C5.7998 28.3657 10.4825 29 14.8162 29C19.1564 29 23.7801 28.3657 23.7801 25.5754V24.8076C23.7801 22.6981 20.5684 20.6397 17.7099 19.5462Z" fill="white"/>
</svg>
