<svg width="31" height="35" viewBox="0 0 31 35" fill="none" xmlns="http://www.w3.org/2000/svg">
<path d="M19.7477 21.4038C19.5582 21.3338 18.3599 20.724 19.1087 18.1542H19.0979C21.0497 15.8846 22.5413 12.2325 22.5413 8.63688C22.5413 3.10823 19.2851 0.209961 15.5007 0.209961C11.714 0.209961 8.47565 3.10688 8.47565 8.63688C8.47565 12.2473 9.95888 15.9142 11.9226 18.1784C12.6881 20.4453 11.3193 21.2867 11.0332 21.4052C7.06992 23.0232 2.41992 25.9727 2.41992 28.8844V29.9761C2.41992 33.9432 9.23277 34.8452 15.5377 34.8452C21.8522 34.8452 28.5792 33.9432 28.5792 29.9761V28.8844C28.5792 25.8852 23.9065 22.9586 19.7477 21.4038Z" fill="white"/>
</svg>
