<svg width="41" height="41" viewBox="0 0 41 41" fill="none" xmlns="http://www.w3.org/2000/svg">
<g clip-path="url(#clip0_1193_803)">
<path d="M28.2541 20.0522L28.2344 20.1039C28.2405 20.0883 28.2454 20.0723 28.2516 20.0568L28.2541 20.0522Z" fill="white"/>
<path d="M26.1784 30.0752L25.6114 30.7763C26.3781 30.869 27.1202 30.9776 27.8151 31.1092L25.5688 31.7746L28.5671 32.5721L30.802 31.8673C32.1747 32.3277 34.0754 32.8907 34.7052 33.5307H30.2239L30.6692 34.8328H35.3194C35.3054 35.5667 33.9934 36.1629 32.7405 36.6459L29.5626 35.9587L26.5683 37.0317L29.7663 37.7615C27.8992 38.2699 24.7643 38.579 22.169 38.7213L22.06 37.2289H18.9415L18.832 38.7213C16.2367 38.579 13.1023 38.2703 11.2347 37.7619L14.4332 37.0317L11.4389 35.9587L8.2606 36.6459C7.02568 36.2707 5.69605 35.5667 5.68211 34.8328H10.3327L10.778 33.5307H6.2967C6.92646 32.8907 8.82722 32.3277 10.1999 31.8673L12.4348 32.5721L15.4331 31.7746L13.1868 31.1092C13.9122 30.9751 14.6419 30.8648 15.3745 30.7783L14.8157 30.076C8.75383 30.7062 3.71575 32.0481 2.39473 34.1674C0.287744 37.545 8.06052 40.9427 20.2424 40.9955C20.4237 41.0046 20.6024 40.998 20.7713 40.9955C32.9463 40.9398 40.7121 37.5433 38.6068 34.1674C37.2849 32.0473 32.2436 30.705 26.178 30.0752H26.1784Z" fill="white"/>
<path d="M20.4414 0.000102623C19.31 0.0157285 18.2302 0.476179 17.4357 1.28184C16.6411 2.08749 16.1958 3.17357 16.1959 4.3051C16.1959 5.44686 16.6494 6.54185 17.4568 7.3492C18.2641 8.15654 19.3591 8.6101 20.5009 8.6101C21.6426 8.6101 22.7376 8.15654 23.545 7.3492C24.3523 6.54185 24.8059 5.44686 24.8059 4.3051C24.8059 3.16335 24.3523 2.06835 23.545 1.26101C22.7376 0.453664 21.6426 0.000102623 20.5009 0.000102623C20.481 -3.42078e-05 20.4612 -3.42077e-05 20.4414 0.000102623ZM20.418 9.67282C17.2061 9.67364 14.0237 11.0537 14.3582 13.8122L15.1782 19.8084C15.3222 20.8634 16.0351 22.5501 17.0999 22.5501H17.1758L18.0478 32.6078C18.0856 33.0609 18.4136 33.4278 18.8678 33.4278H22.1478C22.6021 33.4278 22.9301 33.0609 22.9678 32.6078L23.8399 22.5505H23.9162C24.9809 22.5505 25.6935 20.8634 25.8378 19.8084L26.6578 13.8122C26.8727 11.0512 23.6304 9.67241 20.418 9.67282Z" fill="white"/>
</g>
<defs>
<clipPath id="clip0_1193_803">
<rect width="41" height="41" fill="white"/>
</clipPath>
</defs>
</svg>
