<svg width="22" height="34" viewBox="0 0 22 34" fill="none" xmlns="http://www.w3.org/2000/svg">
<path d="M18.8571 0H3.14286C2.30932 0 1.50992 0.358213 0.920521 0.995837C0.331121 1.63346 0 2.49826 0 3.4V32.3C0 32.7509 0.165561 33.1833 0.460261 33.5021C0.754961 33.8209 1.15466 34 1.57143 34H20.4286C20.8453 34 21.245 33.8209 21.5397 33.5021C21.8344 33.1833 22 32.7509 22 32.3V3.4C22 2.49826 21.6689 1.63346 21.0795 0.995837C20.4901 0.358213 19.6907 0 18.8571 0ZM9.42857 23.8H4.71429V20.4H9.42857V23.8ZM9.42857 17H4.71429V13.6H9.42857V17ZM9.42857 10.2H4.71429V6.8H9.42857V10.2ZM17.2857 23.8H12.5714V20.4H17.2857V23.8ZM17.2857 17H12.5714V13.6H17.2857V17ZM17.2857 10.2H12.5714V6.8H17.2857V10.2Z" fill="white"/>
</svg>
