<svg width="71" height="65" viewBox="0 0 71 65" fill="none" xmlns="http://www.w3.org/2000/svg">
<path d="M39.0423 46.6667H31.959C30.0111 46.6667 28.4173 45.0729 28.4173 43.125H3.66107V57.2917C3.66107 61.1875 6.84857 64.375 10.7444 64.375H60.2923C64.1882 64.375 67.3757 61.1875 67.3757 57.2917V43.125H42.584C42.584 45.0729 40.9902 46.6667 39.0423 46.6667ZM63.834 14.7917H49.6673C49.6673 6.96458 43.3277 0.625 35.5007 0.625C27.6736 0.625 21.334 6.96458 21.334 14.7917H7.16732C3.27148 14.7917 0.0839844 17.9792 0.0839844 21.875V32.5C0.0839844 36.4313 3.23607 39.5833 7.16732 39.5833H28.4173V36.0417C28.4173 34.0938 30.0111 32.5 31.959 32.5H39.0423C40.9902 32.5 42.584 34.0938 42.584 36.0417V39.5833H63.834C67.7298 39.5833 70.9173 36.3958 70.9173 32.5V21.875C70.9173 17.9792 67.7298 14.7917 63.834 14.7917ZM28.4173 14.7917C28.4173 10.8958 31.6048 7.70833 35.5007 7.70833C39.3965 7.70833 42.584 10.8958 42.584 14.7917H28.3819H28.4173Z" fill="#FDFDFD"/>
</svg>
