<svg width="33" height="38" viewBox="0 0 33 38" fill="none" xmlns="http://www.w3.org/2000/svg">
<path d="M16.5 2.375C13.4926 2.37909 10.6093 3.75662 8.48269 6.20543C6.35609 8.65424 5.15981 11.9744 5.15626 15.4375C5.15266 18.2676 5.95546 21.0209 7.44151 23.275C7.44151 23.275 7.75089 23.7441 7.80142 23.8118L16.5 35.625L25.2027 23.8058C25.2481 23.7429 25.5585 23.275 25.5585 23.275L25.5595 23.2714C27.0449 21.0183 27.8473 18.2663 27.8438 15.4375C27.8402 11.9744 26.6439 8.65424 24.5173 6.20543C22.3907 3.75662 19.5075 2.37909 16.5 2.375ZM16.5 20.1875C15.6842 20.1875 14.8866 19.9089 14.2083 19.387C13.5299 18.865 13.0012 18.1232 12.689 17.2552C12.3768 16.3873 12.2951 15.4322 12.4543 14.5108C12.6134 13.5894 13.0063 12.743 13.5832 12.0787C14.1601 11.4144 14.8951 10.962 15.6953 10.7788C16.4954 10.5955 17.3248 10.6896 18.0786 11.0491C18.8323 11.4086 19.4766 12.0174 19.9298 12.7985C20.3831 13.5797 20.625 14.498 20.625 15.4375C20.6236 16.6968 20.1886 17.9041 19.4153 18.7945C18.642 19.685 17.5936 20.1859 16.5 20.1875Z" fill="white"/>
</svg>
