<svg width="42" height="42" viewBox="0 0 42 42" fill="none" xmlns="http://www.w3.org/2000/svg">
<path d="M17.4483 12.4391L18.4795 12.0951C19.4474 11.7731 20.4795 12.2941 20.8945 13.3121L21.7177 15.3401C22.0761 16.2231 21.8777 17.2621 21.2251 17.9081L19.41 19.7061C19.5212 20.7821 19.8681 21.8411 20.4489 22.8831C21.0007 23.8913 21.7407 24.7737 22.6252 25.4781L24.8054 24.7181C25.6325 24.4311 26.5324 24.7621 27.0384 25.5391L28.22 27.3491C28.8094 28.2531 28.7039 29.4991 27.9727 30.2651L27.1888 31.0861C26.4087 31.9031 25.2942 32.2001 24.264 31.8641C21.8308 31.0721 19.594 28.7211 17.5528 24.8111C15.5087 20.8951 14.787 17.5711 15.3889 14.8431C15.6419 13.6951 16.4248 12.7801 17.4483 12.4391Z" fill="#6F249D"/>
<circle cx="21" cy="21" r="20.25" stroke="#6F249D" stroke-width="1.5"/>
</svg>
