<svg width="42" height="42" viewBox="0 0 42 42" fill="none" xmlns="http://www.w3.org/2000/svg">
<path d="M20.4993 30.875C19.2889 29.7527 18.167 28.5224 17.1452 27.1969C15.6118 25.2062 13.791 22.2417 13.791 19.4167C13.7904 17.9739 14.1835 16.5634 14.9206 15.3636C15.6577 14.1638 16.7058 13.2286 17.932 12.6764C19.1583 12.1243 20.5077 11.98 21.8095 12.2618C23.1113 12.5435 24.3069 13.2387 25.245 14.2594C25.8696 14.9353 26.3647 15.7391 26.7016 16.6243C27.0385 17.5096 27.2105 18.4587 27.2077 19.4167C27.2077 22.2417 25.3868 25.2062 23.8535 27.1969C22.8317 28.5224 21.7098 29.7527 20.4993 30.875ZM20.4993 16.2917C19.7369 16.2917 19.0056 16.6209 18.4664 17.207C17.9272 17.793 17.6243 18.5879 17.6243 19.4167C17.6243 20.2455 17.9272 21.0403 18.4664 21.6264C19.0056 22.2124 19.7369 22.5417 20.4993 22.5417C21.2618 22.5417 21.9931 22.2124 22.5323 21.6264C23.0714 21.0403 23.3743 20.2455 23.3743 19.4167C23.3743 18.5879 23.0714 17.793 22.5323 17.207C21.9931 16.6209 21.2618 16.2917 20.4993 16.2917Z" fill="#6F249D"/>
<circle cx="21" cy="21" r="20.25" stroke="#6F249D" stroke-width="1.5"/>
</svg>
