<svg width="17" height="17" viewBox="0 0 17 17" fill="none" xmlns="http://www.w3.org/2000/svg">
<path d="M5.34013 15.9373C11.7555 15.9373 15.2649 10.6216 15.2649 6.01988C15.2649 5.87113 15.2649 5.72026 15.2586 5.57151C15.9418 5.0769 16.5315 4.46455 17 3.76313C16.3618 4.04454 15.6854 4.23 14.9929 4.31351C15.7224 3.8775 16.2687 3.19148 16.5304 2.38295C15.845 2.78895 15.095 3.07397 14.3129 3.22551C13.7872 2.6656 13.0915 2.29467 12.3336 2.17019C11.5757 2.04571 10.7979 2.17461 10.1207 2.53694C9.44345 2.89927 8.90461 3.4748 8.5876 4.17439C8.2706 4.87397 8.19313 5.65856 8.36719 6.40663C6.98035 6.3371 5.62362 5.97682 4.38498 5.34917C3.14635 4.72153 2.05348 3.84053 1.17725 2.76332C0.732424 3.5316 0.596672 4.44037 0.797561 5.3051C0.998451 6.16984 1.52092 6.9257 2.25887 7.4192C1.70589 7.40041 1.16505 7.25192 0.68 6.9857V7.03351C0.680954 7.83833 0.959764 8.61814 1.4693 9.24113C1.97884 9.86411 2.68786 10.2921 3.4765 10.4526C3.17715 10.5351 2.86793 10.5762 2.55744 10.5748C2.33855 10.5755 2.12009 10.5552 1.90506 10.5143C2.12796 11.2071 2.56198 11.8128 3.14632 12.2466C3.73067 12.6805 4.43608 12.9207 5.16375 12.9336C3.92759 13.9045 2.40061 14.4311 0.82875 14.4285C0.551778 14.4297 0.275 14.4137 0 14.3807C1.59536 15.3978 3.44813 15.9378 5.34013 15.9373Z" fill="#555555"/>
</svg>
