<svg width="41" height="39" viewBox="0 0 41 39" fill="none" xmlns="http://www.w3.org/2000/svg">
<path d="M22.3054 1.16941C21.599 -0.165844 19.4022 -0.165844 18.6958 1.16941L0.320774 35.8777C0.155365 36.1888 0.0733629 36.5375 0.0827564 36.8897C0.09215 37.2419 0.192619 37.5856 0.374375 37.8875C0.55613 38.1893 0.812973 38.4389 1.11988 38.6119C1.42678 38.785 1.77328 38.8756 2.12561 38.8749H38.8756C39.2277 38.8756 39.574 38.7851 39.8807 38.6122C40.1873 38.4392 40.444 38.1898 40.6256 37.8881C40.8071 37.5864 40.9074 37.2429 40.9167 36.8909C40.926 36.5389 40.8439 36.1906 40.6784 35.8798L22.3054 1.16941ZM22.5423 32.7499H18.4589V28.6666H22.5423V32.7499ZM18.4589 24.5832V14.3749H22.5423L22.5443 24.5832H18.4589Z" fill="#E54A4A"/>
</svg>
