<svg width="15" height="16" viewBox="0 0 15 16" fill="none" xmlns="http://www.w3.org/2000/svg">
<path d="M7.50001 1C6.13298 1.00172 4.8224 1.58174 3.85577 2.61281C2.88913 3.64389 2.34537 5.04184 2.34376 6.5C2.34212 7.69161 2.70703 8.85089 3.38251 9.8C3.38251 9.8 3.52313 9.9975 3.5461 10.026L7.50001 15L11.4558 10.0235C11.4764 9.997 11.6175 9.8 11.6175 9.8L11.618 9.7985C12.2931 8.84981 12.6579 7.69107 12.6563 6.5C12.6546 5.04184 12.1109 3.64389 11.1442 2.61281C10.1776 1.58174 8.86703 1.00172 7.50001 1ZM7.50001 8.5C7.12917 8.5 6.76665 8.3827 6.45831 8.16294C6.14997 7.94318 5.90965 7.63082 5.76773 7.26537C5.62582 6.89991 5.58869 6.49778 5.66103 6.10982C5.73338 5.72186 5.91196 5.36549 6.17418 5.08579C6.4364 4.80608 6.7705 4.6156 7.13421 4.53843C7.49793 4.46126 7.87493 4.50087 8.21754 4.65224C8.56015 4.80362 8.85298 5.05996 9.05901 5.38886C9.26504 5.71776 9.37501 6.10444 9.37501 6.5C9.37439 7.03023 9.17664 7.53855 8.82515 7.91348C8.47365 8.28841 7.9971 8.49934 7.50001 8.5Z" fill="#630F96"/>
</svg>
