<svg width="616" height="460" viewBox="0 0 616 460" fill="none" xmlns="http://www.w3.org/2000/svg">
<path d="M554.276 428.535H513.473V428.847H554.276V428.535Z" fill="#EBEBEB"/>
<path d="M408.065 431.93H397.359V432.242H408.065V431.93Z" fill="#EBEBEB"/>
<path d="M512.244 416.958H488.602V417.27H512.244V416.958Z" fill="#EBEBEB"/>
<path d="M117.839 419.054H64.6289V419.366H117.839V419.054Z" fill="#EBEBEB"/>
<path d="M136.615 419.054H128.816V419.366H136.615V419.054Z" fill="#EBEBEB"/>
<path d="M277.386 424.318H161.973V424.63H277.386V424.318Z" fill="#EBEBEB"/>
<path d="M291.984 352.819H54.1089C52.2432 352.819 50.4539 352.069 49.1346 350.733C47.8154 349.397 47.0742 347.585 47.0742 345.696V7.06138C47.0905 5.18287 47.8388 3.3869 49.1563 2.0644C50.4738 0.741897 52.2538 -7.20185e-05 54.1089 5.24307e-09H291.984C293.849 5.24309e-09 295.639 0.750537 296.958 2.0865C298.277 3.42246 299.018 5.23442 299.018 7.12375V345.696C299.018 347.585 298.277 349.397 296.958 350.733C295.639 352.069 293.849 352.819 291.984 352.819ZM54.1089 0.24952C52.3259 0.252817 50.6168 0.971551 49.356 2.24831C48.0952 3.52506 47.3855 5.25577 47.3822 7.06138V345.696C47.3855 347.501 48.0952 349.232 49.356 350.509C50.6168 351.785 52.3259 352.504 54.1089 352.507H291.984C293.767 352.504 295.476 351.785 296.736 350.509C297.997 349.232 298.707 347.501 298.71 345.696V7.06138C298.707 5.25577 297.997 3.52506 296.736 2.24831C295.476 0.971551 293.767 0.252817 291.984 0.24952H54.1089Z" fill="#EBEBEB"/>
<path d="M558.481 352.819H320.582C318.717 352.816 316.929 352.064 315.611 350.729C314.292 349.394 313.55 347.584 313.547 345.696V7.06138C313.566 5.18389 314.316 3.38981 315.632 2.068C316.949 0.746196 318.727 0.00317923 320.582 0H558.481C560.332 0.00649309 562.105 0.751362 563.418 2.07316C564.73 3.39496 565.475 5.18718 565.491 7.06138V345.696C565.491 347.581 564.753 349.389 563.439 350.724C562.125 352.059 560.342 352.813 558.481 352.819ZM320.582 0.24952C318.799 0.252817 317.089 0.971551 315.829 2.24831C314.568 3.52506 313.858 5.25577 313.855 7.06138V345.696C313.858 347.501 314.568 349.232 315.829 350.509C317.089 351.785 318.799 352.504 320.582 352.507H558.481C560.264 352.504 561.973 351.785 563.234 350.509C564.494 349.232 565.204 347.501 565.208 345.696V7.06138C565.204 5.25577 564.494 3.52506 563.234 2.24831C561.973 0.971551 560.264 0.252817 558.481 0.24952H320.582Z" fill="#EBEBEB"/>
<path d="M616 408.462H0V408.774H616V408.462Z" fill="#EBEBEB"/>
<path d="M513.437 49.4922H359.695V215.285H513.437V49.4922Z" fill="#EBEBEB"/>
<path d="M504.195 58.8491H368.934V205.928H504.195V58.8491Z" fill="#F5F5F5"/>
<path d="M422.023 205.928H462.679L500.847 58.8491H460.191L422.023 205.928Z" fill="#FAFAFA"/>
<path d="M441.3 58.8491L403.133 205.928H412.989L451.156 58.8491H441.3Z" fill="#FAFAFA"/>
<path d="M515.37 57.29H357.748L354.422 49.4302H518.697L515.37 57.29Z" fill="#F5F5F5"/>
<path d="M515.37 61.8432H357.748L354.422 53.9834H518.697L515.37 61.8432Z" fill="#F0F0F0"/>
<path d="M515.37 66.3969H357.748L354.422 58.5371H518.697L515.37 66.3969Z" fill="#E6E6E6"/>
<path d="M515.37 70.9511H357.748L354.422 63.0913H518.697L515.37 70.9511Z" fill="#E0E0E0"/>
<path d="M524.44 39.5859H348.695V50.0657H524.44V39.5859Z" fill="#E0E0E0"/>
<path d="M350.493 145.083C350.02 145.083 349.565 144.892 349.23 144.553C348.895 144.214 348.707 143.753 348.707 143.274V82.1415C348.707 81.6617 348.895 81.2016 349.23 80.8624C349.565 80.5231 350.02 80.3325 350.493 80.3325C350.967 80.3325 351.422 80.5231 351.757 80.8624C352.092 81.2016 352.28 81.6617 352.28 82.1415V143.274C352.28 143.753 352.092 144.214 351.757 144.553C351.422 144.892 350.967 145.083 350.493 145.083Z" fill="#E0E0E0"/>
<path d="M351.133 47.9702H349.84V84.2752H351.133V47.9702Z" fill="#E0E0E0"/>
<path d="M111.518 46.2856H109.301V221.41H111.518V46.2856Z" fill="#E0E0E0"/>
<path d="M249.569 46.2856H247.352V221.41H249.569V46.2856Z" fill="#E0E0E0"/>
<path d="M258.262 57.29H100.615L97.2891 49.4302H261.576L258.262 57.29Z" fill="#F5F5F5"/>
<path d="M258.262 68.081H100.615L97.2891 60.2212H261.576L258.262 68.081Z" fill="#F5F5F5"/>
<path d="M258.262 78.8725H100.615L97.2891 71.0127H261.576L258.262 78.8725Z" fill="#F5F5F5"/>
<path d="M258.262 89.6645H100.615L97.2891 81.8047H261.576L258.262 89.6645Z" fill="#F5F5F5"/>
<path d="M258.262 100.456H100.615L97.2891 92.5962H261.576L258.262 100.456Z" fill="#F5F5F5"/>
<path d="M258.262 111.248H100.615L97.2891 103.388H261.576L258.262 111.248Z" fill="#F5F5F5"/>
<path d="M258.262 122.04H100.615L97.2891 114.18H261.576L258.262 122.04Z" fill="#F5F5F5"/>
<path d="M258.262 132.831H100.615L97.2891 124.971H261.576L258.262 132.831Z" fill="#F5F5F5"/>
<path d="M258.262 143.623H100.615L97.2891 135.763H261.576L258.262 143.623Z" fill="#F5F5F5"/>
<path d="M258.262 154.415H100.615L97.2891 146.555H261.576L258.262 154.415Z" fill="#F5F5F5"/>
<path d="M258.262 165.207H100.615L97.2891 157.347H261.576L258.262 165.207Z" fill="#F5F5F5"/>
<path d="M258.262 175.985H100.615L97.2891 168.125H261.576L258.262 175.985Z" fill="#F5F5F5"/>
<path d="M258.262 186.79H100.615L97.2891 178.917H261.576L258.262 186.79Z" fill="#F5F5F5"/>
<path d="M258.262 197.569H100.615L97.2891 189.709H261.576L258.262 197.569Z" fill="#F5F5F5"/>
<path d="M258.262 208.36H100.615L97.2891 200.5H261.576L258.262 208.36Z" fill="#F5F5F5"/>
<path d="M258.262 219.152H100.615L97.2891 211.292H261.576L258.262 219.152Z" fill="#F5F5F5"/>
<path d="M261.576 219.152H97.2891V223.644H261.576V219.152Z" fill="#E0E0E0"/>
<path d="M267.307 39.5859H91.5625V50.0657H267.307V39.5859Z" fill="#E0E0E0"/>
<path d="M93.3723 145.083C92.8986 145.083 92.4442 144.892 92.1092 144.553C91.7742 144.214 91.5859 143.753 91.5859 143.274V82.1415C91.5859 81.6617 91.7742 81.2016 92.1092 80.8624C92.4442 80.5231 92.8986 80.3325 93.3723 80.3325C93.8461 80.3325 94.3005 80.5231 94.6355 80.8624C94.9705 81.2016 95.1587 81.6617 95.1587 82.1415V143.274C95.1587 143.753 94.9705 144.214 94.6355 144.553C94.3005 144.892 93.8461 145.083 93.3723 145.083Z" fill="#E0E0E0"/>
<path d="M94.0123 47.9702H92.7188V84.2752H94.0123V47.9702Z" fill="#E0E0E0"/>
<path d="M110.045 333.581C109.897 333.743 110.722 334.916 107.347 334.405C99.0305 333.157 84.5545 329.726 80.5259 321.068C74.7724 308.704 92.6118 313.22 91.9958 306.895C91.3798 300.57 71.0518 301.668 68.9204 292.398C66.7891 283.129 80.5382 287.545 80.723 283.029C80.9078 278.512 65.0396 281.307 61.8857 271.301C58.7318 261.296 70.7315 268.669 69.3516 264.502C67.9718 260.335 54.5676 241.534 61.8487 239.35C69.1299 237.167 81.4622 256.467 86.2423 259.2C91.0225 261.932 95.2113 246.175 100.879 252.837C106.546 259.499 97.5521 282.779 104.772 287.283C110.155 290.651 108.64 281.382 115.736 283.116C125.334 285.462 122.094 319.933 110.045 333.581Z" fill="#EBEBEB"/>
<path d="M84.3769 283.079C86.8238 283.262 89.2375 283.761 91.5595 284.564C90.02 282.222 88.311 279.999 86.4467 277.914C86.3466 277.794 86.2949 277.64 86.3019 277.483C86.309 277.326 86.3743 277.178 86.4848 277.067C86.5953 276.957 86.7429 276.893 86.898 276.888C87.0531 276.883 87.2043 276.938 87.3214 277.041C91.3399 281.604 94.7792 286.659 97.5593 292.087C100.184 276.13 93.58 262.144 93.5061 262.045C93.4667 261.934 93.469 261.813 93.5126 261.705C93.5561 261.596 93.6378 261.508 93.7419 261.457C93.846 261.406 93.9651 261.395 94.0762 261.428C94.1874 261.46 94.2827 261.533 94.3438 261.633C94.4177 261.783 101.452 276.666 98.2616 293.409C99.1117 295.043 99.9741 296.803 100.812 298.686C103.793 305.403 106.148 312.386 107.847 319.546C110.924 313.668 112.611 307.146 112.775 300.495C112.776 300.435 112.79 300.375 112.814 300.32C112.838 300.264 112.873 300.214 112.917 300.173C112.96 300.131 113.011 300.098 113.067 300.077C113.123 300.055 113.183 300.045 113.243 300.046C113.304 300.048 113.365 300.062 113.421 300.087C113.477 300.112 113.528 300.149 113.57 300.194C113.613 300.239 113.646 300.292 113.668 300.35C113.69 300.409 113.7 300.471 113.699 300.533C113.551 307.664 111.659 314.647 108.191 320.856C111.335 334.946 112.386 349.432 111.308 363.836C111.304 363.918 111.283 363.998 111.248 364.072C111.212 364.146 111.163 364.212 111.102 364.266C111.042 364.321 110.971 364.362 110.894 364.389C110.818 364.416 110.736 364.427 110.655 364.422H110.582C110.432 364.395 110.299 364.311 110.208 364.189C110.116 364.066 110.074 363.914 110.089 363.761C111.604 341.304 108.302 323.326 103.719 309.678C101.176 306.694 97.6954 304.69 93.8633 304.001C93.7446 303.977 93.6393 303.908 93.5685 303.809C93.4977 303.709 93.4666 303.586 93.4814 303.465C93.489 303.404 93.5084 303.345 93.5387 303.292C93.5689 303.239 93.6093 303.192 93.6574 303.155C93.7056 303.118 93.7606 303.091 93.8192 303.075C93.8779 303.06 93.9389 303.057 93.9989 303.065C97.3595 303.653 100.477 305.223 102.968 307.582C100.305 299.988 96.783 292.733 92.4712 285.961C89.8728 284.861 87.1129 284.204 84.303 284.015C84.181 284.005 84.0675 283.947 83.9869 283.854C83.9063 283.761 83.865 283.639 83.8718 283.516C83.8748 283.453 83.8905 283.391 83.9179 283.335C83.9453 283.278 83.9838 283.228 84.0312 283.187C84.0785 283.146 84.1336 283.115 84.193 283.097C84.2525 283.078 84.3151 283.072 84.3769 283.079Z" fill="#F5F5F5"/>
<path d="M120.738 338.36C127.649 338.484 139.452 331.984 144.146 325.672C148.84 319.359 135.62 323.176 136.975 318.186C138.331 313.196 154.642 316.876 157.648 309.653C160.654 302.429 148.901 304.101 149.369 300.408C149.837 296.715 162.022 297.476 165.927 289.803C169.833 282.131 159.127 286.435 160.802 283.253C162.478 280.072 175.919 266.698 170.301 263.916C164.683 261.134 152.08 275.057 147.866 276.616C143.653 278.176 142.655 268.544 137.16 273.148C131.665 277.752 135.78 297.863 129.325 300.52C124.508 302.504 126.553 293.284 121.009 295.617C111.202 299.697 117.892 338.297 120.738 338.36Z" fill="#E0E0E0"/>
<g opacity="0.3">
<path opacity="0.3" d="M120.738 338.36C127.649 338.485 139.452 331.985 144.146 325.672C148.84 319.359 135.62 323.177 136.975 318.187C138.331 313.196 154.642 316.877 157.648 309.653C160.654 302.429 148.901 304.101 149.369 300.408C149.837 296.715 162.022 297.476 165.927 289.804C169.833 282.131 159.127 286.435 160.802 283.254C162.478 280.073 175.919 266.698 170.301 263.916C164.683 261.134 152.08 275.057 147.866 276.617C143.653 278.176 142.655 268.545 137.16 273.148C131.665 277.752 135.78 297.863 129.325 300.521C124.508 302.504 126.553 293.285 121.009 295.618C111.202 299.697 117.892 338.298 120.738 338.36Z" fill="#E0E0E0"/>
</g>
<path d="M122.979 329.963C122.874 329.925 122.787 329.849 122.732 329.751C120.098 323.896 119.028 317.443 119.628 311.037C119.624 310.97 119.634 310.902 119.658 310.838C119.682 310.775 119.719 310.718 119.767 310.67C119.815 310.622 119.872 310.586 119.935 310.563C119.998 310.539 120.066 310.53 120.132 310.536C120.199 310.541 120.264 310.561 120.323 310.594C120.381 310.627 120.432 310.672 120.472 310.727C120.512 310.782 120.539 310.844 120.553 310.911C120.567 310.977 120.567 311.046 120.552 311.112C120.036 317.193 120.996 323.309 123.348 328.928C126.205 321.123 129.725 313.585 133.87 306.396C132.638 291.425 140.251 279.074 140.325 278.949C140.391 278.845 140.494 278.771 140.613 278.745C140.732 278.718 140.857 278.74 140.96 278.806C141.063 278.872 141.136 278.977 141.162 279.097C141.189 279.218 141.167 279.344 141.102 279.448C136.698 287.193 134.486 296.016 134.707 304.949C139.675 296.32 145.603 288.295 152.374 281.033C152.43 280.968 152.498 280.915 152.575 280.879C152.652 280.842 152.735 280.821 152.82 280.819C152.905 280.816 152.989 280.831 153.068 280.863C153.147 280.895 153.218 280.943 153.278 281.004C153.337 281.065 153.384 281.138 153.414 281.219C153.445 281.299 153.458 281.385 153.455 281.471C153.451 281.556 153.429 281.641 153.392 281.718C153.354 281.795 153.302 281.863 153.237 281.919C148.234 287.249 143.718 293.029 139.746 299.185C143.908 297.598 148.321 296.795 152.769 296.815C152.891 296.821 153.005 296.876 153.088 296.967C153.171 297.058 153.215 297.178 153.212 297.301C153.209 297.422 153.159 297.536 153.074 297.62C152.989 297.704 152.875 297.751 152.756 297.751C147.976 297.71 143.236 298.648 138.822 300.508C136.101 304.739 133.593 309.107 131.307 313.595C133.163 312.291 135.277 311.41 137.502 311.014C139.726 310.618 142.01 310.715 144.194 311.299C144.313 311.332 144.414 311.41 144.476 311.517C144.539 311.625 144.557 311.753 144.527 311.873C144.511 311.933 144.484 311.988 144.447 312.037C144.409 312.085 144.363 312.126 144.31 312.156C144.258 312.186 144.199 312.206 144.139 312.213C144.079 312.22 144.018 312.215 143.96 312.198C141.592 311.581 139.111 311.563 136.734 312.146C134.358 312.729 132.16 313.895 130.334 315.541C122.39 331.487 117.861 348.952 117.041 366.792C117.034 366.953 116.967 367.106 116.852 367.217C116.737 367.329 116.584 367.391 116.425 367.391C116.265 367.391 116.112 367.329 115.998 367.217C115.883 367.106 115.815 366.953 115.809 366.792C116.326 354.217 118.744 341.796 122.979 329.963Z" fill="#F5F5F5"/>
<path d="M101.256 406.715C94.6648 394.164 90.3281 376.024 90.3281 368.039C90.36 364.784 91.0983 361.576 92.4907 358.641C93.8831 355.707 95.8955 353.119 98.3854 351.06H132.155C134.644 353.119 136.657 355.707 138.049 358.641C139.442 361.576 140.18 364.784 140.212 368.039C140.212 375.999 135.875 394.139 129.284 406.715H101.256Z" fill="#F0F0F0"/>
<path d="M302.064 460C433.99 460 540.936 453.677 540.936 445.878C540.936 438.078 433.99 431.755 302.064 431.755C170.138 431.755 63.1914 438.078 63.1914 445.878C63.1914 453.677 170.138 460 302.064 460Z" fill="#F5F5F5"/>
<path d="M360.548 80.6448H330.98C330.017 80.6655 329.089 81.0122 328.343 81.6295C327.597 82.2468 327.077 83.0992 326.866 84.0507L326.668 84.9864C326.158 87.3078 324.891 89.3879 323.072 90.8926C321.254 92.3972 318.988 93.2391 316.64 93.2829H288.55C286.322 93.3333 284.165 92.4892 282.549 90.9349C280.934 89.3806 279.991 87.2422 279.926 84.9864V84.0507C279.904 83.1264 279.52 82.2488 278.86 81.6104C278.199 80.9719 277.316 80.6247 276.403 80.6448H246.835C241.979 80.7322 237.322 82.6188 233.747 85.9477C230.171 89.2765 227.924 93.8169 227.431 98.7099L203.702 373.854C203.452 376.155 203.688 378.483 204.396 380.684C205.103 382.884 206.265 384.907 207.805 386.618C209.345 388.328 211.227 389.687 213.326 390.603C215.424 391.519 217.692 391.972 219.977 391.932H333.654C338.511 391.841 343.168 389.952 346.743 386.621C350.318 383.29 352.565 378.748 353.058 373.854L376.835 98.7099C377.084 96.4093 376.846 94.0814 376.137 91.8812C375.428 89.681 374.265 87.659 372.724 85.9498C371.183 84.2406 369.3 82.8835 367.201 81.9687C365.101 81.054 362.833 80.6027 360.548 80.6448Z" fill="#B843FF"/>
<path opacity="0.7" d="M360.548 80.6448H330.98C330.017 80.6655 329.089 81.0122 328.343 81.6295C327.597 82.2468 327.077 83.0992 326.866 84.0507L326.668 84.9864C326.158 87.3078 324.891 89.3879 323.072 90.8926C321.254 92.3972 318.988 93.2391 316.64 93.2829H288.55C286.322 93.3333 284.165 92.4892 282.549 90.9349C280.934 89.3806 279.991 87.2422 279.926 84.9864V84.0507C279.904 83.1264 279.52 82.2488 278.86 81.6104C278.199 80.9719 277.316 80.6247 276.403 80.6448H246.835C241.979 80.7322 237.322 82.6188 233.747 85.9477C230.171 89.2765 227.924 93.8169 227.431 98.7099L203.702 373.854C203.452 376.155 203.688 378.483 204.396 380.684C205.103 382.884 206.265 384.907 207.805 386.618C209.345 388.328 211.227 389.687 213.326 390.603C215.424 391.519 217.692 391.972 219.977 391.932H333.654C338.511 391.841 343.168 389.952 346.743 386.621C350.318 383.29 352.565 378.748 353.058 373.854L376.835 98.7099C377.084 96.4093 376.846 94.0814 376.137 91.8812C375.428 89.681 374.265 87.659 372.724 85.9498C371.183 84.2406 369.3 82.8835 367.201 81.9687C365.101 81.054 362.833 80.6027 360.548 80.6448Z" fill="white"/>
<path d="M349.03 207.2H288.662C288.154 207.209 287.65 207.108 287.184 206.904C286.718 206.7 286.3 206.398 285.957 206.018C285.615 205.639 285.356 205.189 285.198 204.701C285.04 204.212 284.986 203.695 285.04 203.183L289.586 150.547C289.694 149.459 290.193 148.449 290.988 147.709C291.783 146.968 292.818 146.549 293.898 146.53H354.266C354.774 146.52 355.279 146.62 355.746 146.823C356.214 147.026 356.633 147.328 356.976 147.708C357.319 148.088 357.577 148.538 357.735 149.028C357.892 149.517 357.944 150.035 357.888 150.547L353.342 203.183C353.231 204.27 352.731 205.279 351.937 206.019C351.143 206.759 350.109 207.179 349.03 207.2Z" fill="white"/>
<path d="M328.946 371.783H227.922C226.66 371.807 225.407 371.558 224.247 371.053C223.087 370.547 222.047 369.797 221.196 368.853C220.345 367.908 219.703 366.791 219.312 365.575C218.921 364.36 218.79 363.073 218.929 361.803C219.202 359.1 220.444 356.592 222.418 354.754C224.393 352.915 226.965 351.872 229.647 351.822H330.671C331.933 351.798 333.186 352.047 334.346 352.553C335.506 353.058 336.546 353.808 337.397 354.752C338.248 355.697 338.891 356.814 339.282 358.03C339.673 359.246 339.803 360.532 339.665 361.803C339.394 364.506 338.153 367.015 336.178 368.855C334.202 370.694 331.629 371.736 328.946 371.783Z" fill="white"/>
<path d="M336.994 132.058H244.311C243.6 132.08 242.893 131.946 242.239 131.665C241.585 131.384 240.998 130.963 240.519 130.431C240.041 129.899 239.681 129.268 239.466 128.582C239.251 127.896 239.184 127.171 239.272 126.456L240.023 117.723C240.179 116.209 240.877 114.805 241.984 113.776C243.092 112.746 244.532 112.162 246.035 112.134H338.719C339.426 112.121 340.128 112.261 340.778 112.544C341.429 112.827 342.012 113.246 342.49 113.775C342.967 114.303 343.328 114.929 343.549 115.61C343.77 116.29 343.845 117.011 343.77 117.723L343.006 126.456C342.853 127.973 342.157 129.38 341.049 130.412C339.941 131.444 338.499 132.03 336.994 132.058Z" fill="white"/>
<path d="M355.842 117.424C355.8 117.846 355.606 118.239 355.297 118.526C354.988 118.814 354.586 118.976 354.166 118.983C353.969 118.986 353.774 118.947 353.593 118.868C353.412 118.788 353.25 118.671 353.117 118.524C352.985 118.376 352.884 118.202 352.823 118.012C352.762 117.823 352.741 117.622 352.762 117.424C352.804 117.002 352.999 116.612 353.308 116.326C353.617 116.041 354.019 115.881 354.437 115.877C354.634 115.872 354.829 115.91 355.01 115.988C355.19 116.066 355.353 116.182 355.486 116.328C355.619 116.475 355.719 116.648 355.781 116.837C355.842 117.026 355.863 117.226 355.842 117.424Z" fill="white"/>
<path d="M355.435 122.089C355.396 122.511 355.204 122.903 354.897 123.191C354.591 123.478 354.19 123.642 353.772 123.649C353.575 123.652 353.379 123.612 353.199 123.533C353.018 123.454 352.856 123.337 352.723 123.189C352.59 123.042 352.49 122.868 352.428 122.678C352.367 122.488 352.346 122.288 352.367 122.089C352.407 121.668 352.598 121.276 352.905 120.988C353.212 120.7 353.612 120.537 354.03 120.53C354.227 120.527 354.423 120.567 354.604 120.646C354.784 120.725 354.947 120.842 355.079 120.99C355.212 121.137 355.312 121.311 355.374 121.501C355.435 121.69 355.456 121.891 355.435 122.089Z" fill="white"/>
<path d="M355.041 126.744C354.999 127.166 354.805 127.559 354.496 127.846C354.187 128.134 353.785 128.296 353.366 128.303C353.169 128.306 352.973 128.267 352.792 128.187C352.612 128.108 352.449 127.991 352.317 127.844C352.184 127.696 352.084 127.522 352.022 127.332C351.961 127.143 351.94 126.942 351.961 126.744C352.003 126.321 352.197 125.929 352.506 125.641C352.815 125.354 353.217 125.191 353.637 125.184C353.834 125.181 354.029 125.221 354.21 125.3C354.39 125.379 354.553 125.496 354.685 125.644C354.818 125.791 354.918 125.966 354.98 126.155C355.041 126.345 355.062 126.545 355.041 126.744Z" fill="white"/>
<path d="M341.526 294.033H228.761C228.253 294.044 227.748 293.944 227.281 293.741C226.813 293.538 226.394 293.236 226.052 292.856C225.709 292.475 225.45 292.025 225.293 291.536C225.135 291.046 225.083 290.528 225.139 290.016L230.387 229.944C230.496 228.856 230.995 227.846 231.789 227.106C232.584 226.366 233.62 225.946 234.699 225.927H347.427C347.935 225.919 348.438 226.02 348.904 226.224C349.37 226.428 349.787 226.73 350.129 227.11C350.47 227.49 350.728 227.939 350.885 228.428C351.041 228.917 351.093 229.434 351.037 229.944L345.85 290.016C345.742 291.106 345.241 292.118 344.444 292.859C343.646 293.599 342.608 294.017 341.526 294.033Z" fill="white"/>
<path d="M259.785 306.584H224.673C224.55 306.587 224.428 306.562 224.315 306.513C224.202 306.464 224.1 306.391 224.018 306.299C223.935 306.206 223.872 306.097 223.835 305.979C223.797 305.86 223.785 305.735 223.799 305.611C223.823 305.345 223.943 305.097 224.136 304.915C224.329 304.734 224.582 304.63 224.846 304.625H259.958C260.082 304.622 260.205 304.647 260.32 304.697C260.434 304.747 260.536 304.821 260.619 304.915C260.702 305.008 260.764 305.119 260.801 305.239C260.838 305.359 260.849 305.486 260.833 305.611C260.806 305.875 260.684 306.119 260.491 306.298C260.298 306.478 260.047 306.579 259.785 306.584Z" fill="white"/>
<path d="M303.669 306.584H265.983C265.859 306.588 265.735 306.566 265.62 306.517C265.506 306.469 265.403 306.396 265.319 306.304C265.234 306.211 265.171 306.101 265.132 305.982C265.094 305.862 265.081 305.736 265.096 305.611C265.12 305.345 265.24 305.097 265.433 304.915C265.626 304.734 265.879 304.63 266.143 304.625H303.842C303.966 304.622 304.09 304.647 304.204 304.697C304.318 304.747 304.42 304.821 304.503 304.915C304.586 305.008 304.648 305.119 304.685 305.239C304.722 305.359 304.733 305.486 304.717 305.611C304.69 305.875 304.568 306.119 304.375 306.298C304.182 306.478 303.931 306.579 303.669 306.584Z" fill="white"/>
<path d="M247.635 315.254H223.932C223.807 315.257 223.683 315.233 223.569 315.183C223.454 315.133 223.351 315.059 223.267 314.965C223.183 314.872 223.12 314.762 223.082 314.642C223.043 314.521 223.031 314.394 223.045 314.269C223.071 314.004 223.192 313.758 223.385 313.576C223.578 313.395 223.829 313.291 224.092 313.283H247.845C247.969 313.283 248.092 313.308 248.205 313.359C248.319 313.409 248.421 313.484 248.505 313.576C248.588 313.669 248.652 313.779 248.691 313.898C248.73 314.017 248.744 314.144 248.732 314.269C248.704 314.542 248.576 314.795 248.373 314.978C248.17 315.16 247.907 315.259 247.635 315.254Z" fill="white"/>
<path d="M292.776 315.255H253.869C253.745 315.257 253.621 315.233 253.506 315.183C253.392 315.133 253.289 315.059 253.205 314.966C253.121 314.872 253.057 314.762 253.019 314.642C252.981 314.522 252.968 314.394 252.982 314.269C253.009 314.002 253.132 313.754 253.327 313.573C253.522 313.391 253.777 313.288 254.042 313.283H292.936C293.061 313.281 293.184 313.305 293.299 313.355C293.414 313.405 293.516 313.479 293.6 313.572C293.684 313.666 293.748 313.776 293.786 313.896C293.824 314.016 293.837 314.144 293.823 314.269C293.799 314.535 293.679 314.783 293.485 314.964C293.292 315.146 293.039 315.25 292.776 315.255Z" fill="white"/>
<path d="M286.49 323.913H223.178C223.054 323.917 222.93 323.894 222.816 323.846C222.701 323.798 222.598 323.725 222.514 323.632C222.43 323.54 222.366 323.43 222.328 323.311C222.289 323.191 222.277 323.065 222.291 322.94C222.318 322.673 222.441 322.425 222.636 322.243C222.831 322.062 223.085 321.959 223.35 321.954H286.663C286.787 321.954 286.91 321.979 287.024 322.03C287.137 322.08 287.239 322.154 287.323 322.247C287.406 322.34 287.47 322.45 287.509 322.569C287.548 322.688 287.562 322.815 287.55 322.94C287.52 323.205 287.396 323.449 287.201 323.628C287.006 323.807 286.754 323.909 286.49 323.913Z" fill="white"/>
<path d="M296.917 323.913H292.74C292.616 323.917 292.493 323.895 292.378 323.846C292.264 323.798 292.161 323.725 292.076 323.633C291.992 323.54 291.929 323.431 291.89 323.311C291.852 323.191 291.839 323.065 291.853 322.94C291.878 322.674 291.998 322.426 292.191 322.244C292.384 322.063 292.637 321.959 292.901 321.954H297.089C297.214 321.951 297.337 321.976 297.451 322.026C297.565 322.076 297.667 322.15 297.75 322.244C297.833 322.337 297.895 322.448 297.932 322.568C297.969 322.688 297.98 322.815 297.964 322.94C297.937 323.204 297.816 323.448 297.623 323.628C297.43 323.807 297.179 323.908 296.917 323.913Z" fill="white"/>
<path d="M251.983 332.584H222.415C222.291 332.584 222.168 332.558 222.054 332.508C221.94 332.457 221.838 332.383 221.755 332.291C221.671 332.198 221.608 332.088 221.569 331.969C221.53 331.849 221.516 331.723 221.528 331.598C221.555 331.331 221.677 331.083 221.873 330.902C222.068 330.72 222.322 330.617 222.587 330.612H252.155C252.28 330.61 252.404 330.634 252.518 330.684C252.633 330.734 252.736 330.808 252.82 330.901C252.904 330.995 252.967 331.105 253.005 331.225C253.044 331.346 253.056 331.473 253.042 331.598C253.015 331.865 252.892 332.113 252.697 332.295C252.502 332.476 252.248 332.579 251.983 332.584Z" fill="white"/>
<path d="M294.996 332.584H258.184C258.06 332.584 257.937 332.558 257.824 332.508C257.71 332.457 257.608 332.383 257.524 332.291C257.441 332.198 257.377 332.088 257.338 331.969C257.299 331.849 257.285 331.723 257.297 331.598C257.324 331.331 257.447 331.083 257.642 330.902C257.837 330.72 258.092 330.617 258.357 330.612H295.157C295.281 330.61 295.405 330.634 295.52 330.684C295.634 330.734 295.737 330.808 295.821 330.901C295.905 330.995 295.968 331.105 296.007 331.225C296.045 331.346 296.058 331.473 296.044 331.598C296.017 331.863 295.896 332.109 295.703 332.29C295.51 332.472 295.259 332.576 294.996 332.584Z" fill="white"/>
<path d="M258.084 341.242H221.679C221.555 341.245 221.431 341.221 221.317 341.171C221.203 341.121 221.101 341.047 221.018 340.953C220.935 340.86 220.873 340.749 220.836 340.629C220.799 340.508 220.788 340.382 220.804 340.257C220.831 339.993 220.953 339.749 221.145 339.569C221.338 339.39 221.589 339.288 221.851 339.284H258.245C258.369 339.279 258.492 339.302 258.607 339.35C258.721 339.399 258.824 339.472 258.909 339.564C258.993 339.657 259.056 339.766 259.095 339.886C259.133 340.005 259.146 340.132 259.132 340.257C259.107 340.523 258.987 340.77 258.794 340.952C258.601 341.134 258.348 341.237 258.084 341.242Z" fill="white"/>
<path d="M293.586 341.242H264.265C264.14 341.245 264.017 341.221 263.903 341.171C263.789 341.121 263.687 341.047 263.604 340.953C263.521 340.86 263.459 340.749 263.422 340.629C263.385 340.508 263.374 340.382 263.39 340.257C263.417 339.993 263.538 339.749 263.731 339.569C263.924 339.39 264.175 339.288 264.437 339.284H293.759C293.883 339.279 294.006 339.302 294.121 339.35C294.236 339.399 294.339 339.472 294.423 339.564C294.507 339.657 294.571 339.766 294.609 339.886C294.648 340.005 294.66 340.132 294.646 340.257C294.619 340.524 294.496 340.772 294.301 340.953C294.106 341.135 293.851 341.238 293.586 341.242Z" fill="white"/>
<path d="M347.6 202.21C347.493 202.335 347.362 202.437 347.216 202.51C347.07 202.583 346.911 202.626 346.748 202.637C346.586 202.647 346.422 202.625 346.268 202.571C346.114 202.517 345.972 202.433 345.85 202.323L295.425 153.592C295.195 153.358 295.066 153.042 295.066 152.712C295.066 152.382 295.195 152.066 295.425 151.833C295.532 151.708 295.662 151.606 295.808 151.533C295.954 151.46 296.113 151.417 296.276 151.406C296.439 151.396 296.602 151.418 296.756 151.472C296.91 151.526 297.052 151.61 297.174 151.72L347.6 200.451C347.829 200.685 347.958 201.001 347.958 201.331C347.958 201.66 347.829 201.977 347.6 202.21Z" fill="#B843FF"/>
<path d="M290.961 202.198C290.861 202.065 290.788 201.914 290.746 201.752C290.705 201.59 290.696 201.422 290.72 201.257C290.744 201.091 290.801 200.933 290.887 200.79C290.973 200.647 291.086 200.524 291.22 200.426L316.944 179.13C317.188 178.916 317.506 178.807 317.829 178.828C318.152 178.849 318.453 178.998 318.669 179.242C318.767 179.374 318.838 179.525 318.879 179.685C318.919 179.846 318.927 180.013 318.903 180.176C318.879 180.34 318.823 180.497 318.738 180.639C318.654 180.781 318.542 180.904 318.41 181.001L292.686 202.31C292.441 202.524 292.123 202.633 291.801 202.612C291.478 202.591 291.176 202.442 290.961 202.198Z" fill="#B843FF"/>
<path d="M324.205 174.663C324.107 174.531 324.035 174.38 323.995 174.22C323.955 174.059 323.946 173.892 323.97 173.729C323.995 173.565 324.051 173.408 324.135 173.266C324.22 173.125 324.332 173.001 324.464 172.904L350.237 151.57C350.482 151.356 350.8 151.248 351.122 151.269C351.445 151.29 351.746 151.438 351.962 151.682C352.06 151.815 352.132 151.965 352.172 152.126C352.212 152.286 352.221 152.453 352.196 152.617C352.172 152.781 352.116 152.938 352.032 153.079C351.947 153.221 351.835 153.344 351.703 153.442L325.93 174.775C325.685 174.99 325.367 175.098 325.045 175.077C324.722 175.056 324.42 174.907 324.205 174.663Z" fill="#B843FF"/>
<g opacity="0.7">
<path opacity="0.7" d="M347.604 202.211C347.497 202.335 347.366 202.437 347.22 202.51C347.074 202.584 346.915 202.627 346.752 202.637C346.589 202.648 346.426 202.625 346.272 202.571C346.118 202.517 345.976 202.433 345.854 202.323L295.429 153.592C295.199 153.358 295.07 153.042 295.07 152.713C295.07 152.383 295.199 152.067 295.429 151.833C295.536 151.708 295.666 151.607 295.812 151.533C295.958 151.46 296.117 151.417 296.28 151.407C296.443 151.396 296.606 151.419 296.76 151.473C296.914 151.527 297.056 151.611 297.178 151.721L347.604 200.452C347.833 200.685 347.962 201.002 347.962 201.331C347.962 201.661 347.833 201.977 347.604 202.211Z" fill="white"/>
</g>
<g opacity="0.7">
<path opacity="0.7" d="M290.965 202.198C290.865 202.065 290.792 201.914 290.75 201.752C290.709 201.59 290.7 201.422 290.724 201.257C290.748 201.091 290.805 200.933 290.891 200.79C290.977 200.647 291.09 200.524 291.224 200.426L316.948 179.13C317.192 178.916 317.51 178.807 317.833 178.828C318.156 178.849 318.457 178.998 318.673 179.242C318.771 179.374 318.842 179.525 318.883 179.685C318.923 179.846 318.931 180.013 318.907 180.176C318.883 180.34 318.827 180.497 318.742 180.639C318.658 180.781 318.546 180.904 318.414 181.001L292.69 202.31C292.445 202.524 292.127 202.633 291.805 202.612C291.482 202.591 291.18 202.442 290.965 202.198Z" fill="white"/>
</g>
<g opacity="0.7">
<path opacity="0.7" d="M324.201 174.664C324.103 174.531 324.031 174.381 323.991 174.22C323.951 174.06 323.942 173.893 323.967 173.729C323.991 173.565 324.047 173.408 324.131 173.267C324.216 173.125 324.328 173.002 324.46 172.905L350.233 151.571C350.478 151.356 350.796 151.248 351.118 151.269C351.441 151.29 351.743 151.439 351.958 151.683C352.056 151.815 352.128 151.966 352.168 152.126C352.208 152.287 352.217 152.454 352.193 152.617C352.168 152.781 352.112 152.938 352.028 153.08C351.943 153.222 351.831 153.345 351.699 153.442L325.926 174.776C325.681 174.99 325.363 175.098 325.041 175.077C324.718 175.056 324.416 174.908 324.201 174.664Z" fill="white"/>
</g>
<path d="M204.196 74.6558H188.18C186.628 74.6624 185.143 75.291 184.049 76.404C182.954 77.517 182.34 79.0237 182.34 80.5944V96.8131C182.34 98.3881 182.958 99.8986 184.057 101.012C185.157 102.126 186.649 102.752 188.204 102.752H204.22C205.775 102.752 207.267 102.126 208.367 101.012C209.467 99.8986 210.084 98.3881 210.084 96.8131V80.5944C210.084 79.8124 209.932 79.0381 209.636 78.316C209.339 77.5939 208.905 76.9381 208.358 76.3863C207.811 75.8346 207.162 75.3977 206.447 75.1007C205.733 74.8037 204.968 74.6525 204.196 74.6558ZM196.224 80.3947C198.627 80.3947 199.92 82.3784 199.92 84.8112C199.92 87.244 198.627 89.2277 196.224 89.2277C193.822 89.2277 192.528 87.2565 192.528 84.8112C192.528 82.3659 193.81 80.3947 196.224 80.3947ZM205.846 96.9503H186.59C186.513 96.9505 186.436 96.9352 186.364 96.9052C186.292 96.8752 186.226 96.8312 186.171 96.7757L187.403 93.3697C187.788 92.2956 188.49 91.3674 189.413 90.7112C190.337 90.055 191.437 89.7026 192.565 89.7018H199.847C200.976 89.7018 202.079 90.0537 203.005 90.7099C203.93 91.366 204.634 92.2946 205.021 93.3697L206.253 96.7757C206.2 96.8308 206.137 96.8747 206.067 96.9047C205.997 96.9347 205.922 96.9502 205.846 96.9503Z" fill="#B843FF"/>
<path opacity="0.7" d="M204.196 74.6558H188.18C186.628 74.6624 185.143 75.291 184.049 76.404C182.954 77.517 182.34 79.0237 182.34 80.5944V96.8131C182.34 98.3881 182.958 99.8986 184.057 101.012C185.157 102.126 186.649 102.752 188.204 102.752H204.22C205.775 102.752 207.267 102.126 208.367 101.012C209.467 99.8986 210.084 98.3881 210.084 96.8131V80.5944C210.084 79.8124 209.932 79.0381 209.636 78.316C209.339 77.5939 208.905 76.9381 208.358 76.3863C207.811 75.8346 207.162 75.3977 206.447 75.1007C205.733 74.8037 204.968 74.6525 204.196 74.6558ZM196.224 80.3947C198.627 80.3947 199.92 82.3784 199.92 84.8112C199.92 87.244 198.627 89.2277 196.224 89.2277C193.822 89.2277 192.528 87.2565 192.528 84.8112C192.528 82.3659 193.81 80.3947 196.224 80.3947ZM205.846 96.9503H186.59C186.513 96.9505 186.436 96.9352 186.364 96.9052C186.292 96.8752 186.226 96.8312 186.171 96.7757L187.403 93.3697C187.788 92.2956 188.49 91.3674 189.413 90.7112C190.337 90.055 191.437 89.7026 192.565 89.7018H199.847C200.976 89.7018 202.079 90.0537 203.005 90.7099C203.93 91.366 204.634 92.2946 205.021 93.3697L206.253 96.7757C206.2 96.8308 206.137 96.8747 206.067 96.9047C205.997 96.9347 205.922 96.9502 205.846 96.9503Z" fill="white"/>
<path d="M147.426 141.127H135.303C134.267 141.126 133.24 141.331 132.282 141.732C131.324 142.132 130.453 142.72 129.72 143.462C128.987 144.203 128.405 145.084 128.008 146.054C127.611 147.023 127.406 148.062 127.406 149.112V161.388C127.406 163.509 128.238 165.543 129.719 167.043C131.2 168.543 133.209 169.385 135.303 169.385H147.426C148.463 169.385 149.489 169.179 150.446 168.776C151.404 168.374 152.274 167.785 153.006 167.042C153.738 166.3 154.319 165.418 154.714 164.448C155.11 163.478 155.313 162.438 155.311 161.388V149.112C155.313 148.063 155.11 147.024 154.714 146.055C154.318 145.085 153.738 144.204 153.005 143.462C152.273 142.721 151.403 142.133 150.446 141.732C149.488 141.331 148.462 141.126 147.426 141.127ZM141.365 161.95C141.365 161.95 136.437 156.473 136.437 153.678C136.437 152.34 136.962 151.056 137.896 150.11C138.831 149.163 140.099 148.632 141.42 148.632C142.742 148.632 144.009 149.163 144.944 150.11C145.879 151.056 146.404 152.34 146.404 153.678C146.342 156.473 141.365 161.95 141.365 161.95Z" fill="#B843FF"/>
<path d="M141.362 151.383C140.91 151.38 140.468 151.514 140.091 151.767C139.714 152.019 139.42 152.38 139.246 152.802C139.072 153.224 139.026 153.689 139.114 154.138C139.201 154.587 139.418 154.999 139.738 155.323C140.057 155.646 140.465 155.867 140.908 155.955C141.351 156.044 141.81 155.997 142.227 155.821C142.644 155.645 143 155.347 143.25 154.965C143.499 154.584 143.631 154.136 143.629 153.678C143.629 153.07 143.39 152.486 142.965 152.055C142.54 151.625 141.963 151.383 141.362 151.383Z" fill="#B843FF"/>
<g opacity="0.7">
<path opacity="0.7" d="M147.426 141.128H135.303C134.267 141.126 133.24 141.332 132.282 141.732C131.324 142.133 130.453 142.721 129.72 143.462C128.987 144.204 128.405 145.085 128.008 146.054C127.611 147.024 127.406 148.063 127.406 149.113V161.389C127.406 163.51 128.238 165.544 129.719 167.044C131.2 168.543 133.209 169.386 135.303 169.386H147.426C148.463 169.386 149.489 169.179 150.446 168.777C151.404 168.375 152.274 167.786 153.006 167.043C153.738 166.3 154.319 165.418 154.714 164.448C155.11 163.478 155.313 162.438 155.311 161.389V149.113C155.313 148.064 155.11 147.025 154.714 146.055C154.318 145.086 153.738 144.205 153.005 143.463C152.273 142.721 151.403 142.133 150.446 141.732C149.488 141.332 148.462 141.126 147.426 141.128ZM141.365 161.95C141.365 161.95 136.437 156.473 136.437 153.679C136.437 152.34 136.962 151.057 137.896 150.11C138.831 149.164 140.099 148.632 141.42 148.632C142.742 148.632 144.009 149.164 144.944 150.11C145.879 151.057 146.404 152.34 146.404 153.679C146.342 156.473 141.365 161.95 141.365 161.95Z" fill="white"/>
<path opacity="0.7" d="M141.362 151.383C140.91 151.381 140.468 151.514 140.091 151.767C139.714 152.02 139.42 152.38 139.246 152.802C139.072 153.225 139.026 153.69 139.114 154.139C139.201 154.587 139.418 155 139.738 155.323C140.057 155.647 140.465 155.867 140.908 155.956C141.351 156.044 141.81 155.998 142.227 155.821C142.644 155.645 143 155.347 143.25 154.966C143.499 154.584 143.631 154.136 143.629 153.679C143.629 153.07 143.39 152.486 142.965 152.056C142.54 151.625 141.963 151.383 141.362 151.383Z" fill="white"/>
</g>
<path d="M413.586 106.332L421.705 101.018L413.586 95.6904V106.332Z" fill="#B843FF"/>
<path d="M424.046 86.5078H408.572C406.824 86.5078 405.147 87.2111 403.911 88.4628C402.675 89.7145 401.98 91.4122 401.98 93.1825V108.852C401.984 110.621 402.679 112.317 403.915 113.568C405.15 114.819 406.825 115.524 408.572 115.527H424.046C425.794 115.527 427.47 114.824 428.706 113.572C429.942 112.32 430.637 110.622 430.637 108.852V93.1825C430.638 92.3055 430.469 91.4368 430.138 90.6262C429.808 89.8157 429.322 89.0792 428.71 88.4591C428.098 87.839 427.37 87.3474 426.57 87.0126C425.769 86.6777 424.912 86.5062 424.046 86.5078ZM416.309 111.46C414.269 111.46 412.274 110.847 410.578 109.699C408.882 108.551 407.561 106.919 406.781 105.011C406 103.102 405.797 101.002 406.196 98.9755C406.595 96.9496 407.578 95.0889 409.021 93.6291C410.465 92.1692 412.303 91.1756 414.304 90.7741C416.306 90.3726 418.379 90.5812 420.263 91.3734C422.147 92.1657 423.757 93.5061 424.889 95.2249C426.02 96.9438 426.623 98.964 426.62 101.03C426.619 102.399 426.351 103.755 425.832 105.02C425.313 106.285 424.553 107.434 423.595 108.401C422.638 109.369 421.501 110.135 420.251 110.658C419.001 111.181 417.661 111.449 416.309 111.447V111.46Z" fill="#B843FF"/>
<g opacity="0.7">
<path opacity="0.7" d="M413.586 106.332L421.705 101.018L413.586 95.6904V106.332Z" fill="white"/>
<path opacity="0.7" d="M424.046 86.5078H408.572C406.824 86.5078 405.147 87.2111 403.911 88.4628C402.675 89.7145 401.98 91.4122 401.98 93.1825V108.852C401.984 110.621 402.679 112.317 403.915 113.568C405.15 114.819 406.825 115.524 408.572 115.527H424.046C425.794 115.527 427.47 114.824 428.706 113.572C429.942 112.32 430.637 110.622 430.637 108.852V93.1825C430.638 92.3055 430.469 91.4368 430.138 90.6262C429.808 89.8157 429.322 89.0792 428.71 88.4591C428.098 87.839 427.37 87.3474 426.57 87.0126C425.769 86.6777 424.912 86.5062 424.046 86.5078ZM416.309 111.46C414.269 111.46 412.274 110.847 410.578 109.699C408.882 108.551 407.561 106.919 406.781 105.011C406 103.102 405.797 101.002 406.196 98.9755C406.595 96.9496 407.578 95.0889 409.021 93.6291C410.465 92.1692 412.303 91.1756 414.304 90.7741C416.306 90.3726 418.379 90.5812 420.263 91.3734C422.147 92.1657 423.757 93.5061 424.889 95.2249C426.02 96.9438 426.623 98.964 426.62 101.03C426.619 102.399 426.351 103.755 425.832 105.02C425.313 106.285 424.553 107.434 423.595 108.401C422.638 109.369 421.501 110.135 420.251 110.658C419.001 111.181 417.661 111.449 416.309 111.447V111.46Z" fill="white"/>
</g>
<path d="M439.231 146.605C439.231 146.281 439.231 145.956 439.231 145.644L441.092 144.596C440.956 143.704 440.725 142.83 440.402 141.989H438.283C438.013 141.403 437.692 140.844 437.322 140.317L438.418 138.483C437.856 137.779 437.225 137.135 436.533 136.562L434.71 137.672C434.192 137.304 433.644 136.983 433.071 136.711V134.553C432.238 134.234 431.375 134 430.496 133.854L429.462 135.738C429.154 135.738 428.833 135.738 428.513 135.738C428.193 135.738 427.885 135.738 427.564 135.738L426.529 133.854C425.651 134.003 424.789 134.237 423.955 134.553V136.711C423.38 136.98 422.832 137.302 422.316 137.672L420.493 136.562C419.794 137.132 419.158 137.776 418.595 138.483L419.692 140.317C419.33 140.847 419.013 141.406 418.743 141.989H416.624C416.303 142.831 416.067 143.705 415.922 144.596L417.782 145.644C417.782 145.956 417.782 146.281 417.782 146.605C417.782 146.929 417.782 147.254 417.782 147.566L415.922 148.614C416.066 149.505 416.301 150.379 416.624 151.221H418.743C419.013 151.804 419.33 152.363 419.692 152.893L418.595 154.739C419.162 155.439 419.797 156.079 420.493 156.648L422.316 155.538C422.829 155.913 423.378 156.234 423.955 156.498V158.657C424.787 158.978 425.65 159.212 426.529 159.355L427.564 157.471C427.885 157.471 428.193 157.471 428.513 157.471C428.833 157.471 429.154 157.471 429.462 157.471L430.496 159.355C431.377 159.216 432.24 158.981 433.071 158.657V156.498C433.646 156.232 434.195 155.91 434.71 155.538L436.533 156.648C437.222 156.076 437.853 155.436 438.418 154.739L437.322 152.893C437.692 152.366 438.013 151.807 438.283 151.221H440.402C440.726 150.38 440.958 149.506 441.092 148.614L439.231 147.566C439.207 147.216 439.231 146.929 439.231 146.605ZM428.488 153.991C427.046 153.991 425.636 153.557 424.436 152.746C423.237 151.934 422.302 150.781 421.75 149.431C421.198 148.082 421.054 146.597 421.335 145.164C421.616 143.731 422.311 142.415 423.331 141.382C424.351 140.349 425.651 139.646 427.065 139.361C428.48 139.076 429.947 139.222 431.279 139.781C432.612 140.34 433.751 141.287 434.553 142.502C435.354 143.716 435.782 145.144 435.782 146.605C435.782 148.564 435.013 150.442 433.646 151.827C432.278 153.213 430.423 153.991 428.488 153.991Z" fill="#B843FF"/>
<path opacity="0.7" d="M439.231 146.605C439.231 146.281 439.231 145.956 439.231 145.644L441.092 144.596C440.956 143.704 440.725 142.83 440.402 141.989H438.283C438.013 141.403 437.692 140.844 437.322 140.317L438.418 138.483C437.856 137.779 437.225 137.135 436.533 136.562L434.71 137.672C434.192 137.304 433.644 136.983 433.071 136.711V134.553C432.238 134.234 431.375 134 430.496 133.854L429.462 135.738C429.154 135.738 428.833 135.738 428.513 135.738C428.193 135.738 427.885 135.738 427.564 135.738L426.529 133.854C425.651 134.003 424.789 134.237 423.955 134.553V136.711C423.38 136.98 422.832 137.302 422.316 137.672L420.493 136.562C419.794 137.132 419.158 137.776 418.595 138.483L419.692 140.317C419.33 140.847 419.013 141.406 418.743 141.989H416.624C416.303 142.831 416.067 143.705 415.922 144.596L417.782 145.644C417.782 145.956 417.782 146.281 417.782 146.605C417.782 146.929 417.782 147.254 417.782 147.566L415.922 148.614C416.066 149.505 416.301 150.379 416.624 151.221H418.743C419.013 151.804 419.33 152.363 419.692 152.893L418.595 154.739C419.162 155.439 419.797 156.079 420.493 156.648L422.316 155.538C422.829 155.913 423.378 156.234 423.955 156.498V158.657C424.787 158.978 425.65 159.212 426.529 159.355L427.564 157.471C427.885 157.471 428.193 157.471 428.513 157.471C428.833 157.471 429.154 157.471 429.462 157.471L430.496 159.355C431.377 159.216 432.24 158.981 433.071 158.657V156.498C433.646 156.232 434.195 155.91 434.71 155.538L436.533 156.648C437.222 156.076 437.853 155.436 438.418 154.739L437.322 152.893C437.692 152.366 438.013 151.807 438.283 151.221H440.402C440.726 150.38 440.958 149.506 441.092 148.614L439.231 147.566C439.207 147.216 439.231 146.929 439.231 146.605ZM428.488 153.991C427.046 153.991 425.636 153.557 424.436 152.746C423.237 151.934 422.302 150.781 421.75 149.431C421.198 148.082 421.054 146.597 421.335 145.164C421.616 143.731 422.311 142.415 423.331 141.382C424.351 140.349 425.651 139.646 427.065 139.361C428.48 139.076 429.947 139.222 431.279 139.781C432.612 140.34 433.751 141.287 434.553 142.502C435.354 143.716 435.782 145.144 435.782 146.605C435.782 148.564 435.013 150.442 433.646 151.827C432.278 153.213 430.423 153.991 428.488 153.991Z" fill="white"/>
<path d="M411.157 183.696C411.157 183.209 411.157 182.735 411.095 182.261L413.879 180.702C413.67 179.363 413.323 178.05 412.845 176.784L409.666 176.847C409.265 175.973 408.786 175.138 408.237 174.351L409.875 171.594C409.036 170.545 408.091 169.587 407.054 168.737L404.331 170.384C403.552 169.836 402.727 169.356 401.867 168.949V165.731C400.622 165.244 399.33 164.893 398.011 164.683L396.471 167.502C396.003 167.502 395.535 167.502 395.055 167.502C394.574 167.502 394.106 167.502 393.638 167.502L392.135 164.683C390.817 164.896 389.525 165.247 388.279 165.731V168.949C387.418 169.356 386.594 169.836 385.815 170.384L383.153 168.737C382.113 169.587 381.163 170.545 380.32 171.594L381.958 174.351C381.413 175.138 380.939 175.973 380.542 176.847L377.363 176.784C376.879 178.048 376.532 179.362 376.328 180.702L379.112 182.261C379.014 183.215 379.014 184.177 379.112 185.131L376.328 186.703C376.533 188.038 376.88 189.347 377.363 190.608L380.542 190.545C380.936 191.42 381.41 192.255 381.958 193.04L380.32 195.798C381.163 196.847 382.113 197.805 383.153 198.655L385.876 197.008C386.653 197.561 387.478 198.041 388.34 198.442V201.661C389.585 202.15 390.877 202.501 392.196 202.709L393.749 199.89C394.691 199.99 395.64 199.99 396.582 199.89L398.122 202.709C399.442 202.505 400.735 202.153 401.978 201.661V198.442C402.841 198.04 403.665 197.56 404.442 197.008L407.165 198.655C408.202 197.805 409.147 196.847 409.986 195.798L408.348 193.04C408.9 192.256 409.378 191.42 409.777 190.545L412.955 190.608C413.433 189.346 413.779 188.037 413.99 186.703L411.206 185.131C411.132 184.644 411.157 184.183 411.157 183.696ZM395.141 190.109C393.888 190.109 392.664 189.732 391.623 189.028C390.581 188.323 389.77 187.322 389.29 186.15C388.811 184.978 388.686 183.689 388.93 182.445C389.174 181.201 389.777 180.058 390.663 179.162C391.549 178.265 392.677 177.654 393.905 177.407C395.134 177.159 396.407 177.286 397.564 177.771C398.721 178.257 399.71 179.079 400.406 180.133C401.102 181.188 401.473 182.428 401.473 183.696C401.473 184.541 401.308 185.378 400.988 186.159C400.667 186.939 400.197 187.648 399.605 188.244C399.014 188.84 398.311 189.311 397.539 189.631C396.766 189.951 395.939 190.114 395.104 190.109H395.141Z" fill="#B843FF"/>
<path opacity="0.7" d="M411.157 183.696C411.157 183.209 411.157 182.735 411.095 182.261L413.879 180.702C413.67 179.363 413.323 178.05 412.845 176.784L409.666 176.847C409.265 175.973 408.786 175.138 408.237 174.351L409.875 171.594C409.036 170.545 408.091 169.587 407.054 168.737L404.331 170.384C403.552 169.836 402.727 169.356 401.867 168.949V165.731C400.622 165.244 399.33 164.893 398.011 164.683L396.471 167.502C396.003 167.502 395.535 167.502 395.055 167.502C394.574 167.502 394.106 167.502 393.638 167.502L392.135 164.683C390.817 164.896 389.525 165.247 388.279 165.731V168.949C387.418 169.356 386.594 169.836 385.815 170.384L383.153 168.737C382.113 169.587 381.163 170.545 380.32 171.594L381.958 174.351C381.413 175.138 380.939 175.973 380.542 176.847L377.363 176.784C376.879 178.048 376.532 179.362 376.328 180.702L379.112 182.261C379.014 183.215 379.014 184.177 379.112 185.131L376.328 186.703C376.533 188.038 376.88 189.347 377.363 190.608L380.542 190.545C380.936 191.42 381.41 192.255 381.958 193.04L380.32 195.798C381.163 196.847 382.113 197.805 383.153 198.655L385.876 197.008C386.653 197.561 387.478 198.041 388.34 198.442V201.661C389.585 202.15 390.877 202.501 392.196 202.709L393.749 199.89C394.691 199.99 395.64 199.99 396.582 199.89L398.122 202.709C399.442 202.505 400.735 202.153 401.978 201.661V198.442C402.841 198.04 403.665 197.56 404.442 197.008L407.165 198.655C408.202 197.805 409.147 196.847 409.986 195.798L408.348 193.04C408.9 192.256 409.378 191.42 409.777 190.545L412.955 190.608C413.433 189.346 413.779 188.037 413.99 186.703L411.206 185.131C411.132 184.644 411.157 184.183 411.157 183.696ZM395.141 190.109C393.888 190.109 392.664 189.732 391.623 189.028C390.581 188.323 389.77 187.322 389.29 186.15C388.811 184.978 388.686 183.689 388.93 182.445C389.174 181.201 389.777 180.058 390.663 179.162C391.549 178.265 392.677 177.654 393.905 177.407C395.134 177.159 396.407 177.286 397.564 177.771C398.721 178.257 399.71 179.079 400.406 180.133C401.102 181.188 401.473 182.428 401.473 183.696C401.473 184.541 401.308 185.378 400.988 186.159C400.667 186.939 400.197 187.648 399.605 188.244C399.014 188.84 398.311 189.311 397.539 189.631C396.766 189.951 395.939 190.114 395.104 190.109H395.141Z" fill="white"/>
<path d="M365.902 111.36V117.897L359.742 121.178C359.502 121.308 359.302 121.502 359.162 121.738C359.023 121.974 358.949 122.244 358.949 122.519C358.949 122.795 359.023 123.065 359.162 123.301C359.302 123.537 359.502 123.73 359.742 123.861L365.902 127.142V133.679C365.902 134.377 366.175 135.047 366.663 135.541C367.15 136.034 367.812 136.312 368.501 136.312H390.542C391.232 136.312 391.895 136.035 392.384 135.541C392.874 135.048 393.15 134.378 393.153 133.679V111.36C393.153 110.658 392.878 109.986 392.388 109.49C391.899 108.994 391.234 108.715 390.542 108.715H368.464C367.779 108.725 367.125 109.008 366.645 109.503C366.166 109.999 365.898 110.666 365.902 111.36Z" fill="#B843FF"/>
<g opacity="0.9">
<path opacity="0.9" d="M373.442 118.172H385.972C386.38 118.172 386.772 118.008 387.061 117.715C387.35 117.423 387.512 117.026 387.512 116.613C387.512 116.199 387.35 115.802 387.061 115.51C386.772 115.218 386.38 115.053 385.972 115.053H373.442C373.034 115.053 372.642 115.218 372.353 115.51C372.065 115.802 371.902 116.199 371.902 116.613C371.902 117.026 372.065 117.423 372.353 117.715C372.642 118.008 373.034 118.172 373.442 118.172Z" fill="white"/>
<path opacity="0.9" d="M385.972 121.017H373.442C373.034 121.017 372.642 121.181 372.353 121.474C372.065 121.766 371.902 122.163 371.902 122.577C371.902 122.99 372.065 123.387 372.353 123.679C372.642 123.972 373.034 124.136 373.442 124.136H385.972C386.38 124.136 386.772 123.972 387.061 123.679C387.35 123.387 387.512 122.99 387.512 122.577C387.512 122.163 387.35 121.766 387.061 121.474C386.772 121.181 386.38 121.017 385.972 121.017Z" fill="white"/>
<path opacity="0.9" d="M385.972 126.868H373.442C373.034 126.868 372.642 127.032 372.353 127.325C372.065 127.617 371.902 128.014 371.902 128.428C371.902 128.841 372.065 129.238 372.353 129.53C372.642 129.823 373.034 129.987 373.442 129.987H385.972C386.38 129.987 386.772 129.823 387.061 129.53C387.35 129.238 387.512 128.841 387.512 128.428C387.512 128.014 387.35 127.617 387.061 127.325C386.772 127.032 386.38 126.868 385.972 126.868Z" fill="white"/>
</g>
<path d="M241.349 101.055H246.61L249.32 106.257C249.499 106.596 249.765 106.88 250.091 107.078C250.416 107.276 250.789 107.38 251.168 107.38C251.548 107.38 251.92 107.276 252.246 107.078C252.571 106.88 252.838 106.596 253.016 106.257L255.727 101.055H260.987C261.487 101.055 261.981 100.955 262.442 100.761C262.903 100.567 263.322 100.283 263.675 99.9248C264.027 99.5667 264.307 99.1416 264.497 98.674C264.687 98.2063 264.784 97.7053 264.782 97.1996V77.3504C264.782 76.3313 264.382 75.3539 263.67 74.6333C262.959 73.9127 261.994 73.5078 260.987 73.5078H241.349C240.85 73.5062 240.356 73.6045 239.895 73.797C239.434 73.9895 239.015 74.2725 238.662 74.6296C238.31 74.9868 238.03 75.411 237.84 75.878C237.65 76.3449 237.553 76.8453 237.555 77.3504V97.3119C237.58 98.3136 237.991 99.2656 238.7 99.9647C239.409 100.664 240.36 101.055 241.349 101.055Z" fill="#B843FF"/>
<path opacity="0.9" d="M251.183 79.459L245.121 83.052V93.5568H249.63V86.5079H252.747V93.5568H257.256V83.052L251.183 79.459Z" fill="white"/>
<path d="M300.361 386.491H295.68L292.661 380.677C292.511 380.396 292.289 380.16 292.018 379.997C291.747 379.833 291.437 379.746 291.121 379.746C290.805 379.746 290.495 379.833 290.224 379.997C289.953 380.16 289.731 380.396 289.581 380.677L286.563 386.491H281.758C280.611 386.491 279.511 386.952 278.7 387.774C277.889 388.595 277.434 389.709 277.434 390.87V409.709C277.434 410.87 277.889 411.984 278.7 412.805C279.511 413.626 280.611 414.088 281.758 414.088H300.361C301.508 414.088 302.608 413.626 303.419 412.805C304.23 411.984 304.685 410.87 304.685 409.709V390.87C304.685 389.709 304.23 388.595 303.419 387.774C302.608 386.952 301.508 386.491 300.361 386.491Z" fill="#B843FF"/>
<path opacity="0.9" d="M293.699 393.691C292.796 392.775 291.654 392.14 290.406 391.858C289.159 391.576 287.858 391.66 286.656 392.1C285.454 392.539 284.401 393.317 283.619 394.34C282.838 395.364 282.36 396.593 282.243 397.881C282.126 399.17 282.374 400.466 282.957 401.617C283.541 402.769 284.437 403.728 285.539 404.382C286.641 405.037 287.905 405.36 289.182 405.314C290.46 405.267 291.697 404.854 292.751 404.121C292.802 404.43 292.944 404.717 293.157 404.944L297.346 409.173C297.629 409.46 298.012 409.62 298.412 409.62C298.811 409.62 299.195 409.46 299.477 409.173C299.76 408.887 299.919 408.499 299.919 408.094C299.919 407.689 299.76 407.301 299.477 407.015L295.301 402.786C295.076 402.561 294.788 402.412 294.476 402.362C295.361 401.05 295.768 399.467 295.627 397.885C295.485 396.303 294.803 394.82 293.699 393.691ZM292.27 401.887C291.61 402.555 290.769 403.01 289.854 403.193C288.939 403.377 287.991 403.282 287.129 402.92C286.267 402.559 285.53 401.946 285.012 401.16C284.494 400.375 284.217 399.451 284.217 398.506C284.217 397.562 284.494 396.638 285.012 395.852C285.53 395.067 286.267 394.454 287.129 394.093C287.991 393.731 288.939 393.636 289.854 393.82C290.769 394.003 291.61 394.458 292.27 395.125C292.709 395.569 293.057 396.096 293.295 396.676C293.532 397.257 293.654 397.878 293.654 398.506C293.654 399.135 293.532 399.756 293.295 400.336C293.057 400.917 292.709 401.444 292.27 401.887Z" fill="white"/>
<path d="M499.317 261.034C499.317 261.034 489.277 286.235 479.445 288.955C469.614 291.674 454.805 289.466 454.805 289.466L450.222 290.714L445.725 290.04H445.565L440.502 289.915C440.319 289.931 440.136 289.893 439.974 289.806C439.812 289.72 439.677 289.588 439.587 289.427C439.496 289.266 439.453 289.081 439.462 288.896C439.472 288.711 439.533 288.532 439.639 288.381L441.45 285.886C441.603 285.681 441.813 285.528 442.054 285.449L446.884 283.877C447.074 283.834 447.272 283.834 447.463 283.877L454.855 285.062C454.855 285.062 475.367 281.656 477.462 279.735C479.556 277.814 485.728 257.665 485.728 257.665L499.317 261.034Z" fill="#EEC1BB"/>
<path opacity="0.1" d="M455.312 284.9L454.831 284.975L447.439 283.79C447.248 283.747 447.051 283.747 446.86 283.79L442.031 285.362C441.79 285.441 441.579 285.593 441.427 285.798L439.616 288.293C439.51 288.445 439.448 288.623 439.439 288.809C439.429 288.994 439.473 289.178 439.563 289.34C439.654 289.501 439.788 289.633 439.95 289.719C440.112 289.806 440.296 289.843 440.478 289.828L445.542 289.953H445.702L448.72 290.402C451.295 289.088 453.547 287.208 455.312 284.9Z" fill="black"/>
<path d="M505.377 236.069C498.083 233.649 487.821 239.201 483.891 262.456L499.032 266.985C499.032 266.985 515.799 239.538 505.377 236.069Z" fill="#B843FF"/>
<path d="M462.949 205.678C462.949 206.451 463.356 207.063 463.849 207.063C464.341 207.063 464.773 206.402 464.736 205.653C464.699 204.904 464.329 204.281 463.836 204.293C463.343 204.306 462.949 204.917 462.949 205.678Z" fill="#263238"/>
<path d="M465.933 206.439L462.348 212.44C462.348 212.44 463.58 213.862 466.278 212.814L465.933 206.439Z" fill="#D4827D"/>
<path d="M466.611 200.862C466.567 200.912 466.511 200.95 466.448 200.972C466.386 200.994 466.319 200.999 466.254 200.987C465.769 200.903 465.271 200.937 464.802 201.087C464.332 201.236 463.905 201.497 463.555 201.848C463.48 201.919 463.381 201.958 463.278 201.958C463.175 201.958 463.076 201.919 463.001 201.848C462.93 201.769 462.891 201.667 462.891 201.561C462.891 201.454 462.93 201.352 463.001 201.274C463.436 200.823 463.973 200.486 464.566 200.293C465.158 200.099 465.788 200.055 466.401 200.163C466.453 200.17 466.503 200.186 466.549 200.212C466.595 200.238 466.635 200.273 466.667 200.315C466.699 200.357 466.722 200.405 466.736 200.456C466.75 200.507 466.753 200.56 466.746 200.613C466.727 200.708 466.68 200.795 466.611 200.862Z" fill="#263238"/>
<path d="M491.938 200.238C492.493 210.381 492.948 214.673 488.526 220.437C481.466 226.612 469.442 227.598 465.894 217.829C462.703 209.096 462.333 193.963 471.598 188.735C473.169 187.849 474.898 187.284 476.685 187.075C478.472 186.865 480.282 187.014 482.013 187.513C483.743 188.013 485.358 188.853 486.768 189.985C488.177 191.117 489.352 192.52 490.226 194.112C491.251 195.995 491.836 198.091 491.938 200.238Z" fill="#EEC1BB"/>
<path d="M477.98 222.433L480.518 237.467L492.888 234.572L488.563 219.227L477.98 222.433Z" fill="#EEC1BB"/>
<path d="M469.071 200.987C469.699 194.4 467.457 202.01 464.451 193.314C461.445 184.619 475.65 177.557 477.917 179.179C480.184 180.801 478.89 183.284 486.405 184.693C488.455 185.023 490.317 186.098 491.641 187.717C492.965 189.336 493.662 191.388 493.6 193.489C493.6 193.489 497.924 195.51 496.384 204.917C495.254 210.944 492.72 216.611 488.992 221.448C488.992 221.448 486.146 218.478 481.6 221.211C479.826 220.038 478.325 218.488 477.202 216.669C475.182 213.6 474.553 210.681 471.781 210.431C465.991 209.895 468.861 203.158 469.071 200.987Z" fill="#263238"/>
<path d="M492.801 194.624C492.801 194.624 498.961 190.807 496.226 186.802C493.491 182.797 494.809 191.218 492.801 194.624Z" fill="#263238"/>
<path d="M470.834 204.817C469.467 206.364 468.763 208.397 468.875 210.469C469.047 213.214 471.708 213.7 473.803 212.203C475.897 210.706 477.881 207.787 476.673 205.379C476.406 204.853 476.012 204.405 475.528 204.073C475.044 203.742 474.486 203.539 473.905 203.484C473.324 203.428 472.738 203.521 472.201 203.754C471.665 203.987 471.194 204.352 470.834 204.817Z" fill="#FFC3BD"/>
<path opacity="0.1" d="M478.215 223.856L479.225 229.819C479.136 228.342 479.337 226.862 479.814 225.464C480.292 224.066 481.038 222.778 482.009 221.672C481.255 221.721 480.521 221.943 479.864 222.322C479.207 222.7 478.643 223.224 478.215 223.856Z" fill="black"/>
<path d="M391.247 262.63H387.711V283.752H391.247V262.63Z" fill="#B843FF"/>
<path opacity="0.7" d="M391.247 262.63H387.711V283.752H391.247V262.63Z" fill="white"/>
<path d="M366.952 220.687H358.143C356.558 220.687 355.039 221.324 353.918 222.459C352.797 223.594 352.168 225.133 352.168 226.737V268.07C352.168 268.865 352.323 269.652 352.623 270.386C352.923 271.12 353.363 271.787 353.918 272.349C354.473 272.911 355.132 273.356 355.857 273.66C356.582 273.964 357.359 274.121 358.143 274.121H366.952V220.687Z" fill="#B843FF"/>
<path d="M420.829 220.687H361.225C357.925 220.687 355.25 223.396 355.25 226.737V268.058C355.25 271.399 357.925 274.108 361.225 274.108H420.829C424.129 274.108 426.805 271.399 426.805 268.058V226.737C426.805 223.396 424.129 220.687 420.829 220.687Z" fill="#B843FF"/>
<path opacity="0.5" d="M420.829 220.687H361.225C357.925 220.687 355.25 223.396 355.25 226.737V268.058C355.25 271.399 357.925 274.108 361.225 274.108H420.829C424.129 274.108 426.805 271.399 426.805 268.058V226.737C426.805 223.396 424.129 220.687 420.829 220.687Z" fill="white"/>
<path d="M420.826 223.182H361.222C359.283 223.182 357.711 224.774 357.711 226.737V268.058C357.711 270.021 359.283 271.613 361.222 271.613H420.826C422.765 271.613 424.337 270.021 424.337 268.058V226.737C424.337 224.774 422.765 223.182 420.826 223.182Z" fill="#263238"/>
<path d="M376.609 292.61C376.713 289.224 378.114 286.011 380.516 283.653C382.918 281.295 386.132 279.976 389.478 279.976C392.823 279.976 396.037 281.295 398.439 283.653C400.841 286.011 402.242 289.224 402.346 292.61H376.609Z" fill="#B843FF"/>
<path d="M406.979 288.169H381.242V292.398H432.715V290.664L406.979 288.169Z" fill="#B843FF"/>
<path opacity="0.8" d="M406.979 288.169H381.242V292.398H432.715V290.664L406.979 288.169Z" fill="white"/>
<path d="M406.979 292.398H381.242V288.169L406.979 290.664V292.398Z" fill="#B843FF"/>
<path opacity="0.6" d="M406.979 292.398H381.242V288.169L406.979 290.664V292.398Z" fill="white"/>
<path d="M463.727 438.004H410.64C409.581 438.006 408.532 437.796 407.553 437.387C406.574 436.977 405.684 436.377 404.935 435.619C404.185 434.861 403.59 433.961 403.185 432.97C402.779 431.98 402.57 430.918 402.57 429.845V306.233C402.57 305.161 402.779 304.099 403.185 303.108C403.59 302.117 404.185 301.217 404.935 300.46C405.684 299.702 406.574 299.101 407.553 298.692C408.532 298.282 409.581 298.073 410.64 298.074H463.727C464.299 298.074 464.847 298.304 465.251 298.714C465.656 299.123 465.883 299.678 465.883 300.258C465.883 300.837 465.656 301.392 465.251 301.801C464.847 302.211 464.299 302.441 463.727 302.441H410.64C410.149 302.433 409.662 302.523 409.207 302.708C408.751 302.892 408.336 303.166 407.987 303.515C407.637 303.863 407.359 304.279 407.169 304.737C406.98 305.195 406.882 305.687 406.882 306.184V429.795C406.882 430.292 406.98 430.784 407.169 431.242C407.359 431.7 407.637 432.116 407.987 432.464C408.336 432.812 408.751 433.087 409.207 433.271C409.662 433.455 410.149 433.546 410.64 433.538H463.727C464.299 433.538 464.847 433.768 465.251 434.177C465.656 434.587 465.883 435.142 465.883 435.721C465.896 436.016 465.85 436.311 465.748 436.587C465.645 436.864 465.489 437.117 465.287 437.33C465.086 437.543 464.843 437.713 464.575 437.829C464.307 437.945 464.018 438.005 463.727 438.004Z" fill="#263238"/>
<g opacity="0.5">
<path opacity="0.5" d="M463.723 438.005H410.636C409.577 438.007 408.528 437.797 407.549 437.388C406.57 436.978 405.68 436.378 404.931 435.62C404.181 434.862 403.587 433.962 403.181 432.971C402.775 431.981 402.566 430.919 402.566 429.846V306.234C402.566 305.162 402.775 304.1 403.181 303.109C403.587 302.118 404.181 301.218 404.931 300.461C405.68 299.703 406.57 299.102 407.549 298.693C408.528 298.283 409.577 298.074 410.636 298.075H463.723C464.295 298.075 464.843 298.305 465.247 298.715C465.652 299.124 465.879 299.679 465.879 300.258C465.879 300.838 465.652 301.393 465.247 301.802C464.843 302.212 464.295 302.442 463.723 302.442H410.636C410.145 302.434 409.658 302.524 409.203 302.709C408.747 302.893 408.332 303.167 407.983 303.516C407.633 303.864 407.355 304.279 407.166 304.738C406.976 305.196 406.878 305.688 406.878 306.185V429.796C406.878 430.293 406.976 430.785 407.166 431.243C407.355 431.701 407.633 432.117 407.983 432.465C408.332 432.813 408.747 433.088 409.203 433.272C409.658 433.456 410.145 433.547 410.636 433.539H463.723C464.295 433.539 464.843 433.769 465.247 434.178C465.652 434.588 465.879 435.143 465.879 435.722C465.892 436.017 465.846 436.312 465.744 436.588C465.642 436.865 465.485 437.117 465.283 437.331C465.082 437.544 464.84 437.714 464.571 437.83C464.303 437.946 464.014 438.006 463.723 438.005Z" fill="white"/>
</g>
<path d="M410.429 292.398H335.043V298.799H410.429V292.398Z" fill="#B843FF"/>
<path opacity="0.2" d="M410.429 292.398H335.043V298.799H410.429V292.398Z" fill="white"/>
<path d="M471.279 292.398H406.98V298.799H471.279V292.398Z" fill="#B843FF"/>
<path opacity="0.5" d="M471.279 292.398H406.98V298.799H471.279V292.398Z" fill="white"/>
<path d="M448.733 392.654L452.294 429.109H443.768L435.23 393.602L448.733 392.654Z" fill="#EEC1BB"/>
<path d="M442.964 426.677L453.843 426.864C454.041 426.869 454.232 426.942 454.385 427.071C454.537 427.2 454.641 427.378 454.68 427.575L456.504 436.57C456.581 436.952 456.506 437.349 456.296 437.676C456.087 438.003 455.758 438.233 455.383 438.317H455.075C451.144 438.18 447.683 437.905 442.755 437.818C437.001 437.718 438.443 438.442 431.667 438.429C427.589 438.429 426.923 433.701 428.648 433.501C436.595 432.628 437.457 430.22 440.562 427.4C441.248 426.869 442.103 426.612 442.964 426.677Z" fill="#263238"/>
<path opacity="0.1" d="M451.37 419.59L448.733 392.654L435.23 393.602L441.477 419.59H451.37Z" fill="black"/>
<path d="M507.104 308.604L472.14 309.852C472.14 309.852 425.041 326.532 423.809 339.345C422.454 352.545 438.273 413.19 438.273 413.19H452.33C452.33 413.19 448.449 368.689 446.971 355.065C445.492 341.441 495.992 345.945 504.764 334.33C512.784 323.675 507.104 308.604 507.104 308.604Z" fill="#263238"/>
<path opacity="0.2" d="M507.104 308.604L472.14 309.852C472.14 309.852 425.041 326.532 423.809 339.345C422.454 352.545 438.273 413.19 438.273 413.19H452.33C452.33 413.19 448.449 368.689 446.971 355.065C445.492 341.441 495.992 345.945 504.764 334.33C512.784 323.675 507.104 308.604 507.104 308.604Z" fill="black"/>
<path d="M454.67 411.194L454.978 416.222H437.606L435.906 411.194H454.67Z" fill="#B843FF"/>
<path d="M416.195 394.389L417.132 429.109H408.754L403.789 394.389H416.195Z" fill="#EEC1BB"/>
<path d="M407.597 426.677L418.475 426.864C418.674 426.868 418.865 426.941 419.017 427.07C419.17 427.2 419.274 427.378 419.313 427.575L421.136 436.57C421.213 436.952 421.139 437.349 420.929 437.676C420.719 438.003 420.391 438.233 420.015 438.317H419.707C415.777 438.179 412.315 437.905 407.387 437.818C401.622 437.718 403.075 438.441 396.299 438.429C392.221 438.429 391.556 433.701 393.281 433.501C401.227 432.628 402.09 430.22 405.194 427.4C405.879 426.867 406.735 426.609 407.597 426.677Z" fill="#263238"/>
<path opacity="0.1" d="M416.873 419.565L416.195 394.389H403.789L407.399 419.59C410.097 419.603 413.805 419.578 416.873 419.565Z" fill="black"/>
<path d="M491.901 311.536C491.901 311.536 494.809 338.459 467.766 339.719C440.724 340.98 419.608 344.111 418.992 353.855C418.376 363.598 418.992 413.24 418.992 413.24H404.294C404.294 413.24 398.577 381.851 396.347 362.388C394.179 343.487 390.187 329.776 409.37 323.376C429.735 316.564 465.931 310.276 465.931 310.276L492 308.604L491.901 311.536Z" fill="#263238"/>
<path d="M421.162 411.194L420.238 416.222H404.099L402.398 411.194H421.162Z" fill="#B843FF"/>
<path d="M497.728 234.298C497.728 234.298 497.728 228.234 485.617 228.933C472.755 229.682 475.182 235.495 475.182 235.495L497.728 234.298Z" fill="#B843FF"/>
<path opacity="0.3" d="M497.728 234.298C497.728 234.298 497.728 228.234 485.617 228.933C472.755 229.682 475.182 235.495 475.182 235.495L497.728 234.298Z" fill="black"/>
<path d="M509.015 261.496C508.202 273.485 508.486 309.553 508.486 309.553C508.486 309.553 482.614 311.274 462.31 310.601L459.957 241.222C459.966 239.995 460.34 238.8 461.03 237.792C461.72 236.784 462.694 236.01 463.826 235.571C469.567 233.312 483.045 230.755 504.124 233.562C511.393 234.548 509.976 247.323 509.015 261.496Z" fill="#B843FF"/>
<path d="M464.106 261.034C464.106 261.034 454.053 286.235 444.234 288.955C434.415 291.674 419.594 289.466 419.594 289.466L415.011 290.714L410.527 290.04H410.367L405.291 289.915C405.108 289.931 404.925 289.893 404.763 289.806C404.601 289.72 404.466 289.588 404.376 289.427C404.285 289.266 404.242 289.081 404.251 288.896C404.261 288.711 404.322 288.532 404.428 288.381L406.252 285.886C406.404 285.681 406.615 285.528 406.855 285.449L411.673 283.877C411.867 283.834 412.069 283.834 412.264 283.877L419.656 285.062C419.656 285.062 440.169 281.656 442.251 279.735C444.333 277.814 450.53 257.665 450.53 257.665L464.106 261.034Z" fill="#EEC1BB"/>
<path opacity="0.1" d="M463.849 249.307C463.849 249.307 462.284 251.19 460.387 253.91L461.064 273.996C468.616 270.615 471.61 250.928 471.61 250.928L466.682 247.41L463.849 249.307Z" fill="black"/>
<path d="M470.17 236.069C462.877 233.649 452.602 239.201 448.672 262.456L463.825 266.935C463.825 266.935 480.593 239.538 470.17 236.069Z" fill="#B843FF"/>
<path d="M479.814 352.782H468.418V386.604H479.814V352.782Z" fill="#263238"/>
<path opacity="0.6" d="M479.814 352.782H468.418V386.604H479.814V352.782Z" fill="white"/>
<path d="M481.579 417.244V374.277H466.647V417.244L432.656 422.023V426.801L474.113 423.22L515.57 426.801V422.023L481.579 417.244Z" fill="#263238"/>
<path d="M432.161 438.517C434.644 438.517 436.658 436.478 436.658 433.963C436.658 431.448 434.644 429.409 432.161 429.409C429.677 429.409 427.664 431.448 427.664 433.963C427.664 436.478 429.677 438.517 432.161 438.517Z" fill="#B843FF"/>
<path d="M515.567 438.517C518.051 438.517 520.064 436.478 520.064 433.963C520.064 431.448 518.051 429.409 515.567 429.409C513.084 429.409 511.07 431.448 511.07 433.963C511.07 436.478 513.084 438.517 515.567 438.517Z" fill="#B843FF"/>
<path d="M474.11 438.517C476.594 438.517 478.607 436.478 478.607 433.963C478.607 431.448 476.594 429.409 474.11 429.409C471.627 429.409 469.613 431.448 469.613 433.963C469.613 436.478 471.627 438.517 474.11 438.517Z" fill="#B843FF"/>
<path opacity="0.3" d="M479.814 352.782H468.418V361.141H479.814V352.782Z" fill="black"/>
<path d="M519.164 276.117H482.032C479.113 276.12 476.3 277.225 474.142 279.216C471.984 281.207 470.638 283.941 470.365 286.884L467.235 320.856C466.888 324.6 465.222 328.092 462.541 330.695C459.861 333.297 456.345 334.835 452.636 335.029L416.797 336.85C414.7 336.959 412.724 337.879 411.277 339.42C409.831 340.962 409.024 343.007 409.023 345.134V345.895C409.023 347.718 409.739 349.467 411.012 350.756C412.285 352.045 414.011 352.769 415.812 352.769H524.955L530.831 289.142C530.989 287.494 530.805 285.83 530.291 284.259C529.777 282.687 528.943 281.241 527.845 280.015C526.746 278.788 525.406 277.808 523.911 277.137C522.416 276.465 520.799 276.118 519.164 276.117Z" fill="#B843FF"/>
<path opacity="0.3" d="M519.164 276.117H482.032C479.113 276.12 476.3 277.225 474.142 279.216C471.984 281.207 470.638 283.941 470.365 286.884L467.235 320.856C466.888 324.6 465.222 328.092 462.541 330.695C459.861 333.297 456.345 334.835 452.636 335.029L416.797 336.85C414.7 336.959 412.724 337.879 411.277 339.42C409.831 340.962 409.024 343.007 409.023 345.134V345.895C409.023 347.718 409.739 349.467 411.012 350.756C412.285 352.045 414.011 352.769 415.812 352.769H524.955L530.831 289.142C530.989 287.494 530.805 285.83 530.291 284.259C529.777 282.687 528.943 281.241 527.845 280.015C526.746 278.788 525.406 277.808 523.911 277.137C522.416 276.465 520.799 276.118 519.164 276.117Z" fill="white"/>
<path d="M433.934 314.394H439.046V341.479C439.046 342.141 438.787 342.775 438.325 343.243C437.863 343.711 437.236 343.974 436.582 343.974H436.398C435.744 343.974 435.117 343.711 434.655 343.243C434.193 342.775 433.934 342.141 433.934 341.479V314.394Z" fill="#263238"/>
<path opacity="0.2" d="M433.934 314.394H439.046V341.479C439.046 342.141 438.787 342.775 438.325 343.243C437.863 343.711 437.236 343.974 436.582 343.974H436.398C435.744 343.974 435.117 343.711 434.655 343.243C434.193 342.775 433.934 342.141 433.934 341.479V314.394Z" fill="white"/>
<path d="M458.586 306.62H447.215V316.165H458.611C459.25 316.198 459.889 316.099 460.489 315.874C461.089 315.649 461.638 315.303 462.102 314.857C462.566 314.41 462.935 313.873 463.188 313.277C463.44 312.682 463.57 312.041 463.57 311.393C463.57 310.745 463.44 310.103 463.188 309.508C462.935 308.912 462.566 308.375 462.102 307.929C461.638 307.482 461.089 307.136 460.489 306.911C459.889 306.686 459.25 306.587 458.611 306.62H458.586Z" fill="#B843FF"/>
<path opacity="0.5" d="M458.586 306.62H447.215V316.165H458.611C459.25 316.198 459.889 316.099 460.489 315.874C461.089 315.649 461.638 315.303 462.102 314.857C462.566 314.41 462.935 313.873 463.188 313.277C463.44 312.682 463.57 312.041 463.57 311.393C463.57 310.745 463.44 310.103 463.188 309.508C462.935 308.912 462.566 308.375 462.102 307.929C461.638 307.482 461.089 307.136 460.489 306.911C459.889 306.686 459.25 306.587 458.611 306.62H458.586Z" fill="white"/>
<path d="M454.041 306.621H414.21C411.699 306.621 409.664 308.682 409.664 311.225V311.574C409.664 314.117 411.699 316.178 414.21 316.178H454.041C456.551 316.178 458.587 314.117 458.587 311.574V311.225C458.587 308.682 456.551 306.621 454.041 306.621Z" fill="#B843FF"/>
<path opacity="0.3" d="M454.041 306.621H414.21C411.699 306.621 409.664 308.682 409.664 311.225V311.574C409.664 314.117 411.699 316.178 414.21 316.178H454.041C456.551 316.178 458.587 314.117 458.587 311.574V311.225C458.587 308.682 456.551 306.621 454.041 306.621Z" fill="white"/>
<path d="M527.52 352.782H472.93L479.016 286.946C479.289 284.003 480.635 281.269 482.793 279.278C484.951 277.287 487.764 276.182 490.683 276.18H527.815C529.446 276.181 531.058 276.527 532.55 277.195C534.041 277.864 535.378 278.839 536.476 280.06C537.574 281.281 538.408 282.721 538.926 284.286C539.444 285.852 539.633 287.51 539.482 289.155L534.172 346.719C533.999 348.383 533.223 349.923 531.995 351.043C530.766 352.162 529.172 352.782 527.52 352.782Z" fill="#B843FF"/>
<path opacity="0.5" d="M527.52 352.782H472.93L479.016 286.946C479.289 284.003 480.635 281.269 482.793 279.278C484.951 277.287 487.764 276.182 490.683 276.18H527.815C529.446 276.181 531.058 276.527 532.55 277.195C534.041 277.864 535.378 278.839 536.476 280.06C537.574 281.281 538.408 282.721 538.926 284.286C539.444 285.852 539.633 287.51 539.482 289.155L534.172 346.719C533.999 348.383 533.223 349.923 531.995 351.043C530.766 352.162 529.172 352.782 527.52 352.782Z" fill="white"/>
<path d="M399.996 438.004H346.909C345.85 438.006 344.801 437.796 343.822 437.387C342.843 436.977 341.954 436.377 341.204 435.619C340.455 434.861 339.86 433.961 339.454 432.97C339.049 431.98 338.84 430.918 338.84 429.845V306.233C338.84 305.161 339.049 304.099 339.454 303.108C339.86 302.117 340.455 301.217 341.204 300.46C341.954 299.702 342.843 299.101 343.822 298.692C344.801 298.282 345.85 298.073 346.909 298.074H399.996C400.568 298.074 401.117 298.304 401.521 298.714C401.925 299.123 402.152 299.678 402.152 300.258C402.152 300.837 401.925 301.392 401.521 301.801C401.117 302.211 400.568 302.441 399.996 302.441H346.909C346.419 302.433 345.932 302.523 345.476 302.708C345.021 302.892 344.606 303.166 344.256 303.515C343.906 303.863 343.629 304.279 343.439 304.737C343.249 305.195 343.152 305.687 343.152 306.184V429.795C343.152 430.292 343.249 430.784 343.439 431.242C343.629 431.7 343.906 432.116 344.256 432.464C344.606 432.812 345.021 433.087 345.476 433.271C345.932 433.455 346.419 433.546 346.909 433.538H399.996C400.568 433.538 401.117 433.768 401.521 434.177C401.925 434.587 402.152 435.142 402.152 435.721C402.166 436.016 402.12 436.311 402.017 436.587C401.915 436.864 401.758 437.117 401.557 437.33C401.355 437.543 401.113 437.713 400.845 437.829C400.577 437.945 400.288 438.005 399.996 438.004Z" fill="#263238"/>
<g opacity="0.5">
<path opacity="0.5" d="M399.992 438.005H346.906C345.846 438.007 344.797 437.797 343.818 437.388C342.839 436.978 341.95 436.378 341.2 435.62C340.451 434.862 339.856 433.962 339.45 432.971C339.045 431.981 338.836 430.919 338.836 429.846V306.234C338.836 305.162 339.045 304.1 339.45 303.109C339.856 302.118 340.451 301.218 341.2 300.461C341.95 299.703 342.839 299.102 343.818 298.693C344.797 298.283 345.846 298.074 346.906 298.075H399.992C400.564 298.075 401.113 298.305 401.517 298.715C401.921 299.124 402.148 299.679 402.148 300.258C402.148 300.838 401.921 301.393 401.517 301.802C401.113 302.212 400.564 302.442 399.992 302.442H346.906C346.415 302.434 345.928 302.524 345.472 302.709C345.017 302.893 344.602 303.167 344.252 303.516C343.902 303.864 343.625 304.279 343.435 304.738C343.245 305.196 343.148 305.688 343.148 306.185V429.796C343.148 430.293 343.245 430.785 343.435 431.243C343.625 431.701 343.902 432.117 344.252 432.465C344.602 432.813 345.017 433.088 345.472 433.272C345.928 433.456 346.415 433.547 346.906 433.539H399.992C400.564 433.539 401.113 433.769 401.517 434.178C401.921 434.588 402.148 435.143 402.148 435.722C402.162 436.017 402.116 436.312 402.013 436.588C401.911 436.865 401.754 437.117 401.553 437.331C401.351 437.544 401.109 437.714 400.841 437.83C400.573 437.946 400.284 438.006 399.992 438.005Z" fill="white"/>
</g>
<path d="M364.905 233.038L361.209 230.542C361.115 230.481 361.038 230.398 360.984 230.298C360.93 230.199 360.902 230.088 360.902 229.975C360.902 229.862 360.93 229.75 360.984 229.651C361.038 229.552 361.115 229.468 361.209 229.407L364.905 226.912C365.041 226.822 365.207 226.789 365.366 226.822C365.525 226.855 365.665 226.95 365.755 227.087C365.841 227.223 365.87 227.388 365.838 227.546C365.806 227.704 365.715 227.844 365.583 227.935L362.515 229.993L365.583 232.052C365.715 232.143 365.806 232.283 365.838 232.441C365.87 232.599 365.841 232.764 365.755 232.9C365.658 233.028 365.515 233.114 365.357 233.14C365.199 233.165 365.038 233.129 364.905 233.038Z" fill="white"/>
<path d="M373.085 232.863C373.012 232.727 372.992 232.566 373.031 232.416C373.07 232.265 373.165 232.135 373.295 232.052L376.363 229.994L373.295 227.898C373.163 227.807 373.072 227.666 373.042 227.507C373.012 227.348 373.045 227.184 373.135 227.05C373.178 226.982 373.235 226.924 373.3 226.879C373.366 226.834 373.44 226.802 373.518 226.786C373.596 226.77 373.676 226.769 373.754 226.785C373.832 226.8 373.906 226.83 373.973 226.875L377.669 229.37C377.763 229.431 377.84 229.515 377.894 229.614C377.947 229.713 377.976 229.825 377.976 229.938C377.976 230.051 377.947 230.162 377.894 230.261C377.84 230.36 377.763 230.444 377.669 230.505L373.973 233.001C373.906 233.053 373.83 233.091 373.749 233.113C373.668 233.134 373.583 233.139 373.5 233.126C373.417 233.113 373.337 233.083 373.266 233.038C373.195 232.993 373.133 232.933 373.085 232.863Z" fill="white"/>
<path d="M368.022 234.547C367.945 234.523 367.875 234.484 367.813 234.432C367.752 234.379 367.702 234.316 367.665 234.244C367.628 234.172 367.606 234.093 367.6 234.012C367.593 233.932 367.603 233.85 367.628 233.773L370.178 225.614C370.2 225.537 370.238 225.466 370.288 225.404C370.338 225.342 370.4 225.291 370.47 225.254C370.54 225.216 370.617 225.194 370.696 225.187C370.775 225.18 370.854 225.19 370.929 225.215C371.005 225.238 371.076 225.276 371.137 225.326C371.198 225.377 371.249 225.44 371.285 225.511C371.322 225.582 371.344 225.66 371.351 225.74C371.358 225.819 371.348 225.9 371.324 225.976L368.786 234.148C368.762 234.225 368.723 234.297 368.672 234.359C368.62 234.421 368.557 234.472 368.486 234.509C368.415 234.546 368.337 234.569 368.258 234.575C368.178 234.582 368.098 234.572 368.022 234.547Z" fill="white"/>
<path d="M388.944 240.785H361.507C361.424 240.785 361.341 240.768 361.264 240.736C361.187 240.703 361.117 240.655 361.059 240.595C361 240.534 360.954 240.462 360.923 240.384C360.892 240.305 360.877 240.221 360.879 240.137C360.877 240.052 360.892 239.968 360.923 239.889C360.954 239.811 361 239.739 361.059 239.679C361.117 239.618 361.187 239.57 361.264 239.537C361.341 239.505 361.424 239.488 361.507 239.488H388.944C389.114 239.488 389.277 239.556 389.397 239.678C389.517 239.799 389.585 239.964 389.585 240.137C389.585 240.222 389.568 240.306 389.536 240.385C389.504 240.464 389.456 240.535 389.397 240.595C389.337 240.656 389.267 240.703 389.189 240.736C389.111 240.769 389.028 240.785 388.944 240.785Z" fill="white"/>
<path d="M420.457 240.785H393.008C392.924 240.785 392.84 240.768 392.763 240.736C392.685 240.703 392.614 240.655 392.555 240.595C392.495 240.535 392.448 240.463 392.416 240.385C392.384 240.306 392.367 240.222 392.367 240.136C392.38 239.973 392.453 239.821 392.571 239.71C392.69 239.599 392.846 239.537 393.008 239.538H420.432C420.602 239.538 420.765 239.606 420.885 239.728C421.005 239.849 421.073 240.014 421.073 240.186C421.061 240.345 420.991 240.494 420.878 240.605C420.764 240.715 420.614 240.78 420.457 240.785Z" fill="white"/>
<path d="M377.191 246.499H361.507C361.424 246.499 361.341 246.482 361.264 246.449C361.187 246.417 361.117 246.369 361.059 246.308C361 246.248 360.954 246.176 360.923 246.097C360.892 246.019 360.877 245.935 360.879 245.85C360.879 245.681 360.945 245.52 361.063 245.4C361.181 245.281 361.341 245.214 361.507 245.214H377.191C377.358 245.214 377.52 245.28 377.639 245.399C377.759 245.518 377.828 245.68 377.831 245.85C377.831 246.022 377.764 246.187 377.644 246.309C377.524 246.431 377.361 246.499 377.191 246.499Z" fill="white"/>
<path d="M406.952 246.499H381.265C381.182 246.499 381.099 246.482 381.022 246.449C380.945 246.417 380.875 246.369 380.816 246.308C380.758 246.248 380.712 246.176 380.681 246.097C380.65 246.019 380.635 245.935 380.637 245.85C380.637 245.681 380.703 245.52 380.821 245.4C380.939 245.281 381.099 245.214 381.265 245.214H406.952C407.119 245.214 407.279 245.281 407.397 245.4C407.515 245.52 407.581 245.681 407.581 245.85C407.582 245.935 407.567 246.019 407.536 246.097C407.506 246.176 407.46 246.248 407.401 246.308C407.343 246.369 407.273 246.417 407.196 246.449C407.119 246.482 407.036 246.499 406.952 246.499Z" fill="white"/>
<path d="M403.297 252.226H361.507C361.34 252.222 361.18 252.153 361.062 252.031C360.945 251.91 360.879 251.747 360.879 251.577C360.877 251.492 360.892 251.408 360.923 251.33C360.954 251.251 361 251.179 361.059 251.119C361.117 251.059 361.187 251.011 361.264 250.978C361.341 250.945 361.424 250.928 361.507 250.928H403.297C403.467 250.928 403.63 250.997 403.75 251.118C403.87 251.24 403.937 251.405 403.937 251.577C403.937 251.749 403.87 251.914 403.75 252.036C403.63 252.157 403.467 252.226 403.297 252.226Z" fill="white"/>
<path d="M416.109 252.226H407.387C407.217 252.226 407.054 252.157 406.934 252.036C406.814 251.914 406.746 251.749 406.746 251.577C406.746 251.405 406.814 251.24 406.934 251.118C407.054 250.997 407.217 250.928 407.387 250.928H416.109C416.279 250.928 416.442 250.997 416.562 251.118C416.682 251.24 416.75 251.405 416.75 251.577C416.75 251.749 416.682 251.914 416.562 252.036C416.442 252.157 416.279 252.226 416.109 252.226Z" fill="white"/>
<path d="M381.022 257.94H361.507C361.424 257.94 361.341 257.923 361.264 257.89C361.187 257.858 361.117 257.81 361.059 257.749C361 257.689 360.954 257.617 360.923 257.539C360.892 257.46 360.877 257.376 360.879 257.291C360.877 257.207 360.892 257.123 360.923 257.044C360.954 256.965 361 256.894 361.059 256.833C361.117 256.773 361.187 256.725 361.264 256.692C361.341 256.659 361.424 256.643 361.507 256.643H381.022C381.192 256.643 381.355 256.711 381.475 256.833C381.595 256.954 381.663 257.119 381.663 257.291C381.663 257.463 381.595 257.628 381.475 257.75C381.355 257.872 381.192 257.94 381.022 257.94Z" fill="white"/>
<path d="M409.392 257.94H385.109C384.939 257.94 384.777 257.872 384.656 257.75C384.536 257.628 384.469 257.463 384.469 257.291C384.469 257.119 384.536 256.954 384.656 256.833C384.777 256.711 384.939 256.643 385.109 256.643H409.392C409.562 256.643 409.725 256.711 409.845 256.833C409.965 256.954 410.033 257.119 410.033 257.291C410.033 257.463 409.965 257.628 409.845 257.75C409.725 257.872 409.562 257.94 409.392 257.94Z" fill="white"/>
<path d="M388.944 263.654H361.507C361.424 263.654 361.341 263.637 361.264 263.604C361.187 263.571 361.117 263.523 361.059 263.463C361 263.403 360.954 263.331 360.923 263.252C360.892 263.174 360.877 263.09 360.879 263.005C360.879 262.836 360.945 262.674 361.063 262.555C361.181 262.436 361.341 262.369 361.507 262.369H388.944C389.028 262.367 389.111 262.382 389.188 262.414C389.266 262.445 389.337 262.491 389.396 262.551C389.456 262.61 389.503 262.681 389.536 262.759C389.568 262.837 389.585 262.92 389.585 263.005C389.585 263.177 389.517 263.342 389.397 263.464C389.277 263.585 389.114 263.654 388.944 263.654Z" fill="white"/>
<path d="M412.387 263.654H393.008C392.838 263.654 392.675 263.585 392.555 263.464C392.435 263.342 392.367 263.177 392.367 263.005C392.367 262.92 392.384 262.837 392.416 262.759C392.448 262.681 392.496 262.61 392.556 262.551C392.615 262.491 392.686 262.445 392.764 262.414C392.841 262.382 392.924 262.367 393.008 262.369H412.363C412.529 262.369 412.689 262.436 412.807 262.555C412.925 262.674 412.991 262.836 412.991 263.005C412.994 263.172 412.933 263.333 412.82 263.454C412.707 263.576 412.552 263.647 412.387 263.654Z" fill="white"/>
<path d="M174.289 151.981C174.794 157.857 173.538 168.499 169.164 171.942C176.297 174.55 183.862 179.041 188.691 184.967C193.484 177.906 188.038 173.876 188.038 173.876C181.878 171.655 182.531 166.927 184.121 162.573L174.289 151.981Z" fill="#B97964"/>
<path d="M197.612 146.916C197.538 147.652 197.883 148.288 198.363 148.338C198.844 148.388 199.275 147.814 199.349 147.09C199.423 146.367 199.078 145.718 198.597 145.668C198.117 145.618 197.698 146.18 197.612 146.916Z" fill="#263238"/>
<path d="M198.41 145.681L200.197 145.332C200.197 145.332 199.174 146.666 198.41 145.681Z" fill="#263238"/>
<path d="M197.855 147.702C198.358 149.456 199.092 151.135 200.036 152.692C199.637 152.926 199.192 153.069 198.733 153.113C198.273 153.156 197.81 153.097 197.375 152.942L197.855 147.702Z" fill="#A24E3F"/>
<path d="M199.681 143.036C199.795 143.018 199.899 142.961 199.976 142.874C200.053 142.791 200.095 142.682 200.095 142.568C200.095 142.455 200.053 142.346 199.976 142.263C199.47 141.794 198.86 141.456 198.198 141.276C197.535 141.095 196.84 141.079 196.17 141.227C196.075 141.293 196.009 141.393 195.984 141.506C195.959 141.619 195.977 141.738 196.034 141.838C196.072 141.903 196.126 141.955 196.192 141.99C196.257 142.025 196.33 142.042 196.404 142.038C196.936 141.935 197.485 141.959 198.007 142.108C198.529 142.258 199.009 142.529 199.41 142.899C199.481 142.975 199.577 143.024 199.681 143.036Z" fill="#263238"/>
<path d="M173.708 142.225C173.425 151.345 173.117 155.225 177.133 160.315C183.182 167.963 194.135 166.291 197.067 157.408C199.703 149.411 199.728 135.787 191.437 131.371C183.145 126.954 173.967 133.08 173.708 142.225Z" fill="#B97964"/>
<path d="M174.107 159.454C165.249 157.92 167.787 152.268 167.787 152.268C159.064 150.484 165.803 146.167 165.803 146.167C158.547 142.999 165.803 140.154 165.803 140.154C158.805 134.278 168.785 132.244 168.785 132.244C166.321 123.074 174.945 126.842 174.945 126.842C179.626 118.957 183.667 126.48 183.667 126.48C191.872 115.252 193.868 124.721 193.868 124.721C202.258 122.488 199.043 131.421 199.043 131.421C205.942 133.292 200.521 136.835 200.521 136.835C203.182 140.241 193.56 140.828 193.56 140.828C193.56 140.828 198.143 148.313 193.56 150.372L181.905 159.417C181.905 159.417 176.522 157.196 174.107 159.454Z" fill="#263238"/>
<path d="M182.812 152.094C182.812 152.094 188.972 137.123 184.155 124.347L188.221 122.938C188.221 122.938 193.531 141.514 182.812 152.094Z" fill="#B843FF"/>
<path d="M188.962 150.447C189.972 152.592 190.366 153.528 191.82 154.189C192.269 154.45 192.784 154.572 193.3 154.538C193.817 154.505 194.312 154.318 194.725 154.001C195.137 153.685 195.449 153.252 195.62 152.758C195.791 152.263 195.815 151.728 195.689 151.22C195.307 149.074 193.68 145.918 191.426 145.855C190.899 145.858 190.382 146.004 189.929 146.278C189.477 146.552 189.105 146.944 188.853 147.413C188.602 147.882 188.479 148.411 188.498 148.945C188.517 149.479 188.677 149.997 188.962 150.447Z" fill="#B97964"/>
<path d="M182.594 181.611C182.594 181.611 190.934 187.849 194.322 190.345L218.457 178.817C218.423 177.462 218.793 176.128 219.518 174.988C220.243 173.849 221.29 172.957 222.523 172.429L224.248 171.706L227.882 170.059C228.559 169.752 229.304 169.633 230.042 169.712C230.78 169.79 231.484 170.065 232.083 170.508C232.787 171.027 233.315 171.755 233.595 172.59C233.875 173.425 233.894 174.328 233.648 175.174C233.141 176.928 232.193 178.519 230.898 179.792C229.602 181.065 228.003 181.975 226.256 182.435L222.732 183.371C222.732 183.371 202.047 199.24 194.655 199.614C187.263 199.988 176.434 192.64 176.434 192.64L182.594 181.611Z" fill="#B97964"/>
<path d="M162.539 171.095C168.909 171.095 176.03 175.112 187.179 182.473C185.578 187.779 182.6 192.553 178.555 196.296C178.555 196.296 172.395 194.624 164.215 186.827C154.359 177.383 158.634 171.107 162.539 171.095Z" fill="#263238"/>
<path d="M283.514 189.783H223.146C222.639 189.792 222.135 189.691 221.668 189.487C221.202 189.283 220.784 188.981 220.441 188.601C220.099 188.222 219.84 187.772 219.682 187.284C219.524 186.795 219.47 186.278 219.524 185.766L224.07 133.143C224.179 132.055 224.678 131.045 225.473 130.304C226.267 129.564 227.303 129.144 228.382 129.125H288.75C289.258 129.117 289.761 129.218 290.227 129.422C290.693 129.626 291.11 129.928 291.452 130.308C291.793 130.688 292.051 131.137 292.208 131.626C292.364 132.115 292.416 132.632 292.36 133.143L287.814 185.766C287.706 186.852 287.209 187.86 286.417 188.601C285.624 189.341 284.592 189.762 283.514 189.783Z" fill="#B843FF"/>
<path opacity="0.4" d="M283.514 189.783H223.146C222.639 189.792 222.135 189.691 221.668 189.487C221.202 189.283 220.784 188.981 220.441 188.601C220.099 188.222 219.84 187.772 219.682 187.284C219.524 186.795 219.47 186.278 219.524 185.766L224.07 133.143C224.179 132.055 224.678 131.045 225.473 130.304C226.267 129.564 227.303 129.144 228.382 129.125H288.75C289.258 129.117 289.761 129.218 290.227 129.422C290.693 129.626 291.11 129.928 291.452 130.308C291.793 130.688 292.051 131.137 292.208 131.626C292.364 132.115 292.416 132.632 292.36 133.143L287.814 185.766C287.706 186.852 287.209 187.86 286.417 188.601C285.624 189.341 284.592 189.762 283.514 189.783Z" fill="white"/>
<path opacity="0.7" d="M283.74 187.288C284.148 187.281 284.539 187.121 284.839 186.841C285.139 186.56 285.327 186.177 285.366 185.766L289.912 133.142C289.933 132.949 289.913 132.753 289.854 132.568C289.794 132.383 289.697 132.213 289.567 132.069C289.438 131.925 289.28 131.811 289.104 131.733C288.927 131.656 288.737 131.617 288.545 131.62H228.177C227.767 131.627 227.374 131.786 227.072 132.066C226.77 132.347 226.58 132.73 226.538 133.142L222.004 185.766C221.983 185.959 222.003 186.155 222.063 186.34C222.122 186.525 222.22 186.695 222.349 186.839C222.478 186.983 222.636 187.098 222.813 187.175C222.989 187.252 223.18 187.291 223.372 187.288H283.74Z" fill="white"/>
<path d="M241.79 156.348L222.078 185.242V185.766C222.057 185.959 222.077 186.155 222.137 186.34C222.196 186.525 222.294 186.695 222.423 186.839C222.552 186.983 222.711 187.098 222.887 187.175C223.063 187.252 223.254 187.291 223.446 187.288H257.646L241.79 156.348Z" fill="#B843FF"/>
<path opacity="0.3" d="M241.79 156.348L222.078 185.242V185.766C222.057 185.959 222.077 186.155 222.137 186.34C222.196 186.525 222.294 186.695 222.423 186.839C222.552 186.983 222.711 187.098 222.887 187.175C223.063 187.252 223.254 187.291 223.446 187.288H257.646L241.79 156.348Z" fill="white"/>
<path d="M285.539 183.757L269.018 151.981L244.551 187.288H283.741C284.149 187.281 284.54 187.121 284.84 186.841C285.14 186.56 285.328 186.177 285.367 185.766L285.539 183.757Z" fill="#B843FF"/>
<path d="M262.633 146.367C262.482 147.888 261.786 149.3 260.675 150.335C259.565 151.369 258.118 151.955 256.609 151.981C255.898 151.995 255.194 151.854 254.541 151.57C253.889 151.286 253.303 150.864 252.824 150.333C252.345 149.802 251.983 149.173 251.763 148.49C251.542 147.806 251.468 147.082 251.545 146.367C251.693 144.844 252.389 143.43 253.499 142.392C254.61 141.355 256.059 140.767 257.57 140.741C258.281 140.727 258.987 140.868 259.641 141.153C260.294 141.438 260.88 141.861 261.359 142.393C261.838 142.926 262.2 143.556 262.42 144.241C262.639 144.926 262.712 145.651 262.633 146.367Z" fill="#B843FF"/>
<path opacity="0.4" d="M262.633 146.367C262.482 147.888 261.786 149.3 260.675 150.335C259.565 151.369 258.118 151.955 256.609 151.981C255.898 151.995 255.194 151.854 254.541 151.57C253.889 151.286 253.303 150.864 252.824 150.333C252.345 149.802 251.983 149.173 251.763 148.49C251.542 147.806 251.468 147.082 251.545 146.367C251.693 144.844 252.389 143.43 253.499 142.392C254.61 141.355 256.059 140.767 257.57 140.741C258.281 140.727 258.987 140.868 259.641 141.153C260.294 141.438 260.88 141.861 261.359 142.393C261.838 142.926 262.2 143.556 262.42 144.241C262.639 144.926 262.712 145.651 262.633 146.367Z" fill="white"/>
<path d="M111.987 402.187L105.852 420.601L115.252 424.493L122.607 407.501L111.987 402.187Z" fill="#B97964"/>
<path d="M118.629 424.032C118.581 424.002 118.541 423.96 118.515 423.909C118.489 423.859 118.477 423.802 118.481 423.745C118.488 423.69 118.512 423.639 118.55 423.598C118.587 423.558 118.637 423.531 118.691 423.52C118.888 423.52 123.323 422.472 124.974 423.52C125.286 423.714 125.511 424.022 125.602 424.381C125.671 424.581 125.677 424.797 125.62 425C125.563 425.204 125.444 425.384 125.282 425.517C124.653 425.966 123.187 425.779 121.844 425.354C120.737 425.008 119.661 424.565 118.629 424.032ZM119.565 423.945C121.5 424.818 124.235 425.654 124.949 425.105C125.048 425.03 125.171 424.905 125.072 424.519C125.053 424.405 125.007 424.299 124.939 424.208C124.87 424.116 124.781 424.043 124.678 423.995C124.533 423.902 124.375 423.83 124.21 423.782C122.666 423.538 121.089 423.593 119.565 423.945Z" fill="#B843FF"/>
<path d="M118.493 423.969C118.47 423.927 118.457 423.88 118.457 423.832C118.457 423.783 118.47 423.736 118.493 423.694C118.493 423.57 119.725 420.7 121.462 419.952C121.71 419.847 121.976 419.793 122.245 419.793C122.513 419.793 122.779 419.847 123.027 419.952C123.705 420.238 123.816 420.675 123.754 420.975C123.606 422.285 120.28 423.844 118.826 424.019C118.809 424.027 118.79 424.032 118.771 424.032C118.751 424.032 118.732 424.027 118.715 424.019C118.677 424.03 118.637 424.032 118.598 424.023C118.559 424.014 118.523 423.995 118.493 423.969ZM122.67 420.438C122.352 420.32 122.002 420.32 121.684 420.438C120.587 421.128 119.727 422.143 119.22 423.345C120.809 422.958 123.076 421.636 123.237 420.85C123.237 420.775 123.237 420.575 122.818 420.401H122.67V420.438Z" fill="#B843FF"/>
<path d="M117.987 422.148L106.184 418.405C105.968 418.338 105.736 418.347 105.525 418.431C105.315 418.514 105.139 418.668 105.026 418.867L99.9257 427.924C99.8154 428.115 99.7435 428.326 99.7142 428.544C99.6849 428.763 99.6987 428.986 99.7548 429.199C99.8109 429.413 99.9083 429.613 100.041 429.788C100.174 429.963 100.34 430.11 100.529 430.22C100.63 430.282 100.737 430.332 100.85 430.369C105.125 431.617 108.981 432.565 114.278 434.237C120.537 436.183 118.714 436.445 126.032 438.853C130.442 440.3 132.808 435.447 130.96 434.611C122.693 430.868 122.607 427.924 120.241 423.77C119.706 422.973 118.906 422.397 117.987 422.148Z" fill="#263238"/>
<path opacity="0.2" d="M109.043 411.02L118.899 416.06L122.607 407.501L111.987 402.187L109.043 411.02Z" fill="#263238"/>
<path d="M153.656 231.864C153.656 231.864 140.412 242.107 143.245 274.195C143.516 277.164 144.477 280.271 144.477 283.664C144.477 285.922 143.861 287.507 143.135 292.585C142.075 299.97 140.128 327.517 138.071 331.098C136.014 334.678 135.176 334.042 129.447 343.923C123.287 354.553 115.279 373.192 109.082 404.781C113.22 407.738 117.946 409.744 122.93 410.657C122.93 410.657 156.773 356.611 163.968 336.487C170.411 318.485 178.086 261.033 178.086 261.033L178.702 236.081L153.656 231.864Z" fill="#B843FF"/>
<path opacity="0.1" d="M168.139 274.195H158.554C158.554 274.195 155.4 304.736 165.823 330.212C166.907 326.12 168.003 321.217 169.075 315.915L173.227 289.017C172.636 284.475 172.18 281.007 172.106 280.783C171.896 280.071 168.139 274.195 168.139 274.195Z" fill="black"/>
<path d="M166.562 409.596L166.624 429.17L177.527 428.434L179.203 409.596H166.562Z" fill="#B97964"/>
<path d="M178.783 428.099C178.729 428.092 178.678 428.068 178.638 428.029C178.598 427.991 178.571 427.941 178.561 427.887C178.549 427.832 178.554 427.774 178.576 427.723C178.598 427.671 178.636 427.628 178.685 427.6C178.857 427.5 182.713 425.105 184.623 425.529C184.979 425.609 185.291 425.823 185.498 426.128C185.625 426.296 185.699 426.499 185.71 426.711C185.721 426.922 185.668 427.132 185.559 427.313C184.611 428.033 183.439 428.383 182.257 428.298C181.096 428.338 179.933 428.271 178.783 428.099ZM179.646 427.712C181.752 427.899 184.574 427.774 185.103 427.013C185.177 426.914 185.239 426.751 185.029 426.415C184.972 426.317 184.894 426.233 184.8 426.17C184.706 426.108 184.599 426.067 184.487 426.053C184.32 426.028 184.15 426.028 183.982 426.053C182.444 426.314 180.97 426.878 179.646 427.712Z" fill="#B843FF"/>
<path d="M178.639 428.098C178.598 428.071 178.564 428.034 178.541 427.99C178.517 427.947 178.504 427.898 178.504 427.848C178.504 427.711 178.713 424.604 180.106 423.357C180.304 423.173 180.537 423.031 180.791 422.941C181.046 422.851 181.315 422.814 181.584 422.833C182.323 422.833 182.57 423.257 182.606 423.569C182.89 424.817 180.266 427.424 178.91 428.085C178.875 428.098 178.836 428.098 178.8 428.085C178.749 428.108 178.693 428.113 178.639 428.098ZM181.424 423.357C181.085 423.364 180.76 423.497 180.512 423.731C179.7 424.748 179.218 425.994 179.132 427.299C180.5 426.414 182.212 424.405 182.114 423.631C182.114 423.557 182.052 423.357 181.572 423.332H181.424V423.357Z" fill="#B843FF"/>
<path d="M177.581 426.538L165.261 426.987C165.036 426.998 164.821 427.084 164.651 427.234C164.481 427.383 164.366 427.587 164.325 427.811L162.452 438.066C162.369 438.501 162.46 438.952 162.705 439.319C162.949 439.686 163.328 439.94 163.758 440.025C163.877 440.037 163.996 440.037 164.115 440.025C168.563 439.775 172.505 439.388 178.049 439.201C184.591 438.964 182.977 439.813 190.652 439.65C195.297 439.538 195.95 434.173 193.979 433.986C184.948 433.163 183.913 430.443 180.328 427.312C179.539 426.718 178.56 426.442 177.581 426.538Z" fill="#263238"/>
<path opacity="0.2" d="M166.599 419.726L178.328 419.477L179.203 409.596H166.562L166.599 419.726Z" fill="#263238"/>
<path d="M161.035 228.309C161.035 228.309 147.815 246.037 157.61 280.708L168.698 331.348C168.698 331.348 158.176 354.378 163.77 415.136C169.191 415.907 174.7 415.781 180.081 414.762C180.081 414.762 192.401 350.598 194.262 328.927C196.319 305.049 195.087 233.075 195.087 233.075L161.035 228.309Z" fill="#B843FF"/>
<path d="M169.014 170.845C169.014 170.845 166.969 161.987 180.102 165.854C193.235 169.722 192.126 177.295 192.126 177.295L169.014 170.845Z" fill="#263238"/>
<path opacity="0.4" d="M169.014 170.845C169.014 170.845 166.969 161.987 180.102 165.854C193.235 169.722 192.126 177.295 192.126 177.295L169.014 170.845Z" fill="black"/>
<path d="M201.59 193.002C201.59 196.109 200.358 200.6 199.126 205.628C198.559 208.011 198.042 210.493 197.697 213.014C195.836 226.737 195.233 241.197 195.233 241.197C187.983 242.798 180.485 242.87 173.206 241.408C165.927 239.947 159.024 236.982 152.926 232.701C152.926 232.701 158.088 228.272 157.028 197.593C156.548 183.77 151.62 167.339 174.178 169.922C193.225 172.105 199.631 178.093 201.171 187.463C201.171 187.575 201.171 187.7 201.171 187.825L201.282 188.698C201.468 190.125 201.571 191.562 201.59 193.002Z" fill="#263238"/>
<path opacity="0.4" d="M201.588 193.002C201.588 196.108 200.356 200.599 199.124 205.627C193.975 199.389 188.812 187.599 188.812 187.599L193.063 181.262L200.553 184.792C200.812 185.669 201.018 186.56 201.169 187.462C201.169 187.575 201.169 187.699 201.169 187.824L201.28 188.697C201.467 190.125 201.569 191.562 201.588 193.002Z" fill="black"/>
<path d="M209.441 187.587C209.441 187.587 216.833 194.973 219.753 197.942L245.304 190.182C245.472 188.845 246.031 187.588 246.909 186.574C247.787 185.561 248.944 184.836 250.232 184.493L252.031 184.019L255.875 182.946C256.591 182.75 257.345 182.747 258.063 182.937C258.78 183.128 259.436 183.505 259.965 184.032C260.584 184.65 261 185.447 261.154 186.314C261.309 187.18 261.195 188.074 260.827 188.872C260.067 190.531 258.896 191.961 257.428 193.026C255.96 194.091 254.245 194.753 252.45 194.948L248.828 195.335C248.828 195.335 226.023 207.948 218.681 207.249C211.338 206.551 201.691 197.606 201.691 197.606L209.441 187.587Z" fill="#B97964"/>
<path d="M191.078 174.151C197.386 175.087 203.83 180.165 213.834 189.122C211.464 194.133 207.809 198.407 203.251 201.498C203.251 201.498 197.423 198.916 190.475 189.971C182.073 179.142 187.259 173.577 191.078 174.151Z" fill="#263238"/>
</svg>
