<svg width="551" height="418" viewBox="0 0 551 418" fill="none" xmlns="http://www.w3.org/2000/svg">
<path d="M0 366.777H551V367.057H0V366.777Z" fill="#EBEBEB"/>
<path d="M55.2103 384.802H91.7085V385.082H55.2103V384.802Z" fill="#EBEBEB"/>
<path d="M185.995 387.849H195.572V388.129H185.995V387.849Z" fill="#EBEBEB"/>
<path d="M92.8106 374.406H113.958V374.686H92.8106V374.406Z" fill="#EBEBEB"/>
<path d="M445.594 376.288H493.189V376.568H445.594V376.288Z" fill="#EBEBEB"/>
<path d="M428.799 376.288H435.774V376.568H428.799V376.288Z" fill="#EBEBEB"/>
<path d="M302.885 381.015H406.12V381.295H302.885V381.015Z" fill="#EBEBEB"/>
<path d="M289.826 316.812H502.611C504.278 316.809 505.876 316.134 507.053 314.935C508.231 313.736 508.893 312.11 508.893 310.416V6.34073C508.878 4.65587 508.21 3.04487 507.034 1.85765C505.858 0.670435 504.269 0.00288625 502.611 0H289.826C288.157 0 286.557 0.673941 285.377 1.87356C284.197 3.07318 283.534 4.70022 283.534 6.39674V310.416C283.534 312.112 284.197 313.739 285.377 314.939C286.557 316.138 288.157 316.812 289.826 316.812ZM502.611 0.224055C504.205 0.227022 505.733 0.872763 506.859 2.01954C507.985 3.16632 508.617 4.72043 508.617 6.34073V310.416C508.617 312.036 507.985 313.59 506.859 314.737C505.733 315.884 504.205 316.529 502.611 316.532H289.826C288.231 316.529 286.702 315.884 285.575 314.738C284.447 313.591 283.812 312.037 283.809 310.416V6.34073C283.812 4.7194 284.447 3.16531 285.575 2.01886C286.702 0.8724 288.231 0.227016 289.826 0.224055H502.611Z" fill="#EBEBEB"/>
<path d="M51.4524 316.812H264.249C265.917 316.809 267.515 316.135 268.695 314.936C269.874 313.737 270.538 312.111 270.541 310.416V6.34073C270.524 4.65485 269.853 3.04386 268.675 1.85695C267.498 0.670043 265.907 0.00285477 264.249 0H51.4524C49.7969 0.00583044 48.2103 0.674682 47.0366 1.86158C45.8629 3.04849 45.1965 4.65781 45.182 6.34073V310.416C45.182 312.108 45.8419 313.732 47.0172 314.931C48.1926 316.13 49.7874 316.806 51.4524 316.812ZM264.249 0.224055C265.843 0.227016 267.372 0.8724 268.5 2.01886C269.628 3.16531 270.263 4.7194 270.266 6.34073V310.416C270.263 312.037 269.628 313.591 268.5 314.738C267.372 315.884 265.843 316.529 264.249 316.532H51.4524C49.8575 316.529 48.3288 315.884 47.201 314.738C46.0733 313.591 45.4384 312.037 45.4355 310.416V6.34073C45.4384 4.7194 46.0733 3.16531 47.201 2.01886C48.3288 0.8724 49.8575 0.227016 51.4524 0.224055H264.249Z" fill="#EBEBEB"/>
<path d="M93.2626 234.349H123.81V265.403H93.2626V234.349Z" fill="#D9D9D9"/>
<path d="M90.0005 238.842H127.072V260.597H90.0005V238.842Z" fill="#D9D9D9"/>
<path d="M100.524 220.738H116.547V230.754H100.524V220.738Z" fill="#D9D9D9"/>
<path d="M98.2433 222.844H118.829V228.21H98.2433V222.844Z" fill="#D9D9D9"/>
<path d="M85.9451 234.349H90.0776V238.55H85.9451V234.349Z" fill="#D9D9D9"/>
<path d="M82.4957 222.844H85.8237V234.349H82.4957V222.844Z" fill="#D9D9D9"/>
<path d="M85.9453 247.154H90.166V251.445H85.9453V247.154Z" fill="#D9D9D9"/>
<path d="M81.5814 242.718H85.9453V247.154H81.5814V242.718Z" fill="#D9D9D9"/>
<path d="M77.3168 236.456H81.5815V242.718H77.3168V236.456Z" fill="#D9D9D9"/>
<path d="M131.127 238.562H126.994V234.361H131.127V238.562Z" fill="#D9D9D9"/>
<path d="M134.577 234.361H131.249V222.856H134.577V234.361Z" fill="#D9D9D9"/>
<path d="M131.127 251.445H126.906V247.154H131.127V251.445Z" fill="#D9D9D9"/>
<path d="M135.491 247.166H131.127V242.729H135.491V247.166Z" fill="#D9D9D9"/>
<path d="M139.745 242.729H135.48V236.467H139.745V242.729Z" fill="#D9D9D9"/>
<path d="M127.832 269.436H123.699V265.235H127.832V269.436Z" fill="#D9D9D9"/>
<path d="M131.281 280.953H127.953V269.447H131.281V280.953Z" fill="#D9D9D9"/>
<path d="M131.171 258.211H126.95V253.921H131.171V258.211Z" fill="#D9D9D9"/>
<path d="M135.535 262.636H131.171V258.2H135.535V262.636Z" fill="#D9D9D9"/>
<path d="M139.789 268.91H135.524V262.647H139.789V268.91Z" fill="#D9D9D9"/>
<path d="M89.1629 265.235H93.2954V269.436H89.1629V265.235Z" fill="#D9D9D9"/>
<path d="M85.7135 269.436H89.0415V280.941H85.7135V269.436Z" fill="#D9D9D9"/>
<path d="M85.9776 253.92H90.1982V258.211H85.9776V253.92Z" fill="#D9D9D9"/>
<path d="M81.6253 258.211H85.9893V262.648H81.6253V258.211Z" fill="#D9D9D9"/>
<path d="M77.2831 262.636H81.5479V268.899H77.2831V262.636Z" fill="#D9D9D9"/>
<path d="M275.831 115.668H306.378V146.722H275.831V115.668Z" fill="#D9D9D9"/>
<path d="M272.558 120.149H309.629V141.905H272.558V120.149Z" fill="#D9D9D9"/>
<path d="M283.092 102.045H299.115V112.061H283.092V102.045Z" fill="#D9D9D9"/>
<path d="M280.812 104.163H301.397V109.529H280.812V104.163Z" fill="#D9D9D9"/>
<path d="M268.513 115.668H272.646V119.869H268.513V115.668Z" fill="#D9D9D9"/>
<path d="M265.053 104.163H268.381V115.668H265.053V104.163Z" fill="#D9D9D9"/>
<path d="M268.502 128.473H272.723V132.763H268.502V128.473Z" fill="#D9D9D9"/>
<path d="M264.15 124.036H268.514V128.473H264.15V124.036Z" fill="#D9D9D9"/>
<path d="M259.885 117.774H264.149V124.037H259.885V117.774Z" fill="#D9D9D9"/>
<path d="M313.684 119.869H309.552V115.668H313.684V119.869Z" fill="#D9D9D9"/>
<path d="M317.145 115.668H313.817V104.163H317.145V115.668Z" fill="#D9D9D9"/>
<path d="M313.695 132.752H309.475V128.462H313.695V132.752Z" fill="#D9D9D9"/>
<path d="M318.059 128.473H313.695V124.036H318.059V128.473Z" fill="#D9D9D9"/>
<path d="M322.313 124.036H318.048V117.774H322.313V124.036Z" fill="#D9D9D9"/>
<path d="M310.389 150.744H306.257V146.543H310.389V150.744Z" fill="#D9D9D9"/>
<path d="M313.85 162.26H310.521V150.755H313.85V162.26Z" fill="#D9D9D9"/>
<path d="M313.739 139.519H309.519V135.228H313.739V139.519Z" fill="#D9D9D9"/>
<path d="M318.092 143.955H313.728V139.519H318.092V143.955Z" fill="#D9D9D9"/>
<path d="M322.358 150.217H318.093V143.955H322.358V150.217Z" fill="#D9D9D9"/>
<path d="M271.731 146.554H275.864V150.755H271.731V146.554Z" fill="#D9D9D9"/>
<path d="M268.272 150.755H271.6V162.26H268.272V150.755Z" fill="#D9D9D9"/>
<path d="M268.546 135.239H272.767V139.53H268.546V135.239Z" fill="#D9D9D9"/>
<path d="M264.182 139.519H268.546V143.955H264.182V139.519Z" fill="#D9D9D9"/>
<path d="M259.84 143.955H264.105V150.217H259.84V143.955Z" fill="#D9D9D9"/>
<path d="M285.836 23.8955H305.033V43.4106H285.836V23.8955Z" fill="#D9D9D9" fill-opacity="0.96"/>
<path d="M283.787 26.7185H307.072V40.3858H283.787V26.7185Z" fill="#D9D9D9" fill-opacity="0.96"/>
<path d="M290.41 15.3477H300.471V21.6436H290.41V15.3477Z" fill="#D9D9D9" fill-opacity="0.96"/>
<path d="M288.977 16.6697H301.904V20.0417H288.977V16.6697Z" fill="#D9D9D9" fill-opacity="0.96"/>
<path d="M281.242 23.8955H283.842V26.5393H281.242V23.8955Z" fill="#D9D9D9" fill-opacity="0.96"/>
<path d="M279.07 16.6697H281.164V23.8954H279.07V16.6697Z" fill="#D9D9D9" fill-opacity="0.96"/>
<path d="M281.253 31.9392H283.897V34.6279H281.253V31.9392Z" fill="#D9D9D9" fill-opacity="0.96"/>
<path d="M278.508 29.1609H281.241V31.9392H278.508V29.1609Z" fill="#D9D9D9" fill-opacity="0.96"/>
<path d="M275.83 25.2175H278.508V29.1497H275.83V25.2175Z" fill="#D9D9D9" fill-opacity="0.96"/>
<path d="M309.629 26.5393H307.028V23.8955H309.629V26.5393Z" fill="#D9D9D9" fill-opacity="0.96"/>
<path d="M311.8 23.8955H309.706V16.6698H311.8V23.8955Z" fill="#D9D9D9" fill-opacity="0.96"/>
<path d="M309.618 34.6277H306.973V31.939H309.618V34.6277Z" fill="#D9D9D9" fill-opacity="0.96"/>
<path d="M312.362 31.9392H309.629V29.1609H312.362V31.9392Z" fill="#D9D9D9" fill-opacity="0.96"/>
<path d="M315.039 29.1609H312.361V25.2287H315.039V29.1609Z" fill="#D9D9D9" fill-opacity="0.96"/>
<path d="M307.557 45.9309H304.957V43.2871H307.557V45.9309Z" fill="#D9D9D9" fill-opacity="0.96"/>
<path d="M309.728 53.157H307.634V45.9312H309.728V53.157Z" fill="#D9D9D9" fill-opacity="0.96"/>
<path d="M309.639 38.8848H306.995V36.1961H309.639V38.8848Z" fill="#D9D9D9" fill-opacity="0.96"/>
<path d="M312.395 41.6631H309.651V38.8848H312.395V41.6631Z" fill="#D9D9D9" fill-opacity="0.96"/>
<path d="M315.062 45.6062H312.384V41.6741H315.062V45.6062Z" fill="#D9D9D9" fill-opacity="0.96"/>
<path d="M283.259 43.2986H285.859V45.9424H283.259V43.2986Z" fill="#D9D9D9" fill-opacity="0.96"/>
<path d="M281.098 45.9426H283.192V53.1684H281.098V45.9426Z" fill="#D9D9D9" fill-opacity="0.96"/>
<path d="M281.274 36.1848H283.919V38.8735H281.274V36.1848Z" fill="#D9D9D9" fill-opacity="0.96"/>
<path d="M278.53 38.8848H281.274V41.663H278.53V38.8848Z" fill="#D9D9D9" fill-opacity="0.96"/>
<path d="M275.809 41.6631H278.487V45.5952H275.809V41.6631Z" fill="#D9D9D9" fill-opacity="0.96"/>
<path d="M464.118 32.4543H476.031V44.5645H464.118V32.4543Z" fill="#D9D9D9" fill-opacity="0.96"/>
<path d="M462.851 34.2019H477.298V42.6824H462.851V34.2019Z" fill="#D9D9D9" fill-opacity="0.96"/>
<path d="M466.951 27.144H473.199V31.0538H466.951V27.144Z" fill="#D9D9D9" fill-opacity="0.96"/>
<path d="M466.069 27.9731H474.091V30.068H466.069V27.9731Z" fill="#D9D9D9" fill-opacity="0.96"/>
<path d="M461.275 32.4543H462.884V34.0899H461.275V32.4543Z" fill="#D9D9D9" fill-opacity="0.96"/>
<path d="M459.919 27.9731H461.22V32.4542H459.919V27.9731Z" fill="#D9D9D9" fill-opacity="0.96"/>
<path d="M461.276 37.4507H462.917V39.1199H461.276V37.4507Z" fill="#D9D9D9" fill-opacity="0.96"/>
<path d="M459.578 35.7146H461.275V37.4398H459.578V35.7146Z" fill="#D9D9D9" fill-opacity="0.96"/>
<path d="M457.914 33.2722H459.578V35.7144H457.914V33.2722Z" fill="#D9D9D9" fill-opacity="0.96"/>
<path d="M478.886 34.1011H477.277V32.4655H478.886V34.1011Z" fill="#D9D9D9" fill-opacity="0.96"/>
<path d="M480.24 32.4543H478.94V27.9733H480.24V32.4543Z" fill="#D9D9D9" fill-opacity="0.96"/>
<path d="M478.885 39.1084H477.243V37.4392H478.885V39.1084Z" fill="#D9D9D9" fill-opacity="0.96"/>
<path d="M480.582 37.4507H478.885V35.7255H480.582V37.4507Z" fill="#D9D9D9" fill-opacity="0.96"/>
<path d="M482.246 35.7256H480.582V33.2834H482.246V35.7256Z" fill="#D9D9D9" fill-opacity="0.96"/>
<path d="M477.607 46.1216H475.998V44.486H477.607V46.1216Z" fill="#D9D9D9" fill-opacity="0.96"/>
<path d="M478.951 50.6138H477.651V46.1327H478.951V50.6138Z" fill="#D9D9D9" fill-opacity="0.96"/>
<path d="M478.908 41.7527H477.266V40.0835H478.908V41.7527Z" fill="#D9D9D9" fill-opacity="0.96"/>
<path d="M480.593 43.4778H478.896V41.7526H480.593V43.4778Z" fill="#D9D9D9" fill-opacity="0.96"/>
<path d="M482.268 45.9309H480.604V43.4887H482.268V45.9309Z" fill="#D9D9D9" fill-opacity="0.96"/>
<path d="M462.532 44.4973H464.141V46.1329H462.532V44.4973Z" fill="#D9D9D9" fill-opacity="0.96"/>
<path d="M461.175 46.1328H462.476V50.6139H461.175V46.1328Z" fill="#D9D9D9" fill-opacity="0.96"/>
<path d="M461.286 40.0837H462.928V41.7529H461.286V40.0837Z" fill="#D9D9D9" fill-opacity="0.96"/>
<path d="M459.589 41.7527H461.286V43.4779H459.589V41.7527Z" fill="#D9D9D9" fill-opacity="0.96"/>
<path d="M457.892 43.4778H459.556V45.92H457.892V43.4778Z" fill="#D9D9D9" fill-opacity="0.96"/>
<path d="M456.448 146.991H497.487V176.655H456.448V146.991Z" fill="#D9D9D9"/>
<path d="M460.129 144.694H493.806V178.93H460.129V144.694Z" fill="#D9D9D9"/>
<path d="M488.803 134.78H493.288V142.924H488.803V134.78Z" fill="#D9D9D9"/>
<path d="M460.647 134.78H465.132V142.924H460.647V134.78Z" fill="#D9D9D9"/>
<path d="M465.143 130.276H488.803V134.981H465.143V130.276Z" fill="#D9D9D9"/>
<path d="M472.03 155.023H481.904V161.823H472.03V155.023Z" fill="#FAFAFA"/>
<path d="M475.205 159.359H478.742V169.8H475.205V159.359Z" fill="#FAFAFA"/>
<path d="M165.928 61.3459H206.967V91.0107H165.928V61.3459Z" fill="#D9D9D9"/>
<path d="M169.609 59.0493H203.286V93.2848H169.609V59.0493Z" fill="#D9D9D9"/>
<path d="M198.272 49.1353H202.757V57.2796H198.272V49.1353Z" fill="#D9D9D9"/>
<path d="M170.126 49.1353H174.611V57.2796H170.126V49.1353Z" fill="#D9D9D9"/>
<path d="M174.612 44.6318H198.272V49.337H174.612V44.6318Z" fill="#D9D9D9"/>
<path d="M181.51 69.3787H191.384V76.1787H181.51V69.3787Z" fill="#FAFAFA"/>
<path d="M184.684 73.7139H188.221V84.1548H184.684V73.7139Z" fill="#FAFAFA"/>
<path d="M164.518 302.216H205.557V331.88H164.518V302.216Z" fill="#D9D9D9"/>
<path d="M168.198 299.919H201.875V334.155H168.198V299.919Z" fill="#D9D9D9"/>
<path d="M196.862 290.005H201.347V298.149H196.862V290.005Z" fill="#D9D9D9"/>
<path d="M168.716 290.005H173.201V298.149H168.716V290.005Z" fill="#D9D9D9"/>
<path d="M173.201 285.501H196.861V290.206H173.201V285.501Z" fill="#D9D9D9"/>
<path d="M180.1 310.248H189.974V317.048H180.1V310.248Z" fill="#FAFAFA"/>
<path d="M183.262 314.583H186.8V325.024H183.262V314.583Z" fill="#FAFAFA"/>
<path d="M199.308 201.962H221.602V218.072H199.308V201.962Z" fill="#D9D9D9" fill-opacity="0.96"/>
<path d="M201.313 200.719H219.606V219.315H201.313V200.719Z" fill="#D9D9D9" fill-opacity="0.96"/>
<path d="M216.885 195.331H219.32V199.756H216.885V195.331Z" fill="#D9D9D9" fill-opacity="0.96"/>
<path d="M201.6 195.331H204.036V199.756H201.6V195.331Z" fill="#D9D9D9" fill-opacity="0.96"/>
<path d="M204.035 192.888H216.885V195.442H204.035V192.888Z" fill="#D9D9D9" fill-opacity="0.96"/>
<path d="M207.771 206.32H213.138V210.017H207.771V206.32Z" fill="#D9D9D9"/>
<path d="M209.49 208.673H211.418V214.342H209.49V208.673Z" fill="#D9D9D9"/>
<path d="M368.751 30.7292H403.266V74.7671H368.751V30.7292Z" fill="#D9D9D9"/>
<path d="M361.61 32.9697H410.396V57.526H361.61V32.9697Z" fill="#D9D9D9"/>
<path d="M364.465 52.3501H407.553V67.709H364.465V52.3501Z" fill="#D9D9D9"/>
<path d="M374.305 70.678H397.712V78.968H374.305V70.678Z" fill="#D9D9D9"/>
<path d="M382.911 76.2122H389.116V82.945H382.911V76.2122Z" fill="#D9D9D9"/>
<path d="M396.687 47.0515H401.877V52.328H396.687V47.0515Z" fill="#FAFAFA"/>
<path d="M391.375 52.5298H396.687V57.9295H391.375V52.5298Z" fill="#FAFAFA"/>
<path d="M384.951 57.9407H391.365V62.769H384.951V57.9407Z" fill="#FAFAFA"/>
<path d="M380.157 51.0957H384.951V57.963H380.157V51.0957Z" fill="#FAFAFA"/>
<path d="M375.363 44.8892H380.157V51.1067H375.363V44.8892Z" fill="#FAFAFA"/>
<path d="M370.14 39.7139H375.363V45.024H370.14V39.7139Z" fill="#FAFAFA"/>
<path d="M75.002 43.1865H96.4028V70.4875H75.002V43.1865Z" fill="#D9D9D9" fill-opacity="0.96"/>
<path d="M70.5826 44.5754H100.833V59.7999H70.5826V44.5754Z" fill="#D9D9D9" fill-opacity="0.96"/>
<path d="M72.3461 56.5962H99.0586V66.1185H72.3461V56.5962Z" fill="#D9D9D9" fill-opacity="0.96"/>
<path d="M78.4515 67.9558H92.9648V73.0978H78.4515V67.9558Z" fill="#D9D9D9" fill-opacity="0.96"/>
<path d="M83.7849 71.3835H87.6309V75.5621H83.7849V71.3835Z" fill="#D9D9D9" fill-opacity="0.96"/>
<path d="M92.3256 53.3025H95.5435V56.5737H92.3256V53.3025Z" fill="#D9D9D9"/>
<path d="M89.0307 56.708H92.3257V60.0576H89.0307V56.708Z" fill="#D9D9D9"/>
<path d="M85.0525 60.0579H89.0308V63.049H85.0525V60.0579Z" fill="#D9D9D9"/>
<path d="M82.0774 55.812H85.0527V60.069H82.0774V55.812Z" fill="#D9D9D9"/>
<path d="M79.1022 51.9583H82.0776V55.812H79.1022V51.9583Z" fill="#D9D9D9"/>
<path d="M75.8617 48.7544H79.1016V52.048H75.8617V48.7544Z" fill="#D9D9D9"/>
<path d="M259.973 301.129H275.037V320.341H259.973V301.129Z" fill="#D9D9D9" fill-opacity="0.96"/>
<path d="M256.866 302.103H278.156V312.824H256.866V302.103Z" fill="#D9D9D9" fill-opacity="0.96"/>
<path d="M258.11 310.561H276.91V317.261H258.11V310.561Z" fill="#D9D9D9" fill-opacity="0.96"/>
<path d="M262.398 318.571H272.613V322.19H262.398V318.571Z" fill="#D9D9D9" fill-opacity="0.96"/>
<path d="M266.155 320.98H268.866V323.915H266.155V320.98Z" fill="#D9D9D9" fill-opacity="0.96"/>
<path d="M272.161 308.254H274.431V310.561H272.161V308.254Z" fill="#D9D9D9"/>
<path d="M269.858 310.651H272.172V313.004H269.858V310.651Z" fill="#D9D9D9"/>
<path d="M267.048 313.004H269.847V315.11H267.048V313.004Z" fill="#D9D9D9"/>
<path d="M264.954 310.024H267.048V313.026H264.954V310.024Z" fill="#D9D9D9"/>
<path d="M262.859 307.312H264.953V310.024H262.859V307.312Z" fill="#D9D9D9"/>
<path d="M260.579 305.05H262.86V307.369H260.579V305.05Z" fill="#D9D9D9"/>
<path d="M275.5 417.368C157.495 417.368 61.8334 411.69 61.8334 404.687C61.8334 397.683 157.495 392.005 275.5 392.005C393.505 392.005 489.167 397.683 489.167 404.687C489.167 411.69 393.505 417.368 275.5 417.368Z" fill="#EDEDED" fill-opacity="0.96"/>
<path d="M115.511 328.609C115.511 328.609 108.514 322.683 102.519 328.609C96.5238 334.535 95.3556 371.269 95.3556 371.269" stroke="#BE53FF" stroke-miterlimit="10"/>
<path d="M94.8599 378.36C94.8599 378.36 98.9814 335.252 83.4652 317.137" stroke="#BE53FF" stroke-miterlimit="10"/>
<path d="M96.3362 373.812C96.3362 373.812 93.1624 324.744 104.811 313.866" stroke="#BE53FF" stroke-miterlimit="10"/>
<path d="M94.8599 373.812C94.8599 373.812 94.5954 341.391 85.9447 336.35C77.294 331.309 72.875 347.754 72.875 347.754" stroke="#BE53FF" stroke-miterlimit="10"/>
<path d="M98.276 373.812C98.276 373.812 96.8654 348.919 103.577 340.025C110.288 331.13 117.33 343.833 117.33 343.833" stroke="#BE53FF" stroke-miterlimit="10"/>
<path d="M95.9402 377.15C95.9402 377.15 100.282 318.896 93.1081 309.071" stroke="#BE53FF" stroke-miterlimit="10"/>
<path d="M78.5281 341.078C78.5281 341.078 82.8479 342.691 81.5586 346.511C80.2692 350.331 66.6375 356.593 66.6375 356.593C66.6375 356.593 60.9291 351.272 66.1746 342.612C71.4201 333.953 78.4179 338.322 78.5281 341.078Z" fill="#BE53FF"/>
<path opacity="0.5" d="M78.5281 341.078C78.5281 341.078 82.8479 342.691 81.5586 346.511C80.2692 350.331 66.6375 356.593 66.6375 356.593C66.6375 356.593 60.9291 351.272 66.1746 342.612C71.4201 333.953 78.4179 338.322 78.5281 341.078Z" fill="#D9D9D9"/>
<path d="M97.2846 333.84C97.2846 333.84 92.6892 333.65 92.4358 337.672C92.1823 341.694 102.354 352.829 102.354 352.829C102.354 352.829 109.638 350.152 108.073 340.103C106.508 330.054 98.4306 331.331 97.2846 333.84Z" fill="#BE53FF"/>
<path opacity="0.5" d="M97.2846 333.84C97.2846 333.84 92.6892 333.65 92.4358 337.672C92.1823 341.694 102.354 352.829 102.354 352.829C102.354 352.829 109.638 350.152 108.073 340.103C106.508 330.054 98.4306 331.331 97.2846 333.84Z" fill="#D9D9D9"/>
<path d="M101.174 314.538C101.174 314.538 98.1107 314.202 98.3641 312.297C98.6176 310.393 110.266 305.576 117.098 313.418C117.098 313.418 112.69 321.103 106.332 321.259C99.973 321.416 101.174 314.538 101.174 314.538Z" fill="#BE53FF"/>
<path opacity="0.5" d="M101.174 314.538C101.174 314.538 98.1107 314.202 98.3641 312.297C98.6176 310.393 110.266 305.576 117.098 313.418C117.098 313.418 112.69 321.103 106.332 321.259C99.973 321.416 101.174 314.538 101.174 314.538Z" fill="#D9D9D9"/>
<path d="M95.466 309.934C95.466 309.934 98.2431 311.301 99.0145 309.553C99.7859 307.805 92.4025 297.398 82.4845 300.4C82.4845 300.4 82.22 309.295 87.5757 312.802C92.9314 316.308 95.466 309.934 95.466 309.934Z" fill="#BE53FF"/>
<path opacity="0.5" d="M95.466 309.934C95.466 309.934 98.2431 311.301 99.0145 309.553C99.7859 307.805 92.4025 297.398 82.4845 300.4C82.4845 300.4 82.22 309.295 87.5757 312.802C92.9314 316.308 95.466 309.934 95.466 309.934Z" fill="#D9D9D9"/>
<path d="M109.968 339.543C109.968 339.543 107.853 337.806 110.134 336.955C112.415 336.103 123.611 336.35 123.732 347.62C123.732 347.62 110.696 349.86 109.076 345.536C107.456 341.212 109.968 339.543 109.968 339.543Z" fill="#BE53FF"/>
<path opacity="0.5" d="M109.968 339.543C109.968 339.543 107.853 337.806 110.134 336.955C112.415 336.103 123.611 336.35 123.732 347.62C123.732 347.62 110.696 349.86 109.076 345.536C107.456 341.212 109.968 339.543 109.968 339.543Z" fill="#D9D9D9"/>
<path d="M83.3883 314.258C83.3883 314.258 85.5042 312.522 83.212 311.67C80.9199 310.819 69.7456 311.065 69.6243 322.346C69.6243 322.346 82.661 324.587 84.281 320.252C85.9009 315.916 83.3883 314.258 83.3883 314.258Z" fill="#BE53FF"/>
<path opacity="0.5" d="M83.3883 314.258C83.3883 314.258 85.5042 312.522 83.212 311.67C80.9199 310.819 69.7456 311.065 69.6243 322.346C69.6243 322.346 82.661 324.587 84.281 320.252C85.9009 315.916 83.3883 314.258 83.3883 314.258Z" fill="#D9D9D9"/>
<path d="M90.276 323.332C90.276 323.332 90.4633 321.226 88.7883 322.055C87.1133 322.884 81.2726 329.281 87.3226 335.353C87.3226 335.353 95.4664 329.225 94.0007 326.032C92.5351 322.839 90.276 323.332 90.276 323.332Z" fill="#BE53FF"/>
<path opacity="0.5" d="M90.276 323.332C90.276 323.332 90.4633 321.226 88.7883 322.055C87.1133 322.884 81.2726 329.281 87.3226 335.353C87.3226 335.353 95.4664 329.225 94.0007 326.032C92.5351 322.839 90.276 323.332 90.276 323.332Z" fill="#D9D9D9"/>
<path d="M111.864 326.346C111.864 326.346 110.597 324.665 112.448 324.452C114.299 324.24 122.586 326.491 120.658 334.905C120.658 334.905 110.552 334.143 110.123 330.636C109.693 327.13 111.864 326.346 111.864 326.346Z" fill="#BE53FF"/>
<path opacity="0.5" d="M111.864 326.346C111.864 326.346 110.597 324.665 112.448 324.452C114.299 324.24 122.586 326.491 120.658 334.905C120.658 334.905 110.552 334.143 110.123 330.636C109.693 327.13 111.864 326.346 111.864 326.346Z" fill="#D9D9D9"/>
<path d="M77.7232 405.056H112.392L116.128 366.474H73.9875L77.7232 405.056Z" fill="#4A5155"/>
<path opacity="0.2" d="M77.7232 405.056H112.392L116.128 366.474H73.9875L77.7232 405.056Z" fill="#D9D9D9"/>
<path d="M72.1263 362.217H117.98V370.731H72.1263V362.217Z" fill="#4A5155"/>
<path opacity="0.4" d="M72.1263 362.217H117.98V370.731H72.1263V362.217Z" fill="#D9D9D9"/>
<path d="M60.0697 95.9512H177.929C179.322 95.9512 180.452 97.0998 180.452 98.5166V196.159C180.452 197.576 179.322 198.725 177.929 198.725H60.0697C58.676 198.725 57.5461 197.576 57.5461 196.159V98.5166C57.5461 97.0998 58.676 95.9512 60.0697 95.9512Z" fill="#BE53FF"/>
<path opacity="0.6" d="M57.5461 98.5166V196.159C57.5461 196.84 57.812 197.492 58.2852 197.973C58.7585 198.454 59.4004 198.725 60.0697 198.725H177.929C178.598 198.725 179.24 198.454 179.713 197.973C180.186 197.492 180.452 196.84 180.452 196.159V98.5166C180.449 97.8371 180.182 97.1863 179.71 96.7058C179.237 96.2254 178.597 95.9541 177.929 95.9512H60.0146C59.3558 95.9686 58.7296 96.2463 58.2688 96.7252C57.808 97.2041 57.5487 97.8467 57.5461 98.5166Z" fill="#D9D9D9"/>
<path d="M60.1693 106.404H177.841V195.846H60.1693V106.404Z" fill="#4A5155"/>
<path opacity="0.5" d="M168.264 117.55C168.12 117.655 167.946 117.711 167.768 117.707C167.639 117.709 167.512 117.679 167.397 117.621C167.282 117.563 167.183 117.477 167.107 117.371C167.041 117.283 166.993 117.182 166.966 117.074C166.939 116.967 166.934 116.855 166.95 116.745C166.967 116.635 167.005 116.53 167.062 116.436C167.119 116.341 167.194 116.259 167.283 116.195L169.708 114.369L167.272 112.543C167.185 112.477 167.111 112.395 167.054 112.3C166.998 112.206 166.961 112.101 166.944 111.992C166.928 111.883 166.933 111.771 166.959 111.664C166.985 111.557 167.032 111.456 167.096 111.367C167.16 111.278 167.241 111.202 167.334 111.145C167.427 111.088 167.53 111.05 167.638 111.033C167.745 111.017 167.855 111.022 167.961 111.048C168.066 111.075 168.165 111.122 168.253 111.187L171.559 113.697C171.662 113.776 171.745 113.879 171.802 113.996C171.86 114.114 171.89 114.243 171.89 114.374C171.89 114.506 171.86 114.635 171.802 114.753C171.745 114.87 171.662 114.973 171.559 115.052L168.264 117.55Z" fill="#D9D9D9"/>
<path opacity="0.5" d="M157.068 114.358L159.503 116.195C159.669 116.322 159.781 116.51 159.813 116.719C159.846 116.928 159.798 117.141 159.679 117.315C159.604 117.421 159.504 117.508 159.389 117.569C159.275 117.629 159.147 117.661 159.018 117.662C158.84 117.662 158.666 117.603 158.522 117.494L155.216 114.985C155.112 114.908 155.026 114.807 154.968 114.69C154.909 114.573 154.878 114.444 154.878 114.313C154.878 114.181 154.909 114.052 154.968 113.935C155.026 113.818 155.112 113.717 155.216 113.641L158.522 111.142C158.608 111.065 158.709 111.006 158.818 110.97C158.927 110.935 159.042 110.922 159.157 110.934C159.271 110.946 159.381 110.982 159.481 111.04C159.581 111.097 159.667 111.176 159.736 111.269C159.804 111.363 159.853 111.47 159.878 111.584C159.903 111.698 159.905 111.816 159.883 111.93C159.861 112.045 159.816 112.153 159.751 112.249C159.685 112.345 159.601 112.426 159.503 112.487L157.068 114.358Z" fill="#D9D9D9"/>
<path opacity="0.5" d="M164.54 117.629C164.448 117.646 164.355 117.646 164.264 117.629C164.094 117.631 163.927 117.577 163.789 117.477C163.65 117.376 163.546 117.233 163.493 117.069L161.74 112.061C161.667 111.85 161.68 111.618 161.775 111.417C161.87 111.215 162.04 111.06 162.247 110.986C162.455 110.911 162.683 110.924 162.881 111.021C163.08 111.117 163.232 111.29 163.305 111.501L165.046 116.509C165.09 116.616 165.111 116.73 165.109 116.846C165.107 116.962 165.081 117.076 165.034 117.181C164.986 117.286 164.918 117.381 164.833 117.458C164.748 117.535 164.648 117.593 164.54 117.629Z" fill="#D9D9D9"/>
<path opacity="0.5" d="M150.753 117.987H146.4C146.108 117.987 145.828 117.869 145.621 117.659C145.414 117.449 145.298 117.164 145.298 116.867C145.298 116.569 145.414 116.285 145.621 116.074C145.828 115.864 146.108 115.746 146.4 115.746H150.753C151.045 115.746 151.326 115.864 151.532 116.074C151.739 116.285 151.855 116.569 151.855 116.867C151.855 117.164 151.739 117.449 151.532 117.659C151.326 117.869 151.045 117.987 150.753 117.987Z" fill="#D9D9D9"/>
<path opacity="0.5" d="M80.1704 181.361H148.351C148.643 181.361 148.924 181.479 149.13 181.689C149.337 181.899 149.453 182.184 149.453 182.481C149.453 182.778 149.337 183.063 149.13 183.273C148.924 183.483 148.643 183.601 148.351 183.601H80.1704C79.8781 183.601 79.5978 183.483 79.3912 183.273C79.1845 183.063 79.0684 182.778 79.0684 182.481C79.0684 182.184 79.1845 181.899 79.3912 181.689C79.5978 181.479 79.8781 181.361 80.1704 181.361Z" fill="#D9D9D9"/>
<path d="M65.1943 181.361H73.6246C73.9168 181.361 74.1971 181.479 74.4038 181.689C74.6105 181.899 74.7266 182.184 74.7266 182.481C74.7266 182.778 74.6105 183.063 74.4038 183.273C74.1971 183.483 73.9168 183.601 73.6246 183.601H65.1943C64.902 183.601 64.6217 183.483 64.415 183.273C64.2084 183.063 64.0923 182.778 64.0923 182.481C64.0923 182.184 64.2084 181.899 64.415 181.689C64.6217 181.479 64.902 181.361 65.1943 181.361Z" fill="#D9D9D9"/>
<path d="M127.832 176.51H100.381C100.089 176.51 99.8087 176.392 99.602 176.182C99.3954 175.972 99.2793 175.687 99.2793 175.39C99.2793 175.092 99.3954 174.807 99.602 174.597C99.8087 174.387 100.089 174.269 100.381 174.269H127.832C128.124 174.269 128.405 174.387 128.611 174.597C128.818 174.807 128.934 175.092 128.934 175.39C128.934 175.687 128.818 175.972 128.611 176.182C128.405 176.392 128.124 176.51 127.832 176.51Z" fill="#D9D9D9"/>
<path opacity="0.5" d="M80.17 176.51C79.8777 176.51 79.5974 176.392 79.3908 176.182C79.1841 175.972 79.068 175.687 79.068 175.39C79.068 175.092 79.1841 174.807 79.3908 174.597C79.5974 174.387 79.8777 174.269 80.17 174.269H95.7413C96.0335 174.269 96.3138 174.387 96.5205 174.597C96.7271 174.807 96.8433 175.092 96.8433 175.39C96.8433 175.687 96.7271 175.972 96.5205 176.182C96.3138 176.392 96.0335 176.51 95.7413 176.51H80.17Z" fill="#D9D9D9"/>
<path opacity="0.5" d="M65.1942 174.27H73.4703C73.7625 174.27 74.0428 174.388 74.2495 174.598C74.4561 174.808 74.5723 175.093 74.5723 175.39C74.5723 175.687 74.4561 175.972 74.2495 176.182C74.0428 176.392 73.7625 176.51 73.4703 176.51H65.1942C64.902 176.51 64.6217 176.392 64.415 176.182C64.2083 175.972 64.0922 175.687 64.0922 175.39C64.0922 175.093 64.2083 174.808 64.415 174.598C64.6217 174.388 64.902 174.27 65.1942 174.27Z" fill="#D9D9D9"/>
<path d="M80.0604 167.178H116.812C117.104 167.178 117.385 167.296 117.591 167.506C117.798 167.716 117.914 168.001 117.914 168.298C117.914 168.596 117.798 168.881 117.591 169.091C117.385 169.301 117.104 169.419 116.812 169.419H80.0934C79.8012 169.419 79.5209 169.301 79.3142 169.091C79.1075 168.881 78.9914 168.596 78.9914 168.298C78.9914 168.001 79.1075 167.716 79.3142 167.506C79.5209 167.296 79.8012 167.178 80.0934 167.178H80.0604Z" fill="#D9D9D9"/>
<path d="M65.1947 167.178H73.5699C73.8621 167.178 74.1424 167.296 74.3491 167.506C74.5558 167.716 74.6719 168.001 74.6719 168.298C74.6719 168.596 74.5558 168.881 74.3491 169.091C74.1424 169.301 73.8621 169.419 73.5699 169.419H65.1947C64.9024 169.419 64.6221 169.301 64.4154 169.091C64.2088 168.881 64.0927 168.596 64.0927 168.298C64.0927 168.001 64.2088 167.716 64.4154 167.506C64.6221 167.296 64.9024 167.178 65.1947 167.178Z" fill="#D9D9D9"/>
<path opacity="0.5" d="M100.282 161.207C100.282 160.91 100.398 160.625 100.605 160.415C100.812 160.205 101.092 160.087 101.384 160.087H138.852C139.144 160.087 139.425 160.205 139.631 160.415C139.838 160.625 139.954 160.91 139.954 161.207C139.954 161.504 139.838 161.789 139.631 161.999C139.425 162.209 139.144 162.327 138.852 162.327H101.384C101.092 162.327 100.812 162.209 100.605 161.999C100.398 161.789 100.282 161.504 100.282 161.207Z" fill="#D9D9D9"/>
<path opacity="0.5" d="M94.5953 160.087C94.8875 160.087 95.1678 160.205 95.3745 160.415C95.5812 160.625 95.6973 160.91 95.6973 161.207C95.6973 161.504 95.5812 161.789 95.3745 161.999C95.1678 162.209 94.8875 162.327 94.5953 162.327H80.0709C79.7786 162.327 79.4983 162.209 79.2917 161.999C79.085 161.789 78.9689 161.504 78.9689 161.207C78.9689 160.91 79.085 160.625 79.2917 160.415C79.4983 160.205 79.7786 160.087 80.0709 160.087H94.5953Z" fill="#D9D9D9"/>
<path d="M65.1942 160.087H73.4703C73.7625 160.087 74.0428 160.205 74.2495 160.415C74.4561 160.625 74.5723 160.91 74.5723 161.207C74.5723 161.504 74.4561 161.789 74.2495 161.999C74.0428 162.209 73.7625 162.327 73.4703 162.327H65.1942C64.902 162.327 64.6217 162.209 64.415 161.999C64.2083 161.789 64.0922 161.504 64.0922 161.207C64.0922 160.91 64.2083 160.625 64.415 160.415C64.6217 160.205 64.902 160.087 65.1942 160.087Z" fill="#D9D9D9"/>
<path d="M92.5679 155.236H85.3608C85.0686 155.236 84.7883 155.118 84.5816 154.908C84.375 154.698 84.2588 154.413 84.2588 154.116C84.2588 153.819 84.375 153.534 84.5816 153.324C84.7883 153.114 85.0686 152.996 85.3608 152.996H92.5679C92.8602 152.996 93.1405 153.114 93.3471 153.324C93.5538 153.534 93.6699 153.819 93.6699 154.116C93.6699 154.413 93.5538 154.698 93.3471 154.908C93.1405 155.118 92.8602 155.236 92.5679 155.236Z" fill="#D9D9D9"/>
<path opacity="0.5" d="M80.2037 155.236H65.1944C64.9022 155.236 64.6218 155.118 64.4152 154.908C64.2085 154.698 64.0924 154.413 64.0924 154.116C64.0924 153.819 64.2085 153.534 64.4152 153.324C64.6218 153.114 64.9022 152.996 65.1944 152.996H80.2037C80.4959 152.996 80.7762 153.114 80.9829 153.324C81.1896 153.534 81.3057 153.819 81.3057 154.116C81.3057 154.413 81.1896 154.698 80.9829 154.908C80.7762 155.118 80.4959 155.236 80.2037 155.236Z" fill="#D9D9D9"/>
<path d="M132.956 147.025C132.956 146.727 133.072 146.443 133.279 146.232C133.485 146.022 133.766 145.904 134.058 145.904H171.912C172.204 145.904 172.484 146.022 172.691 146.232C172.898 146.443 173.014 146.727 173.014 147.025C173.014 147.322 172.898 147.607 172.691 147.817C172.484 148.027 172.204 148.145 171.912 148.145H134.091C133.944 148.149 133.797 148.124 133.659 148.069C133.522 148.015 133.396 147.933 133.29 147.829C133.184 147.724 133.1 147.599 133.043 147.461C132.985 147.323 132.956 147.175 132.956 147.025Z" fill="#D9D9D9"/>
<path opacity="0.5" d="M128.107 148.145H116.988C116.696 148.145 116.416 148.027 116.209 147.817C116.002 147.607 115.886 147.322 115.886 147.025C115.886 146.727 116.002 146.443 116.209 146.232C116.416 146.022 116.696 145.904 116.988 145.904H128.107C128.4 145.904 128.68 146.022 128.887 146.232C129.093 146.443 129.209 146.727 129.209 147.025C129.209 147.322 129.093 147.607 128.887 147.817C128.68 148.027 128.4 148.145 128.107 148.145Z" fill="#D9D9D9"/>
<path opacity="0.5" d="M171.912 141.054H157.586C157.293 141.054 157.013 140.936 156.806 140.725C156.6 140.515 156.484 140.23 156.484 139.933C156.484 139.636 156.6 139.351 156.806 139.141C157.013 138.931 157.293 138.813 157.586 138.813H171.912C172.204 138.813 172.484 138.931 172.691 139.141C172.898 139.351 173.014 139.636 173.014 139.933C173.014 140.23 172.898 140.515 172.691 140.725C172.484 140.936 172.204 141.054 171.912 141.054Z" fill="#D9D9D9"/>
<path d="M104.866 139.933C104.866 139.636 104.982 139.351 105.189 139.141C105.396 138.931 105.676 138.813 105.968 138.813H150.445C150.737 138.813 151.017 138.931 151.224 139.141C151.431 139.351 151.547 139.636 151.547 139.933C151.547 140.23 151.431 140.515 151.224 140.725C151.017 140.936 150.737 141.054 150.445 141.054H105.968C105.676 141.054 105.396 140.936 105.189 140.725C104.982 140.515 104.866 140.23 104.866 139.933Z" fill="#D9D9D9"/>
<path d="M171.912 133.962H145.96C145.667 133.962 145.387 133.844 145.18 133.634C144.974 133.424 144.858 133.139 144.858 132.842C144.858 132.545 144.974 132.26 145.18 132.05C145.387 131.839 145.667 131.721 145.96 131.721H171.912C172.204 131.721 172.484 131.839 172.691 132.05C172.898 132.26 173.014 132.545 173.014 132.842C173.014 133.139 172.898 133.424 172.691 133.634C172.484 133.844 172.204 133.962 171.912 133.962Z" fill="#D9D9D9"/>
<path opacity="0.5" d="M141.056 132.842C141.056 133.139 140.94 133.424 140.733 133.634C140.526 133.844 140.246 133.962 139.954 133.962H133.529C133.237 133.962 132.956 133.844 132.75 133.634C132.543 133.424 132.427 133.139 132.427 132.842C132.427 132.545 132.543 132.26 132.75 132.05C132.956 131.839 133.237 131.721 133.529 131.721H139.954C140.246 131.721 140.526 131.839 140.733 132.05C140.94 132.26 141.056 132.545 141.056 132.842Z" fill="#D9D9D9"/>
<path opacity="0.5" d="M171.912 126.871H141.265C140.973 126.871 140.692 126.753 140.486 126.543C140.279 126.332 140.163 126.048 140.163 125.75C140.163 125.453 140.279 125.168 140.486 124.958C140.692 124.748 140.973 124.63 141.265 124.63H171.912C172.204 124.63 172.484 124.748 172.691 124.958C172.898 125.168 173.014 125.453 173.014 125.75C173.014 126.048 172.898 126.332 172.691 126.543C172.484 126.753 172.204 126.871 171.912 126.871Z" fill="#D9D9D9"/>
<path d="M118.454 126.871H94.948C94.6557 126.871 94.3754 126.753 94.1688 126.543C93.9621 126.332 93.846 126.048 93.846 125.75C93.846 125.453 93.9621 125.168 94.1688 124.958C94.3754 124.748 94.6557 124.63 94.948 124.63H118.454C118.746 124.63 119.026 124.748 119.233 124.958C119.44 125.168 119.556 125.453 119.556 125.75C119.556 126.048 119.44 126.332 119.233 126.543C119.026 126.753 118.746 126.871 118.454 126.871Z" fill="#D9D9D9"/>
<path opacity="0.2" d="M110.045 95.9512V123.801C110.045 125.287 110.626 126.711 111.659 127.762C112.693 128.812 114.094 129.402 115.555 129.402H180.452V98.5166C180.449 97.8371 180.182 97.1863 179.71 96.7058C179.237 96.2254 178.597 95.9541 177.929 95.9512H110.045Z" fill="black"/>
<path d="M118.388 17.7788H251.675C253.068 17.7788 254.198 18.9274 254.198 20.3442V117.987C254.198 119.404 253.068 120.552 251.675 120.552H118.388C116.994 120.552 115.864 119.404 115.864 117.987V20.3442C115.864 18.9274 116.994 17.7788 118.388 17.7788Z" fill="#BE53FF"/>
<path opacity="0.6" d="M115.864 20.3442V117.987C115.864 118.324 115.929 118.657 116.056 118.969C116.183 119.28 116.369 119.563 116.603 119.801C116.838 120.039 117.116 120.228 117.422 120.357C117.728 120.486 118.056 120.552 118.388 120.552H251.675C252.006 120.554 252.335 120.489 252.642 120.36C252.949 120.232 253.228 120.043 253.462 119.804C253.697 119.566 253.883 119.282 254.009 118.97C254.135 118.659 254.2 118.324 254.198 117.987V20.3442C254.198 19.6638 253.932 19.0113 253.459 18.5302C252.986 18.0491 252.344 17.7788 251.675 17.7788H118.333C117.674 17.7963 117.048 18.0739 116.587 18.5528C116.126 19.0317 115.867 19.6743 115.864 20.3442Z" fill="#D9D9D9"/>
<path d="M118.487 28.2312H251.587V117.674H118.487V28.2312Z" fill="#4A5155"/>
<path d="M242.01 39.3778C241.865 39.4829 241.692 39.5379 241.514 39.5346C241.341 39.5323 241.174 39.4752 241.035 39.3712C240.896 39.2672 240.793 39.1217 240.739 38.9549C240.686 38.7881 240.685 38.6085 240.737 38.4413C240.789 38.274 240.891 38.1275 241.029 38.0223L243.464 36.1962L241.029 34.3702C240.852 34.238 240.734 34.0398 240.701 33.8192C240.668 33.5986 240.723 33.3737 240.853 33.1939C240.983 33.0142 241.178 32.8943 241.395 32.8607C241.612 32.8271 241.833 32.8825 242.01 33.0147L245.316 35.5241C245.419 35.6035 245.502 35.706 245.559 35.8236C245.617 35.9412 245.646 36.0706 245.646 36.2018C245.646 36.3331 245.617 36.4625 245.559 36.5801C245.502 36.6977 245.419 36.8002 245.316 36.8796L242.01 39.3778Z" fill="#D9D9D9"/>
<path d="M230.825 36.1849L233.249 38.0222C233.415 38.1495 233.527 38.3373 233.56 38.5462C233.592 38.7551 233.544 38.9688 233.426 39.1425C233.35 39.2489 233.25 39.3357 233.136 39.396C233.021 39.4563 232.894 39.4884 232.764 39.4897C232.586 39.4889 232.412 39.4301 232.268 39.3217L228.962 36.8123C228.856 36.7372 228.769 36.6366 228.709 36.5195C228.65 36.4023 228.619 36.272 228.621 36.1401C228.622 36.0087 228.654 35.8795 228.713 35.7627C228.772 35.646 228.858 35.545 228.962 35.468L232.268 32.9698C232.354 32.8922 232.455 32.8336 232.564 32.7978C232.673 32.7619 232.789 32.7496 232.903 32.7615C233.017 32.7734 233.127 32.8094 233.227 32.8671C233.327 32.9249 233.413 33.0031 233.482 33.0968C233.55 33.1905 233.599 33.2976 233.624 33.4114C233.649 33.5251 233.651 33.643 233.629 33.7575C233.607 33.8721 233.562 33.9807 233.497 34.0765C233.431 34.1723 233.347 34.2532 233.249 34.3141L230.825 36.1849Z" fill="#D9D9D9"/>
<path d="M238.285 39.4898C238.194 39.5069 238.101 39.5069 238.01 39.4898C237.84 39.4898 237.674 39.4358 237.536 39.3354C237.398 39.235 237.294 39.0931 237.238 38.9297L235.497 33.9221C235.459 33.8193 235.442 33.7097 235.446 33.5998C235.45 33.49 235.476 33.3822 235.523 33.2828C235.569 33.1835 235.635 33.0946 235.715 33.0216C235.796 32.9486 235.891 32.8929 235.993 32.8578C236.098 32.8133 236.21 32.7911 236.323 32.7926C236.437 32.794 236.549 32.8192 236.652 32.8665C236.755 32.9138 236.848 32.9821 236.924 33.0674C237 33.1526 237.059 33.2529 237.095 33.362L238.836 38.3696C238.879 38.4795 238.899 38.5973 238.894 38.7154C238.889 38.8335 238.859 38.9492 238.807 39.0549C238.755 39.1607 238.682 39.2541 238.592 39.329C238.502 39.4039 238.398 39.4587 238.285 39.4898Z" fill="#D9D9D9"/>
<path opacity="0.5" d="M224.51 39.8145H220.102C219.81 39.8145 219.529 39.6965 219.323 39.4864C219.116 39.2763 219 38.9914 219 38.6942C219 38.3971 219.116 38.1122 219.323 37.9021C219.529 37.692 219.81 37.574 220.102 37.574H224.51C224.802 37.574 225.082 37.692 225.289 37.9021C225.496 38.1122 225.612 38.3971 225.612 38.6942C225.612 38.9914 225.496 39.2763 225.289 39.4864C225.082 39.6965 224.802 39.8145 224.51 39.8145Z" fill="#D9D9D9"/>
<path opacity="0.5" d="M167.966 48.6983H162.082C161.789 48.6983 161.509 48.5803 161.302 48.3702C161.096 48.1601 160.98 47.8751 160.98 47.578C160.98 47.2809 161.096 46.996 161.302 46.7859C161.509 46.5758 161.789 46.4578 162.082 46.4578H167.966C168.259 46.4578 168.539 46.5758 168.746 46.7859C168.952 46.996 169.068 47.2809 169.068 47.578C169.068 47.8751 168.952 48.1601 168.746 48.3702C168.539 48.5803 168.259 48.6983 167.966 48.6983Z" fill="#D9D9D9"/>
<path d="M231.751 47.578C231.751 47.8751 231.635 48.1601 231.428 48.3702C231.222 48.5803 230.941 48.6983 230.649 48.6983H175.549C175.257 48.6983 174.976 48.5803 174.77 48.3702C174.563 48.1601 174.447 47.8751 174.447 47.578C174.447 47.2809 174.563 46.996 174.77 46.7859C174.976 46.5758 175.257 46.4578 175.549 46.4578H230.649C230.941 46.4578 231.222 46.5758 231.428 46.7859C231.635 46.996 231.751 47.2809 231.751 47.578Z" fill="#D9D9D9"/>
<path opacity="0.5" d="M245.625 48.6983H237.195C236.902 48.6983 236.622 48.5803 236.416 48.3702C236.209 48.1601 236.093 47.8751 236.093 47.578C236.093 47.2809 236.209 46.996 236.416 46.7859C236.622 46.5758 236.902 46.4578 237.195 46.4578H245.625C245.917 46.4578 246.198 46.5758 246.404 46.7859C246.611 46.996 246.727 47.2809 246.727 47.578C246.727 47.8751 246.611 48.1601 246.404 48.3702C246.198 48.5803 245.917 48.6983 245.625 48.6983Z" fill="#D9D9D9"/>
<path d="M188.53 55.7896C188.238 55.7896 187.958 55.6716 187.751 55.4615C187.544 55.2514 187.428 54.9665 187.428 54.6693C187.428 54.3722 187.544 54.0873 187.751 53.8772C187.958 53.6671 188.238 53.5491 188.53 53.5491H210.482C210.774 53.5491 211.055 53.6671 211.261 53.8772C211.468 54.0873 211.584 54.3722 211.584 54.6693C211.584 54.9665 211.468 55.2514 211.261 55.4615C211.055 55.6716 210.774 55.7896 210.482 55.7896H188.53Z" fill="#D9D9D9"/>
<path d="M230.649 55.7896H215.078C214.785 55.7896 214.505 55.6716 214.298 55.4615C214.092 55.2514 213.976 54.9665 213.976 54.6693C213.976 54.3722 214.092 54.0873 214.298 53.8772C214.505 53.6671 214.785 53.5491 215.078 53.5491H230.649C230.941 53.5491 231.222 53.6671 231.428 53.8772C231.635 54.0873 231.751 54.3722 231.751 54.6693C231.751 54.9665 231.635 55.2514 231.428 55.4615C231.222 55.6716 230.941 55.7896 230.649 55.7896Z" fill="#D9D9D9"/>
<path opacity="0.5" d="M245.625 55.7896H237.338C237.046 55.7896 236.765 55.6716 236.559 55.4615C236.352 55.2514 236.236 54.9665 236.236 54.6693C236.236 54.3722 236.352 54.0873 236.559 53.8772C236.765 53.6671 237.046 53.5491 237.338 53.5491H245.625C245.917 53.5491 246.198 53.6671 246.404 53.8772C246.611 54.0873 246.727 54.3722 246.727 54.6693C246.727 54.9665 246.611 55.2514 246.404 55.4615C246.198 55.6716 245.917 55.7896 245.625 55.7896Z" fill="#D9D9D9"/>
<path d="M198.448 61.7609C198.448 61.4638 198.564 61.1788 198.771 60.9687C198.978 60.7587 199.258 60.6406 199.55 60.6406H230.759C231.051 60.6406 231.331 60.7587 231.538 60.9687C231.745 61.1788 231.861 61.4638 231.861 61.7609C231.861 62.058 231.745 62.343 231.538 62.553C231.331 62.7631 231.051 62.8812 230.759 62.8812H199.55C199.258 62.8812 198.978 62.7631 198.771 62.553C198.564 62.343 198.448 62.058 198.448 61.7609Z" fill="#D9D9D9"/>
<path opacity="0.5" d="M245.625 62.8812H237.25C236.958 62.8812 236.677 62.7631 236.471 62.553C236.264 62.343 236.148 62.058 236.148 61.7609C236.148 61.4638 236.264 61.1788 236.471 60.9687C236.677 60.7587 236.958 60.6406 237.25 60.6406H245.625C245.917 60.6406 246.198 60.7587 246.404 60.9687C246.611 61.1788 246.727 61.4638 246.727 61.7609C246.727 62.058 246.611 62.343 246.404 62.553C246.198 62.7631 245.917 62.8812 245.625 62.8812Z" fill="#D9D9D9"/>
<path d="M209.379 69.9722H177.421C177.129 69.9722 176.849 69.8542 176.642 69.6441C176.436 69.434 176.319 69.1491 176.319 68.852C176.319 68.5548 176.436 68.2699 176.642 68.0598C176.849 67.8497 177.129 67.7317 177.421 67.7317H209.379C209.672 67.7317 209.952 67.8497 210.159 68.0598C210.365 68.2699 210.481 68.5548 210.481 68.852C210.481 69.1491 210.365 69.434 210.159 69.6441C209.952 69.8542 209.672 69.9722 209.379 69.9722Z" fill="#D9D9D9"/>
<path d="M230.736 67.7319C231.029 67.7319 231.309 67.85 231.516 68.0601C231.722 68.2701 231.838 68.5551 231.838 68.8522C231.838 69.1493 231.722 69.4343 231.516 69.6444C231.309 69.8544 231.029 69.9725 230.736 69.9725H216.223C215.931 69.9725 215.65 69.8544 215.444 69.6444C215.237 69.4343 215.121 69.1493 215.121 68.8522C215.121 68.5551 215.237 68.2701 215.444 68.0601C215.65 67.85 215.931 67.7319 216.223 67.7319H230.736Z" fill="#D9D9D9"/>
<path opacity="0.5" d="M245.625 69.9725H237.349C237.057 69.9725 236.776 69.8544 236.57 69.6444C236.363 69.4343 236.247 69.1493 236.247 68.8522C236.247 68.5551 236.363 68.2701 236.57 68.0601C236.776 67.85 237.057 67.7319 237.349 67.7319H245.625C245.917 67.7319 246.198 67.85 246.404 68.0601C246.611 68.2701 246.727 68.5551 246.727 68.8522C246.727 69.1493 246.611 69.4343 246.404 69.6444C246.198 69.8544 245.917 69.9725 245.625 69.9725Z" fill="#D9D9D9"/>
<path d="M218.283 74.8232H225.48C225.772 74.8232 226.052 74.9413 226.259 75.1514C226.465 75.3615 226.582 75.6464 226.582 75.9435C226.582 76.2406 226.465 76.5256 226.259 76.7357C226.052 76.9458 225.772 77.0638 225.48 77.0638H218.283C217.991 77.0638 217.711 76.9458 217.504 76.7357C217.298 76.5256 217.181 76.2406 217.181 75.9435C217.181 75.6464 217.298 75.3615 217.504 75.1514C217.711 74.9413 217.991 74.8232 218.283 74.8232Z" fill="#D9D9D9"/>
<path d="M230.616 74.8232H245.625C245.917 74.8232 246.198 74.9413 246.404 75.1514C246.611 75.3615 246.727 75.6464 246.727 75.9435C246.727 76.2406 246.611 76.5256 246.404 76.7357C246.198 76.9458 245.917 77.0638 245.625 77.0638H230.616C230.324 77.0638 230.043 76.9458 229.837 76.7357C229.63 76.5256 229.514 76.2406 229.514 75.9435C229.514 75.6464 229.63 75.3615 229.837 75.1514C230.043 74.9413 230.324 74.8232 230.616 74.8232Z" fill="#D9D9D9"/>
<path d="M183.373 83.0346C183.373 83.3317 183.256 83.6166 183.05 83.8267C182.843 84.0368 182.563 84.1548 182.271 84.1548H123.512C123.22 84.1548 122.939 84.0368 122.733 83.8267C122.526 83.6166 122.41 83.3317 122.41 83.0346C122.41 82.7375 122.526 82.4525 122.733 82.2424C122.939 82.0323 123.22 81.9143 123.512 81.9143H182.271C182.563 81.9143 182.843 82.0323 183.05 82.2424C183.256 82.4525 183.373 82.7375 183.373 83.0346Z" fill="#D9D9D9"/>
<path opacity="0.5" d="M199.34 81.9143C199.633 81.9143 199.913 82.0323 200.12 82.2424C200.326 82.4525 200.442 82.7375 200.442 83.0346C200.442 83.3317 200.326 83.6166 200.12 83.8267C199.913 84.0368 199.633 84.1548 199.34 84.1548H188.221C187.929 84.1548 187.649 84.0368 187.442 83.8267C187.235 83.6166 187.119 83.3317 187.119 83.0346C187.119 82.7375 187.235 82.4525 187.442 82.2424C187.649 82.0323 187.929 81.9143 188.221 81.9143H199.34Z" fill="#D9D9D9"/>
<path opacity="0.5" d="M123.512 89.0059H137.838C138.13 89.0059 138.411 89.1239 138.617 89.334C138.824 89.5441 138.94 89.829 138.94 90.1261C138.94 90.4232 138.824 90.7082 138.617 90.9183C138.411 91.1284 138.13 91.2464 137.838 91.2464H123.512C123.22 91.2464 122.939 91.1284 122.733 90.9183C122.526 90.7082 122.41 90.4232 122.41 90.1261C122.41 89.829 122.526 89.5441 122.733 89.334C122.939 89.1239 123.22 89.0059 123.512 89.0059Z" fill="#D9D9D9"/>
<path d="M143.832 90.1261C143.832 89.829 143.949 89.5441 144.155 89.334C144.362 89.1239 144.642 89.0059 144.934 89.0059H204.85C205.142 89.0059 205.423 89.1239 205.629 89.334C205.836 89.5441 205.952 89.829 205.952 90.1261C205.952 90.4232 205.836 90.7082 205.629 90.9183C205.423 91.1284 205.142 91.2464 204.85 91.2464H144.934C144.642 91.2464 144.362 91.1284 144.155 90.9183C143.949 90.7082 143.832 90.4232 143.832 90.1261Z" fill="#D9D9D9"/>
<path d="M123.512 96.0969H149.464C149.756 96.0969 150.036 96.215 150.243 96.425C150.45 96.6351 150.566 96.9201 150.566 97.2172C150.566 97.5143 150.45 97.7993 150.243 98.0093C150.036 98.2194 149.756 98.3375 149.464 98.3375H123.512C123.22 98.3375 122.939 98.2194 122.733 98.0093C122.526 97.7993 122.41 97.5143 122.41 97.2172C122.41 96.9201 122.526 96.6351 122.733 96.425C122.939 96.215 123.22 96.0969 123.512 96.0969Z" fill="#D9D9D9"/>
<path opacity="0.5" d="M161.873 96.0969C162.165 96.0969 162.445 96.215 162.652 96.425C162.858 96.6351 162.975 96.9201 162.975 97.2172C162.975 97.5143 162.858 97.7993 162.652 98.0093C162.445 98.2194 162.165 98.3375 161.873 98.3375H155.382C155.09 98.3375 154.809 98.2194 154.603 98.0093C154.396 97.7993 154.28 97.5143 154.28 97.2172C154.28 96.9201 154.396 96.6351 154.603 96.425C154.809 96.215 155.09 96.0969 155.382 96.0969H161.873Z" fill="#D9D9D9"/>
<path d="M123.512 103.188H175.096C175.389 103.188 175.669 103.306 175.875 103.516C176.082 103.726 176.198 104.011 176.198 104.309C176.198 104.606 176.082 104.891 175.875 105.101C175.669 105.311 175.389 105.429 175.096 105.429H123.512C123.219 105.429 122.939 105.311 122.732 105.101C122.526 104.891 122.41 104.606 122.41 104.309C122.41 104.011 122.526 103.726 122.732 103.516C122.939 103.306 123.219 103.188 123.512 103.188Z" fill="#D9D9D9"/>
<path d="M197.863 103.188H215.87C216.162 103.188 216.443 103.306 216.649 103.516C216.856 103.726 216.972 104.011 216.972 104.309C216.972 104.606 216.856 104.891 216.649 105.101C216.443 105.311 216.162 105.429 215.87 105.429H197.863C197.571 105.429 197.291 105.311 197.084 105.101C196.878 104.891 196.761 104.606 196.761 104.309C196.761 104.011 196.878 103.726 197.084 103.516C197.291 103.306 197.571 103.188 197.863 103.188Z" fill="#D9D9D9"/>
<path opacity="0.2" d="M180.452 62.0074V120.553H251.675C252.006 120.554 252.335 120.489 252.642 120.36C252.949 120.232 253.228 120.043 253.462 119.805C253.697 119.566 253.883 119.283 254.009 118.971C254.135 118.659 254.2 118.325 254.198 117.987V57.0222H185.356C184.056 57.0222 182.808 57.5474 181.889 58.4823C180.969 59.4173 180.452 60.6853 180.452 62.0074Z" fill="black"/>
<path d="M192.067 61.3574H346.292C347.686 61.3574 348.816 62.506 348.816 63.9228V161.566C348.816 162.982 347.686 164.131 346.292 164.131H192.067C190.674 164.131 189.544 162.982 189.544 161.566V63.9228C189.544 62.506 190.674 61.3574 192.067 61.3574Z" fill="#BE53FF"/>
<path opacity="0.6" d="M192.067 61.3574H346.292C347.686 61.3574 348.816 62.506 348.816 63.9228V161.566C348.816 162.982 347.686 164.131 346.292 164.131H192.067C190.674 164.131 189.544 162.982 189.544 161.566V63.9228C189.544 62.506 190.674 61.3574 192.067 61.3574Z" fill="#D9D9D9"/>
<path d="M192.155 71.7983H346.193V161.241H192.155V71.7983Z" fill="#4A5155"/>
<path d="M315.591 90.5742H340.242C340.535 90.5742 340.815 90.6922 341.021 90.9023C341.228 91.1124 341.344 91.3974 341.344 91.6945C341.344 91.9916 341.228 92.2765 341.021 92.4866C340.815 92.6967 340.535 92.8148 340.242 92.8148H315.591C315.298 92.8148 315.018 92.6967 314.811 92.4866C314.605 92.2765 314.489 91.9916 314.489 91.6945C314.489 91.3974 314.605 91.1124 314.811 90.9023C315.018 90.6922 315.298 90.5742 315.591 90.5742Z" fill="#D9D9D9"/>
<path d="M315.59 97.5645H336.936C337.228 97.5645 337.509 97.6825 337.715 97.8926C337.922 98.1027 338.038 98.3876 338.038 98.6847C338.038 98.9818 337.922 99.2668 337.715 99.4769C337.509 99.687 337.228 99.805 336.936 99.805H315.59C315.298 99.805 315.018 99.687 314.811 99.4769C314.604 99.2668 314.488 98.9818 314.488 98.6847C314.488 98.3876 314.604 98.1027 314.811 97.8926C315.018 97.6825 315.298 97.5645 315.59 97.5645Z" fill="#D9D9D9"/>
<path opacity="0.5" d="M315.591 104.555H340.242C340.535 104.555 340.815 104.673 341.021 104.883C341.228 105.093 341.344 105.378 341.344 105.675C341.344 105.973 341.228 106.258 341.021 106.468C340.815 106.678 340.535 106.796 340.242 106.796H315.591C315.298 106.796 315.018 106.678 314.811 106.468C314.605 106.258 314.489 105.973 314.489 105.675C314.489 105.378 314.605 105.093 314.811 104.883C315.018 104.673 315.298 104.555 315.591 104.555Z" fill="#D9D9D9"/>
<path d="M315.591 111.545H330.324C330.617 111.545 330.897 111.663 331.104 111.874C331.31 112.084 331.426 112.369 331.426 112.666C331.426 112.963 331.31 113.248 331.104 113.458C330.897 113.668 330.617 113.786 330.324 113.786H315.591C315.298 113.786 315.018 113.668 314.811 113.458C314.605 113.248 314.489 112.963 314.489 112.666C314.489 112.369 314.605 112.084 314.811 111.874C315.018 111.663 315.298 111.545 315.591 111.545Z" fill="#D9D9D9"/>
<path d="M315.591 118.536H340.242C340.535 118.536 340.815 118.654 341.021 118.864C341.228 119.075 341.344 119.36 341.344 119.657C341.344 119.954 341.228 120.239 341.021 120.449C340.815 120.659 340.535 120.777 340.242 120.777H315.591C315.298 120.777 315.018 120.659 314.811 120.449C314.605 120.239 314.489 119.954 314.489 119.657C314.489 119.36 314.605 119.075 314.811 118.864C315.018 118.654 315.298 118.536 315.591 118.536Z" fill="#D9D9D9"/>
<path d="M315.591 125.527H335.835C336.127 125.527 336.407 125.645 336.614 125.855C336.82 126.065 336.937 126.35 336.937 126.647C336.937 126.944 336.82 127.229 336.614 127.439C336.407 127.649 336.127 127.767 335.835 127.767H315.591C315.299 127.767 315.018 127.649 314.812 127.439C314.605 127.229 314.489 126.944 314.489 126.647C314.489 126.35 314.605 126.065 314.812 125.855C315.018 125.645 315.299 125.527 315.591 125.527Z" fill="#D9D9D9"/>
<path d="M315.591 132.517H335.835C336.127 132.517 336.407 132.635 336.614 132.845C336.82 133.055 336.937 133.34 336.937 133.637C336.937 133.934 336.82 134.219 336.614 134.43C336.407 134.64 336.127 134.758 335.835 134.758H315.591C315.299 134.758 315.018 134.64 314.812 134.43C314.605 134.219 314.489 133.934 314.489 133.637C314.489 133.34 314.605 133.055 314.812 132.845C315.018 132.635 315.299 132.517 315.591 132.517Z" fill="#D9D9D9"/>
<path d="M315.59 139.508H338.038C338.33 139.508 338.611 139.626 338.817 139.836C339.024 140.046 339.14 140.331 339.14 140.628C339.14 140.925 339.024 141.21 338.817 141.42C338.611 141.63 338.33 141.748 338.038 141.748H315.59C315.298 141.748 315.018 141.63 314.811 141.42C314.605 141.21 314.488 140.925 314.488 140.628C314.488 140.331 314.605 140.046 314.811 139.836C315.018 139.626 315.298 139.508 315.59 139.508Z" fill="#D9D9D9"/>
<path opacity="0.5" d="M315.591 146.498H330.324C330.617 146.498 330.897 146.616 331.104 146.826C331.31 147.036 331.426 147.321 331.426 147.618C331.426 147.915 331.31 148.2 331.104 148.41C330.897 148.621 330.617 148.739 330.324 148.739H315.591C315.298 148.739 315.018 148.621 314.811 148.41C314.605 148.2 314.489 147.915 314.489 147.618C314.489 147.321 314.605 147.036 314.811 146.826C315.018 146.616 315.298 146.498 315.591 146.498Z" fill="#D9D9D9"/>
<path opacity="0.5" d="M315.591 83.5833H333.631C333.923 83.5833 334.203 83.7013 334.41 83.9114C334.617 84.1215 334.733 84.4064 334.733 84.7035C334.733 85.0006 334.617 85.2856 334.41 85.4957C334.203 85.7058 333.923 85.8238 333.631 85.8238H315.591C315.299 85.8238 315.019 85.7058 314.812 85.4957C314.605 85.2856 314.489 85.0006 314.489 84.7035C314.489 84.4064 314.605 84.1215 314.812 83.9114C315.019 83.7013 315.299 83.5833 315.591 83.5833Z" fill="#D9D9D9"/>
<path d="M315.591 76.593H340.242C340.535 76.593 340.815 76.711 341.021 76.9211C341.228 77.1312 341.344 77.4162 341.344 77.7133C341.344 78.0104 341.228 78.2953 341.021 78.5054C340.815 78.7155 340.535 78.8336 340.242 78.8336H315.591C315.298 78.8336 315.018 78.7155 314.811 78.5054C314.605 78.2953 314.489 78.0104 314.489 77.7133C314.489 77.4162 314.605 77.1312 314.811 76.9211C315.018 76.711 315.298 76.593 315.591 76.593Z" fill="#D9D9D9"/>
<path d="M315.591 153.477H340.242C340.535 153.477 340.815 153.595 341.021 153.805C341.228 154.016 341.344 154.3 341.344 154.598C341.344 154.895 341.228 155.18 341.021 155.39C340.815 155.6 340.535 155.718 340.242 155.718H315.591C315.298 155.718 315.018 155.6 314.811 155.39C314.605 155.18 314.489 154.895 314.489 154.598C314.489 154.3 314.605 154.016 314.811 153.805C315.018 153.595 315.298 153.477 315.591 153.477Z" fill="#D9D9D9"/>
<path opacity="0.5" d="M302.366 90.2942H307.182V93.0949H302.366V90.2942Z" fill="#D9D9D9"/>
<path opacity="0.5" d="M302.366 97.2847H307.182V100.085H302.366V97.2847Z" fill="#D9D9D9"/>
<path opacity="0.5" d="M302.366 104.275H307.182V107.076H302.366V104.275Z" fill="#D9D9D9"/>
<path opacity="0.5" d="M302.366 111.265H307.182V114.066H302.366V111.265Z" fill="#D9D9D9"/>
<path opacity="0.5" d="M302.366 118.256H307.182V121.057H302.366V118.256Z" fill="#D9D9D9"/>
<path opacity="0.5" d="M302.366 125.247H307.182V128.047H302.366V125.247Z" fill="#D9D9D9"/>
<path opacity="0.5" d="M302.366 132.237H307.182V135.037H302.366V132.237Z" fill="#D9D9D9"/>
<path opacity="0.5" d="M302.366 139.228H307.182V142.028H302.366V139.228Z" fill="#D9D9D9"/>
<path opacity="0.5" d="M302.366 146.218H307.182V149.019H302.366V146.218Z" fill="#D9D9D9"/>
<path opacity="0.5" d="M302.366 83.3035H307.182V86.1041H302.366V83.3035Z" fill="#D9D9D9"/>
<path opacity="0.5" d="M302.366 76.313H307.182V79.1137H302.366V76.313Z" fill="#D9D9D9"/>
<path opacity="0.5" d="M302.366 153.208H307.182V156.009H302.366V153.208Z" fill="#D9D9D9"/>
<path d="M277.428 91.6945C277.428 91.9916 277.312 92.2765 277.105 92.4866C276.899 92.6967 276.618 92.8148 276.326 92.8148H196.574C196.282 92.8148 196.002 92.6967 195.795 92.4866C195.589 92.2765 195.472 91.9916 195.472 91.6945C195.472 91.3974 195.589 91.1124 195.795 90.9023C196.002 90.6922 196.282 90.5742 196.574 90.5742H276.326C276.618 90.5742 276.899 90.6922 277.105 90.9023C277.312 91.1124 277.428 91.3974 277.428 91.6945Z" fill="#D9D9D9"/>
<path d="M196.575 97.5647H240.236C240.528 97.5647 240.808 97.6827 241.015 97.8928C241.222 98.1029 241.338 98.3879 241.338 98.685C241.338 98.9821 241.222 99.267 241.015 99.4771C240.808 99.6872 240.528 99.8052 240.236 99.8052H196.564C196.271 99.8052 195.991 99.6872 195.784 99.4771C195.578 99.267 195.462 98.9821 195.462 98.685C195.462 98.3879 195.578 98.1029 195.784 97.8928C195.991 97.6827 196.271 97.5647 196.564 97.5647H196.575Z" fill="#D9D9D9"/>
<path opacity="0.5" d="M250.617 97.5647H264.204C264.496 97.5647 264.777 97.6827 264.983 97.8928C265.19 98.1029 265.306 98.3879 265.306 98.685C265.306 98.9821 265.19 99.267 264.983 99.4771C264.777 99.6872 264.496 99.8052 264.204 99.8052H250.617C250.324 99.8052 250.044 99.6872 249.837 99.4771C249.631 99.267 249.515 98.9821 249.515 98.685C249.515 98.3879 249.631 98.1029 249.837 97.8928C250.044 97.6827 250.324 97.5647 250.617 97.5647Z" fill="#D9D9D9"/>
<path d="M223.022 104.555H283.632C283.925 104.555 284.205 104.673 284.412 104.883C284.618 105.093 284.734 105.378 284.734 105.675C284.734 105.973 284.618 106.258 284.412 106.468C284.205 106.678 283.925 106.796 283.632 106.796H223.022C222.73 106.796 222.45 106.678 222.243 106.468C222.036 106.258 221.92 105.973 221.92 105.675C221.92 105.378 222.036 105.093 222.243 104.883C222.45 104.673 222.73 104.555 223.022 104.555Z" fill="#D9D9D9"/>
<path opacity="0.5" d="M296.162 106.796H291.864C291.572 106.796 291.291 106.678 291.085 106.468C290.878 106.258 290.762 105.973 290.762 105.675C290.762 105.378 290.878 105.093 291.085 104.883C291.291 104.673 291.572 104.555 291.864 104.555H296.162C296.454 104.555 296.734 104.673 296.941 104.883C297.148 105.093 297.264 105.378 297.264 105.675C297.264 105.973 297.148 106.258 296.941 106.468C296.734 106.678 296.454 106.796 296.162 106.796Z" fill="#D9D9D9"/>
<path d="M215.309 112.666C215.309 112.369 215.425 112.084 215.632 111.874C215.838 111.664 216.119 111.546 216.411 111.546H272.613C272.905 111.546 273.185 111.664 273.392 111.874C273.599 112.084 273.715 112.369 273.715 112.666C273.715 112.963 273.599 113.248 273.392 113.458C273.185 113.668 272.905 113.786 272.613 113.786H216.411C216.119 113.786 215.838 113.668 215.632 113.458C215.425 113.248 215.309 112.963 215.309 112.666Z" fill="#D9D9D9"/>
<path d="M296.162 113.786H280.304C280.012 113.786 279.731 113.668 279.525 113.458C279.318 113.248 279.202 112.963 279.202 112.666C279.202 112.369 279.318 112.084 279.525 111.874C279.731 111.663 280.012 111.545 280.304 111.545H296.162C296.454 111.545 296.734 111.663 296.941 111.874C297.148 112.084 297.264 112.369 297.264 112.666C297.264 112.963 297.148 113.248 296.941 113.458C296.734 113.668 296.454 113.786 296.162 113.786Z" fill="#D9D9D9"/>
<path d="M296.162 120.777H236.246C235.954 120.777 235.673 120.659 235.467 120.449C235.26 120.239 235.144 119.954 235.144 119.657C235.144 119.36 235.26 119.075 235.467 118.864C235.673 118.654 235.954 118.536 236.246 118.536H296.162C296.454 118.536 296.734 118.654 296.941 118.864C297.148 119.075 297.264 119.36 297.264 119.657C297.264 119.954 297.148 120.239 296.941 120.449C296.734 120.659 296.454 120.777 296.162 120.777Z" fill="#D9D9D9"/>
<path d="M257.405 125.527C257.697 125.527 257.977 125.645 258.184 125.855C258.391 126.065 258.507 126.35 258.507 126.647C258.507 126.944 258.391 127.229 258.184 127.439C257.977 127.649 257.697 127.767 257.405 127.767H226.328C226.036 127.767 225.756 127.649 225.549 127.439C225.343 127.229 225.226 126.944 225.226 126.647C225.226 126.35 225.343 126.065 225.549 125.855C225.756 125.645 226.036 125.527 226.328 125.527H257.405Z" fill="#D9D9D9"/>
<path d="M296.162 127.767H269.262C268.97 127.767 268.689 127.649 268.483 127.439C268.276 127.229 268.16 126.944 268.16 126.647C268.16 126.35 268.276 126.065 268.483 125.855C268.689 125.645 268.97 125.527 269.262 125.527H296.162C296.454 125.527 296.734 125.645 296.941 125.855C297.148 126.065 297.264 126.35 297.264 126.647C297.264 126.944 297.148 127.229 296.941 127.439C296.734 127.649 296.454 127.767 296.162 127.767Z" fill="#D9D9D9"/>
<path d="M196.575 132.517H269.714C270.007 132.517 270.287 132.635 270.494 132.845C270.7 133.055 270.816 133.34 270.816 133.637C270.816 133.934 270.7 134.219 270.494 134.43C270.287 134.64 270.007 134.758 269.714 134.758H196.575C196.282 134.758 196.002 134.64 195.795 134.43C195.589 134.219 195.473 133.934 195.473 133.637C195.473 133.34 195.589 133.055 195.795 132.845C196.002 132.635 196.282 132.517 196.575 132.517Z" fill="#D9D9D9"/>
<path d="M196.575 139.508H259.797C260.089 139.508 260.369 139.626 260.576 139.836C260.783 140.046 260.899 140.331 260.899 140.628C260.899 140.925 260.783 141.21 260.576 141.42C260.369 141.63 260.089 141.748 259.797 141.748H196.575C196.283 141.748 196.003 141.63 195.796 141.42C195.589 141.21 195.473 140.925 195.473 140.628C195.473 140.331 195.589 140.046 195.796 139.836C196.003 139.626 196.283 139.508 196.575 139.508Z" fill="#D9D9D9"/>
<path opacity="0.5" d="M196.575 146.498H209.579C209.871 146.498 210.151 146.616 210.358 146.826C210.565 147.036 210.681 147.321 210.681 147.618C210.681 147.915 210.565 148.2 210.358 148.41C210.151 148.621 209.871 148.739 209.579 148.739H196.575C196.283 148.739 196.002 148.621 195.796 148.41C195.589 148.2 195.473 147.915 195.473 147.618C195.473 147.321 195.589 147.036 195.796 146.826C196.002 146.616 196.283 146.498 196.575 146.498Z" fill="#D9D9D9"/>
<path d="M218.67 146.498H266.409C266.701 146.498 266.981 146.616 267.188 146.826C267.395 147.036 267.511 147.321 267.511 147.618C267.511 147.915 267.395 148.2 267.188 148.41C266.981 148.621 266.701 148.739 266.409 148.739H218.67C218.378 148.739 218.098 148.621 217.891 148.41C217.684 148.2 217.568 147.915 217.568 147.618C217.568 147.321 217.684 147.036 217.891 146.826C218.098 146.616 218.378 146.498 218.67 146.498Z" fill="#D9D9D9"/>
<path d="M296.162 85.8238H245.062C244.77 85.8238 244.489 85.7058 244.283 85.4957C244.076 85.2856 243.96 85.0006 243.96 84.7035C243.96 84.4064 244.076 84.1215 244.283 83.9114C244.489 83.7013 244.77 83.5833 245.062 83.5833H296.162C296.454 83.5833 296.734 83.7013 296.941 83.9114C297.148 84.1215 297.264 84.4064 297.264 84.7035C297.264 85.0006 297.148 85.2856 296.941 85.4957C296.734 85.7058 296.454 85.8238 296.162 85.8238Z" fill="#D9D9D9"/>
<path d="M296.162 78.8336H216.41C216.118 78.8336 215.837 78.7155 215.631 78.5054C215.424 78.2953 215.308 78.0104 215.308 77.7133C215.308 77.4162 215.424 77.1312 215.631 76.9211C215.837 76.711 216.118 76.593 216.41 76.593H296.162C296.454 76.593 296.734 76.711 296.941 76.9211C297.148 77.1312 297.264 77.4162 297.264 77.7133C297.264 78.0104 297.148 78.2953 296.941 78.5054C296.734 78.7155 296.454 78.8336 296.162 78.8336Z" fill="#D9D9D9"/>
<path d="M221.921 153.477H255.774C256.066 153.477 256.347 153.595 256.553 153.805C256.76 154.016 256.876 154.3 256.876 154.598C256.876 154.895 256.76 155.18 256.553 155.39C256.347 155.6 256.066 155.718 255.774 155.718H221.921C221.628 155.718 221.348 155.6 221.141 155.39C220.935 155.18 220.819 154.895 220.819 154.598C220.819 154.3 220.935 154.016 221.141 153.805C221.348 153.595 221.628 153.477 221.921 153.477Z" fill="#D9D9D9"/>
<path opacity="0.5" d="M265.372 153.477H296.162C296.454 153.477 296.734 153.595 296.941 153.805C297.148 154.016 297.264 154.3 297.264 154.598C297.264 154.895 297.148 155.18 296.941 155.39C296.734 155.6 296.454 155.718 296.162 155.718H265.372C265.08 155.718 264.799 155.6 264.593 155.39C264.386 155.18 264.27 154.895 264.27 154.598C264.27 154.3 264.386 154.016 264.593 153.805C264.799 153.595 265.08 153.477 265.372 153.477Z" fill="#D9D9D9"/>
<path opacity="0.5" d="M233.723 85.824C233.431 85.824 233.151 85.706 232.944 85.4959C232.737 85.2858 232.621 85.0009 232.621 84.7038C232.621 84.4067 232.737 84.1217 232.944 83.9116C233.151 83.7015 233.431 83.5835 233.723 83.5835H237.69C237.983 83.5835 238.263 83.7015 238.47 83.9116C238.676 84.1217 238.792 84.4067 238.792 84.7038C238.792 85.0009 238.676 85.2858 238.47 85.4959C238.263 85.706 237.983 85.824 237.69 85.824H233.723Z" fill="#D9D9D9"/>
<path opacity="0.5" d="M282.024 91.6945C282.024 91.3974 282.14 91.1124 282.346 90.9023C282.553 90.6922 282.833 90.5742 283.126 90.5742H288.448C288.741 90.5742 289.021 90.6922 289.228 90.9023C289.434 91.1124 289.55 91.3974 289.55 91.6945C289.55 91.9916 289.434 92.2765 289.228 92.4866C289.021 92.6967 288.741 92.8148 288.448 92.8148H283.126C282.833 92.8148 282.553 92.6967 282.346 92.4866C282.14 92.2765 282.024 91.9916 282.024 91.6945Z" fill="#D9D9D9"/>
<path opacity="0.5" d="M221.26 119.657C221.26 119.36 221.376 119.075 221.582 118.864C221.789 118.654 222.069 118.536 222.362 118.536H228.18C228.472 118.536 228.753 118.654 228.959 118.864C229.166 119.075 229.282 119.36 229.282 119.657C229.282 119.954 229.166 120.239 228.959 120.449C228.753 120.659 228.472 120.777 228.18 120.777H222.362C222.069 120.777 221.789 120.659 221.582 120.449C221.376 120.239 221.26 119.954 221.26 119.657Z" fill="#D9D9D9"/>
<path opacity="0.5" d="M202.184 113.786C201.892 113.786 201.611 113.668 201.405 113.458C201.198 113.248 201.082 112.963 201.082 112.666C201.082 112.369 201.198 112.084 201.405 111.874C201.611 111.663 201.892 111.545 202.184 111.545H206.912C207.204 111.545 207.484 111.663 207.691 111.874C207.898 112.084 208.014 112.369 208.014 112.666C208.014 112.963 207.898 113.248 207.691 113.458C207.484 113.668 207.204 113.786 206.912 113.786H202.184Z" fill="#D9D9D9"/>
<path opacity="0.5" d="M278.575 132.517C278.867 132.517 279.147 132.635 279.354 132.845C279.561 133.055 279.677 133.34 279.677 133.637C279.677 133.934 279.561 134.219 279.354 134.43C279.147 134.64 278.867 134.758 278.575 134.758H273.825C273.533 134.758 273.253 134.64 273.046 134.43C272.839 134.219 272.723 133.934 272.723 133.637C272.723 133.34 272.839 133.055 273.046 132.845C273.253 132.635 273.533 132.517 273.825 132.517H278.575Z" fill="#D9D9D9"/>
<path d="M397.161 116.519H433.604C435.673 116.519 437.351 118.224 437.351 120.328V140.37C437.351 142.473 435.673 144.179 433.604 144.179H397.161C395.091 144.179 393.414 142.473 393.414 140.37V120.328C393.414 118.224 395.091 116.519 397.161 116.519Z" fill="#BE53FF"/>
<path d="M408.72 142.778C408.72 142.778 407.056 150.497 397.359 153.488C397.359 153.488 402.406 148.85 401.271 142.778H408.72Z" fill="#BE53FF"/>
<path d="M431.609 120.877V125.526H432.083V121.303H433.185V120.877H431.609Z" fill="#D9D9D9"/>
<path d="M430.529 123.23C430.529 121.751 429.758 120.877 428.7 120.877C427.642 120.877 426.882 121.751 426.882 123.23C426.882 124.708 427.642 125.593 428.7 125.593C429.758 125.593 430.529 124.675 430.529 123.23ZM427.356 123.23C427.356 121.997 427.907 121.314 428.7 121.314C429.493 121.314 430.044 121.997 430.044 123.23C430.044 124.462 429.504 125.156 428.7 125.156C427.896 125.156 427.356 124.439 427.356 123.23Z" fill="#D9D9D9"/>
<path d="M426.209 123.23C426.209 121.751 425.449 120.877 424.391 120.877C423.333 120.877 422.562 121.751 422.562 123.23C422.562 124.708 423.333 125.593 424.391 125.593C425.449 125.593 426.209 124.675 426.209 123.23ZM423.047 123.23C423.047 121.997 423.587 121.314 424.391 121.314C425.196 121.314 425.736 121.997 425.736 123.23C425.736 124.462 425.185 125.156 424.391 125.156C423.598 125.156 423.047 124.439 423.047 123.23Z" fill="#D9D9D9"/>
<path d="M420.633 120.877V125.526H421.106V121.303H422.208V120.877H420.633Z" fill="#D9D9D9"/>
<path d="M418.286 120.877V125.526H418.76V121.303H419.862V120.877H418.286Z" fill="#D9D9D9"/>
<path d="M417.194 123.23C417.194 121.751 416.434 120.877 415.376 120.877C414.318 120.877 413.547 121.751 413.547 123.23C413.547 124.708 414.318 125.593 415.376 125.593C416.434 125.593 417.194 124.675 417.194 123.23ZM414.032 123.23C414.032 121.997 414.583 121.314 415.376 121.314C416.169 121.314 416.72 121.997 416.72 123.23C416.72 124.462 416.169 125.156 415.376 125.156C414.583 125.156 414.032 124.439 414.032 123.23Z" fill="#D9D9D9"/>
<path d="M411.619 120.877V125.526H412.093V121.303H413.195V120.877H411.619Z" fill="#D9D9D9"/>
<path d="M410.539 123.23C410.539 121.751 409.768 120.877 408.721 120.877C407.674 120.877 406.891 121.751 406.891 123.23C406.891 124.708 407.663 125.593 408.721 125.593C409.779 125.593 410.539 124.675 410.539 123.23ZM407.376 123.23C407.376 121.997 407.916 121.314 408.721 121.314C409.525 121.314 410.054 121.997 410.054 123.23C410.054 124.462 409.514 125.156 408.721 125.156C407.927 125.156 407.376 124.439 407.376 123.23Z" fill="#D9D9D9"/>
<path d="M406.219 123.23C406.219 121.751 405.459 120.877 404.401 120.877C403.343 120.877 402.572 121.751 402.572 123.23C402.572 124.708 403.343 125.593 404.401 125.593C405.459 125.593 406.219 124.675 406.219 123.23ZM403.057 123.23C403.057 121.997 403.608 121.314 404.401 121.314C405.194 121.314 405.745 121.997 405.745 123.23C405.745 124.462 405.194 125.156 404.401 125.156C403.608 125.156 403.057 124.439 403.057 123.23Z" fill="#D9D9D9"/>
<path d="M400.643 120.877V125.526H401.127V121.303H402.229V120.877H400.643Z" fill="#D9D9D9"/>
<path d="M398.295 120.877V125.526H398.758V121.303H399.86V120.877H398.295Z" fill="#D9D9D9"/>
<path d="M432.876 129.951C432.876 128.473 432.116 127.599 431.058 127.599C430 127.599 429.228 128.473 429.228 129.951C429.228 131.43 430 132.315 431.058 132.315C432.116 132.315 432.876 131.397 432.876 129.951ZM429.713 129.951C429.713 128.719 430.264 128.036 431.058 128.036C431.851 128.036 432.402 128.719 432.402 129.951C432.402 131.184 431.851 131.878 431.058 131.878C430.264 131.878 429.713 131.161 429.713 129.951Z" fill="#D9D9D9"/>
<path d="M428.557 129.951C428.557 128.473 427.796 127.599 426.738 127.599C425.68 127.599 424.92 128.473 424.92 129.951C424.92 131.43 425.68 132.315 426.738 132.315C427.796 132.315 428.557 131.397 428.557 129.951ZM425.394 129.951C425.394 128.719 425.945 128.036 426.738 128.036C427.532 128.036 428.083 128.719 428.083 129.951C428.083 131.184 427.532 131.878 426.738 131.878C425.945 131.878 425.372 131.161 425.372 129.951H425.394Z" fill="#D9D9D9"/>
<path d="M422.992 127.599V132.248H423.465V128.025H424.567V127.599H422.992Z" fill="#D9D9D9"/>
<path d="M420.633 127.599V132.248H421.106V128.025H422.208V127.599H420.633Z" fill="#D9D9D9"/>
<path d="M419.553 129.951C419.553 128.473 418.782 127.599 417.724 127.599C416.666 127.599 415.906 128.473 415.906 129.951C415.906 131.43 416.666 132.315 417.724 132.315C418.782 132.315 419.553 131.397 419.553 129.951ZM416.379 129.951C416.379 128.719 416.93 128.036 417.724 128.036C418.517 128.036 419.068 128.719 419.068 129.951C419.068 131.184 418.528 131.878 417.724 131.878C416.919 131.878 416.379 131.161 416.379 129.951Z" fill="#D9D9D9"/>
<path d="M413.977 127.599V132.248H414.451V128.025H415.553V127.599H413.977Z" fill="#D9D9D9"/>
<path d="M412.886 129.951C412.886 128.473 412.126 127.599 411.068 127.599C410.01 127.599 409.239 128.473 409.239 129.951C409.239 131.43 410.01 132.315 411.068 132.315C412.126 132.315 412.886 131.397 412.886 129.951ZM409.723 129.951C409.723 128.719 410.274 128.036 411.068 128.036C411.861 128.036 412.412 128.719 412.412 129.951C412.412 131.184 411.861 131.878 411.068 131.878C410.274 131.878 409.723 131.161 409.723 129.951Z" fill="#D9D9D9"/>
<path d="M408.577 129.951C408.577 128.473 407.806 127.599 406.748 127.599C405.69 127.599 404.93 128.473 404.93 129.951C404.93 131.43 405.701 132.315 406.748 132.315C407.795 132.315 408.577 131.397 408.577 129.951ZM405.403 129.951C405.403 128.719 405.954 128.036 406.748 128.036C407.541 128.036 408.092 128.719 408.092 129.951C408.092 131.184 407.552 131.878 406.748 131.878C405.943 131.878 405.403 131.161 405.403 129.951Z" fill="#D9D9D9"/>
<path d="M403.001 127.599V132.248H403.475V128.025H404.577V127.599H403.001Z" fill="#D9D9D9"/>
<path d="M400.643 127.599V132.248H401.127V128.025H402.229V127.599H400.643Z" fill="#D9D9D9"/>
<path d="M398.295 127.599V132.248H398.758V128.025H399.86V127.599H398.295Z" fill="#D9D9D9"/>
<path d="M431.609 134.321V138.97H432.083V134.746H433.185V134.321H431.609Z" fill="#D9D9D9"/>
<path d="M429.262 134.321V138.97H429.725V134.746H430.827V134.321H429.262Z" fill="#D9D9D9"/>
<path d="M428.171 136.673C428.171 135.194 427.411 134.321 426.353 134.321C425.295 134.321 424.523 135.194 424.523 136.673C424.523 138.152 425.295 139.037 426.353 139.037C427.411 139.037 428.171 138.118 428.171 136.673ZM425.008 136.673C425.008 135.441 425.548 134.757 426.353 134.757C427.157 134.757 427.697 135.441 427.697 136.673C427.697 137.905 427.146 138.6 426.353 138.6C425.559 138.6 425.008 137.883 425.008 136.673Z" fill="#D9D9D9"/>
<path d="M423.851 136.673C423.851 135.194 423.091 134.321 422.033 134.321C420.975 134.321 420.203 135.194 420.203 136.673C420.203 138.152 420.975 139.037 422.033 139.037C423.091 139.037 423.851 138.118 423.851 136.673ZM420.688 136.673C420.688 135.441 421.239 134.757 422.033 134.757C422.826 134.757 423.377 135.441 423.377 136.673C423.377 137.905 422.826 138.6 422.033 138.6C421.239 138.6 420.688 137.883 420.688 136.673Z" fill="#D9D9D9"/>
<path d="M418.286 134.321V138.97H418.76V134.746H419.862V134.321H418.286Z" fill="#D9D9D9"/>
<path d="M415.928 134.321V138.97H416.401V134.746H417.503V134.321H415.928Z" fill="#D9D9D9"/>
<path d="M414.837 136.673C414.837 135.194 414.077 134.321 413.019 134.321C411.961 134.321 411.189 135.194 411.189 136.673C411.189 138.152 411.961 139.037 413.019 139.037C414.077 139.037 414.837 138.118 414.837 136.673ZM411.674 136.673C411.674 135.441 412.225 134.757 413.019 134.757C413.812 134.757 414.352 135.407 414.352 136.673C414.352 137.939 413.801 138.6 413.008 138.6C412.214 138.6 411.674 137.883 411.674 136.673Z" fill="#D9D9D9"/>
<path d="M410.528 136.673C410.528 135.194 409.757 134.321 408.699 134.321C407.641 134.321 406.881 135.194 406.881 136.673C406.881 138.152 407.641 139.037 408.699 139.037C409.757 139.037 410.528 138.118 410.528 136.673ZM407.355 136.673C407.355 135.441 407.906 134.757 408.699 134.757C409.492 134.757 410.043 135.441 410.043 136.673C410.043 137.905 409.503 138.6 408.699 138.6C407.895 138.6 407.355 137.883 407.355 136.673Z" fill="#D9D9D9"/>
<path d="M404.951 134.321V138.97H405.425V134.746H406.527V134.321H404.951Z" fill="#D9D9D9"/>
<path d="M403.861 136.673C403.861 135.194 403.1 134.321 402.043 134.321C400.985 134.321 400.213 135.194 400.213 136.673C400.213 138.152 400.985 139.037 402.043 139.037C403.1 139.037 403.861 138.118 403.861 136.673ZM400.698 136.673C400.698 135.441 401.249 134.757 402.043 134.757C402.836 134.757 403.332 135.407 403.332 136.673C403.332 137.939 402.781 138.6 401.987 138.6C401.194 138.6 400.698 137.883 400.698 136.673Z" fill="#D9D9D9"/>
<path d="M398.295 134.321V138.97H398.758V134.746H399.86V134.321H398.295Z" fill="#D9D9D9"/>
<path d="M466.995 380.735L436.69 377.71V334.412H424.678V377.699L394.252 380.735C392.792 380.879 391.438 381.571 390.452 382.674C389.466 383.778 388.919 385.215 388.918 386.706V391.333H472.317V386.706C472.316 385.217 471.771 383.781 470.788 382.678C469.804 381.575 468.452 380.882 466.995 380.735Z" fill="#4A5155"/>
<path opacity="0.2" d="M466.995 380.735L436.69 377.71V334.412H424.678V377.699L394.252 380.735C392.792 380.879 391.438 381.571 390.452 382.674C389.466 383.778 388.919 385.215 388.918 386.706V391.333H472.317V386.706C472.316 385.217 471.771 383.781 470.788 382.678C469.804 381.575 468.452 380.882 466.995 380.735Z" fill="#D9D9D9"/>
<path d="M392.125 405.067C387.785 405.067 384.267 401.491 384.267 397.08C384.267 392.668 387.785 389.092 392.125 389.092C396.464 389.092 399.982 392.668 399.982 397.08C399.982 401.491 396.464 405.067 392.125 405.067Z" fill="#4A5155"/>
<path d="M469.111 405.067C464.772 405.067 461.254 401.491 461.254 397.08C461.254 392.668 464.772 389.092 469.111 389.092C473.45 389.092 476.968 392.668 476.968 397.08C476.968 401.491 473.45 405.067 469.111 405.067Z" fill="#4A5155"/>
<path d="M427.179 343.721H434.221C435.428 343.721 436.585 343.234 437.439 342.366C438.292 341.499 438.772 340.322 438.772 339.095V305.162H422.605V339.095C422.605 339.704 422.724 340.308 422.954 340.87C423.184 341.433 423.521 341.944 423.946 342.374C424.371 342.804 424.876 343.144 425.43 343.376C425.985 343.607 426.579 343.724 427.179 343.721Z" fill="#4A5155"/>
<path opacity="0.3" d="M427.179 343.721H434.221C435.428 343.721 436.585 343.234 437.439 342.366C438.292 341.499 438.772 340.322 438.772 339.095V305.162H422.605V339.095C422.605 339.704 422.724 340.308 422.954 340.87C423.184 341.433 423.521 341.944 423.946 342.374C424.371 342.804 424.876 343.144 425.43 343.376C425.985 343.607 426.579 343.724 427.179 343.721Z" fill="#D9D9D9"/>
<path d="M459.402 237.497C459.402 237.497 461.738 295.214 445.881 305.15H463.942C463.942 305.15 477.916 285.478 473.97 237.497H459.402Z" fill="#4A5155"/>
<path opacity="0.3" d="M459.402 237.497C459.402 237.497 461.738 295.214 445.881 305.15H463.942C463.942 305.15 477.916 285.478 473.97 237.497H459.402Z" fill="#D9D9D9"/>
<path d="M464.57 297.073H394.681C393.22 297.073 391.818 297.663 390.785 298.714C389.752 299.764 389.171 301.189 389.171 302.674V309.575H470.08V302.674C470.08 301.189 469.5 299.764 468.466 298.714C467.433 297.663 466.031 297.073 464.57 297.073Z" fill="#4A5155"/>
<path d="M388.003 303.324H471.237C472.46 303.324 473.452 304.333 473.452 305.576V307.324C473.452 308.567 472.46 309.576 471.237 309.576H388.003C386.78 309.576 385.788 308.567 385.788 307.324V305.576C385.788 304.333 386.78 303.324 388.003 303.324Z" fill="#4A5155"/>
<path opacity="0.6" d="M388.003 303.324H471.237C472.46 303.324 473.452 304.333 473.452 305.576V307.324C473.452 308.567 472.46 309.576 471.237 309.576H388.003C386.78 309.576 385.788 308.567 385.788 307.324V305.576C385.788 304.333 386.78 303.324 388.003 303.324Z" fill="#D9D9D9"/>
<path d="M477.673 249.204H450.2C441.327 249.204 434.133 241.891 434.133 232.871V222.844C434.133 213.823 441.327 206.511 450.2 206.511H477.673C486.547 206.511 493.74 213.823 493.74 222.844V232.871C493.74 241.891 486.547 249.204 477.673 249.204Z" fill="#4A5155"/>
<path d="M398.781 396.968L389.998 395.746L388.786 374.529L397.547 375.772L398.781 396.968Z" fill="#EBB376"/>
<path opacity="0.2" d="M397.547 375.772L388.786 374.54L389.481 386.672L398.23 387.445L397.547 375.772Z" fill="black"/>
<path d="M398.429 272.226L400.566 258.592L449.782 255.601C449.782 255.601 455.016 283.977 450.994 291.539C443.82 305.038 405.129 298.261 393.811 299.56C400.577 327.69 399.916 382.662 399.916 382.662L383.75 383.917C383.75 383.917 371.308 324.677 368.796 296.536C367.099 277.569 382.582 278.051 398.429 272.226Z" fill="#BE53FF"/>
<path d="M401.812 383.468L382.384 384.768L380.72 376.31L402.065 375.301L401.812 383.468Z" fill="#BE53FF"/>
<path d="M378.526 389.047L369.688 389.708L364.156 369.218L372.983 368.568L378.526 389.047Z" fill="#EBB376"/>
<path d="M368.465 390.112C368.465 390.112 368.465 390.112 368.465 390.179H368.399C367.7 390.572 366.961 390.888 366.195 391.12C365.641 391.333 365.03 391.333 364.476 391.12C364.294 391.014 364.146 390.858 364.048 390.669C363.95 390.481 363.908 390.268 363.925 390.056C363.914 389.922 363.935 389.788 363.987 389.665C364.039 389.542 364.12 389.434 364.222 389.35C365.015 389.027 365.894 389.003 366.702 389.283C366.067 388.852 365.606 388.204 365.402 387.457C365.386 387.281 365.43 387.105 365.526 386.958C365.622 386.812 365.765 386.703 365.931 386.65C366.069 386.581 366.222 386.545 366.377 386.545C366.532 386.545 366.684 386.581 366.823 386.65C367.925 387.255 368.311 389.764 368.344 389.899H368.498C368.507 389.935 368.509 389.972 368.504 390.009C368.498 390.045 368.485 390.08 368.465 390.112ZM367.804 389.607L368.002 389.675C367.793 388.846 367.352 387.49 366.702 387.143C366.632 387.099 366.554 387.07 366.472 387.059C366.39 387.047 366.307 387.053 366.228 387.076H366.14C365.864 387.188 365.82 387.356 365.842 387.479C365.864 388.117 366.966 389.126 367.804 389.607ZM367.804 390.078C366.636 389.719 365.016 389.395 364.498 389.775C364.448 389.815 364.409 389.866 364.384 389.925C364.359 389.984 364.349 390.048 364.355 390.112C364.346 390.246 364.373 390.381 364.433 390.501C364.493 390.621 364.584 390.723 364.696 390.795C365.192 391.075 366.327 390.806 367.771 390.078H367.804Z" fill="#BE53FF"/>
<path opacity="0.2" d="M372.983 368.568L364.156 369.229L367.319 380.936L376.047 379.849L372.983 368.568Z" fill="black"/>
<path d="M361.159 379.491L376.72 374.842C376.72 374.842 367.43 321.539 357.986 303.055C358.691 302.82 359.628 302.517 360.785 302.17C362.867 301.531 365.633 300.736 368.884 299.817C391.497 293.443 437.33 281.49 437.33 281.49L416.392 261.627C416.392 261.627 332.992 274.555 331.262 296.894C330.458 307.637 361.159 379.491 361.159 379.491Z" fill="#BE53FF"/>
<path d="M378.725 375.201L359.991 380.578L356.63 372.658L377.303 367.157L378.725 375.201Z" fill="#BE53FF"/>
<path opacity="0.2" d="M360.807 302.17C362.889 301.532 365.655 300.736 368.906 299.818C368.256 294.396 368.245 288.178 370.813 285.008C375.915 278.689 389.04 274.925 396.511 273.637C402.76 272.517 423.753 270.276 423.753 270.276C423.753 270.276 396.511 267.621 368.653 275.877C354.845 279.978 357.578 293.656 360.807 302.17Z" fill="black"/>
<path opacity="0.2" d="M401.812 383.468L382.384 384.768L380.72 376.31L402.065 375.301L401.812 383.468Z" fill="#D9D9D9"/>
<path opacity="0.2" d="M378.725 375.201L359.991 380.578L356.63 372.658L377.303 367.157L378.725 375.201Z" fill="#D9D9D9"/>
<path d="M368.818 388.801L378.394 386.079C378.554 386.029 378.726 386.044 378.874 386.122C379.022 386.199 379.135 386.333 379.188 386.493L381.766 394.066C381.821 394.268 381.836 394.478 381.81 394.686C381.785 394.893 381.719 395.094 381.616 395.275C381.514 395.456 381.377 395.615 381.213 395.742C381.05 395.869 380.863 395.962 380.664 396.015C377.358 396.912 375.672 397.136 371.452 398.323C367.745 399.539 363.96 400.49 360.123 401.169C356.431 401.594 356.123 397.875 357.644 397.36C361.258 396.127 365.578 392.307 367.462 389.697C367.804 389.254 368.281 388.939 368.818 388.801Z" fill="#4A5155"/>
<path d="M389.128 395.769H388.94C388.94 395.769 388.742 395.836 388.72 395.859C388.698 395.881 388.72 395.859 388.72 395.915H388.643C387.894 396.151 387.121 396.305 386.34 396.374C385.756 396.484 385.153 396.364 384.654 396.038C384.504 395.899 384.395 395.721 384.339 395.523C384.283 395.326 384.281 395.116 384.334 394.918C384.351 394.784 384.4 394.657 384.477 394.548C384.554 394.438 384.656 394.35 384.775 394.29C385.622 394.146 386.491 394.309 387.232 394.75C386.71 394.194 386.401 393.467 386.362 392.699C386.395 392.518 386.487 392.352 386.622 392.228C386.758 392.105 386.93 392.03 387.111 392.016C387.282 391.986 387.457 391.991 387.625 392.031C387.794 392.072 387.953 392.147 388.092 392.251C389.018 393.058 389.194 395.612 389.194 395.758L389.128 395.769ZM388.169 395.254L388.356 395.354C388.409 394.377 388.146 393.409 387.607 392.599C387.547 392.541 387.476 392.497 387.398 392.47C387.32 392.443 387.237 392.433 387.155 392.442H387.056C386.769 392.498 386.692 392.643 386.681 392.767C386.88 393.746 387.405 394.624 388.169 395.254ZM388.048 395.691C386.946 395.097 385.469 394.436 384.896 394.705C384.837 394.731 384.787 394.773 384.75 394.826C384.713 394.88 384.691 394.942 384.687 395.007C384.652 395.136 384.651 395.272 384.684 395.402C384.717 395.532 384.782 395.65 384.874 395.747C385.326 396.139 386.483 396.116 388.048 395.691Z" fill="#BE53FF"/>
<path d="M389.337 394.671L399.255 394.044C399.42 394.025 399.586 394.073 399.716 394.178C399.846 394.283 399.93 394.436 399.95 394.604L400.919 402.558C400.947 402.976 400.81 403.389 400.54 403.706C400.27 404.022 399.887 404.218 399.476 404.25C396.016 404.406 394.351 404.306 389.988 404.552C386.115 404.959 382.219 405.087 378.328 404.933C374.637 404.563 375.089 400.866 376.675 400.687C380.466 400.25 385.491 397.416 387.85 395.276C388.266 394.913 388.789 394.7 389.337 394.671Z" fill="#4A5155"/>
<path d="M378.361 221.332C378.361 221.332 375.584 236.635 370.581 239.581C365.578 242.527 330.975 221.511 330.975 221.511L333.874 215.574C333.874 215.574 362.845 223.528 363.121 223.572C363.396 223.617 364.223 216.851 364.223 216.851L378.361 221.332Z" fill="#4A5155"/>
<path d="M367.563 197.268C365.281 200.136 362.053 221.332 362.053 221.332L379.045 225.353L382.726 214.621L367.563 197.268Z" fill="#BE53FF"/>
<path opacity="0.4" d="M367.563 197.268C365.281 200.136 362.053 221.332 362.053 221.332L379.045 225.353L382.726 214.621L367.563 197.268Z" fill="#D9D9D9"/>
<path d="M454.653 273.268L397.624 263.622C397.624 263.622 394.054 229.185 367.562 197.268C367.562 197.268 376.763 176.835 409.493 179.669C442.222 182.503 454.653 273.268 454.653 273.268Z" fill="#BE53FF"/>
<path opacity="0.6" d="M454.653 273.268L397.624 263.622C397.624 263.622 394.054 229.185 367.562 197.268C367.562 197.268 376.763 176.835 409.493 179.669C442.222 182.503 454.653 273.268 454.653 273.268Z" fill="#D9D9D9"/>
<path d="M410.265 208.975C410.265 208.975 410.838 224.906 409.097 225.779C407.355 226.653 374.417 214.509 369.193 213.624C363.97 212.739 351.991 217.389 351.991 217.389L350.889 224.659C350.889 224.659 361.556 224.446 367.551 221.478C367.551 221.478 406.033 244.869 414.32 243.536C422.607 242.203 425.45 210.611 425.45 210.611L410.265 208.975Z" fill="#EBB376"/>
<path d="M410.264 214.622C410.264 214.622 410.143 223.987 408.225 224.704C406.308 225.421 377.81 215.215 377.81 215.215L373.303 225.824C373.303 225.824 409.316 249.451 416.281 243.637C423.245 237.822 424.998 216.997 424.998 216.997L410.264 214.622Z" fill="#4A5155"/>
<path d="M415.454 183.242C405.206 182.122 408.909 219.013 408.909 219.013L426.133 221.511C426.133 221.511 433.505 185.169 415.454 183.242Z" fill="#BE53FF"/>
<path opacity="0.4" d="M415.454 183.242C405.206 182.122 408.909 219.013 408.909 219.013L426.133 221.511C426.133 221.511 433.505 185.169 415.454 183.242Z" fill="#D9D9D9"/>
<path d="M399.2 180.576C399.2 180.576 399.542 196.775 389.778 198.422C380.014 200.069 378.99 186.883 378.99 186.883C378.99 186.883 385.557 179.691 399.2 180.576Z" fill="#4A5155"/>
<path d="M374.681 189.538C376.375 188.931 378.222 188.931 379.916 189.538C380.305 191.224 381.237 192.729 382.566 193.814C383.894 194.898 385.541 195.499 387.244 195.521C388.083 195.564 388.925 195.526 389.757 195.409C398.286 194.221 397.35 181.327 397.35 181.327C394.24 181.544 391.139 180.785 388.467 179.153C386.2 177.803 384.222 176.005 382.649 173.866L374.681 189.538Z" fill="#EBB376"/>
<path opacity="0.2" d="M374.681 189.538C376.374 188.931 378.221 188.931 379.915 189.538C380.304 191.224 381.237 192.729 382.565 193.814C383.893 194.898 385.54 195.499 387.243 195.521C389.447 189.998 389.15 183.668 388.467 179.153C386.199 177.803 384.221 176.005 382.648 173.866L374.681 189.538Z" fill="black"/>
<path d="M368.069 164.5C371.871 167.122 370.141 171.558 361.545 178.515C358.052 173.911 357.479 164.971 360.245 162.73C363.011 160.49 364.763 162.226 368.069 164.5Z" fill="#4A5155"/>
<path d="M384.39 171.693C383.982 181.136 384.202 186.682 379.607 191.6C372.686 199.005 361.159 194.882 358.79 185.505C356.663 177.081 357.688 163.1 366.703 159.145C368.686 158.273 370.856 157.93 373.007 158.15C375.157 158.37 377.216 159.146 378.989 160.403C380.761 161.661 382.188 163.358 383.133 165.334C384.079 167.31 384.511 169.499 384.39 171.693Z" fill="#EBB376"/>
<path d="M370.581 174.527C370.581 175.288 370.195 175.916 369.71 175.927C369.226 175.938 368.807 175.322 368.796 174.56C368.785 173.798 369.17 173.16 369.655 173.149C370.14 173.137 370.515 173.765 370.581 174.527Z" fill="#4A5155"/>
<path d="M361.997 174.683C361.997 175.445 361.622 176.084 361.126 176.084C360.631 176.084 360.223 175.49 360.201 174.706C360.179 173.922 360.587 173.317 361.082 173.306C361.578 173.294 361.986 173.911 361.997 174.683Z" fill="#4A5155"/>
<path d="M364.763 174.997C363.904 177.36 362.725 179.588 361.258 181.618C361.782 181.982 362.378 182.226 363.004 182.335C363.629 182.443 364.271 182.412 364.884 182.245L364.763 174.997Z" fill="#D58745"/>
<path d="M358.151 169.62C358.192 169.693 358.251 169.753 358.323 169.794C358.395 169.835 358.476 169.857 358.558 169.855C359.114 169.804 359.674 169.888 360.191 170.101C360.708 170.313 361.169 170.647 361.534 171.076C361.568 171.124 361.612 171.163 361.662 171.193C361.712 171.223 361.767 171.243 361.824 171.251C361.881 171.26 361.94 171.256 361.996 171.242C362.052 171.227 362.105 171.201 362.151 171.166C362.198 171.133 362.237 171.09 362.268 171.041C362.298 170.992 362.319 170.937 362.328 170.879C362.337 170.822 362.335 170.763 362.322 170.707C362.308 170.65 362.284 170.597 362.25 170.55C361.798 170.001 361.223 169.569 360.573 169.293C359.923 169.016 359.217 168.901 358.514 168.959C358.457 168.961 358.4 168.974 358.348 168.998C358.296 169.022 358.249 169.056 358.209 169.099C358.17 169.142 358.14 169.192 358.121 169.247C358.101 169.302 358.093 169.36 358.096 169.418C358.097 169.489 358.116 169.559 358.151 169.62Z" fill="#4A5155"/>
<path d="M366.966 171.312C367.046 171.339 367.131 171.342 367.213 171.323C367.295 171.303 367.37 171.26 367.429 171.2C367.808 170.782 368.28 170.463 368.805 170.268C369.33 170.073 369.894 170.009 370.448 170.079C370.565 170.1 370.685 170.074 370.783 170.007C370.881 169.94 370.951 169.838 370.977 169.721C371 169.605 370.977 169.485 370.913 169.386C370.849 169.288 370.749 169.219 370.636 169.194C369.938 169.089 369.226 169.154 368.558 169.386C367.891 169.618 367.288 170.01 366.801 170.528C366.722 170.614 366.678 170.728 366.678 170.847C366.678 170.965 366.722 171.079 366.801 171.166L366.966 171.312Z" fill="#4A5155"/>
<path d="M380.555 163.402C376.246 164.993 376.852 169.732 383.519 178.605C388.004 175.008 390.726 166.483 388.566 163.627C386.406 160.77 384.323 162.025 380.555 163.402Z" fill="#4A5155"/>
<path d="M388.93 179.165C388.63 180.302 388.113 181.369 387.408 182.303C386.702 183.237 385.823 184.021 384.819 184.609C382.13 186.155 380.048 183.881 380.169 180.912C380.29 178.224 381.833 174.191 384.83 173.855C387.828 173.519 389.668 176.342 388.93 179.165Z" fill="#EBB376"/>
<path d="M371.893 183.814C371.893 183.814 370.284 186.906 365.787 186.76" stroke="#4A5155" stroke-width="0.526291" stroke-linecap="round" stroke-linejoin="round"/>
<path d="M379.562 166.685C379.562 166.685 375.904 166.875 374.218 169.228C373.765 168.618 373.449 167.915 373.291 167.168C373.133 166.422 373.137 165.649 373.303 164.904C373.303 164.904 368.895 165.453 366.922 168.567C366.373 167.432 366.144 166.163 366.261 164.904C365.425 165.938 364.955 167.228 364.928 168.567C364.928 168.567 361.556 166.394 361.997 164.355C361.16 165.394 360.548 166.6 360.2 167.895C360.2 167.895 357.996 167.122 358.47 163.134C357.731 163.959 357.191 164.949 356.894 166.024C356.894 166.024 354.007 157.7 364.928 153.051C375.849 148.402 388.389 153.914 388.169 163.134C387.949 172.353 379.562 166.685 379.562 166.685Z" fill="#4A5155"/>
<path d="M365.788 176.084C365.788 178.526 367.419 180.509 369.413 180.509C371.408 180.509 373.05 178.526 373.05 176.084C373.05 173.642 371.419 171.603 369.413 171.603C367.408 171.603 365.788 173.642 365.788 176.084Z" stroke="#4A5155" stroke-width="0.526291" stroke-linecap="round" stroke-linejoin="round"/>
<path d="M355.858 175.882C355.858 178.324 357.478 180.363 359.484 180.363C361.489 180.363 363.12 178.38 363.12 175.882C363.12 173.384 361.489 171.457 359.484 171.457C357.478 171.457 355.858 173.485 355.858 175.882Z" stroke="#4A5155" stroke-width="0.526291" stroke-linecap="round" stroke-linejoin="round"/>
<path d="M365.788 176.084C365.434 175.74 364.971 175.535 364.483 175.507C363.994 175.478 363.511 175.627 363.121 175.927" stroke="#4A5155" stroke-width="0.526291" stroke-linecap="round" stroke-linejoin="round"/>
<path d="M373.05 176.084L381.888 175.311" stroke="#4A5155" stroke-width="0.526291" stroke-linecap="round" stroke-linejoin="round"/>
<path d="M291.051 221.332V224.3C291.051 225.185 292.549 225.813 293.42 225.813H361.457C362.328 225.813 363.728 225.185 363.728 224.3V221.332H291.051Z" fill="#4A5155"/>
<path opacity="0.6" d="M291.051 221.332V224.3C291.051 225.185 292.549 225.813 293.42 225.813H361.457C362.328 225.813 363.728 225.185 363.728 224.3V221.332H291.051Z" fill="#D9D9D9"/>
<path opacity="0.2" d="M291.05 221.332V224.3C291.05 225.185 292.549 225.813 293.419 225.813H338.315C339.185 225.813 340.629 225.185 340.629 224.3V221.332H291.05Z" fill="black"/>
<path d="M280.13 184.945L288.23 222.441C288.373 223.052 288.707 223.601 289.181 224.004C289.656 224.408 290.246 224.645 290.863 224.681H335.153C335.436 224.653 335.71 224.562 335.954 224.414C336.199 224.267 336.408 224.065 336.567 223.826C336.726 223.586 336.831 223.313 336.874 223.027C336.917 222.741 336.898 222.449 336.817 222.172L328.717 185.068C328.552 184.502 328.2 184.01 327.721 183.675C327.241 183.34 326.663 183.184 326.083 183.231H281.805C280.615 183.242 279.909 183.724 280.13 184.945Z" fill="#4A5155"/>
<path opacity="0.6" d="M280.13 184.945L288.23 222.441C288.373 223.052 288.707 223.601 289.181 224.004C289.656 224.408 290.246 224.645 290.863 224.681H335.153C335.436 224.653 335.71 224.562 335.954 224.414C336.199 224.267 336.408 224.065 336.567 223.826C336.726 223.586 336.831 223.313 336.874 223.027C336.917 222.741 336.898 222.449 336.817 222.172L328.717 185.068C328.552 184.502 328.2 184.01 327.721 183.675C327.241 183.34 326.663 183.184 326.083 183.231H281.805C280.615 183.242 279.909 183.724 280.13 184.945Z" fill="#D9D9D9"/>
<path opacity="0.4" d="M280.129 184.945L288.229 222.441C288.373 223.052 288.706 223.601 289.181 224.004C289.655 224.408 290.245 224.645 290.863 224.681H333.642C333.927 224.655 334.202 224.565 334.448 224.418C334.693 224.271 334.904 224.07 335.064 223.83C335.225 223.589 335.33 223.316 335.374 223.03C335.418 222.743 335.399 222.45 335.318 222.172L327.207 185.068C327.042 184.502 326.69 184.01 326.21 183.675C325.731 183.34 325.153 183.184 324.573 183.231H281.804C280.614 183.242 279.909 183.724 280.129 184.945Z" fill="#D9D9D9"/>
<path opacity="0.2" d="M306.18 208.975C304.12 208.975 302.004 206.735 301.464 203.956C300.924 201.178 302.169 198.926 304.241 198.926C304.618 198.934 304.991 199.01 305.343 199.15C305.534 200.141 305.952 201.072 306.562 201.868C307.173 202.664 307.96 203.303 308.858 203.732C308.882 203.805 308.9 203.88 308.913 203.956C309.497 206.723 308.252 208.975 306.18 208.975Z" fill="black"/>
<path d="M251.983 195.005L241.668 205.491L238.175 225.813H259.388L258.518 223.572L246.892 221.332L245.878 208.975L253.581 207.115L251.983 195.005Z" fill="#4A5155"/>
<path opacity="0.6" d="M238.175 225.813H259.388L258.518 223.572L246.892 221.332L245.878 208.975L246.88 208.729L253.581 207.115L251.983 195.005L241.668 205.491L238.175 225.813Z" fill="#D9D9D9"/>
<path opacity="0.2" d="M243.102 204.035L246.881 208.729L253.582 207.115L251.984 195.005L243.102 204.035Z" fill="black"/>
<path d="M253.185 212.605H265.031C265.146 212.608 265.259 212.586 265.364 212.539C265.469 212.492 265.562 212.422 265.637 212.334C265.712 212.246 265.767 212.143 265.797 212.031C265.828 211.918 265.833 211.801 265.814 211.686L258.97 160.031C258.93 159.763 258.797 159.52 258.594 159.345C258.392 159.17 258.134 159.075 257.868 159.078H246.022C245.907 159.073 245.792 159.095 245.685 159.141C245.579 159.187 245.485 159.256 245.409 159.344C245.332 159.433 245.277 159.537 245.246 159.65C245.214 159.763 245.208 159.881 245.228 159.997L252.149 211.731C252.202 211.973 252.333 212.189 252.52 212.347C252.708 212.506 252.941 212.596 253.185 212.605Z" fill="#4A5155"/>
<path opacity="0.6" d="M253.185 212.605H265.031C265.146 212.608 265.259 212.586 265.364 212.539C265.469 212.492 265.562 212.422 265.637 212.334C265.712 212.246 265.767 212.143 265.797 212.031C265.828 211.918 265.833 211.801 265.814 211.686L258.97 160.031C258.93 159.763 258.797 159.52 258.594 159.345C258.392 159.17 258.134 159.075 257.868 159.078H246.022C245.907 159.073 245.792 159.095 245.685 159.141C245.579 159.187 245.485 159.256 245.409 159.344C245.332 159.433 245.277 159.537 245.246 159.65C245.214 159.763 245.208 159.881 245.228 159.997L252.149 211.731C252.202 211.973 252.333 212.189 252.52 212.347C252.708 212.506 252.941 212.596 253.185 212.605Z" fill="#D9D9D9"/>
<path opacity="0.4" d="M256.491 212.605H265.031C265.146 212.608 265.259 212.586 265.364 212.539C265.469 212.492 265.562 212.422 265.637 212.334C265.712 212.246 265.767 212.143 265.797 212.031C265.828 211.918 265.833 211.801 265.814 211.686L258.97 160.031C258.93 159.763 258.797 159.52 258.594 159.345C258.392 159.17 258.134 159.075 257.868 159.078H249.328C249.213 159.073 249.098 159.095 248.991 159.141C248.885 159.187 248.791 159.256 248.715 159.344C248.638 159.433 248.583 159.537 248.552 159.65C248.52 159.763 248.514 159.881 248.534 159.997L255.455 211.731C255.508 211.973 255.639 212.189 255.826 212.347C256.014 212.506 256.247 212.596 256.491 212.605Z" fill="#D9D9D9"/>
<path d="M255.984 210.98H265.075L258.386 160.736H249.295L255.984 210.98Z" fill="#BE53FF"/>
<path d="M334.457 405.056H341.213L353.346 233.386H344.386L334.457 405.056Z" fill="#4A5155"/>
<path opacity="0.4" d="M334.457 405.056H341.213L352.751 241.911L353.346 233.655H344.386L343.902 241.911L334.457 405.056Z" fill="#D9D9D9"/>
<path opacity="0.2" d="M343.902 241.497H352.751L353.346 233.655H344.386L343.902 241.497Z" fill="black"/>
<path d="M284.911 405.056H291.667L292.769 233.386H283.809L284.911 405.056Z" fill="#4A5155"/>
<path opacity="0.5" d="M283.809 233.655L283.986 261.359L284.911 405.056H291.667L292.592 261.359L292.769 233.655H283.809Z" fill="#D9D9D9"/>
<path opacity="0.2" d="M283.809 233.655L283.986 261.662H292.592L292.769 233.655H283.809Z" fill="black"/>
<path d="M213.237 405.056H219.992L232.125 233.386H223.166L213.237 405.056Z" fill="#4A5155"/>
<path opacity="0.5" d="M213.237 405.056H219.992L231.53 241.911L232.125 233.655H223.166L222.681 241.911L213.237 405.056Z" fill="#D9D9D9"/>
<path opacity="0.2" d="M222.681 241.497H231.53L232.125 233.655H223.166L222.681 241.497Z" fill="black"/>
<path d="M411.685 405.056H418.44L408.522 233.386H399.563L411.685 405.056Z" fill="#4A5155"/>
<path opacity="0.5" d="M399.563 233.655L400.158 241.911L411.696 405.056H418.44L409.007 241.911L408.522 233.655H399.563Z" fill="#D9D9D9"/>
<path opacity="0.2" d="M408.522 233.655H399.563L400.158 241.497H409.007L408.522 233.655Z" fill="black"/>
<path d="M415.62 229.084H216.07V235.257C216.07 235.898 216.32 236.514 216.767 236.968C217.213 237.422 217.819 237.676 218.45 237.676H413.251C413.882 237.676 414.487 237.422 414.934 236.968C415.38 236.514 415.631 235.898 415.631 235.257V229.084H415.62Z" fill="#BE53FF"/>
<path opacity="0.2" d="M216.069 229.084H415.62V233.386H216.069V229.084Z" fill="black"/>
<path d="M211.881 230.204H419.796C420.428 230.204 421.035 229.949 421.483 229.496C421.931 229.042 422.184 228.427 422.187 227.784C422.187 227.139 421.935 226.521 421.487 226.065C421.038 225.609 420.43 225.353 419.796 225.353H211.881C211.249 225.356 210.644 225.613 210.198 226.069C209.751 226.525 209.501 227.141 209.501 227.784C209.501 228.102 209.563 228.416 209.682 228.71C209.802 229.004 209.977 229.27 210.198 229.495C210.419 229.72 210.682 229.898 210.97 230.02C211.259 230.141 211.569 230.204 211.881 230.204Z" fill="#BE53FF"/>
</svg>
