<svg width="521" height="456" viewBox="0 0 521 456" fill="none" xmlns="http://www.w3.org/2000/svg">
<path d="M261.44 456C404.396 456 520.285 452.701 520.285 448.632C520.285 444.564 404.396 441.265 261.44 441.265C118.483 441.265 2.59375 444.564 2.59375 448.632C2.59375 452.701 118.483 456 261.44 456Z" fill="#2E353A"/>
<path d="M392.582 441.918H368.633V1L392.582 29.4494V441.918Z" stroke="#2E353A" stroke-linecap="round" stroke-linejoin="round"/>
<path d="M368.855 338.098H392.352L368.855 314.895H392.352L368.855 338.098Z" stroke="#2E353A" stroke-linecap="round" stroke-linejoin="round"/>
<path d="M368.855 314.311H392.352L368.855 291.108H392.352L368.855 314.311Z" stroke="#2E353A" stroke-linecap="round" stroke-linejoin="round"/>
<path d="M368.855 385.469H392.352L368.855 362.266H392.352L368.855 385.469Z" stroke="#2E353A" stroke-linecap="round" stroke-linejoin="round"/>
<path d="M368.855 361.681H392.352L368.855 338.479H392.352L368.855 361.681Z" stroke="#2E353A" stroke-linecap="round" stroke-linejoin="round"/>
<path d="M368.855 290.523H392.352L368.855 267.32H392.352L368.855 290.523Z" stroke="#2E353A" stroke-linecap="round" stroke-linejoin="round"/>
<path d="M368.855 266.736H392.352L368.855 243.534H392.352L368.855 266.736Z" stroke="#2E353A" stroke-linecap="round" stroke-linejoin="round"/>
<path d="M368.855 242.949H392.352L368.855 219.747H392.352L368.855 242.949Z" stroke="#2E353A" stroke-linecap="round" stroke-linejoin="round"/>
<path d="M368.855 219.162H392.352L368.855 195.959H392.352L368.855 219.162Z" stroke="#2E353A" stroke-linecap="round" stroke-linejoin="round"/>
<path d="M368.855 195.376H392.352L368.855 172.173H392.352L368.855 195.376Z" stroke="#2E353A" stroke-linecap="round" stroke-linejoin="round"/>
<path d="M368.855 171.587H392.352L368.855 148.385H392.352L368.855 171.587Z" stroke="#2E353A" stroke-linecap="round" stroke-linejoin="round"/>
<path d="M368.855 147.8H392.352L368.855 124.598H392.352L368.855 147.8Z" stroke="#2E353A" stroke-linecap="round" stroke-linejoin="round"/>
<path d="M368.855 124.013H392.352L368.855 100.811H392.352L368.855 124.013Z" stroke="#2E353A" stroke-linecap="round" stroke-linejoin="round"/>
<path d="M368.855 100.227H392.352L368.855 77.0239H392.352L368.855 100.227Z" stroke="#2E353A" stroke-linecap="round" stroke-linejoin="round"/>
<path d="M368.855 76.4395H392.352L368.855 53.2368H392.352L368.855 76.4395Z" stroke="#2E353A" stroke-linecap="round" stroke-linejoin="round"/>
<path d="M368.855 52.6519H392.352L368.855 29.4492H392.352L368.855 52.6519Z" stroke="#2E353A" stroke-linecap="round" stroke-linejoin="round"/>
<path d="M503.746 53.2915L492.144 45.8291H409.362L399.25 53.2915H503.746Z" stroke="#2E353A" stroke-linecap="round" stroke-linejoin="round"/>
<path d="M505.667 52.6519H303.434V58.0889H505.667V52.6519Z" fill="#2E353A" stroke="#2E353A" stroke-linecap="round" stroke-linejoin="round"/>
<path d="M492.155 45.8286L368.633 1L409.372 45.8286" stroke="#2E353A" stroke-linecap="round" stroke-linejoin="round"/>
<path d="M368.627 1L303.434 52.6521" stroke="#2E353A" stroke-linecap="round" stroke-linejoin="round"/>
<path d="M409.874 64.2056H359.98V96.8279H409.874V64.2056Z" fill="#2E353A" stroke="#2E353A" stroke-linecap="round" stroke-linejoin="round"/>
<path d="M409.874 409.948H359.98V442.571H409.874V409.948Z" fill="#2E353A" stroke="#2E353A" stroke-linecap="round" stroke-linejoin="round"/>
<path d="M399.469 71.0024H370.371V80.5173H399.469V71.0024Z" fill="white" stroke="#2E353A" stroke-linecap="round" stroke-linejoin="round"/>
<path d="M505.668 58.0894V116.701" stroke="#2E353A" stroke-linecap="round" stroke-linejoin="round"/>
<path d="M513.262 136.709H498.48V153.822H513.262V136.709Z" fill="#2E353A" stroke="#2E353A" stroke-linecap="round" stroke-linejoin="round"/>
<path d="M498.48 136.709L505.865 115.586L513.262 136.709" stroke="#2E353A" stroke-linecap="round" stroke-linejoin="round"/>
<path d="M308.65 405.789V375.559H221.437V405.816C221.422 415.692 218.14 425.272 212.123 433.002L208.305 437.922H321.729L317.897 433.002C311.903 425.253 308.645 415.665 308.65 405.789V405.789Z" fill="white" stroke="#2E353A" stroke-width="1.09543" stroke-linecap="round" stroke-linejoin="round"/>
<g style="mix-blend-mode:multiply">
<path d="M216.078 426.98H314.015C310.513 420.491 308.682 413.199 308.693 405.789V375.559H221.44V405.816C221.435 413.221 219.59 420.503 216.078 426.98V426.98Z" fill="#D48AFF"/>
</g>
<path d="M308.651 380.085H221.438V392.862H308.651V380.085Z" fill="#2E353A" stroke="#2E353A" stroke-width="1.09543" stroke-linecap="round" stroke-linejoin="round"/>
<path d="M427.956 116.483H102.134C95.3073 116.483 89.7734 122.136 89.7734 129.11V372.446C89.7734 379.42 95.3073 385.074 102.134 385.074H427.956C434.782 385.074 440.316 379.42 440.316 372.446V129.11C440.316 122.136 434.782 116.483 427.956 116.483Z" fill="#2E353A" stroke="#2E353A" stroke-width="1.09543" stroke-linecap="round" stroke-linejoin="round"/>
<path d="M89.7734 343.331H440.316V372.446C440.316 375.795 439.014 379.007 436.696 381.375C434.378 383.743 431.234 385.074 427.956 385.074H102.2C98.922 385.074 95.7782 383.743 93.4602 381.375C91.1422 379.007 89.84 375.795 89.84 372.446V343.331H89.7734Z" fill="white" stroke="#2E353A" stroke-width="1.09543" stroke-linecap="round" stroke-linejoin="round"/>
<path d="M422.674 133.202H107.402V322.955H422.674V133.202Z" fill="#D48AFF" stroke="#2E353A" stroke-width="1.09543" stroke-linecap="round" stroke-linejoin="round"/>
<path d="M271.503 364.208C271.505 362.901 271.128 361.623 270.419 360.535C269.71 359.447 268.701 358.598 267.52 358.096C266.339 357.594 265.038 357.461 263.783 357.714C262.528 357.968 261.375 358.596 260.469 359.519C259.563 360.442 258.946 361.619 258.696 362.901C258.445 364.183 258.572 365.512 259.061 366.72C259.55 367.928 260.379 368.96 261.443 369.687C262.506 370.413 263.757 370.801 265.036 370.801C265.885 370.803 266.726 370.634 267.51 370.303C268.294 369.973 269.007 369.487 269.608 368.875C270.209 368.263 270.685 367.535 271.01 366.734C271.335 365.934 271.503 365.075 271.503 364.208V364.208Z" fill="#2E353A" stroke="#2E353A" stroke-width="1.09543" stroke-linecap="round" stroke-linejoin="round"/>
<path d="M321.754 437.908H208.344V443.304H321.754V437.908Z" fill="white" stroke="#2E353A" stroke-width="1.09543" stroke-linecap="round" stroke-linejoin="round"/>
<path d="M367.64 180.749C371.292 177.01 373.99 172.412 375.496 167.359C377.001 162.306 377.269 156.953 376.274 151.769L356.49 171.981C355.366 173.123 353.845 173.765 352.259 173.765C350.674 173.765 349.153 173.123 348.028 171.981L331.583 155.181C331.026 154.613 330.584 153.938 330.283 153.195C329.981 152.452 329.826 151.656 329.826 150.852C329.826 150.047 329.981 149.251 330.283 148.508C330.584 147.765 331.026 147.09 331.583 146.522L351.354 126.324C345.814 125.218 340.084 125.652 334.763 127.58C329.442 129.508 324.725 132.86 321.104 137.285C317.484 141.71 315.092 147.047 314.178 152.739C313.265 158.431 313.863 164.268 315.91 169.643L264.86 220.602L259.937 215.559L267.92 207.404C268.328 206.979 268.556 206.408 268.556 205.813C268.556 205.219 268.328 204.648 267.92 204.223L261.693 197.862C261.282 197.443 260.724 197.207 260.143 197.207C259.562 197.207 259.005 197.443 258.593 197.862L255.48 201.042L248.734 194.165L251.329 191.514C251.878 190.951 252.186 190.188 252.186 189.394C252.186 188.599 251.878 187.836 251.329 187.273L195.621 130.361C194.294 129.003 192.718 127.925 190.983 127.19C189.248 126.455 187.388 126.077 185.51 126.077C183.631 126.077 181.771 126.455 180.036 127.19C178.301 127.925 176.725 129.003 175.398 130.361L169.703 136.178C168.375 137.533 167.32 139.142 166.601 140.914C165.882 142.685 165.512 144.584 165.512 146.502C165.512 148.42 165.882 150.319 166.601 152.09C167.32 153.862 168.375 155.471 169.703 156.826L225.411 213.752C225.962 214.313 226.708 214.628 227.486 214.628C228.264 214.628 229.011 214.313 229.562 213.752L232.156 211.101L238.889 217.992L235.789 221.16C235.583 221.368 235.421 221.616 235.31 221.889C235.198 222.162 235.141 222.454 235.141 222.75C235.141 223.045 235.198 223.338 235.31 223.611C235.421 223.884 235.583 224.132 235.789 224.34L242.002 230.702C242.417 231.118 242.976 231.352 243.559 231.352C244.141 231.352 244.7 231.118 245.115 230.702L253.098 222.546L257.941 227.494L215.605 269.631C210.343 267.54 204.629 266.93 199.058 267.864C193.487 268.798 188.262 271.241 183.93 274.94C179.598 278.638 176.316 283.456 174.427 288.891C172.538 294.327 172.11 300.18 173.189 305.842L192.974 285.643C193.53 285.074 194.19 284.622 194.917 284.314C195.644 284.006 196.424 283.847 197.211 283.847C197.998 283.847 198.778 284.006 199.505 284.314C200.232 284.622 200.893 285.074 201.449 285.643L217.947 302.335C218.504 302.903 218.946 303.578 219.248 304.321C219.549 305.064 219.704 305.86 219.704 306.664C219.704 307.468 219.549 308.265 219.248 309.008C218.946 309.75 218.504 310.425 217.947 310.993L198.176 331.192C203.717 332.296 209.446 331.861 214.767 329.933C220.087 328.004 224.804 324.653 228.426 320.229C232.047 315.804 234.44 310.468 235.356 304.777C236.272 299.086 235.677 293.248 233.633 287.872L275.969 245.735L333.699 304.646C332.869 306.83 332.679 309.213 333.152 311.506C333.624 313.799 334.739 315.901 336.36 317.559L350.29 331.79L367.001 314.704L353.071 300.486C351.449 298.83 349.39 297.691 347.146 297.209C344.902 296.726 342.569 296.92 340.431 297.768L282.795 238.884L333.899 187.98C339.603 190.247 345.83 190.771 351.821 189.487C357.812 188.203 363.308 185.167 367.64 180.749V180.749Z" fill="#2E353A" stroke="#2E353A" stroke-width="1.09543" stroke-linecap="round" stroke-linejoin="round"/>
<path d="M230.122 280.627L330.347 180.735C335.612 182.83 341.331 183.442 346.906 182.507C352.482 181.573 357.709 179.125 362.042 175.42C366.375 171.716 369.655 166.89 371.538 161.448C373.422 156.006 373.84 150.147 372.75 144.483L352.979 164.682C352.422 165.251 351.762 165.703 351.035 166.011C350.308 166.319 349.528 166.478 348.741 166.478C347.954 166.478 347.174 166.319 346.447 166.011C345.72 165.703 345.059 165.251 344.503 164.682L328.059 147.882C327.502 147.315 327.06 146.641 326.759 145.899C326.457 145.157 326.302 144.362 326.302 143.559C326.302 142.756 326.457 141.961 326.759 141.219C327.06 140.477 327.502 139.804 328.059 139.237L347.83 119.024C342.286 117.921 336.554 118.358 331.232 120.29C325.91 122.222 321.193 125.578 317.575 130.009C313.956 134.439 311.568 139.78 310.66 145.476C309.752 151.171 310.357 157.01 312.412 162.385L212.187 262.277C206.925 260.185 201.211 259.574 195.64 260.508C190.069 261.441 184.845 263.885 180.513 267.584C176.182 271.283 172.901 276.102 171.014 281.538C169.127 286.974 168.702 292.827 169.784 298.488L189.555 278.289C190.111 277.72 190.772 277.269 191.499 276.961C192.226 276.652 193.005 276.494 193.793 276.494C194.58 276.494 195.359 276.652 196.087 276.961C196.814 277.269 197.474 277.72 198.03 278.289L214.475 295.09C215.032 295.657 215.474 296.331 215.775 297.072C216.076 297.814 216.232 298.609 216.232 299.412C216.232 300.216 216.076 301.011 215.775 301.752C215.474 302.494 215.032 303.168 214.475 303.735L194.664 323.906C200.205 325.01 205.935 324.575 211.255 322.647C216.576 320.719 221.292 317.368 224.914 312.943C228.535 308.519 230.929 303.183 231.845 297.492C232.761 291.801 232.166 285.963 230.122 280.587V280.627Z" fill="white" stroke="#2E353A" stroke-miterlimit="10"/>
<path d="M222.403 270.148C221.637 269.363 221.207 268.3 221.207 267.192C221.207 266.083 221.637 265.02 222.403 264.235L312.517 174.673C313.288 173.89 314.331 173.45 315.418 173.45C316.505 173.45 317.548 173.89 318.318 174.673V174.673C319.085 175.46 319.516 176.526 319.516 177.636C319.516 178.747 319.085 179.812 318.318 180.6L228.204 270.148C227.434 270.932 226.391 271.371 225.304 271.371C224.217 271.371 223.174 270.932 222.403 270.148V270.148Z" fill="white" stroke="#2E353A" stroke-miterlimit="10"/>
<path d="M249.131 200.831L242.395 207.713L339.588 307.009L346.324 300.127L249.131 200.831Z" fill="white" stroke="#2E353A" stroke-miterlimit="10"/>
<path d="M363.479 307.459L346.768 324.532L332.838 310.314C330.621 308.048 329.375 304.975 329.375 301.771C329.375 298.567 330.621 295.494 332.838 293.228V293.228C333.935 292.107 335.238 291.217 336.671 290.611C338.105 290.004 339.641 289.691 341.193 289.691C342.745 289.691 344.282 290.004 345.715 290.611C347.149 291.217 348.452 292.107 349.549 293.228L363.479 307.459Z" fill="white" stroke="#2E353A" stroke-miterlimit="10"/>
<path d="M240.063 181.508L223.477 198.453L236.949 212.216L253.535 195.271L240.063 181.508Z" fill="white" stroke="#2E353A" stroke-miterlimit="10"/>
<path d="M166.21 128.822L171.911 122.997C173.238 121.642 174.813 120.566 176.547 119.833C178.28 119.099 180.138 118.721 182.015 118.721C183.891 118.721 185.75 119.099 187.483 119.833C189.217 120.566 190.792 121.642 192.119 122.997L247.833 179.916C248.382 180.477 248.69 181.238 248.69 182.031C248.69 182.824 248.382 183.585 247.833 184.145L226.063 206.386C225.514 206.947 224.77 207.262 223.993 207.262C223.217 207.262 222.472 206.947 221.923 206.386L166.21 149.467C163.53 146.729 162.024 143.016 162.024 139.145C162.024 135.273 163.53 131.56 166.21 128.822Z" fill="white" stroke="#2E353A" stroke-miterlimit="10"/>
<path d="M255.088 190.518L232.283 213.816C231.425 214.692 231.425 216.112 232.283 216.988L238.511 223.351C239.368 224.227 240.758 224.227 241.615 223.351L264.42 200.053C265.278 199.177 265.278 197.757 264.42 196.881L258.192 190.518C257.335 189.642 255.945 189.642 255.088 190.518Z" fill="white" stroke="#2E353A" stroke-miterlimit="10"/>
<path d="M229.182 197.93L224.605 202.619L169.896 146.726C169.287 146.104 168.945 145.261 168.945 144.381C168.945 143.502 169.287 142.659 169.896 142.037V142.037C170.196 141.727 170.554 141.482 170.948 141.314C171.342 141.146 171.764 141.06 172.191 141.06C172.617 141.06 173.04 141.146 173.434 141.314C173.828 141.482 174.185 141.727 174.486 142.037L229.182 197.93Z" fill="white" stroke="#2E353A" stroke-miterlimit="10"/>
<path d="M236.986 189.951L232.383 194.641L177.673 138.748C177.064 138.126 176.723 137.282 176.723 136.403C176.723 135.523 177.064 134.68 177.673 134.058V134.058C177.974 133.749 178.331 133.503 178.725 133.335C179.119 133.168 179.541 133.082 179.968 133.082C180.395 133.082 180.817 133.168 181.211 133.335C181.605 133.503 181.963 133.749 182.263 134.058L236.986 189.951Z" fill="white" stroke="#2E353A" stroke-miterlimit="10"/>
<path d="M244.799 181.972L240.195 186.621L185.486 130.769C184.877 130.147 184.535 129.303 184.535 128.424C184.535 127.544 184.877 126.701 185.486 126.079V126.079C185.786 125.77 186.144 125.524 186.538 125.356C186.931 125.189 187.354 125.103 187.781 125.103C188.207 125.103 188.63 125.189 189.024 125.356C189.418 125.524 189.775 125.77 190.076 126.079L244.799 181.972Z" fill="white" stroke="#2E353A" stroke-miterlimit="10"/>
<path d="M427.924 444.976H423.493L394.848 204.849H399.291L427.924 444.976Z" fill="white" stroke="#2E353A" stroke-miterlimit="10"/>
<path d="M462.521 444.976H458.091L429.445 204.849H433.889L462.521 444.976Z" fill="white" stroke="#2E353A" stroke-miterlimit="10"/>
<path d="M434.166 224.748H399.587L398.695 217.34H433.288L434.166 224.748Z" fill="white" stroke="#2E353A" stroke-miterlimit="10"/>
<path d="M437.422 252.096H402.843L401.965 244.688H436.544L437.422 252.096Z" fill="white" stroke="#2E353A" stroke-miterlimit="10"/>
<path d="M440.701 279.445H406.109L405.23 272.037H439.81L440.701 279.445Z" fill="white" stroke="#2E353A" stroke-miterlimit="10"/>
<path d="M443.955 306.806H409.376L408.484 299.398H443.064L443.955 306.806Z" fill="white" stroke="#2E353A" stroke-miterlimit="10"/>
<path d="M447.217 334.156H412.637L411.746 326.748H446.325L447.217 334.156Z" fill="white" stroke="#2E353A" stroke-miterlimit="10"/>
<path d="M450.477 361.504H415.898L415.02 354.096H449.599L450.477 361.504Z" fill="white" stroke="#2E353A" stroke-miterlimit="10"/>
<path d="M453.739 388.866H419.159L418.281 381.458H452.861L453.739 388.866Z" fill="white" stroke="#2E353A" stroke-miterlimit="10"/>
<path d="M457.01 416.214H422.417L421.539 408.806H456.118L457.01 416.214Z" fill="white" stroke="#2E353A" stroke-miterlimit="10"/>
<path d="M399.055 220.249H403.578" stroke="#2E353A" stroke-width="0.5" stroke-miterlimit="10"/>
<path d="M400.117 222.424H408.898" stroke="#2E353A" stroke-width="0.5" stroke-miterlimit="10"/>
<path d="M433.636 222.424H427.25" stroke="#2E353A" stroke-width="0.5" stroke-miterlimit="10"/>
<path d="M436.827 248.78H430.973" stroke="#2E353A" stroke-width="0.5" stroke-miterlimit="10"/>
<path d="M403.312 250.14H416.883" stroke="#2E353A" stroke-width="0.5" stroke-miterlimit="10"/>
<path d="M405.711 275.68H417.419" stroke="#2E353A" stroke-width="0.5" stroke-miterlimit="10"/>
<path d="M406.238 277.855H412.625" stroke="#2E353A" stroke-width="0.5" stroke-miterlimit="10"/>
<path d="M443.734 302.58H436.562" stroke="#2E353A" stroke-width="0.5" stroke-miterlimit="10"/>
<path d="M443.213 304.755H431.238" stroke="#2E353A" stroke-width="0.5" stroke-miterlimit="10"/>
<path d="M453.629 386.079H442.652" stroke="#2E353A" stroke-width="0.5" stroke-miterlimit="10"/>
<path d="M418.707 384.041H425.359" stroke="#2E353A" stroke-width="0.5" stroke-miterlimit="10"/>
<path d="M440.992 386.079H432.344" stroke="#2E353A" stroke-width="0.5" stroke-miterlimit="10"/>
<path d="M422.031 412.245H431.345" stroke="#2E353A" stroke-width="0.5" stroke-miterlimit="10"/>
<path d="M424.031 414.624H434.675" stroke="#2E353A" stroke-width="0.5" stroke-miterlimit="10"/>
<path d="M413.383 331.709H416.376" stroke="#2E353A" stroke-width="0.5" stroke-miterlimit="10"/>
<path d="M445.98 331.029H435.004" stroke="#2E353A" stroke-width="0.5" stroke-miterlimit="10"/>
<path d="M168.681 301.397L163.413 308.411L48.8047 217.001L54.0867 209.987L168.681 301.397Z" fill="#2E353A" stroke="#2E353A" stroke-width="1.09543" stroke-linecap="round" stroke-linejoin="round"/>
<path d="M48.8047 301.397L54.0867 308.411L168.681 217.001L163.413 209.987L48.8047 301.397Z" fill="#2E353A" stroke="#2E353A" stroke-width="1.09543" stroke-linecap="round" stroke-linejoin="round"/>
<path d="M168.681 404.077L165.422 413.116L48.8047 319.68L52.1442 310.559L168.681 404.077Z" fill="#2E353A" stroke="#2E353A" stroke-width="1.09543" stroke-linecap="round" stroke-linejoin="round"/>
<path d="M48.8047 404.076L49.603 414.678L168.681 319.679L163.413 312.679L48.8047 404.076Z" fill="#2E353A" stroke="#2E353A" stroke-width="1.09543" stroke-linecap="round" stroke-linejoin="round"/>
<path d="M51.5044 209.021H46.8477V444.99H51.5044V209.021Z" fill="#2E353A" stroke="#2E353A" stroke-width="1.09543" stroke-linecap="round" stroke-linejoin="round"/>
<path d="M169.321 209.021H164.664V444.99H169.321V209.021Z" fill="#2E353A" stroke="#2E353A" stroke-width="1.09543" stroke-linecap="round" stroke-linejoin="round"/>
<path d="M146.263 301.397L140.981 308.411L26.3867 217.001L31.6554 209.987L146.263 301.397Z" fill="white" stroke="#2E353A" stroke-width="1.09543" stroke-linecap="round" stroke-linejoin="round"/>
<path d="M26.3867 301.397L31.6554 308.411L146.263 217.001L140.981 209.987L26.3867 301.397Z" fill="white" stroke="#2E353A" stroke-width="1.09543" stroke-linecap="round" stroke-linejoin="round"/>
<path d="M146.263 404.077L142.99 413.116L26.3867 319.68L28.0631 310.559L146.263 404.077Z" fill="white" stroke="#2E353A" stroke-width="1.09543" stroke-linecap="round" stroke-linejoin="round"/>
<path d="M26.3867 404.076L27.185 414.678L146.263 319.679L140.981 312.679L26.3867 404.076Z" fill="white" stroke="#2E353A" stroke-width="1.09543" stroke-linecap="round" stroke-linejoin="round"/>
<path d="M29.0786 209.021H24.4219V444.99H29.0786V209.021Z" fill="white" stroke="#2E353A" stroke-width="1.09543" stroke-linecap="round" stroke-linejoin="round"/>
<path d="M146.887 209.021H142.23V444.99H146.887V209.021Z" fill="white" stroke="#2E353A" stroke-width="1.09543" stroke-linecap="round" stroke-linejoin="round"/>
<path d="M152.888 206.833H18.4297V214.309H152.888V206.833Z" fill="white" stroke="#2E353A" stroke-width="1.09543" stroke-linecap="round" stroke-linejoin="round"/>
<path d="M173.605 206.833H136.285V214.309H173.605V206.833Z" fill="#2E353A" stroke="#2E353A" stroke-width="1.09543" stroke-linecap="round" stroke-linejoin="round"/>
<path d="M152.888 304.755H18.4297V312.231H152.888V304.755Z" fill="white" stroke="#2E353A" stroke-width="1.09543" stroke-linecap="round" stroke-linejoin="round"/>
<path d="M173.605 304.755H136.285V312.231H173.605V304.755Z" fill="#2E353A" stroke="#2E353A" stroke-width="1.09543" stroke-linecap="round" stroke-linejoin="round"/>
<path d="M320.438 444.977H309.914L323.951 360.96H334.488L320.438 444.977Z" fill="#2E353A" stroke="#2E353A" stroke-width="0.972732" stroke-miterlimit="10"/>
<path d="M341.501 444.977H352.039L337.989 360.96H327.465L341.501 444.977Z" fill="white" stroke="#2E353A" stroke-width="0.972732" stroke-miterlimit="10"/>
<path d="M469.876 444.977H459.352L473.388 360.96H483.912L469.876 444.977Z" fill="#2E353A" stroke="#2E353A" stroke-width="0.972732" stroke-miterlimit="10"/>
<path d="M490.939 444.977H501.476L487.426 360.96H476.902L490.939 444.977Z" fill="white" stroke="#2E353A" stroke-width="0.972732" stroke-miterlimit="10"/>
<path d="M498.312 336.67H297.449V365.174H498.312V336.67Z" fill="#D48AFF" stroke="#2E353A" stroke-width="0.972732" stroke-miterlimit="10"/>
<path d="M503.207 336.67H302.344V365.174H503.207V336.67Z" fill="#D48AFF" stroke="#2E353A" stroke-width="0.972732" stroke-miterlimit="10"/>
<path d="M305.625 365.174H322.669L331.476 336.67H314.433L305.625 365.174Z" fill="#2E353A"/>
<path d="M373.107 336.67H356.05L347.242 365.174H364.299L373.107 336.67Z" fill="#2E353A"/>
<path d="M497.974 336.67H480.917L472.109 365.174H489.166L497.974 336.67Z" fill="#2E353A"/>
<path d="M456.343 336.67H439.3L430.492 365.174H447.536L456.343 336.67Z" fill="#2E353A"/>
<path d="M414.724 336.67H397.667L388.859 365.174H405.916L414.724 336.67Z" fill="#2E353A"/>
<path d="M502.103 349.325H468.867" stroke="#2E353A" stroke-miterlimit="10"/>
<path d="M501.516 354.083H496.273" stroke="#2E353A" stroke-miterlimit="10"/>
<path d="M301.492 352.9H334.728" stroke="#2E353A" stroke-miterlimit="10"/>
<path d="M302.066 347.531H344.056" stroke="#2E353A" stroke-miterlimit="10"/>
</svg>
