<svg width="570" height="424" viewBox="0 0 570 424" fill="none" xmlns="http://www.w3.org/2000/svg">
<path d="M569.998 372.605H0.960938V372.89H569.998V372.605Z" fill="#EBEBEB"/>
<path d="M98.3571 383.439H60.6641V383.724H98.3571V383.439Z" fill="#EBEBEB"/>
<path d="M205.624 380.355H175.59V380.64H205.624V380.355Z" fill="#EBEBEB"/>
<path d="M155.608 390.155H103.348V390.44H155.608V390.155Z" fill="#EBEBEB"/>
<path d="M512.981 392.101H488.398V392.385H512.981V392.101Z" fill="#EBEBEB"/>
<path d="M482.869 392.101H446.484V392.385H482.869V392.101Z" fill="#EBEBEB"/>
<path d="M379.18 387.297H316.449V387.581H379.18V387.297Z" fill="#EBEBEB"/>
<path d="M270.687 321.847H50.9362C49.2147 321.844 47.5648 321.158 46.3485 319.94C45.1323 318.722 44.4492 317.07 44.4492 315.349V6.4415C44.4642 4.72986 45.1539 3.09326 46.3685 1.88717C47.5831 0.68109 49.2245 0.00293212 50.9362 0H270.687C272.41 0 274.063 0.684651 275.282 1.90334C276.501 3.12202 277.185 4.77492 277.185 6.4984V315.349C277.185 317.072 276.501 318.725 275.282 319.944C274.063 321.163 272.41 321.847 270.687 321.847ZM50.9362 0.227616C49.2902 0.23063 47.7126 0.886634 46.5497 2.05164C45.3868 3.21664 44.7337 4.79544 44.7337 6.4415V315.349C44.7337 316.995 45.3868 318.574 46.5497 319.739C47.7126 320.904 49.2902 321.56 50.9362 321.563H270.687C272.334 321.56 273.913 320.904 275.077 319.739C276.242 318.575 276.898 316.996 276.901 315.349V6.4415C276.898 4.7944 276.242 3.21562 275.077 2.05094C273.913 0.886264 272.334 0.230624 270.687 0.227616H50.9362Z" fill="#EBEBEB"/>
<path d="M516.862 321.847H297.1C295.377 321.844 293.726 321.159 292.508 319.941C291.29 318.723 290.605 317.071 290.602 315.349V6.4415C290.62 4.72883 291.312 3.09223 292.528 1.88646C293.745 0.680692 295.387 0.00290014 297.1 0H516.862C518.572 0.0059231 520.21 0.685404 521.422 1.89117C522.635 3.09693 523.323 4.73183 523.338 6.4415V315.349C523.338 317.068 522.656 318.718 521.442 319.936C520.229 321.154 518.582 321.841 516.862 321.847ZM297.1 0.227616C295.453 0.230624 293.874 0.886264 292.709 2.05094C291.545 3.21562 290.889 4.7944 290.886 6.4415V315.349C290.889 316.996 291.545 318.575 292.709 319.739C293.874 320.904 295.453 321.56 297.1 321.563H516.862C518.509 321.56 520.088 320.904 521.253 319.739C522.417 318.575 523.073 316.996 523.076 315.349V6.4415C523.073 4.7944 522.417 3.21562 521.253 2.05094C520.088 0.886264 518.509 0.230624 516.862 0.227616H297.1Z" fill="#EBEBEB"/>
<path d="M99.1112 191.185L470.852 191.185V29.9309L99.1112 29.9309V191.185Z" fill="#E6E6E6"/>
<path d="M93.99 191.185L468.621 191.185V29.9309L93.99 29.9309V191.185Z" fill="#F5F5F5"/>
<path d="M459.426 181.887V39.2295L103.175 39.2295V181.887L459.426 181.887Z" fill="#FAFAFA"/>
<path d="M254.647 181.887L214.017 39.2412H185.668L226.297 181.887H254.647Z" fill="white"/>
<path d="M218.253 181.887L177.635 39.2412H158.105L198.735 181.887H218.253Z" fill="white"/>
<path d="M425.209 181.887L384.591 39.2412H356.23L396.86 181.887H425.209Z" fill="white"/>
<path d="M388.827 181.887L348.198 39.2412H328.68L369.298 181.887H388.827Z" fill="white"/>
<path d="M181.922 181.887V39.2295H170.951V181.887H181.922Z" fill="#E6E6E6"/>
<path d="M398.996 181.899V39.2412H388.025V181.899H398.996Z" fill="#E6E6E6"/>
<path d="M179.945 187.794V32.3213H166.084V187.794H179.945Z" fill="#F5F5F5"/>
<path d="M397.023 187.794V32.3213H383.162V187.794H397.023Z" fill="#F5F5F5"/>
<path d="M104.148 181.899L104.148 39.2412H103.17L103.17 181.899H104.148Z" fill="#E6E6E6"/>
<path d="M90.1185 17.9814H480.842C481.144 17.9814 481.433 18.1013 481.647 18.3148C481.86 18.5282 481.98 18.8177 481.98 19.1195C481.98 19.4214 481.86 19.7108 481.647 19.9243C481.433 20.1377 481.144 20.2576 480.842 20.2576H90.1185C89.8167 20.2576 89.5272 20.1377 89.3138 19.9243C89.1004 19.7108 88.9805 19.4214 88.9805 19.1195C88.9805 18.8177 89.1004 18.5282 89.3138 18.3148C89.5272 18.1013 89.8167 17.9814 90.1185 17.9814Z" fill="#E6E6E6"/>
<path d="M470.835 25.8007C471.259 25.8007 471.666 25.6332 471.966 25.3347C472.267 25.0362 472.437 24.631 472.44 24.2074V20.7932C472.44 20.3676 472.271 19.9594 471.97 19.6585C471.669 19.3575 471.261 19.1885 470.835 19.1885C470.412 19.1915 470.007 19.3619 469.708 19.6625C469.41 19.9631 469.242 20.3695 469.242 20.7932V24.2074C469.242 24.6299 469.41 25.0352 469.709 25.334C470.008 25.6328 470.413 25.8007 470.835 25.8007Z" fill="#E6E6E6"/>
<path d="M108 25.8007C108.423 25.8007 108.83 25.6332 109.13 25.3347C109.431 25.0362 109.601 24.631 109.604 24.2074V20.7932C109.604 20.3676 109.435 19.9594 109.134 19.6585C108.833 19.3575 108.425 19.1885 108 19.1885C107.576 19.1915 107.171 19.3619 106.872 19.6625C106.574 19.9631 106.406 20.3695 106.406 20.7932V24.2074C106.406 24.6299 106.574 25.0352 106.873 25.334C107.172 25.6328 107.577 25.8007 108 25.8007Z" fill="#E6E6E6"/>
<path opacity="0.6" d="M90.493 59.498L464.965 59.498V19.1647L90.493 19.1647V59.498Z" fill="#E0E0E0"/>
<path d="M222.609 314.905C226.649 313.539 229.574 309.647 227.013 305.652C222.768 299.051 233.386 297.686 230.427 286.612C226.228 271.021 213.174 284.53 209.942 269.541C207.586 258.65 189.297 251.514 188.58 265.854C187.795 281.548 179.931 271.294 178.178 288.752C176.972 300.815 194.111 302.568 189.024 306.346C185.28 309.101 183.061 313.903 188.284 317.192C195.409 321.665 188.683 325.159 193.531 328.277C198.379 331.396 199.153 326.422 206.664 328.846C213.379 331.009 219.069 324.374 217.738 320.22C216.452 316.384 218.557 316.282 222.609 314.905Z" fill="#E6E6E6"/>
<path d="M183.789 322.075C183.789 322.075 184.335 372.606 205.515 372.606C226.694 372.606 227.241 322.075 227.241 322.075H183.789Z" fill="#F0F0F0"/>
<path d="M163.636 314.905C167.664 313.539 170.601 309.647 168.029 305.652C163.784 299.051 174.413 297.686 171.443 286.612C167.232 271.021 154.178 284.53 150.957 269.541C148.602 258.65 130.313 251.514 129.596 265.854C128.811 281.548 120.946 271.294 119.194 288.752C117.987 300.815 135.127 302.568 130.04 306.346C126.295 309.101 124.076 313.903 129.311 317.192C136.424 321.665 129.71 325.159 134.546 328.277C139.383 331.396 140.169 326.422 147.68 328.846C154.406 331.009 160.096 324.374 158.753 320.22C157.467 316.384 159.573 316.282 163.636 314.905Z" fill="#E6E6E6"/>
<path d="M124.805 322.075C124.805 322.075 125.362 372.606 146.531 372.606C167.699 372.606 168.256 322.075 168.256 322.075H124.805Z" fill="#F0F0F0"/>
<path d="M348.812 266.172C351.862 232.406 353.99 177.596 352.34 159.262C352.314 158.952 352.225 158.651 352.078 158.377C351.931 158.103 351.73 157.862 351.487 157.668C351.159 157.411 350.763 157.255 350.348 157.222C349.933 157.188 349.517 157.278 349.152 157.479C348.788 157.681 348.491 157.986 348.299 158.356C348.107 158.725 348.028 159.143 348.072 159.558C348.368 168.662 348.698 191.344 346.934 230.517C346.035 250.012 344.738 263.361 345.625 266.172H348.812Z" fill="#F0F0F0"/>
<path d="M358.213 196.249C365.519 187.144 380.428 180.589 395.621 180.623C401.585 180.623 377.469 191.264 367.443 202.998C359.658 212.102 350.872 227.444 347.891 235.945C349.814 218.043 350.918 205.399 358.213 196.249Z" fill="#F0F0F0"/>
<path d="M342.951 196.159C335.735 186.098 319.051 178.359 301.013 177.483C293.922 177.141 320.883 189.763 330.933 202.703C338.751 212.752 346.763 229.413 348.96 238.541C349.495 219.648 350.177 206.219 342.951 196.159Z" fill="#F0F0F0"/>
<path d="M358.213 210.942C365.519 201.838 380.428 195.282 395.621 195.317C401.585 195.317 377.469 205.958 367.443 217.691C359.658 226.796 350.872 242.137 347.891 250.695C349.814 232.736 350.918 220.092 358.213 210.942Z" fill="#F0F0F0"/>
<path d="M342.951 211.682C335.735 201.621 319.051 193.882 301.013 193.006C293.922 192.664 320.883 205.286 330.933 218.226C338.751 228.286 346.763 244.936 348.96 254.063C349.495 235.103 350.177 221.731 342.951 211.682Z" fill="#F0F0F0"/>
<path d="M356.907 161.685C361.687 154.857 371.918 149.576 382.604 148.859C386.804 148.575 370.256 157.236 363.656 165.93C358.523 172.759 352.935 183.935 351.137 190.069C351.831 177.425 352.115 168.434 356.907 161.685Z" fill="#F0F0F0"/>
<path d="M347.389 164.554C342.302 157.464 330.546 152.035 317.799 151.398C312.803 151.159 331.797 160.059 338.888 169.174C344.396 176.253 350.041 187.998 351.589 194.428C351.998 181.079 352.488 171.644 347.389 164.554Z" fill="#F0F0F0"/>
<path d="M358.543 170.506C364.723 162.756 377.344 157.248 390.216 157.271C395.269 157.271 374.852 166.284 366.316 176.219C359.716 183.936 352.284 196.921 349.746 204.125C351.487 188.92 352.364 178.245 358.543 170.506Z" fill="#F0F0F0"/>
<path d="M345.993 174.626C339.87 166.159 325.746 159.558 310.519 158.818C304.521 158.523 327.34 169.22 335.852 180.169C342.385 188.682 349.213 202.782 351.08 210.544C351.49 194.474 352.104 183.151 345.993 174.626Z" fill="#F0F0F0"/>
<path d="M358.957 181.25C365.627 172.896 379.249 166.944 393.1 166.978C398.551 166.978 376.529 176.697 367.368 187.463C360.255 195.794 352.231 209.793 349.5 217.566C351.287 201.166 352.288 189.603 358.957 181.25Z" fill="#F0F0F0"/>
<path d="M345.023 185.824C338.195 176.367 322.558 169.095 305.589 168.275C298.931 167.945 324.265 179.815 333.722 191.981C341.074 201.439 348.608 217.099 350.679 225.68C351.169 207.857 351.817 195.293 345.023 185.824Z" fill="#F0F0F0"/>
<path d="M328.28 260.471L329.418 269.951C329.479 270.976 329.929 271.939 330.675 272.643C331.422 273.347 332.409 273.74 333.435 273.741H361.728C362.754 273.74 363.742 273.347 364.488 272.643C365.235 271.939 365.684 270.976 365.745 269.951L366.883 260.471C366.914 259.925 366.833 259.378 366.645 258.864C366.457 258.35 366.166 257.88 365.79 257.482C365.414 257.085 364.961 256.768 364.458 256.552C363.955 256.336 363.413 256.225 362.866 256.226H332.297C331.75 256.225 331.208 256.336 330.705 256.552C330.203 256.768 329.749 257.085 329.373 257.482C328.997 257.88 328.706 258.35 328.518 258.864C328.33 259.378 328.249 259.925 328.28 260.471Z" fill="#E6E6E6"/>
<path d="M326.593 262.474H368.554C368.851 262.473 369.137 262.364 369.36 262.167C369.582 261.97 369.724 261.699 369.76 261.404L370.762 252.368C370.779 252.199 370.761 252.028 370.709 251.866C370.656 251.704 370.57 251.555 370.456 251.429C370.343 251.302 370.204 251.201 370.049 251.131C369.894 251.062 369.726 251.026 369.556 251.025H325.592C325.422 251.026 325.254 251.062 325.098 251.131C324.943 251.201 324.804 251.302 324.691 251.429C324.577 251.555 324.491 251.704 324.439 251.866C324.386 252.028 324.368 252.199 324.385 252.368L325.387 261.404C325.423 261.699 325.565 261.97 325.788 262.167C326.01 262.364 326.296 262.473 326.593 262.474Z" fill="#F5F5F5"/>
<path d="M263.788 372.605H282.02V273.741H263.788V372.605Z" fill="#E6E6E6"/>
<path d="M269.252 372.606H263.789V353.68H274.976L269.252 372.606Z" fill="#F0F0F0"/>
<path d="M490.913 372.605H509.145V273.741H490.913V372.605Z" fill="#E6E6E6"/>
<path d="M263.79 360.997H495.695V273.741H263.79V360.997Z" fill="#F0F0F0"/>
<path d="M490.221 372.606H495.683V353.68H484.496L490.221 372.606Z" fill="#F0F0F0"/>
<path d="M268.023 314.802H491.449V279.886H268.023V314.802Z" fill="#E6E6E6"/>
<path d="M300.765 290.733H455.054C460.38 290.733 465.479 286.42 469.155 278.817H286.676C290.34 286.42 295.439 290.733 300.765 290.733Z" fill="#F0F0F0"/>
<path d="M268.023 355.352H491.449V320.435H268.023V355.352Z" fill="#E6E6E6"/>
<path d="M300.765 331.282H455.054C460.38 331.282 465.479 326.98 469.155 319.378H286.676C290.34 326.98 295.439 331.282 300.765 331.282Z" fill="#F0F0F0"/>
<path d="M492.882 250.57C492.882 250.57 491.88 273.741 453.664 273.741C415.447 273.741 414.457 250.57 414.457 250.57H492.882Z" fill="#F5F5F5"/>
<path d="M492.882 238.54C492.882 238.54 491.88 261.757 453.664 261.757C415.447 261.757 414.457 238.586 414.457 238.586L492.882 238.54Z" fill="#F5F5F5"/>
<path d="M285.485 423.999C407.353 423.999 506.147 418.231 506.147 411.116C506.147 404.001 407.353 398.233 285.485 398.233C163.618 398.233 64.8242 404.001 64.8242 411.116C64.8242 418.231 163.618 423.999 285.485 423.999Z" fill="#F5F5F5"/>
<path d="M419.671 91.4669C412.842 95.1998 410.566 106.262 413.764 111.076C401.928 114.627 408.074 134.975 427.421 136.114C446.768 137.252 461.495 130.184 451.992 115.093C461.392 102.427 457.068 88.2803 448.828 89.8395C439.985 72.1197 410.373 72.6432 419.671 91.4669Z" fill="#263238"/>
<path d="M440.272 137.479C437.287 137.47 434.361 136.652 431.804 135.112C431.763 135.097 431.726 135.073 431.696 135.043C431.665 135.012 431.641 134.975 431.627 134.934C431.612 134.893 431.607 134.849 431.611 134.806C431.615 134.762 431.628 134.721 431.651 134.683C431.673 134.646 431.703 134.614 431.739 134.589C431.775 134.565 431.816 134.548 431.858 134.542C431.901 134.535 431.945 134.537 431.987 134.549C432.029 134.561 432.068 134.582 432.1 134.611C435.398 136.585 439.294 137.31 443.08 136.654C446.867 135.998 450.292 134.005 452.734 131.038C455.84 127.191 457.286 121.023 451.857 115.264C451.831 115.236 451.811 115.204 451.797 115.168C451.783 115.133 451.777 115.095 451.778 115.057C451.779 115.019 451.788 114.981 451.803 114.946C451.819 114.912 451.841 114.88 451.869 114.854C451.896 114.828 451.929 114.808 451.964 114.794C452 114.78 452.038 114.774 452.076 114.775C452.114 114.776 452.151 114.785 452.186 114.8C452.221 114.816 452.252 114.838 452.278 114.866C457.9 120.897 456.432 127.384 453.177 131.402C451.601 133.296 449.628 134.822 447.399 135.872C445.169 136.922 442.736 137.471 440.272 137.479Z" fill="#263238"/>
<path d="M411.619 114.854C411.561 114.852 411.505 114.833 411.458 114.798C411.411 114.763 411.376 114.715 411.358 114.66C408.33 105.988 412.382 94.3455 419.54 91.1588C419.61 91.134 419.687 91.1353 419.756 91.1625C419.825 91.1897 419.882 91.2409 419.916 91.3068C419.931 91.3411 419.939 91.3781 419.94 91.4156C419.94 91.4532 419.934 91.4904 419.92 91.5253C419.906 91.5603 419.886 91.5921 419.86 91.619C419.834 91.646 419.802 91.6675 419.768 91.6823C412.848 94.7551 408.945 106.045 411.892 114.444C411.905 114.48 411.91 114.518 411.908 114.556C411.905 114.593 411.895 114.63 411.878 114.664C411.861 114.698 411.838 114.728 411.809 114.753C411.78 114.778 411.746 114.796 411.71 114.808L411.619 114.854Z" fill="#263238"/>
<path d="M409.768 102.324H409.665C409.596 102.296 409.54 102.243 409.508 102.175C409.477 102.108 409.472 102.031 409.494 101.959C411.543 96.5309 415.412 92.3997 419.578 91.1706C419.65 91.1494 419.728 91.1579 419.794 91.1942C419.86 91.2305 419.91 91.2916 419.931 91.364C419.952 91.4365 419.943 91.5143 419.907 91.5805C419.871 91.6467 419.81 91.6957 419.737 91.7168C415.743 92.8549 412.021 96.8951 410.029 102.164C410.005 102.213 409.968 102.254 409.922 102.282C409.875 102.311 409.822 102.325 409.768 102.324Z" fill="#263238"/>
<path d="M425.698 405.051L419.12 405.062L418.016 380.354L429.089 380.628L425.698 405.051Z" fill="#FFB573"/>
<path d="M414.26 191.845C414.26 191.845 413.679 260.414 412.234 290.265C412.177 291.152 412.177 292.042 412.234 292.929C414.396 322.849 417.981 380.355 417.981 380.355L429.123 380.64C429.123 380.64 438.831 334.719 432.822 293.122C442.484 246.074 447.685 204.091 438.933 191.833L414.26 191.845Z" fill="#C05FFB"/>
<path opacity="0.2" d="M432.926 219.079C429.511 230.528 432.834 267.333 434.598 284.313C437 272.045 439.048 260.243 440.562 249.363L432.926 219.079Z" fill="black"/>
<path d="M418.384 401.866H426.931C427.111 401.859 427.287 401.921 427.422 402.04C427.557 402.158 427.642 402.324 427.66 402.503L428.525 409.502C428.529 409.719 428.49 409.934 428.411 410.136C428.331 410.337 428.212 410.52 428.06 410.675C427.909 410.83 427.728 410.953 427.528 411.037C427.328 411.121 427.114 411.164 426.897 411.164C423.13 411.164 421.332 410.891 416.586 410.902C413.661 410.902 411.897 411.198 407.857 411.198C403.817 411.198 403.817 407.328 405.513 406.976C413.126 405.394 414.105 404.517 416.757 402.423C417.222 402.062 417.795 401.866 418.384 401.866Z" fill="#263238"/>
<path d="M421.19 141.382C420.769 143.738 420.291 145.935 419.779 148.211C419.267 150.487 418.743 152.763 418.14 155.039C416.945 159.592 415.705 164.053 414.066 168.56C413.243 170.89 412.286 173.17 411.198 175.388C410.595 176.619 409.898 177.802 409.115 178.928C408.887 179.235 408.683 179.531 408.387 179.872C408.103 180.234 407.787 180.57 407.442 180.874C406.569 181.698 405.518 182.31 404.369 182.66C403.165 183.024 401.888 183.075 400.659 182.808C399.692 182.584 398.768 182.2 397.928 181.67C396.652 180.854 395.522 179.831 394.582 178.643C392.968 176.635 391.681 174.384 390.769 171.974C390.569 171.462 390.552 170.896 390.72 170.372C390.889 169.849 391.233 169.399 391.694 169.1C392.155 168.8 392.706 168.669 393.253 168.728C393.799 168.787 394.309 169.033 394.696 169.425L394.832 169.573C396.245 171.064 397.766 172.449 399.385 173.715C400.017 174.198 400.719 174.582 401.467 174.853C401.74 174.921 401.934 174.921 401.957 174.853C401.979 174.785 401.797 174.739 401.638 174.751C401.479 174.762 401.376 174.819 401.422 174.751C401.475 174.652 401.536 174.556 401.604 174.466C401.717 174.328 401.816 174.18 401.9 174.022C402.377 173.239 402.795 172.421 403.152 171.576C403.98 169.626 404.709 167.635 405.337 165.612C406.634 161.447 407.818 157.111 408.842 152.752C409.866 148.393 410.879 143.943 411.79 139.596C412.07 138.394 412.805 137.347 413.841 136.677C414.877 136.006 416.133 135.763 417.344 135.999C418.556 136.234 419.629 136.931 420.337 137.941C421.046 138.951 421.335 140.197 421.145 141.417L421.19 141.382Z" fill="#FFB573"/>
<path d="M410.848 182.536C410.848 185.336 454.481 185.882 454.481 182.183L432.187 176.493L410.848 182.536Z" fill="#263238"/>
<path d="M418.861 134.043C430.366 132.118 442.119 132.234 453.584 134.384C454.256 134.49 454.9 134.734 455.475 135.098C456.05 135.463 456.544 135.942 456.927 136.505C457.31 137.068 457.573 137.703 457.701 138.372C457.829 139.041 457.818 139.729 457.67 140.393C451.501 168.014 451.854 177.301 452.446 191.845H414.275C412.363 167.582 411.35 153.731 411.1 145.867C410.895 139.87 412.955 134.919 418.861 134.043Z" fill="#FFB573"/>
<path opacity="0.2" d="M453.468 142.066C453.228 145.921 453.738 149.786 454.97 153.447C455.46 150.818 456.029 147.995 456.677 144.911L453.468 142.066Z" fill="black"/>
<path d="M441.046 113.875C439.908 119.395 438.872 129.535 442.741 133.223C442.741 133.223 441.228 138.833 430.962 138.833C419.661 138.833 425.556 133.223 425.556 133.223C431.725 131.743 431.566 127.168 430.496 122.878L441.046 113.875Z" fill="#FFB573"/>
<path opacity="0.2" d="M436.748 117.552L430.5 122.913C430.765 123.912 430.944 124.932 431.035 125.963C433.391 125.621 436.623 123.038 436.873 120.568C437.013 119.564 436.971 118.542 436.748 117.552Z" fill="black"/>
<path d="M447.014 104.293C444.897 113.295 444.203 117.153 438.808 121.034C430.705 126.884 420.098 122.332 419.461 112.874C418.892 104.373 422.431 91.0686 431.98 88.9746C434.077 88.5017 436.26 88.5724 438.322 89.18C440.385 89.7876 442.258 90.9119 443.763 92.4463C445.269 93.9806 446.358 95.8743 446.927 97.9475C447.496 100.021 447.526 102.205 447.014 104.293Z" fill="#FFB573"/>
<path d="M443.575 90.75C434.038 91.8084 436.94 109.585 444.109 111.304C452.508 107.195 457.687 91.5922 443.575 90.75Z" fill="#263238"/>
<path d="M490.257 388.777L483.668 390.78L474.051 370.636L484.191 367.87L490.257 388.777Z" fill="#FFB573"/>
<path d="M481.773 388.766L490.241 385.488C490.389 385.431 490.552 385.428 490.702 385.481C490.852 385.533 490.979 385.636 491.06 385.773L494.85 392.169C494.941 392.328 494.996 392.505 495.012 392.688C495.028 392.871 495.005 393.055 494.943 393.228C494.882 393.401 494.784 393.559 494.655 393.69C494.527 393.821 494.372 393.924 494.201 393.99C491.231 395.128 489.797 395.708 486.075 397.154C483.799 398.041 480.226 401 477.062 402.218C473.898 403.436 472.509 400.545 473.647 399.544C476.731 396.852 479.16 393.493 480.749 389.722C480.845 389.501 480.986 389.302 481.162 389.138C481.338 388.973 481.546 388.847 481.773 388.766Z" fill="#263238"/>
<path d="M424.742 191.845C424.742 191.845 438.775 263.624 444.089 291.996C449.586 321.586 474.078 370.591 474.078 370.591L484.241 367.814C484.241 367.814 470.322 315.395 463.835 289.412C462.56 242.364 464.063 204.057 452.454 191.8L424.742 191.845Z" fill="#C05FFB"/>
<path d="M432.084 104.236C431.959 104.976 431.47 105.51 430.946 105.374C430.423 105.237 430.172 104.623 430.297 103.883C430.423 103.143 430.923 102.608 431.435 102.688C431.948 102.768 432.221 103.496 432.084 104.236Z" fill="#263238"/>
<path d="M423.724 102.814C423.599 103.554 423.098 104.088 422.586 103.952C422.074 103.815 421.812 103.212 421.937 102.461C422.062 101.71 422.563 101.186 423.075 101.323C423.587 101.46 423.849 102.074 423.724 102.814Z" fill="#263238"/>
<path d="M423.274 101.402L421.578 100.583C421.578 100.583 422.261 102.131 423.274 101.402Z" fill="#263238"/>
<path d="M426.063 104.588C425.123 106.162 423.974 107.602 422.648 108.868C422.98 109.199 423.38 109.456 423.82 109.619C424.26 109.782 424.73 109.848 425.198 109.812L426.063 104.588Z" fill="#ED893E"/>
<path d="M428.726 113.397C428.344 113.398 427.963 113.363 427.587 113.295C427.559 113.291 427.532 113.281 427.507 113.266C427.482 113.251 427.461 113.232 427.444 113.208C427.427 113.185 427.415 113.158 427.408 113.13C427.401 113.102 427.401 113.073 427.405 113.045C427.417 112.988 427.448 112.938 427.495 112.904C427.541 112.871 427.599 112.856 427.656 112.863C428.575 113.038 429.521 112.995 430.421 112.738C431.32 112.481 432.146 112.017 432.834 111.383C432.854 111.361 432.879 111.343 432.906 111.331C432.934 111.319 432.963 111.313 432.993 111.313C433.023 111.313 433.053 111.319 433.08 111.331C433.108 111.343 433.132 111.361 433.153 111.383C433.191 111.425 433.212 111.48 433.212 111.537C433.212 111.594 433.191 111.648 433.153 111.69C431.961 112.823 430.369 113.436 428.726 113.397Z" fill="#263238"/>
<path d="M448.31 112.054C447.403 113.595 445.928 114.719 444.202 115.184C441.925 115.764 440.787 113.704 441.493 111.565C442.096 109.641 444.031 107.012 446.318 107.365C446.815 107.456 447.282 107.669 447.676 107.984C448.07 108.3 448.38 108.708 448.577 109.173C448.775 109.638 448.854 110.144 448.807 110.647C448.76 111.15 448.59 111.633 448.31 112.054Z" fill="#FFB573"/>
<path d="M435.716 103.097C435.624 103.096 435.534 103.066 435.461 103.011C435.387 102.956 435.333 102.878 435.306 102.79C434.703 100.844 432.211 100.002 432.188 100.002C432.132 99.9851 432.08 99.9572 432.035 99.9197C431.99 99.8823 431.953 99.8361 431.926 99.7839C431.9 99.7318 431.884 99.6748 431.88 99.6164C431.876 99.558 431.884 99.4994 431.903 99.4442C431.92 99.3881 431.948 99.336 431.985 99.291C432.023 99.246 432.069 99.2091 432.121 99.1825C432.173 99.1559 432.23 99.1402 432.289 99.1362C432.347 99.1323 432.406 99.1403 432.461 99.1597C432.575 99.1597 435.409 100.15 436.148 102.574C436.166 102.63 436.172 102.689 436.167 102.747C436.161 102.806 436.144 102.863 436.117 102.914C436.089 102.966 436.052 103.012 436.006 103.05C435.961 103.087 435.909 103.115 435.852 103.132L435.716 103.097Z" fill="#263238"/>
<path d="M421.854 98.5116C421.778 98.5107 421.703 98.4903 421.638 98.4524C421.572 98.4146 421.517 98.3605 421.478 98.2954C421.421 98.1927 421.407 98.0716 421.439 97.9585C421.471 97.8454 421.546 97.7496 421.649 97.6922C422.248 97.3297 422.925 97.1157 423.624 97.0682C424.323 97.0207 425.023 97.141 425.666 97.4191C425.77 97.4726 425.848 97.5646 425.884 97.6753C425.92 97.7861 425.911 97.9065 425.86 98.0108C425.806 98.1143 425.714 98.1926 425.603 98.2288C425.493 98.265 425.372 98.2562 425.268 98.2043C424.754 97.9941 424.198 97.9072 423.645 97.9507C423.091 97.9942 422.556 98.1668 422.081 98.4547C422.013 98.4961 421.933 98.5159 421.854 98.5116Z" fill="#263238"/>
<path d="M456.696 135.966C459.939 140.211 462.887 144.501 465.687 149.031C467.075 151.307 468.441 153.583 469.693 156.007C471.052 158.519 472.176 161.152 473.05 163.871C473.175 164.235 473.266 164.656 473.369 165.009L473.448 165.339L473.551 165.817C473.597 166.115 473.627 166.415 473.642 166.716C473.694 167.704 473.621 168.694 473.425 169.664C473.102 171.201 472.617 172.7 471.98 174.137C470.857 176.674 469.533 179.117 468.02 181.443C465.138 185.913 461.899 190.141 458.335 194.087C457.944 194.524 457.405 194.801 456.822 194.863C456.239 194.926 455.654 194.77 455.179 194.426C454.705 194.082 454.375 193.574 454.254 193C454.132 192.427 454.228 191.828 454.522 191.321V191.265C457.037 186.883 459.53 182.376 461.681 177.915C462.735 175.764 463.651 173.548 464.423 171.28C464.756 170.317 464.984 169.321 465.106 168.31C465.148 168.011 465.148 167.709 465.106 167.411V167.342V167.206C465.026 166.978 464.97 166.773 464.867 166.534C463.981 164.4 462.939 162.335 461.749 160.354C460.497 158.249 459.165 156.144 457.8 154.038C455.023 149.873 452.109 145.685 449.15 141.633C448.441 140.617 448.156 139.364 448.355 138.141C448.553 136.917 449.221 135.819 450.215 135.08C451.209 134.34 452.453 134.016 453.681 134.177C454.91 134.338 456.028 134.972 456.798 135.943L456.696 135.966Z" fill="#FFB573"/>
<path d="M431.653 102.825L429.957 102.005C429.957 102.005 430.628 103.565 431.653 102.825Z" fill="#263238"/>
<path d="M412.166 143.147C412.869 140.275 413.774 137.457 414.875 134.714C416.62 134.192 418.405 133.812 420.212 133.576C423.893 136.838 426.921 140.769 429.135 145.161C434.017 140.222 443.361 135.226 449.051 133.405C450.976 133.283 452.907 133.527 454.741 134.122C450.86 146.368 446.9 158.682 453.922 161.845C453.797 167.661 454.127 174.876 454.423 182.171C447.788 181.443 421.475 180.18 410.789 182.524C410.243 175.127 410.049 168.867 410.083 163.461C405.11 157.122 410.095 148.496 412.166 143.147Z" fill="#263238"/>
<g opacity="0.2">
<path opacity="0.2" d="M422.631 165.921C422.572 165.928 422.515 165.951 422.467 165.987C422.42 166.023 422.382 166.071 422.358 166.126C421.551 168.389 421.576 170.866 422.427 173.114C421.641 172.454 420.867 171.805 420.15 171.145C420.791 169.774 421.039 168.253 420.866 166.75C420.694 165.247 420.107 163.821 419.172 162.632C419.136 162.585 419.089 162.549 419.035 162.525C418.982 162.501 418.923 162.491 418.864 162.495C418.804 162.5 418.746 162.522 418.698 162.558C418.65 162.594 418.613 162.644 418.591 162.7C417.758 165.027 417.811 167.579 418.739 169.87C417.715 168.937 416.736 168.004 415.837 167.105C416.509 165.727 416.779 164.188 416.616 162.664C416.453 161.14 415.864 159.693 414.915 158.489C414.88 158.443 414.833 158.406 414.779 158.382C414.725 158.358 414.667 158.348 414.608 158.353C414.548 158.358 414.49 158.379 414.442 158.416C414.393 158.452 414.356 158.501 414.335 158.558C413.507 160.889 413.56 163.443 414.483 165.739C412.924 164.111 411.626 162.632 410.659 161.403C410.311 160.027 409.621 158.761 408.651 157.724C407.682 156.687 406.466 155.913 405.116 155.474C405.062 155.464 405.005 155.468 404.952 155.484C404.899 155.5 404.85 155.529 404.81 155.568C404.77 155.607 404.74 155.655 404.722 155.708C404.704 155.76 404.699 155.817 404.707 155.872C405.731 160.914 409.441 161.79 410.192 161.915C410.727 162.586 411.33 163.326 412.059 164.123C410.275 163.324 408.291 163.085 406.368 163.44C406.31 163.453 406.257 163.483 406.215 163.525C406.172 163.567 406.143 163.621 406.129 163.679C406.112 163.735 406.11 163.795 406.122 163.853C406.134 163.91 406.16 163.964 406.198 164.009C407.176 165.125 408.447 165.945 409.866 166.377C411.286 166.81 412.798 166.837 414.232 166.456C414.87 167.116 415.553 167.787 416.27 168.482C413.859 167.793 411.286 167.945 408.975 168.914C408.92 168.943 408.874 168.987 408.842 169.04C408.81 169.093 408.793 169.154 408.793 169.216C408.793 169.278 408.81 169.339 408.842 169.392C408.874 169.445 408.92 169.488 408.975 169.517C410.274 170.326 411.763 170.781 413.292 170.834C414.822 170.888 416.339 170.54 417.692 169.825C418.648 170.724 419.661 171.623 420.708 172.522C418.376 171.47 415.738 171.316 413.299 172.089C413.243 172.112 413.193 172.15 413.155 172.197C413.117 172.245 413.092 172.302 413.083 172.363C413.077 172.422 413.085 172.482 413.107 172.537C413.129 172.592 413.164 172.642 413.208 172.681C414.406 173.652 415.849 174.272 417.378 174.472C418.907 174.673 420.461 174.447 421.869 173.819L421.96 173.762C421.996 173.725 422.02 173.677 422.028 173.626L423.314 174.673C423.354 174.727 423.41 174.766 423.474 174.787C424.156 175.333 424.851 175.868 425.556 176.391C425.618 176.444 425.697 176.473 425.778 176.473C425.86 176.473 425.938 176.444 426 176.391C426.026 176.355 426.045 176.313 426.056 176.269C426.066 176.226 426.067 176.18 426.06 176.136C426.052 176.091 426.036 176.049 426.012 176.011C425.988 175.972 425.957 175.939 425.921 175.913C425.272 175.424 424.623 174.935 423.997 174.422C424.588 173.067 424.801 171.576 424.613 170.109C424.424 168.642 423.842 167.254 422.927 166.092C422.897 166.04 422.854 165.997 422.802 165.967C422.75 165.937 422.691 165.921 422.631 165.921Z" fill="white"/>
<path opacity="0.2" d="M411.405 148.292C411.465 148.285 411.521 148.262 411.569 148.226C411.617 148.19 411.655 148.142 411.678 148.087C412.485 145.824 412.461 143.347 411.61 141.099C412.395 141.759 413.169 142.408 413.886 143.068C413.245 144.439 412.998 145.96 413.17 147.463C413.343 148.966 413.93 150.392 414.865 151.581C414.901 151.628 414.948 151.664 415.001 151.688C415.055 151.712 415.114 151.722 415.172 151.718C415.233 151.713 415.29 151.691 415.339 151.655C415.387 151.619 415.424 151.569 415.446 151.513C416.279 149.186 416.226 146.634 415.298 144.343C416.322 145.276 417.301 146.209 418.2 147.108C417.528 148.486 417.258 150.025 417.421 151.549C417.584 153.073 418.173 154.52 419.121 155.724C419.157 155.77 419.204 155.807 419.258 155.831C419.311 155.855 419.37 155.865 419.429 155.86C419.489 155.855 419.547 155.834 419.595 155.797C419.643 155.761 419.68 155.712 419.702 155.655C420.529 153.324 420.477 150.77 419.554 148.474C421.113 150.102 422.411 151.581 423.378 152.81C423.725 154.186 424.416 155.452 425.385 156.489C426.355 157.526 427.571 158.3 428.92 158.739C428.975 158.749 429.032 158.745 429.085 158.729C429.138 158.713 429.187 158.684 429.227 158.645C429.267 158.606 429.297 158.558 429.315 158.505C429.333 158.453 429.338 158.396 429.33 158.341C428.306 153.3 424.596 152.423 423.844 152.298C423.31 151.627 422.706 150.887 421.978 150.09C423.761 150.893 425.748 151.127 427.668 150.762C427.726 150.752 427.78 150.725 427.823 150.684C427.865 150.644 427.895 150.591 427.907 150.534C427.924 150.478 427.927 150.418 427.915 150.36C427.903 150.303 427.877 150.249 427.839 150.204C426.861 149.088 425.59 148.268 424.17 147.836C422.751 147.403 421.239 147.376 419.804 147.757C419.167 147.097 418.484 146.426 417.767 145.731C420.177 146.42 422.75 146.268 425.062 145.299C425.117 145.27 425.163 145.226 425.195 145.173C425.227 145.12 425.244 145.059 425.244 144.997C425.244 144.935 425.227 144.874 425.195 144.821C425.163 144.768 425.117 144.725 425.062 144.696C423.763 143.887 422.274 143.432 420.744 143.379C419.215 143.325 417.698 143.673 416.345 144.388C415.389 143.489 414.376 142.59 413.329 141.691C415.661 142.743 418.299 142.898 420.738 142.124C420.793 142.099 420.842 142.061 420.879 142.014C420.917 141.966 420.942 141.91 420.954 141.85C420.96 141.791 420.951 141.731 420.93 141.676C420.908 141.621 420.873 141.571 420.829 141.532C419.631 140.561 418.187 139.941 416.659 139.741C415.13 139.54 413.576 139.766 412.168 140.394L412.077 140.451C412.041 140.488 412.017 140.536 412.009 140.587L410.723 139.54C410.683 139.486 410.627 139.447 410.563 139.426C409.88 138.88 409.186 138.345 408.481 137.822C408.419 137.769 408.34 137.74 408.259 137.74C408.177 137.74 408.098 137.769 408.037 137.822C407.985 137.895 407.964 137.985 407.976 138.074C407.989 138.163 408.035 138.244 408.105 138.3C408.765 138.789 409.414 139.278 410.04 139.791C409.448 141.146 409.236 142.637 409.424 144.104C409.613 145.571 410.195 146.959 411.109 148.121C411.139 148.173 411.183 148.216 411.235 148.246C411.286 148.276 411.345 148.292 411.405 148.292Z" fill="white"/>
<path opacity="0.2" d="M446.496 174.228C446.438 174.236 446.384 174.258 446.336 174.292C446.288 174.325 446.25 174.37 446.223 174.422C445.426 176.687 445.45 179.16 446.291 181.41C445.506 180.761 444.732 180.101 444.015 179.441C444.656 178.072 444.904 176.552 444.732 175.051C444.559 173.55 443.972 172.126 443.036 170.939C443.001 170.892 442.954 170.855 442.901 170.832C442.847 170.808 442.788 170.799 442.73 170.805C442.672 170.81 442.616 170.831 442.568 170.865C442.52 170.898 442.481 170.943 442.456 170.996C441.628 173.328 441.681 175.882 442.604 178.177C441.58 177.233 440.601 176.311 439.702 175.412C440.377 174.037 440.649 172.499 440.485 170.977C440.322 169.454 439.731 168.008 438.78 166.808C438.747 166.759 438.7 166.72 438.646 166.696C438.592 166.672 438.532 166.663 438.473 166.671C438.415 166.679 438.359 166.7 438.312 166.734C438.264 166.768 438.225 166.813 438.2 166.865C437.372 169.197 437.425 171.75 438.347 174.046C436.788 172.43 435.491 170.939 434.524 169.71C434.172 168.336 433.48 167.072 432.511 166.036C431.543 165 430.329 164.224 428.981 163.781C428.926 163.77 428.87 163.772 428.816 163.788C428.763 163.804 428.714 163.833 428.674 163.872C428.633 163.913 428.602 163.963 428.584 164.019C428.566 164.074 428.562 164.133 428.571 164.19C429.596 169.221 433.317 170.097 434.057 170.222C434.592 170.894 435.195 171.645 435.923 172.442C434.14 171.642 432.155 171.403 430.233 171.759C430.176 171.774 430.124 171.805 430.082 171.847C430.04 171.888 430.01 171.941 429.994 171.998C429.977 172.052 429.974 172.11 429.986 172.166C429.998 172.222 430.024 172.274 430.062 172.316C431.035 173.44 432.305 174.265 433.727 174.698C435.148 175.131 436.663 175.154 438.097 174.763C438.734 175.423 439.417 176.106 440.134 176.8C437.725 176.105 435.15 176.257 432.839 177.233C432.787 177.264 432.744 177.307 432.712 177.358C432.68 177.41 432.661 177.468 432.657 177.529C432.656 177.589 432.671 177.648 432.701 177.7C432.731 177.753 432.775 177.796 432.828 177.825C434.127 178.634 435.615 179.09 437.144 179.146C438.674 179.202 440.191 178.856 441.545 178.143C442.501 179.031 443.514 179.93 444.561 180.84C442.229 179.788 439.591 179.634 437.153 180.408C437.096 180.431 437.046 180.468 437.008 180.516C436.97 180.564 436.946 180.621 436.936 180.681C436.929 180.74 436.938 180.799 436.963 180.853C436.987 180.908 437.025 180.954 437.073 180.988C438.271 181.959 439.714 182.579 441.243 182.78C442.771 182.981 444.326 182.755 445.734 182.127L445.813 182.058C445.846 182.021 445.873 181.979 445.893 181.933L447.179 182.98C447.215 183.033 447.267 183.073 447.327 183.094C448.01 183.64 448.704 184.175 449.41 184.71C449.471 184.763 449.55 184.792 449.632 184.792C449.713 184.792 449.792 184.763 449.853 184.71C449.908 184.638 449.931 184.546 449.918 184.457C449.905 184.367 449.858 184.286 449.785 184.232C449.125 183.743 448.488 183.242 447.85 182.741C448.444 181.387 448.66 179.896 448.473 178.429C448.287 176.962 447.706 175.573 446.792 174.41C446.763 174.357 446.72 174.312 446.668 174.28C446.616 174.248 446.557 174.231 446.496 174.228Z" fill="white"/>
<path opacity="0.2" d="M468.384 182.092C468.324 182.097 468.266 182.118 468.218 182.155C468.169 182.191 468.132 182.24 468.111 182.297C467.299 184.559 467.32 187.036 468.168 189.285C467.383 188.625 466.62 187.964 465.892 187.316C466.535 185.947 466.786 184.425 466.615 182.922C466.444 181.419 465.859 179.993 464.924 178.803C464.887 178.755 464.839 178.717 464.783 178.693C464.727 178.669 464.666 178.66 464.606 178.666C464.547 178.675 464.49 178.698 464.443 178.734C464.395 178.769 464.357 178.817 464.333 178.871C463.505 181.199 463.557 183.749 464.48 186.041C463.456 185.108 462.489 184.175 461.59 183.276C462.262 181.898 462.532 180.359 462.369 178.835C462.206 177.311 461.616 175.864 460.668 174.66C460.632 174.614 460.585 174.577 460.532 174.553C460.478 174.529 460.419 174.519 460.361 174.524C460.3 174.529 460.243 174.55 460.194 174.587C460.146 174.623 460.109 174.672 460.087 174.729C459.255 177.06 459.307 179.615 460.235 181.91C458.676 180.282 457.367 178.803 456.412 177.574C456.064 176.198 455.373 174.932 454.404 173.895C453.435 172.858 452.219 172.084 450.869 171.644C450.814 171.632 450.756 171.634 450.702 171.649C450.647 171.665 450.597 171.693 450.557 171.733C450.516 171.772 450.486 171.821 450.469 171.876C450.452 171.93 450.449 171.987 450.459 172.043C451.484 177.084 455.194 177.961 455.945 178.086C456.468 178.757 457.083 179.497 457.811 180.294C456.027 179.497 454.043 179.259 452.121 179.611C452.065 179.629 452.014 179.659 451.972 179.701C451.93 179.743 451.9 179.794 451.882 179.85C451.866 179.907 451.866 179.968 451.879 180.025C451.893 180.083 451.922 180.136 451.962 180.18C452.939 181.294 454.208 182.113 455.625 182.545C457.043 182.977 458.552 183.006 459.985 182.627C460.634 183.287 461.305 183.958 462.022 184.653C459.616 183.963 457.046 184.116 454.739 185.085C454.684 185.113 454.638 185.155 454.605 185.207C454.573 185.259 454.556 185.32 454.556 185.381C454.555 185.441 454.569 185.501 454.597 185.555C454.625 185.608 454.666 185.654 454.716 185.688C456.018 186.494 457.509 186.946 459.04 187C460.57 187.054 462.089 186.708 463.445 185.996C464.401 186.891 465.402 187.79 466.449 188.693C464.117 187.64 461.479 187.486 459.04 188.26C458.984 188.282 458.935 188.319 458.898 188.367C458.862 188.416 458.84 188.473 458.836 188.533C458.83 188.593 458.838 188.653 458.86 188.708C458.882 188.763 458.916 188.813 458.961 188.852C460.159 189.821 461.603 190.441 463.131 190.641C464.659 190.842 466.213 190.617 467.622 189.99C467.648 189.995 467.675 189.995 467.701 189.99C467.744 189.956 467.773 189.908 467.781 189.854L469.067 190.901C469.105 190.951 469.156 190.991 469.215 191.014C469.898 191.561 470.592 192.096 471.298 192.619C471.359 192.672 471.438 192.701 471.519 192.701C471.601 192.701 471.68 192.672 471.741 192.619C471.77 192.584 471.791 192.543 471.803 192.499C471.815 192.456 471.818 192.41 471.811 192.365C471.805 192.32 471.789 192.277 471.765 192.239C471.742 192.2 471.71 192.167 471.673 192.141L469.738 190.65C470.332 189.296 470.548 187.806 470.361 186.339C470.175 184.871 469.594 183.482 468.68 182.32C468.657 182.258 468.617 182.204 468.565 182.163C468.512 182.123 468.45 182.098 468.384 182.092Z" fill="white"/>
<path opacity="0.2" d="M418.339 183.379C418.28 183.384 418.224 183.405 418.176 183.439C418.128 183.473 418.09 183.519 418.065 183.573C417.254 185.835 417.274 188.312 418.122 190.56C417.337 189.912 416.575 189.252 415.846 188.592C416.49 187.222 416.74 185.701 416.57 184.198C416.399 182.695 415.813 181.269 414.879 180.079C414.841 180.033 414.793 179.997 414.738 179.974C414.683 179.952 414.623 179.943 414.564 179.95C414.505 179.957 414.449 179.979 414.4 180.013C414.352 180.047 414.313 180.094 414.287 180.147C413.46 182.479 413.512 185.033 414.435 187.328C413.411 186.384 412.443 185.462 411.544 184.563C412.216 183.185 412.486 181.646 412.323 180.122C412.16 178.599 411.571 177.152 410.622 175.948C410.588 175.9 410.541 175.864 410.486 175.842C410.432 175.82 410.373 175.813 410.315 175.822C410.256 175.825 410.198 175.844 410.15 175.879C410.101 175.913 410.064 175.961 410.042 176.016C409.209 178.347 409.262 180.902 410.19 183.197C408.842 181.818 407.566 180.371 406.366 178.861C406.015 177.487 405.323 176.223 404.354 175.187C403.385 174.15 402.171 173.375 400.824 172.932C400.767 172.921 400.709 172.923 400.653 172.939C400.598 172.955 400.547 172.983 400.505 173.023C400.469 173.064 400.442 173.113 400.426 173.166C400.41 173.219 400.406 173.275 400.414 173.33C401.438 178.372 405.148 179.248 405.899 179.373C406.423 180.045 407.037 180.784 407.766 181.649C405.985 180.841 403.997 180.602 402.075 180.966C402.02 180.981 401.968 181.01 401.927 181.049C401.885 181.089 401.854 181.139 401.836 181.194C401.821 181.251 401.82 181.312 401.834 181.369C401.848 181.427 401.876 181.48 401.916 181.524C402.886 182.648 404.155 183.474 405.574 183.907C406.994 184.34 408.508 184.362 409.94 183.971C410.588 184.631 411.26 185.314 411.977 186.008C409.572 185.308 406.998 185.461 404.693 186.441C404.639 186.466 404.593 186.506 404.561 186.557C404.529 186.607 404.512 186.665 404.511 186.725C404.509 186.786 404.522 186.846 404.55 186.9C404.578 186.953 404.62 186.999 404.67 187.032C405.971 187.842 407.461 188.297 408.992 188.353C410.524 188.409 412.043 188.064 413.399 187.351C414.355 188.239 415.357 189.138 416.404 190.037C414.071 188.987 411.432 188.837 408.995 189.616C408.94 189.636 408.892 189.672 408.856 189.718C408.82 189.764 408.797 189.819 408.79 189.878C408.782 189.937 408.79 189.997 408.811 190.053C408.833 190.109 408.869 190.158 408.915 190.196C410.114 191.165 411.557 191.785 413.085 191.986C414.614 192.186 416.168 191.961 417.576 191.334C417.602 191.34 417.629 191.34 417.656 191.334C417.696 191.303 417.724 191.259 417.735 191.209L419.021 192.256C419.06 192.307 419.111 192.346 419.169 192.37C419.864 192.916 420.546 193.451 421.252 193.986C421.314 194.039 421.393 194.068 421.474 194.068C421.555 194.068 421.634 194.039 421.696 193.986C421.724 193.951 421.745 193.91 421.757 193.866C421.769 193.823 421.772 193.777 421.766 193.732C421.759 193.687 421.744 193.644 421.72 193.606C421.696 193.567 421.665 193.534 421.628 193.508L419.693 192.017C420.287 190.661 420.502 189.169 420.315 187.7C420.129 186.231 419.548 184.84 418.634 183.675C418.629 183.598 418.596 183.526 418.542 183.472C418.487 183.417 418.415 183.384 418.339 183.379Z" fill="white"/>
<path opacity="0.2" d="M445.768 135.432C445.709 135.44 445.653 135.463 445.605 135.499C445.557 135.535 445.52 135.582 445.495 135.637C444.698 137.902 444.722 140.375 445.563 142.624C444.778 141.964 444.004 141.316 443.287 140.656C443.928 139.285 444.176 137.764 444.003 136.261C443.83 134.758 443.244 133.332 442.308 132.143C442.273 132.096 442.226 132.059 442.172 132.035C442.118 132.012 442.06 132.002 442.001 132.006C441.941 132.011 441.883 132.033 441.835 132.069C441.786 132.105 441.749 132.154 441.728 132.211C440.9 134.539 440.953 137.089 441.876 139.381C440.852 138.448 439.873 137.514 438.974 136.615C439.646 135.238 439.916 133.699 439.753 132.175C439.59 130.651 439 129.204 438.052 128C438.017 127.953 437.97 127.915 437.916 127.891C437.863 127.867 437.803 127.858 437.745 127.864C437.684 127.868 437.627 127.89 437.578 127.926C437.53 127.963 437.493 128.012 437.472 128.068C436.644 130.4 436.697 132.954 437.62 135.25C436.06 133.622 434.763 132.143 433.796 130.914C433.448 129.537 432.757 128.272 431.788 127.235C430.819 126.198 429.603 125.424 428.253 124.984C428.198 124.975 428.142 124.978 428.089 124.995C428.035 125.011 427.987 125.04 427.947 125.079C427.907 125.118 427.877 125.166 427.859 125.218C427.841 125.271 427.835 125.327 427.844 125.383C428.868 130.424 432.589 131.301 433.329 131.426C433.864 132.097 434.467 132.837 435.195 133.634C433.412 132.834 431.427 132.595 429.505 132.951C429.449 132.968 429.398 132.999 429.356 133.041C429.315 133.082 429.284 133.134 429.266 133.19C429.249 133.246 429.246 133.306 429.258 133.363C429.27 133.421 429.296 133.475 429.334 133.52C430.313 134.636 431.584 135.456 433.003 135.888C434.423 136.32 435.935 136.348 437.369 135.967C438.007 136.627 438.689 137.298 439.406 137.992C436.996 137.303 434.423 137.456 432.111 138.425C432.059 138.456 432.016 138.499 431.984 138.551C431.952 138.602 431.934 138.66 431.929 138.721C431.928 138.782 431.944 138.843 431.974 138.897C432.004 138.951 432.047 138.996 432.1 139.028C433.399 139.837 434.888 140.291 436.418 140.345C437.947 140.399 439.465 140.051 440.818 139.335C441.774 140.234 442.786 141.134 443.833 142.033C441.502 140.98 438.863 140.826 436.425 141.6C436.368 141.623 436.318 141.66 436.28 141.708C436.243 141.756 436.218 141.813 436.208 141.873C436.202 141.934 436.211 141.995 436.235 142.051C436.259 142.106 436.297 142.155 436.345 142.192C437.541 143.161 438.982 143.781 440.509 143.982C442.036 144.183 443.588 143.957 444.994 143.33L445.085 143.273C445.121 143.235 445.145 143.188 445.154 143.137L446.44 144.184C446.482 144.235 446.537 144.274 446.599 144.297C447.282 144.844 447.976 145.379 448.682 145.902C448.744 145.955 448.822 145.984 448.904 145.984C448.985 145.984 449.064 145.955 449.126 145.902C449.18 145.83 449.203 145.739 449.19 145.649C449.178 145.559 449.13 145.478 449.057 145.424C448.397 144.935 447.76 144.445 447.122 143.933C447.716 142.579 447.932 141.089 447.745 139.621C447.559 138.154 446.978 136.765 446.064 135.602C446.032 135.553 445.988 135.511 445.937 135.482C445.885 135.452 445.827 135.435 445.768 135.432Z" fill="white"/>
<path opacity="0.2" d="M434.953 157.055C435.012 157.05 435.068 157.029 435.116 156.995C435.164 156.961 435.202 156.915 435.226 156.862C436.038 154.599 436.018 152.122 435.17 149.874C435.955 150.522 436.717 151.183 437.446 151.843C436.802 153.212 436.551 154.733 436.722 156.236C436.893 157.739 437.478 159.166 438.413 160.355C438.45 160.402 438.499 160.438 438.554 160.46C438.609 160.483 438.669 160.491 438.728 160.484C438.787 160.477 438.843 160.456 438.892 160.421C438.94 160.387 438.979 160.341 439.005 160.287C439.832 157.955 439.78 155.402 438.857 153.106C439.881 154.047 440.849 154.969 441.759 155.871C441.087 157.249 440.817 158.788 440.98 160.312C441.143 161.836 441.733 163.283 442.681 164.487C442.718 164.533 442.767 164.569 442.822 164.591C442.877 164.614 442.936 164.622 442.995 164.615C443.055 164.608 443.111 164.587 443.159 164.552C443.208 164.518 443.247 164.472 443.273 164.418C444.102 162.086 444.045 159.53 443.113 157.237C444.461 158.616 445.738 160.063 446.937 161.573C447.289 162.949 447.982 164.214 448.953 165.251C449.924 166.287 451.141 167.062 452.491 167.503C452.546 167.514 452.602 167.511 452.656 167.495C452.71 167.479 452.758 167.451 452.798 167.411C452.838 167.369 452.866 167.318 452.882 167.263C452.898 167.208 452.9 167.149 452.889 167.093C451.876 162.063 448.155 161.186 447.404 161.061C446.88 160.39 446.266 159.65 445.537 158.785C447.319 159.593 449.306 159.832 451.228 159.468C451.284 159.453 451.335 159.425 451.377 159.385C451.418 159.345 451.449 159.295 451.467 159.24C451.482 159.183 451.483 159.123 451.469 159.065C451.455 159.007 451.427 158.954 451.387 158.91C450.417 157.787 449.149 156.961 447.729 156.528C446.309 156.095 444.796 156.072 443.364 156.463C442.726 155.803 442.043 155.12 441.326 154.426C443.732 155.126 446.305 154.974 448.61 153.994C448.665 153.966 448.711 153.924 448.743 153.872C448.775 153.819 448.792 153.759 448.792 153.698C448.796 153.638 448.783 153.579 448.755 153.527C448.727 153.475 448.684 153.431 448.633 153.402C447.332 152.592 445.842 152.137 444.311 152.081C442.78 152.025 441.26 152.37 439.904 153.083C438.948 152.195 437.946 151.296 436.899 150.397C439.234 151.442 441.871 151.592 444.308 150.818C444.363 150.798 444.411 150.763 444.448 150.716C444.484 150.67 444.506 150.615 444.513 150.557C444.523 150.497 444.517 150.436 444.495 150.38C444.473 150.324 444.436 150.275 444.388 150.238C443.191 149.265 441.748 148.644 440.219 148.443C438.69 148.242 437.135 148.469 435.727 149.1C435.701 149.095 435.674 149.095 435.648 149.1C435.614 149.137 435.588 149.179 435.568 149.225L434.282 148.178C434.246 148.125 434.194 148.085 434.134 148.064C433.451 147.518 432.757 146.926 432.051 146.448C431.989 146.395 431.911 146.366 431.829 146.366C431.748 146.366 431.669 146.395 431.607 146.448C431.553 146.521 431.53 146.612 431.542 146.701C431.555 146.791 431.603 146.872 431.676 146.926L433.61 148.417C433.017 149.773 432.802 151.265 432.988 152.734C433.174 154.203 433.755 155.594 434.669 156.759C434.679 156.832 434.713 156.9 434.764 156.953C434.815 157.006 434.881 157.042 434.953 157.055Z" fill="white"/>
</g>
<path d="M439.948 166.842L363.697 174.536C361.663 174.743 359.795 175.748 358.502 177.331C357.209 178.915 356.597 180.946 356.8 182.98L359.418 209.054C361.404 207.646 363.724 206.784 366.147 206.554C368.57 206.323 371.011 206.732 373.227 207.739C375.442 208.747 377.355 210.318 378.774 212.295C380.193 214.273 381.069 216.588 381.314 219.01C381.558 221.431 381.164 223.875 380.169 226.097C379.175 228.318 377.615 230.24 375.646 231.671C373.677 233.101 371.367 233.99 368.946 234.249C366.526 234.508 364.08 234.128 361.853 233.147L364.482 259.22C364.692 261.253 365.698 263.121 367.28 264.415C368.862 265.709 370.892 266.325 372.927 266.128L449.177 258.446C451.212 258.233 453.079 257.225 454.373 255.641C455.667 254.057 456.283 252.026 456.086 249.99L448.404 173.739C448.188 171.707 447.179 169.842 445.595 168.551C444.011 167.259 441.982 166.645 439.948 166.842Z" fill="#C05FFB"/>
<path opacity="0.3" d="M439.948 166.842L363.697 174.536C361.663 174.743 359.795 175.748 358.502 177.331C357.209 178.915 356.597 180.946 356.8 182.98L359.418 209.054C361.404 207.646 363.724 206.784 366.147 206.554C368.57 206.323 371.011 206.732 373.227 207.739C375.442 208.747 377.355 210.318 378.774 212.295C380.193 214.273 381.069 216.588 381.314 219.01C381.558 221.431 381.164 223.875 380.169 226.097C379.175 228.318 377.615 230.24 375.646 231.671C373.677 233.101 371.367 233.99 368.946 234.249C366.526 234.508 364.08 234.128 361.853 233.147L364.482 259.22C364.692 261.253 365.698 263.121 367.28 264.415C368.862 265.709 370.892 266.325 372.927 266.128L449.177 258.446C451.212 258.233 453.079 257.225 454.373 255.641C455.667 254.057 456.283 252.026 456.086 249.99L448.404 173.739C448.188 171.707 447.179 169.842 445.595 168.551C444.011 167.259 441.982 166.645 439.948 166.842Z" fill="black"/>
<path d="M460.752 190.229L457.224 188.693L448.939 190.81C447.989 191.058 447.148 191.615 446.549 192.392L444.796 194.668C444.423 195.166 444.233 195.779 444.26 196.401C444.287 197.024 444.529 197.618 444.944 198.082L446.924 200.267C447.399 200.788 448.058 201.102 448.762 201.145C449.465 201.187 450.157 200.954 450.691 200.495L455.187 196.637C455.187 196.637 460.604 194.099 460.752 190.229Z" fill="#FFB573"/>
<path d="M388.934 176.015L392.599 175.548C393.093 175.492 393.555 175.276 393.914 174.933C394.274 174.59 394.511 174.138 394.59 173.647L395.091 170.734C395.158 170.387 395.143 170.029 395.048 169.689C394.952 169.349 394.779 169.035 394.542 168.774C394.304 168.512 394.009 168.309 393.68 168.181C393.351 168.053 392.996 168.004 392.644 168.037L388.365 168.344C387.763 168.376 387.198 168.646 386.795 169.094C386.392 169.542 386.183 170.132 386.214 170.734L386.328 173.807C386.334 174.13 386.409 174.448 386.548 174.74C386.686 175.032 386.886 175.29 387.132 175.499C387.379 175.708 387.667 175.862 387.978 175.951C388.288 176.04 388.614 176.062 388.934 176.015Z" fill="#FFB573"/>
<path d="M445.952 92.3778C436.915 96.9301 421.039 94.8361 421.039 94.8361C421.039 94.8361 429.893 80.3598 445.952 92.3778Z" fill="#263238"/>
<path d="M286.934 381.129L282.393 404.767L270.898 401.99L275.439 378.353L286.934 381.129Z" fill="#7F3E3B"/>
<path d="M271.267 397.188L284.048 399.965C284.246 400.003 284.422 400.115 284.542 400.277C284.662 400.439 284.717 400.64 284.697 400.841L283.809 410.23C283.78 410.466 283.701 410.692 283.58 410.896C283.458 411.1 283.294 411.276 283.101 411.413C282.907 411.55 282.686 411.645 282.454 411.692C282.221 411.74 281.981 411.738 281.749 411.687C277.732 410.742 276.537 410.15 271.449 409.046C265.52 407.738 263.415 408.09 256.45 406.565C252.239 405.643 252.432 401.228 254.321 401.216C259.311 401.229 264.215 399.921 268.536 397.427C269.383 397.002 270.36 396.917 271.267 397.188Z" fill="#263238"/>
<path opacity="0.2" d="M286.952 381.141L284.607 393.318L273.102 390.541L275.446 378.353L286.952 381.141Z" fill="black"/>
<path d="M306.944 290.095C320.43 250.421 331.105 203.601 331.105 203.601L292.638 201.166C292.638 201.166 286.948 261.916 284.012 289.935C280.939 319.047 271.391 384.771 271.391 384.771L288.746 388.288C288.746 388.288 305.021 326.399 306.944 290.095Z" fill="#263238"/>
<path opacity="0.2" d="M313.362 225.68L322.694 237.22C320.316 246.131 317.539 256.146 314.489 266.378C312.738 252.885 312.361 239.249 313.362 225.68Z" fill="#263238"/>
<path d="M271.642 387.241L287.575 390.724C287.892 390.794 288.225 390.745 288.508 390.585C288.792 390.426 289.007 390.167 289.111 389.859L290.864 384.726C290.924 384.552 290.948 384.368 290.932 384.184C290.916 384.001 290.862 383.822 290.773 383.661C290.684 383.5 290.562 383.36 290.415 383.249C290.268 383.138 290.099 383.06 289.919 383.019L272.632 378.979C272.45 378.936 272.261 378.932 272.078 378.967C271.894 379.003 271.72 379.077 271.568 379.184C271.415 379.292 271.287 379.431 271.192 379.591C271.096 379.752 271.036 379.931 271.016 380.117L270.617 385.807C270.582 386.131 270.666 386.456 270.855 386.72C271.044 386.985 271.324 387.17 271.642 387.241Z" fill="#263238"/>
<path opacity="0.1" d="M271.642 387.241L287.575 390.724C287.892 390.794 288.225 390.745 288.508 390.585C288.792 390.426 289.007 390.167 289.111 389.859L290.864 384.726C290.924 384.552 290.948 384.368 290.932 384.184C290.916 384.001 290.862 383.822 290.773 383.661C290.684 383.5 290.562 383.36 290.415 383.249C290.268 383.138 290.099 383.06 289.919 383.019L272.632 378.979C272.45 378.936 272.261 378.932 272.078 378.967C271.894 379.003 271.72 379.077 271.568 379.184C271.415 379.292 271.287 379.431 271.192 379.591C271.096 379.752 271.036 379.931 271.016 380.117L270.617 385.807C270.582 386.131 270.666 386.456 270.855 386.72C271.044 386.985 271.324 387.17 271.642 387.241Z" fill="white"/>
<path d="M350.216 380.31L350.933 404.699L339.268 404.539L338.551 380.15L350.216 380.31Z" fill="#7F3E3B"/>
<path d="M338.973 399.532L351.378 399.714C351.579 399.713 351.773 399.787 351.923 399.922C352.072 400.057 352.166 400.242 352.186 400.443L353.187 409.82C353.206 410.058 353.176 410.296 353.097 410.521C353.018 410.746 352.894 410.952 352.731 411.125C352.568 411.299 352.37 411.437 352.151 411.529C351.932 411.622 351.696 411.668 351.457 411.664C347.338 411.539 346.04 411.197 340.839 411.118C334.762 411.015 333.453 411.778 326.329 411.675C322.016 411.607 321.321 407.237 323.165 406.85C328.06 405.872 332.61 403.618 336.355 400.317C337.096 399.732 338.032 399.451 338.973 399.532Z" fill="#263238"/>
<path opacity="0.2" d="M350.227 380.321L350.592 392.885L338.915 392.726L338.551 380.15L350.227 380.321Z" fill="black"/>
<path d="M347.321 289.286C344.02 247.553 346.808 225.042 341.96 204.318L306.953 202.144C306.953 202.144 317.822 263.486 323.819 291.232C329.817 318.979 336.27 386.375 336.27 386.375L353.478 386.592C353.478 386.592 355.583 321.847 347.321 289.286Z" fill="#263238"/>
<path d="M336.306 389.471L352.592 389.721C352.929 389.725 353.254 389.6 353.502 389.371C353.749 389.143 353.9 388.828 353.923 388.492L354.276 383.12C354.29 382.943 354.268 382.765 354.21 382.596C354.153 382.428 354.062 382.272 353.943 382.14C353.823 382.008 353.678 381.902 353.516 381.828C353.355 381.754 353.179 381.713 353.001 381.709L335.282 381.163C335.085 381.156 334.889 381.193 334.708 381.273C334.528 381.352 334.367 381.471 334.239 381.621C334.111 381.771 334.019 381.948 333.969 382.138C333.919 382.329 333.912 382.529 333.95 382.722L335.088 388.412C335.149 388.697 335.301 388.954 335.52 389.145C335.74 389.336 336.016 389.45 336.306 389.471Z" fill="#263238"/>
<path opacity="0.1" d="M336.306 389.471L352.592 389.721C352.929 389.725 353.254 389.6 353.502 389.371C353.749 389.143 353.9 388.828 353.923 388.492L354.276 383.12C354.29 382.943 354.268 382.765 354.21 382.596C354.153 382.428 354.062 382.272 353.943 382.14C353.823 382.008 353.678 381.902 353.516 381.828C353.355 381.754 353.179 381.713 353.001 381.709L335.282 381.163C335.085 381.156 334.889 381.193 334.708 381.273C334.528 381.352 334.367 381.471 334.239 381.621C334.111 381.771 334.019 381.948 333.969 382.138C333.919 382.329 333.912 382.529 333.95 382.722L335.088 388.412C335.149 388.697 335.301 388.954 335.52 389.145C335.74 389.336 336.016 389.45 336.306 389.471Z" fill="white"/>
<path d="M305.816 137.945C304.474 140.847 303.074 143.419 301.549 146.071C300.024 148.723 298.419 151.295 296.644 153.821C294.849 156.43 292.887 158.92 290.771 161.276C288.423 163.988 285.671 166.322 282.611 168.195L282.213 168.423C281.532 168.823 280.775 169.075 279.99 169.161C279.206 169.247 278.412 169.166 277.661 168.924C275.441 168.207 273.29 167.399 271.185 166.534C269.079 165.669 267.031 164.713 265.017 163.711C263.002 162.71 261.033 161.651 259.099 160.513C257.164 159.375 255.275 158.237 253.408 156.86C252.74 156.386 252.258 155.694 252.046 154.903C251.834 154.112 251.904 153.271 252.246 152.526C252.587 151.782 253.177 151.179 253.915 150.824C254.653 150.468 255.492 150.381 256.288 150.578H256.413C258.45 151.067 260.555 151.659 262.604 152.194L268.761 153.821C270.798 154.379 272.846 154.846 274.861 155.346C276.875 155.847 278.89 156.234 280.87 156.644L275.965 157.384C277.669 155.97 279.197 154.358 280.517 152.581C282.076 150.578 283.579 148.37 285.069 146.094C286.56 143.818 287.915 141.439 289.258 139.026C290.6 136.614 291.966 134.121 293.172 131.822L293.241 131.697C294.148 130.187 295.591 129.073 297.282 128.578C298.974 128.083 300.789 128.243 302.368 129.027C303.946 129.81 305.172 131.16 305.8 132.806C306.429 134.452 306.414 136.275 305.76 137.911L305.816 137.945Z" fill="#7F3E3B"/>
<path d="M308.618 118.053C295.03 119.6 284.719 140.643 284.719 140.643L298.74 155.563C298.74 155.563 304.988 148.12 311.702 138.709C319.032 128.455 319.373 116.835 308.618 118.053Z" fill="#C05FFB"/>
<path d="M306.948 121.205C312.171 119.349 335.57 122.343 335.57 122.343C331.018 128.215 327.217 176.845 326.796 204.796C321.822 205.479 302.748 204.17 298.344 203.146C298.913 192.175 303.488 140.711 306.948 121.205Z" fill="white"/>
<path d="M291.842 135.954C292.456 130.897 294.906 126.241 298.727 122.872C302.547 119.502 307.472 117.653 312.567 117.676C322.343 117.755 332.086 118.83 341.644 120.886C343.133 121.201 344.543 121.811 345.792 122.681C347.041 123.551 348.102 124.662 348.914 125.949C349.726 127.236 350.271 128.673 350.518 130.174C350.765 131.676 350.708 133.212 350.351 134.691C343.147 164.907 345.047 193.575 343.124 206.913C336.267 209.434 328.984 210.594 321.683 210.327C321.683 210.327 321.853 198.821 323.458 179.394C324.733 163.951 327.02 127.635 331.732 121.603C331.732 121.603 314.843 119.327 309.619 121.159C305.738 143.067 302.893 209.428 302.893 209.439C294.631 208.848 290.738 204.25 290.864 202.884C289.191 176.037 290.033 151.694 291.842 135.954Z" fill="#C05FFB"/>
<path d="M332.337 102.347C330.755 106.899 328.923 114.968 331.848 119.497C331.996 119.708 332.096 119.949 332.14 120.202C332.184 120.456 332.171 120.716 332.103 120.964C332.034 121.213 331.911 121.442 331.743 121.637C331.575 121.833 331.366 121.988 331.131 122.092C326.429 124.804 320.997 125.974 315.596 125.438C308.255 124.846 308.767 121.535 310.657 119.384C311.103 118.887 311.721 118.578 312.387 118.519C319.317 117.688 319.386 113.511 318.384 109.414L332.337 102.347Z" fill="#7F3E3B"/>
<path opacity="0.2" d="M326.646 105.249L318.395 109.449C318.656 110.418 318.804 111.415 318.838 112.419C321.843 112.419 326.099 110.404 326.589 108.094C326.84 107.165 326.86 106.188 326.646 105.249Z" fill="black"/>
<path d="M321.332 86.5234C321.642 82.4181 319.409 78.9025 316.344 78.671C313.279 78.4394 310.544 81.5797 310.233 85.685C309.923 89.7902 312.156 93.3059 315.221 93.5374C318.286 93.7689 321.022 90.6286 321.332 86.5234Z" fill="#263238"/>
<path d="M336.798 89.9074C335.273 98.8868 334.829 104.224 329.844 108.401C322.345 114.672 311.817 109.368 310.679 100.116C309.644 91.7966 312.307 78.4925 321.389 75.8066C330.47 73.1208 338.323 80.9166 336.798 89.9074Z" fill="#7F3E3B"/>
<path d="M334.837 97.4985C334.723 97.4985 334.586 97.3506 334.461 97.4189C330.387 99.695 329.067 94.8013 329.317 91.5464C329.401 90.4606 329.713 89.4046 330.232 88.4476C330.752 87.4906 331.468 86.654 332.333 85.9926C327.917 86.4933 323.638 83.6482 323.57 80.9964C318.687 83.1474 312.804 83.2726 310.152 78.7203C307.5 74.168 311.29 68.2159 316.343 69.7978C314.294 66.1332 322.955 58.804 332.026 69.6157C332.31 61.7744 344.988 69.6157 342.906 77.3205C348.778 79.3462 353.808 90.4994 343.85 92.8779C343.19 103.212 334.837 97.4985 334.837 97.4985Z" fill="#263238"/>
<path d="M339.644 100.321C338.266 102.012 336.297 103.118 334.136 103.416C331.404 103.724 330.801 100.947 332.201 98.4201C333.464 96.144 336.401 93.2533 338.836 94.1409C341.272 95.0286 341.42 98.1583 339.644 100.321Z" fill="#7F3E3B"/>
<path d="M323.777 90.579C323.708 91.3302 323.264 91.8878 322.775 91.8423C322.286 91.7968 321.944 91.1595 322.013 90.4083C322.081 89.6572 322.525 89.1109 323.014 89.1565C323.503 89.202 323.834 89.8393 323.777 90.579Z" fill="#263238"/>
<path d="M314.958 89.6006C314.89 90.3403 314.446 90.898 313.956 90.8525C313.467 90.8069 313.137 90.1696 313.194 89.4299C313.251 88.6901 313.706 88.1211 314.195 88.1666C314.685 88.2121 315.072 88.8495 314.958 89.6006Z" fill="#263238"/>
<path d="M318.401 90.021C317.314 92.2028 315.931 94.2248 314.293 96.03C314.765 96.4416 315.321 96.7454 315.923 96.9203C316.524 97.0952 317.156 97.137 317.775 97.0429L318.401 90.021Z" fill="#630F0F"/>
<path d="M320.082 100.662C320.908 100.72 321.738 100.61 322.52 100.338C323.303 100.066 324.022 99.638 324.634 99.0801C324.655 99.0591 324.67 99.0345 324.681 99.0074C324.692 98.9803 324.697 98.9515 324.696 98.9224C324.696 98.8933 324.69 98.8647 324.678 98.838C324.666 98.8114 324.65 98.7873 324.629 98.7671C324.608 98.7469 324.583 98.731 324.556 98.7204C324.529 98.7098 324.5 98.7046 324.471 98.7051C324.442 98.7056 324.413 98.7119 324.387 98.7235C324.36 98.7351 324.336 98.7518 324.316 98.7728C323.623 99.386 322.794 99.8264 321.898 100.058C321.002 100.289 320.064 100.305 319.16 100.104C319.133 100.098 319.104 100.097 319.076 100.102C319.048 100.107 319.021 100.118 318.997 100.134C318.974 100.15 318.954 100.171 318.939 100.195C318.924 100.22 318.914 100.247 318.91 100.275C318.9 100.332 318.911 100.391 318.943 100.44C318.975 100.489 319.024 100.523 319.081 100.537C319.445 100.594 319.763 100.639 320.082 100.662Z" fill="#263238"/>
<path d="M326.693 88.7698C326.764 88.7863 326.838 88.7863 326.909 88.7698C326.962 88.7464 327.01 88.7128 327.049 88.6708C327.089 88.6288 327.12 88.5792 327.14 88.5252C327.16 88.4711 327.169 88.4135 327.167 88.3558C327.164 88.2981 327.15 88.2415 327.126 88.1894C326.858 87.5455 326.443 86.9738 325.913 86.5209C325.383 86.068 324.753 85.7467 324.076 85.5832C323.961 85.5667 323.845 85.5955 323.751 85.6635C323.658 85.7315 323.594 85.8334 323.575 85.9473C323.558 86.0618 323.587 86.1782 323.655 86.2717C323.723 86.3652 323.825 86.4285 323.939 86.4481C324.473 86.5859 324.968 86.8471 325.383 87.2108C325.798 87.5745 326.122 88.0305 326.329 88.5422C326.367 88.6065 326.42 88.6607 326.483 88.7004C326.547 88.74 326.619 88.7638 326.693 88.7698Z" fill="#263238"/>
<path d="M311.264 85.9694C311.334 85.9882 311.408 85.9897 311.48 85.9739C311.551 85.958 311.617 85.9253 311.673 85.8783C312.079 85.5108 312.566 85.2441 313.093 85.0997C313.621 84.9554 314.176 84.9375 314.712 85.0475C314.822 85.0792 314.94 85.0658 315.041 85.0103C315.141 84.9548 315.215 84.8618 315.247 84.7516C315.279 84.64 315.266 84.5202 315.211 84.4181C315.155 84.316 315.062 84.2396 314.951 84.2054C314.274 84.0511 313.57 84.0627 312.898 84.239C312.226 84.4154 311.607 84.7513 311.093 85.2182C311.052 85.2585 311.02 85.3063 310.998 85.359C310.976 85.4118 310.965 85.4684 310.965 85.5255C310.965 85.5827 310.976 85.6392 310.998 85.692C311.02 85.7447 311.052 85.7926 311.093 85.8328C311.136 85.8929 311.195 85.9401 311.264 85.9694Z" fill="#263238"/>
<path d="M353.055 134.076C353.795 135.521 354.398 136.773 354.99 138.127C355.582 139.482 356.128 140.79 356.72 142.133C357.858 144.819 358.848 147.551 359.781 150.316C361.679 155.91 363.133 161.645 364.129 167.467L364.436 169.743L364.595 170.881V171.154V171.655C364.595 172.019 364.652 172.383 364.652 172.793C364.608 174.868 364.196 176.918 363.434 178.848C362.301 181.795 360.859 184.614 359.132 187.258C357.565 189.733 355.867 192.122 354.045 194.417C352.26 196.7 350.361 198.891 348.355 200.983C347.778 201.594 347.002 201.977 346.167 202.063C345.332 202.149 344.493 201.933 343.804 201.453C343.115 200.974 342.621 200.263 342.412 199.45C342.203 198.636 342.293 197.775 342.665 197.023V196.932C345.02 192.027 347.513 187.065 349.493 182.228C350.005 181.021 350.46 179.815 350.859 178.643C351.255 177.548 351.586 176.431 351.849 175.297C352.033 174.592 352.099 173.861 352.042 173.135C352.042 173.135 352.042 173.203 352.042 173.135L351.985 172.907L351.769 171.962L351.348 170.085C350.035 164.988 348.428 159.972 346.534 155.062C345.624 152.558 344.588 150.089 343.586 147.608C343.086 146.378 342.551 145.149 342.016 143.932L340.423 140.381L340.332 140.176C339.532 138.501 339.43 136.576 340.049 134.826C340.668 133.076 341.957 131.644 343.632 130.844C345.307 130.044 347.231 129.942 348.982 130.561C350.732 131.18 352.164 132.469 352.964 134.144L353.055 134.076Z" fill="#7F3E3B"/>
<path d="M342.824 121.204C357.983 125.028 362.171 144.41 362.171 144.41L343.347 157.907C343.347 157.907 338.681 153.025 337.27 141.553C336.621 136.079 339.751 121.056 342.824 121.204Z" fill="#C05FFB"/>
<path d="M345.15 194.61L336.387 197.888L343.101 206.878C343.101 206.878 350.67 202.952 349.236 198.593L345.15 194.61Z" fill="#7F3E3B"/>
<path d="M329.867 199.163C327.507 198.766 325.085 198.986 322.834 199.8L327.182 173.966C327.518 171.949 327.04 169.88 325.854 168.214C324.668 166.548 322.87 165.42 320.854 165.078L245.286 152.354C243.272 152.021 241.208 152.498 239.545 153.682C237.882 154.865 236.754 156.659 236.409 158.67L231.993 184.562C234.241 183.736 236.667 183.516 239.026 183.924C241.125 184.276 243.114 185.105 244.842 186.347C246.57 187.589 247.99 189.21 248.992 191.087C249.995 192.964 250.553 195.046 250.625 197.172C250.696 199.299 250.279 201.413 249.405 203.353C248.531 205.293 247.223 207.006 245.583 208.362C243.943 209.717 242.013 210.677 239.943 211.17C237.873 211.662 235.718 211.673 233.643 211.201C231.568 210.73 229.629 209.788 227.976 208.45L223.617 234.284C223.281 236.301 223.758 238.37 224.944 240.036C226.13 241.702 227.928 242.83 229.945 243.172L305.513 255.896C307.528 256.229 309.593 255.752 311.258 254.569C312.923 253.386 314.053 251.592 314.401 249.58L318.748 223.734C320.404 225.051 322.339 225.974 324.405 226.43C326.471 226.887 328.614 226.866 330.671 226.37C332.728 225.873 334.644 224.914 336.274 223.565C337.904 222.216 339.205 220.512 340.077 218.585C340.95 216.657 341.371 214.555 341.308 212.44C341.246 210.325 340.701 208.253 339.717 206.38C338.732 204.507 337.333 202.883 335.626 201.633C333.92 200.382 331.95 199.537 329.867 199.163Z" fill="#C05FFB"/>
<path opacity="0.6" d="M329.867 199.163C327.507 198.766 325.085 198.986 322.834 199.8L327.182 173.966C327.518 171.949 327.04 169.88 325.854 168.214C324.668 166.548 322.87 165.42 320.854 165.078L245.286 152.354C243.272 152.021 241.208 152.498 239.545 153.682C237.882 154.865 236.754 156.659 236.409 158.67L231.993 184.562C234.241 183.736 236.667 183.516 239.026 183.924C241.125 184.276 243.114 185.105 244.842 186.347C246.57 187.589 247.99 189.21 248.992 191.087C249.995 192.964 250.553 195.046 250.625 197.172C250.696 199.299 250.279 201.413 249.405 203.353C248.531 205.293 247.223 207.006 245.583 208.362C243.943 209.717 242.013 210.677 239.943 211.17C237.873 211.662 235.718 211.673 233.643 211.201C231.568 210.73 229.629 209.788 227.976 208.45L223.617 234.284C223.281 236.301 223.758 238.37 224.944 240.036C226.13 241.702 227.928 242.83 229.945 243.172L305.513 255.896C307.528 256.229 309.593 255.752 311.258 254.569C312.923 253.386 314.053 251.592 314.401 249.58L318.748 223.734C320.404 225.051 322.339 225.974 324.405 226.43C326.471 226.887 328.614 226.866 330.671 226.37C332.728 225.873 334.644 224.914 336.274 223.565C337.904 222.216 339.205 220.512 340.077 218.585C340.95 216.657 341.371 214.555 341.308 212.44C341.246 210.325 340.701 208.253 339.717 206.38C338.732 204.507 337.333 202.883 335.626 201.633C333.92 200.382 331.95 199.537 329.867 199.163Z" fill="white"/>
<path d="M332.292 206.72L335.171 209.474C335.725 210.007 336.451 210.325 337.219 210.371C337.986 210.417 338.745 210.187 339.359 209.724L343.103 206.913L336.389 197.922L332.235 202.088C331.929 202.393 331.687 202.756 331.524 203.156C331.361 203.555 331.28 203.984 331.285 204.416C331.291 204.847 331.382 205.274 331.555 205.67C331.728 206.065 331.978 206.422 332.292 206.72Z" fill="#7F3E3B"/>
<path d="M247.924 154.778L248.971 150.897C249.147 150.441 249.46 150.05 249.869 149.781C250.277 149.512 250.759 149.377 251.248 149.395C252.73 149.334 254.211 149.562 255.606 150.066L261.524 152.251L261.24 154.664C261.001 156.735 258.691 158.465 256.073 158.545C254.316 158.568 252.562 158.381 250.849 157.987L250.212 157.851C249.849 157.825 249.496 157.721 249.177 157.547C248.858 157.372 248.58 157.131 248.363 156.839C248.146 156.547 247.994 156.212 247.919 155.856C247.843 155.501 247.845 155.133 247.924 154.778Z" fill="#7F3E3B"/>
<path d="M154.711 101.209C158.501 96.805 164.203 85.3674 153.482 80.9972C145.572 77.7651 128.786 79.4153 119.146 94.4265C112.557 96.7026 110.611 111.361 125.827 114.445C141.043 117.529 154.711 101.209 154.711 101.209Z" fill="#263238"/>
<path d="M189.089 383.623L171.699 385.068L174.647 405.508L189.18 404.325L189.089 383.623Z" fill="#FFC3BD"/>
<path opacity="0.2" d="M189.093 383.634L171.691 385.079L173.353 396.528L189.149 395.219L189.093 383.634Z" fill="black"/>
<path d="M155.851 323.453C149.023 297.277 131.337 266.117 142.547 240.931L191.268 240.783C191.268 240.783 192.474 292.622 192.816 317.034C193.157 342.561 191.029 390.588 191.029 390.588L171.101 392.101C171.101 392.101 157.444 352.804 155.851 323.453Z" fill="#C05FFB"/>
<path d="M170.11 392.887L191.643 391.305C191.827 391.289 191.999 391.209 192.128 391.077C192.257 390.946 192.336 390.772 192.348 390.588L192.804 382.622C192.811 382.511 192.794 382.4 192.754 382.297C192.714 382.194 192.651 382.101 192.57 382.025C192.49 381.949 192.394 381.891 192.288 381.857C192.183 381.822 192.071 381.811 191.962 381.825L168.062 385C167.953 385.012 167.849 385.048 167.756 385.105C167.662 385.162 167.583 385.239 167.523 385.33C167.463 385.422 167.424 385.525 167.409 385.634C167.394 385.742 167.403 385.852 167.436 385.956L169.325 392.352C169.378 392.516 169.484 392.658 169.626 392.754C169.768 392.851 169.939 392.898 170.11 392.887Z" fill="#263238"/>
<path opacity="0.2" d="M142.369 265.706C142.181 271.888 142.432 278.076 143.12 284.223C145.499 292.451 148.538 300.691 151.269 308.68C154.843 286.055 154.854 259.686 142.369 265.706Z" fill="black"/>
<path d="M124.723 384.897L107.265 385.068L107.242 405.667L121.832 405.553L124.723 384.897Z" fill="#FFC3BD"/>
<path d="M105.864 402.503C105.881 402.388 105.922 402.278 105.984 402.181C106.046 402.083 106.128 401.999 106.224 401.935C106.321 401.87 106.43 401.827 106.544 401.807C106.658 401.787 106.775 401.792 106.888 401.82C111.269 403.561 119.577 402.23 122.718 401.627C123.065 401.555 123.423 401.555 123.769 401.628C124.116 401.7 124.444 401.843 124.733 402.048C127.302 403.696 130.086 404.983 133.007 405.872C133.633 407.546 133.791 409.36 133.462 411.118H104.031C104.862 408.298 105.474 405.417 105.864 402.503Z" fill="#263238"/>
<path d="M172.727 402.503C172.744 402.388 172.785 402.278 172.847 402.181C172.909 402.083 172.991 401.999 173.088 401.935C173.184 401.87 173.293 401.827 173.407 401.807C173.522 401.787 173.639 401.792 173.751 401.82C178.133 403.561 186.441 402.23 189.582 401.627C189.928 401.555 190.286 401.555 190.633 401.628C190.979 401.7 191.307 401.843 191.596 402.048C194.942 404.415 203.865 405.872 203.865 405.872C204.491 407.547 204.645 409.362 204.308 411.118H170.895C171.725 408.298 172.337 405.417 172.727 402.503Z" fill="#263238"/>
<path opacity="0.2" d="M124.723 384.908L107.254 385.068L107.242 396.608L123.107 396.471L124.723 384.908Z" fill="black"/>
<path d="M104.803 314.986C102.436 288.548 95.0156 252.938 103.437 240.783H160.455C160.455 240.783 148.835 293.499 144.067 317.899C139.116 343.267 124.879 391.976 124.879 391.976L105.998 392.033C105.998 392.033 98.8395 345.167 104.803 314.986Z" fill="#C05FFB"/>
<path opacity="0.2" d="M108.229 386.626C108.106 386.625 107.987 386.584 107.889 386.51C107.791 386.437 107.719 386.334 107.683 386.217C106.328 381.664 106.545 329.37 109.959 315.053C109.959 313.164 109.561 309.454 109.105 304.753C107.546 288.82 104.656 259.23 108.969 242.444C109.007 242.293 109.103 242.163 109.236 242.083C109.369 242.003 109.529 241.979 109.68 242.017C109.831 242.055 109.961 242.151 110.041 242.284C110.121 242.418 110.145 242.577 110.107 242.728C105.839 259.333 108.718 288.809 110.266 304.651C110.733 309.431 111.108 313.198 111.131 315.11C111.137 315.159 111.137 315.209 111.131 315.258C107.854 328.801 107.535 381.494 108.855 385.898C108.898 386.041 108.882 386.196 108.812 386.328C108.742 386.46 108.622 386.559 108.479 386.604C108.4 386.635 108.313 386.643 108.229 386.626Z" fill="white"/>
<path d="M104.696 392.739H126.081C126.252 392.744 126.418 392.686 126.55 392.578C126.682 392.469 126.77 392.316 126.798 392.147L128.209 384.556C128.229 384.441 128.224 384.323 128.193 384.211C128.162 384.098 128.106 383.994 128.03 383.906C127.953 383.817 127.858 383.747 127.752 383.7C127.645 383.653 127.529 383.631 127.412 383.634L104.127 384.67C104.029 384.672 103.932 384.695 103.843 384.737C103.754 384.778 103.675 384.838 103.61 384.912C103.544 384.985 103.495 385.072 103.465 385.165C103.434 385.258 103.424 385.357 103.433 385.455L103.911 392.01C103.928 392.208 104.018 392.392 104.163 392.526C104.308 392.661 104.498 392.737 104.696 392.739Z" fill="#263238"/>
<path d="M179.824 148.702C180.962 153.254 182.009 157.807 183.022 162.359C184.035 166.911 184.991 171.463 185.879 176.016L187.244 182.844L188.519 189.673C189.395 194.225 190.169 198.846 190.966 203.443L189.111 199.289C189.359 200.141 189.893 200.881 190.624 201.383C192.081 202.368 193.723 203.045 195.45 203.375C197.752 203.906 200.099 204.215 202.46 204.297C203.724 204.365 205.021 204.411 206.33 204.388C206.978 204.388 207.639 204.388 208.299 204.388C208.959 204.388 209.676 204.388 210.131 204.388L211.747 204.502C213.107 204.589 214.401 205.116 215.435 206.003C216.47 206.891 217.187 208.09 217.48 209.421C217.773 210.752 217.625 212.141 217.059 213.381C216.493 214.62 215.539 215.642 214.342 216.292C213.431 216.793 212.783 217.169 212.009 217.567C211.235 217.965 210.518 218.307 209.733 218.705C208.208 219.365 206.648 219.991 205.032 220.514C203.392 221.052 201.725 221.5 200.036 221.857C198.258 222.212 196.461 222.463 194.653 222.609C192.7 222.748 190.739 222.717 188.792 222.517C186.628 222.336 184.494 221.885 182.442 221.175C180.139 220.407 177.952 219.327 175.943 217.965C173.825 216.498 171.937 214.722 170.344 212.696C169.656 211.841 169.146 210.859 168.842 209.805L168.489 208.542C167.237 204.058 165.951 199.585 164.767 195.078L162.958 188.341L161.239 181.581C160.101 177.029 158.963 172.545 157.927 168.015C156.892 163.486 155.856 158.911 154.957 154.358C154.313 151.101 154.965 147.72 156.775 144.937C158.585 142.153 161.411 140.185 164.649 139.453C167.888 138.72 171.285 139.28 174.117 141.014C176.949 142.748 178.992 145.519 179.813 148.736L179.824 148.702Z" fill="#FFC3BD"/>
<path d="M209.34 205.514L209.579 212.866C212.549 220.002 221.062 214.585 221.062 214.585L226.206 213.64C227.102 213.412 227.888 212.874 228.425 212.122C228.963 211.371 229.217 210.453 229.142 209.532L229.006 204.387C229.04 203.326 228.659 202.292 227.942 201.508C227.226 200.723 226.231 200.25 225.17 200.188L220.618 200.279C219.29 200.302 217.988 200.654 216.828 201.303L209.34 205.514Z" fill="#FFC3BD"/>
<path d="M171.106 136.023C181.576 141.531 188.416 160.969 188.416 160.969C186.208 170.074 177.308 186.679 169.069 186.576C169.069 186.576 156.971 170.973 155.662 159.683C154.069 146.038 149.938 124.893 171.106 136.023Z" fill="#263238"/>
<path d="M161.434 132.791C145.275 131.254 128.996 131.514 112.895 133.565C103.585 134.873 96.9618 140.666 98.0999 159.74C100.376 198.435 96.848 228.594 101.764 242.501C101.764 242.501 173.372 262.986 193.789 243.355C198.751 196.796 182.044 158.147 174.442 142.066C173.251 139.534 171.429 137.351 169.151 135.726C166.873 134.102 164.215 133.091 161.434 132.791Z" fill="#263238"/>
<path d="M156.053 137.025C154.198 135.204 152.252 136.262 151.353 133.519C150.957 131.366 151.319 129.142 152.378 127.226L130.288 115.299C130.72 123.425 131.05 129.843 127.442 133.076C126.395 139.13 137.685 145.173 152.719 145.264C162.29 145.321 158.728 139.642 156.053 137.025Z" fill="#FFC3BD"/>
<path opacity="0.2" d="M152.045 127.908L134.609 123.549C139.014 130.48 146.946 134.27 151.214 132.597C151.092 130.989 151.378 129.376 152.045 127.908Z" fill="black"/>
<path d="M144.832 88.1449C133.292 85.5842 123.322 95.1668 125.553 105.614C127.783 116.062 129.547 123.118 136.774 126.669C151.137 133.747 158.147 126.919 159.319 116.005C160.378 106.172 156.543 90.7283 144.832 88.1449Z" fill="#FFC3BD"/>
<path opacity="0.2" d="M142.565 106.695C141.209 106.355 139.774 106.564 138.57 107.275C139.927 107.347 141.285 107.149 142.565 106.695Z" fill="black"/>
<path opacity="0.2" d="M142.645 107.663C142.007 107.633 141.37 107.744 140.78 107.988C140.19 108.232 139.661 108.603 139.23 109.074C140.458 108.857 141.623 108.376 142.645 107.663Z" fill="black"/>
<path d="M127.01 114.446C133.462 115.891 136.114 112.659 136.114 109.04C136.114 105.193 132.484 98.6947 128.5 97.4997C129.923 88.9642 153.447 100.914 151.205 89.0894C151.205 89.0894 150.568 87.0636 144.49 85.9255C138.413 84.7875 122.173 88.4521 123.311 100.595C124.449 112.739 127.01 114.446 127.01 114.446Z" fill="#263238"/>
<path d="M118.789 95.0293C120.369 91.8599 120.814 88.2449 120.052 84.7866C120.052 84.7866 127.131 89.4641 118.789 95.0293Z" fill="#263238"/>
<path d="M148.469 117.688C148.951 117.652 149.431 117.58 149.903 117.472C149.939 117.464 149.974 117.449 150.005 117.427C150.036 117.406 150.062 117.378 150.082 117.346C150.102 117.315 150.116 117.279 150.122 117.242C150.128 117.205 150.127 117.167 150.119 117.131C150.112 117.093 150.098 117.058 150.077 117.026C150.056 116.994 150.028 116.967 149.996 116.947C149.964 116.927 149.928 116.913 149.89 116.908C149.853 116.902 149.814 116.904 149.778 116.914C148.596 117.203 147.363 117.211 146.177 116.938C144.992 116.666 143.886 116.12 142.949 115.344C142.923 115.316 142.891 115.294 142.856 115.279C142.82 115.265 142.783 115.257 142.744 115.257C142.706 115.257 142.668 115.265 142.633 115.279C142.598 115.294 142.566 115.316 142.539 115.344C142.487 115.399 142.457 115.472 142.457 115.549C142.457 115.625 142.487 115.699 142.539 115.754C143.35 116.453 144.292 116.984 145.31 117.316C146.328 117.648 147.402 117.775 148.469 117.688Z" fill="#263238"/>
<path d="M122.928 114.946C123.667 115.948 124.596 116.793 125.662 117.433C126.729 118.074 127.912 118.498 129.142 118.679C132.454 119.135 133.695 116.073 132.42 113.182C131.282 110.576 128.186 107.208 125.045 108.072C121.904 108.937 121.13 112.454 122.928 114.946Z" fill="#FFC3BD"/>
<path d="M144.441 106.808C144.578 107.73 145.169 108.413 145.773 108.322C146.376 108.231 146.763 107.4 146.626 106.478C146.49 105.556 145.909 104.885 145.306 104.976C144.703 105.067 144.361 105.841 144.441 106.808Z" fill="#263238"/>
<path d="M155.293 105.352C155.43 106.285 156.021 106.957 156.625 106.866C157.228 106.775 157.615 105.955 157.478 105.033C157.342 104.112 156.761 103.429 156.158 103.52C155.555 103.611 155.168 104.43 155.293 105.352Z" fill="#263238"/>
<path d="M151.188 106.569L151.711 114.377C151.711 114.377 154.272 114.82 155.66 113.341C154.779 110.735 153.238 108.403 151.188 106.569Z" fill="#ED847E"/>
<path d="M140.871 104.703C140.777 104.728 140.679 104.728 140.586 104.702C140.493 104.676 140.409 104.625 140.342 104.555C140.276 104.485 140.23 104.398 140.208 104.304C140.187 104.21 140.192 104.112 140.222 104.02C140.438 103.174 140.852 102.391 141.43 101.737C142.008 101.082 142.733 100.573 143.545 100.253C143.682 100.21 143.831 100.223 143.959 100.289C144.087 100.355 144.184 100.469 144.228 100.606C144.271 100.745 144.259 100.895 144.193 101.025C144.127 101.154 144.013 101.253 143.875 101.3C143.234 101.562 142.663 101.971 142.21 102.495C141.757 103.019 141.435 103.643 141.269 104.316C141.243 104.41 141.193 104.496 141.123 104.564C141.053 104.632 140.966 104.68 140.871 104.703Z" fill="#263238"/>
<path d="M158.854 101.209C158.764 101.217 158.674 101.202 158.592 101.164C158.51 101.126 158.439 101.067 158.387 100.993C157.998 100.428 157.478 99.964 156.872 99.6412C156.266 99.3184 155.592 99.1458 154.905 99.1378C154.754 99.1378 154.609 99.0778 154.503 98.9711C154.396 98.8644 154.336 98.7196 154.336 98.5687C154.336 98.4178 154.396 98.2731 154.503 98.1663C154.609 98.0596 154.754 97.9997 154.905 97.9997C155.772 97.9928 156.628 98.1962 157.399 98.5927C158.17 98.9891 158.833 99.5667 159.332 100.276C159.374 100.334 159.404 100.4 159.42 100.47C159.437 100.54 159.439 100.612 159.427 100.683C159.416 100.754 159.39 100.822 159.353 100.883C159.315 100.944 159.265 100.997 159.207 101.038C159.163 101.09 159.109 101.131 159.048 101.161C158.988 101.19 158.921 101.206 158.854 101.209Z" fill="#263238"/>
<path d="M225.165 175.639C222.782 175.807 220.484 176.591 218.496 177.915L216.436 151.74C216.268 149.703 215.301 147.817 213.747 146.49C212.192 145.164 210.177 144.507 208.14 144.661L131.741 150.681C129.706 150.852 127.821 151.82 126.495 153.374C125.17 154.927 124.511 156.941 124.662 158.978L130.694 235.377C130.856 237.415 131.821 239.306 133.377 240.633C134.933 241.96 136.952 242.616 138.99 242.455L215.378 236.424C217.416 236.258 219.306 235.292 220.634 233.738C221.963 232.183 222.622 230.166 222.468 228.127L220.397 202.008C222.566 203.025 224.963 203.456 227.35 203.26C230.779 202.683 233.868 200.842 236.007 198.101C238.146 195.359 239.18 191.916 238.906 188.449C238.632 184.983 237.069 181.745 234.525 179.373C231.982 177.002 228.642 175.67 225.165 175.639Z" fill="#C05FFB"/>
<path d="M114.387 165.192L113.249 167.286L111.94 169.631C111.098 171.224 110.233 172.817 109.448 174.433C107.87 177.582 106.457 180.811 105.214 184.107C104.611 185.7 104.076 187.282 103.678 188.841C103.223 190.334 102.866 191.855 102.608 193.394C102.13 195.869 102.05 198.404 102.369 200.905L99.7514 196.353C100.841 197.847 102.141 199.177 103.61 200.302C105.54 201.843 107.566 203.26 109.675 204.547C111.872 205.958 114.228 207.312 116.595 208.667L120.214 210.681C121.352 211.364 122.718 212.047 123.799 212.707L124.345 213.037C125.553 213.769 126.487 214.878 127.003 216.193C127.519 217.508 127.588 218.957 127.2 220.315C126.812 221.673 125.988 222.867 124.855 223.711C123.723 224.555 122.344 225.003 120.931 224.987C119.201 224.987 117.722 224.873 116.128 224.748C114.535 224.622 113.021 224.429 111.474 224.178C108.328 223.706 105.215 223.037 102.153 222.175C98.912 221.267 95.7525 220.091 92.7068 218.659C89.1063 217.001 85.7975 214.772 82.9079 212.058C81.8682 211.067 81.0868 209.836 80.6318 208.473L80.3131 207.494C78.5311 202.089 77.8651 196.378 78.3557 190.708C78.7422 185.768 79.6891 180.889 81.1781 176.163C82.5646 171.723 84.2841 167.393 86.3222 163.212C87.3123 161.163 88.3252 159.138 89.4633 157.169C90.0209 156.179 90.6013 155.188 91.1931 154.21L92.1263 152.73L92.6157 151.979L93.2075 151.103C95.0359 148.336 97.8713 146.392 101.111 145.683C104.35 144.975 107.739 145.558 110.555 147.308C113.371 149.059 115.394 151.839 116.192 155.058C116.991 158.276 116.502 161.679 114.831 164.543L114.387 165.192Z" fill="#FFC3BD"/>
<path d="M105.496 136.023C86.627 146.106 79.5938 168.629 79.5938 168.629C83.3266 175.742 105.838 183.424 114.305 181.33C114.305 181.33 122.419 166.535 124.092 153.31C125.64 141.053 116.547 130.116 105.496 136.023Z" fill="#263238"/>
<path d="M118.703 213.958L119.09 221.31C122.208 228.389 130.607 222.801 130.607 222.801L135.74 221.754C136.63 221.509 137.405 220.955 137.926 220.193C138.447 219.43 138.68 218.508 138.585 217.589L138.358 212.456C138.386 211.388 137.994 210.351 137.266 209.568C136.539 208.785 135.533 208.318 134.465 208.268L129.913 208.45C128.582 208.511 127.288 208.902 126.146 209.588L118.703 213.958Z" fill="#FFC3BD"/>
</svg>
