<svg width="532" height="436" viewBox="0 0 532 436" fill="none" xmlns="http://www.w3.org/2000/svg">
<path d="M528.916 415.135H20.3594V435.999H528.916V415.135Z" fill="#C971FF"/>
<path opacity="0.5" d="M528.916 415.135H20.3594V435.999H528.916V415.135Z" fill="white"/>
<path d="M140.283 190.732C137.796 191.544 135.354 192.488 132.968 193.562C134.272 192.61 135.576 191.619 136.88 190.615C142.685 185.945 148.211 180.938 153.427 175.619C147.306 181.565 140.769 187.069 133.867 192.088C134.819 190.435 135.655 188.719 136.371 186.951C137.675 183.704 137.91 180.431 134.819 178.696C130.999 176.558 126.382 179.752 127.595 185.216C128.335 188.267 129.778 191.102 131.807 193.497C127.303 196.615 122.598 199.433 117.724 201.933L117.267 202.168C118.298 200.383 119.208 198.532 119.993 196.626C121.219 193.392 121.532 190.106 118.428 188.385C114.607 186.233 109.991 189.441 111.217 194.905C111.945 197.914 113.355 200.716 115.338 203.094C109.483 205.976 103.432 208.427 97.4077 211.087L96.534 211.479C97.7098 210.216 98.8031 208.879 99.807 207.475C101.763 204.607 102.819 201.503 100.211 199.091C97.0034 196.118 91.7484 198.152 91.6701 203.785C91.6736 206.894 92.3966 209.96 93.7826 212.743C88.1451 215.377 82.7888 218.576 77.7956 222.289L77.6392 222.419C78.3145 221.349 78.9326 220.243 79.4908 219.107C80.9643 215.964 81.512 212.73 78.5389 210.761C77.9348 210.346 77.2443 210.073 76.5194 209.963C75.7945 209.852 75.0541 209.908 74.3538 210.125C73.6535 210.342 73.0115 210.715 72.4761 211.216C71.9407 211.717 71.5258 212.333 71.2626 213.017C70.8707 212.406 70.3388 211.896 69.7109 211.531C66.7248 209.81 63.7908 211.674 61.2741 214.308C60.6221 214.999 59.9701 215.743 59.4094 216.473C61.3507 211.085 63.7911 205.89 66.6987 200.955C69.4675 202.165 72.4532 202.799 75.4745 202.82C81.4207 202.82 83.9244 197.865 81.0035 194.787C78.6302 192.297 75.292 193.249 72.1363 195.074C71.0972 195.68 70.0917 196.342 69.1241 197.056C72.147 192.504 75.5776 188.235 79.3735 184.303C81.8608 186.315 84.7513 187.769 87.8494 188.567C93.6261 189.989 97.2512 185.803 95.1648 182.113C93.4696 179.114 89.9488 179.231 86.4933 180.235C84.8392 180.73 83.2189 181.331 81.6424 182.034C83.2202 180.496 84.8502 179.022 86.5063 177.562C88.6709 175.71 90.9138 173.924 93.1958 172.176C95.6493 174.134 98.4888 175.552 101.528 176.336C107.305 177.757 110.93 173.572 108.844 169.881C107.148 166.882 103.628 166.999 100.159 168.004C99.3506 168.238 98.5291 168.525 97.7337 168.825C100.746 166.673 103.797 164.574 106.862 162.488L109.691 160.545C112.241 162.68 115.234 164.222 118.454 165.056C124.231 166.478 127.869 162.292 125.783 158.602C124.074 155.603 120.567 155.72 117.098 156.724C115.733 157.141 114.39 157.624 113.069 158.171L114.816 156.867C115.885 156.098 116.955 155.316 117.998 154.494C119.302 153.516 120.541 152.434 121.805 151.391C122.536 150.817 123.227 150.204 123.918 149.578C126.478 151.737 129.491 153.292 132.733 154.129C138.51 155.55 142.135 151.365 140.048 147.674C138.353 144.675 134.832 144.792 131.377 145.797C129.439 146.395 127.54 147.114 125.691 147.948C128.051 145.757 130.333 143.475 132.498 141.102C132.642 140.933 132.772 140.763 132.928 140.607C133.854 139.576 134.767 138.533 135.654 137.451C136.54 136.369 137.688 134.947 138.653 133.643C142.616 128.442 145.877 122.743 148.355 116.691C145.758 122.671 142.387 128.283 138.327 133.383C134.311 138.504 129.828 143.24 124.935 147.531L124.4 147.987C125.512 146.094 126.496 144.13 127.347 142.106C128.586 138.872 128.886 135.586 125.783 133.865C121.975 131.713 117.346 134.921 118.571 140.385C119.359 143.62 120.931 146.612 123.148 149.096L122.001 150.087L120.697 151.208C119.941 151.821 119.158 152.408 118.376 152.995C117.959 153.308 117.554 153.634 117.072 153.946C115.963 154.768 114.842 155.563 113.708 156.346L112.078 157.454L110.226 158.758C111.308 156.911 112.258 154.989 113.069 153.008C114.307 149.761 114.607 146.488 111.517 144.766C107.696 142.615 103.067 145.823 104.293 151.286C105.049 154.425 106.547 157.336 108.661 159.775L107.357 160.662L102.285 163.987L101.281 164.639L98.4509 166.53L97.2251 167.352C95.9211 168.251 94.6171 169.164 93.3131 170.103C94.3609 168.226 95.2759 166.279 96.0515 164.274C97.3555 161.04 97.5902 157.754 94.4998 156.033C90.6791 153.881 86.0629 157.089 87.2887 162.553C88.0546 165.733 89.5855 168.679 91.7484 171.133C89.5316 172.763 87.3409 174.432 85.2284 176.18C83.6766 177.484 82.151 178.788 80.6514 180.196C81.3047 178.987 81.8881 177.742 82.3987 176.466C83.6245 173.219 83.9374 169.946 80.8339 168.225C77.0132 166.074 72.3971 169.281 73.6229 174.745C74.3506 177.755 75.7605 180.556 77.7435 182.934C73.5201 187.131 69.7162 191.73 66.3857 196.665C66.7638 195.242 67.0513 193.796 67.2463 192.336C67.6636 188.893 67.1681 185.66 63.7386 184.721C59.5137 183.56 55.8103 187.785 58.327 192.818C59.7748 195.589 61.846 197.986 64.3776 199.821C61.0928 205.186 58.3496 210.865 56.1885 216.773C56.1321 215.537 56.0102 214.305 55.8234 213.083C55.2366 209.653 53.8543 206.693 50.2944 206.758C45.913 206.849 43.5528 211.974 47.3996 216.069C49.4511 218.208 51.955 219.86 54.728 220.906C53.245 225.467 52.0388 230.114 51.116 234.82C50.9595 235.563 50.8421 236.307 50.6987 237.05C50.5422 237.193 50.3857 237.337 50.2423 237.493C50.0858 236.854 49.9032 236.189 49.6946 235.576C48.5993 232.29 46.7737 229.565 43.2659 230.191C38.9627 230.947 37.411 236.346 41.8446 239.827C44.0978 241.547 46.6952 242.762 49.4599 243.387C49.4599 243.518 49.5642 243.635 49.6294 243.765C49.1469 247.299 48.7818 250.859 48.5601 254.432C48.3906 257.04 48.2993 259.765 48.2472 262.439C44.5178 262.439 41.8837 266.533 44.4526 270.967C45.5366 272.805 46.9256 274.445 48.5601 275.818C48.8731 280.838 49.3686 285.858 50.0336 290.84C49.5063 290.352 48.861 290.01 48.1613 289.848C47.4616 289.685 46.7317 289.708 46.0434 289.914C43.6962 290.553 42.64 292.443 42.2619 294.765C41.4266 295.629 40.9592 296.784 40.9579 297.985C39.2105 295.377 37.5544 292.769 35.9505 290.018C38.3989 288.141 40.4286 285.774 41.9098 283.068C44.7134 277.852 41.5447 273.275 37.4632 274.383C34.1249 275.296 33.3947 278.686 33.5512 282.324C33.6033 283.704 33.734 285.08 33.9424 286.445L32.2211 283.42C30.7867 280.812 29.6131 278.204 28.2048 275.596C27.8658 274.957 27.5659 274.292 27.292 273.64C30.0393 272.256 32.4684 270.315 34.4249 267.941C38.1673 263.325 35.9114 258.253 31.6865 258.579C28.2439 258.853 26.8747 262.047 26.301 265.646C26.0774 267.216 25.9381 268.796 25.8837 270.38L24.658 267.55C22.0473 261.131 19.8989 254.533 18.2293 247.808C21.3388 246.706 24.1633 244.924 26.4966 242.592C30.6824 238.354 28.9481 233.099 24.7101 232.994C21.2676 232.916 19.5854 235.955 18.6466 239.514C18.1864 241.404 17.8424 243.32 17.6164 245.252C16.7036 241.392 15.9212 237.48 15.2692 233.516C14.8259 231.091 14.539 228.626 14.2391 226.175C17.5814 225.512 20.7294 224.099 23.4452 222.041C28.1396 218.39 27.1095 212.913 22.9106 212.3C19.5072 211.765 17.4469 214.569 16.0646 217.946C15.2554 220.077 14.5761 222.254 14.0304 224.466C13.7696 221.624 13.4697 218.768 13.3393 215.912C12.9481 210.016 12.9481 204.1 13.3393 198.204C12.744 204.095 12.5393 210.02 12.7264 215.938C12.7264 218.664 12.9611 221.376 13.1307 224.101C12.3857 222.248 11.5143 220.449 10.5227 218.716C8.74925 215.73 6.37598 213.5 3.08992 214.804C-0.965493 216.473 -1.31757 222.08 3.768 224.532C6.75076 225.902 10.0227 226.524 13.3002 226.344C13.5349 228.783 13.7435 231.208 14.1087 233.62C14.6172 237.532 15.2692 241.288 16.0386 245.082C15.2041 243.629 14.2763 242.23 13.2611 240.897C11.1095 238.171 8.47541 236.241 5.43711 238.002C1.64249 240.179 2.00761 245.826 7.36702 247.56C10.3997 248.502 13.6117 248.717 16.7427 248.186C18.2305 254.985 20.1868 261.673 22.5976 268.202L23.367 270.158C22.6771 269.245 21.9325 268.374 21.1372 267.55C18.7248 265.047 15.9212 263.391 13.0133 265.464C9.45341 268.072 10.4053 273.549 15.8821 274.774C18.9047 275.386 22.0273 275.297 25.01 274.514C25.2839 275.179 25.5577 275.818 25.8837 276.496C27.1877 279.182 28.3483 281.933 29.7174 284.567L30.8519 286.849C30.1738 286.263 29.4697 285.702 28.7394 285.18C25.8967 283.185 22.8193 282.09 20.3678 284.659C17.3426 287.827 19.2985 293.095 24.9318 293.265C27.8645 293.333 30.7763 292.755 33.4599 291.57C35.0769 294.491 36.7329 297.373 38.5324 300.202C39.1975 301.285 39.8364 302.354 40.5927 303.423C39.5698 302.488 38.4897 301.617 37.3588 300.815C34.5161 298.82 31.4387 297.725 28.9742 300.294C25.9619 303.462 27.9179 308.73 33.5512 308.9C36.7709 308.939 39.9535 308.21 42.8356 306.774C43.7745 308.078 44.7394 309.382 45.7305 310.686C43.6311 313.125 44.3222 317.206 48.5862 319.071C50.6572 319.934 52.8645 320.424 55.1062 320.518C55.367 320.727 55.6278 320.936 55.9147 321.131L56.0451 321.236C58.74 331.302 61.9347 341.221 65.6294 350.993C67.1942 355.152 68.8763 359.273 70.6106 363.368H54.9627V425.073H102.78V363.315H77.3262C75.1485 358.556 73.0491 353.744 71.0931 348.88C67.8983 340.9 65.0035 332.789 62.4868 324.561C62.915 324.687 63.3505 324.787 63.7908 324.861C64.3699 324.978 64.9639 325.005 65.5512 324.939L64.8731 320.649H64.4167C64.1447 320.61 63.8749 320.558 63.6082 320.492C63.0058 320.32 62.4173 320.102 61.8478 319.84L61.1697 319.527C63.6864 318.65 66.0235 317.325 68.0679 315.615C72.5927 311.703 71.3148 306.357 67.0899 305.901C63.6734 305.522 61.7435 308.417 60.5699 311.847C60.2178 312.825 59.9309 313.842 59.6832 314.833C59.4354 313.92 59.1877 313.007 58.953 312.095C58.2618 309.395 57.649 306.67 57.023 303.945C59.7542 303.093 62.2924 301.715 64.4949 299.889C69.0198 295.977 67.7288 290.644 63.5169 290.188C60.0874 289.809 58.1706 292.704 56.997 296.134C56.6449 297.125 56.345 298.155 56.0842 299.172C55.693 297.19 55.3148 295.195 54.9627 293.2C54.715 291.726 54.4803 290.24 54.2586 288.753C54.1803 286.641 54.1412 284.528 54.1673 282.403C54.1673 281.242 54.1673 280.082 54.2716 278.921C56.8282 279.729 59.5095 280.069 62.1869 279.925C68.1331 279.534 70.3238 274.448 67.2203 271.567C64.6905 269.206 61.4175 270.38 58.3792 272.388C57.0167 273.314 55.7104 274.32 54.4672 275.4C54.8334 270.437 55.5877 265.51 56.7231 260.665C57.3885 257.811 58.2202 254.998 59.2138 252.241C61.9403 253.181 64.823 253.584 67.7027 253.428C73.6489 253.05 75.8397 247.964 72.7362 245.069C70.2195 242.722 66.9334 243.883 63.8951 245.904C62.8345 246.633 61.8158 247.421 60.8437 248.264C61.9904 245.567 63.3237 242.952 64.834 240.44C67.8291 235.372 71.5849 230.794 75.97 226.866C78.2425 228.962 80.9304 230.557 83.8592 231.547C89.5185 233.399 93.4435 229.487 91.6832 225.653C90.2096 222.536 86.741 222.393 83.1681 223.136C81.7912 223.43 80.4327 223.805 79.0996 224.258L79.1909 224.179C84.0568 220.383 89.3003 217.097 94.8388 214.373C96.7928 216.932 99.2744 219.04 102.115 220.554C107.409 223.28 111.908 220.046 110.734 215.977C109.783 212.665 106.379 211.974 102.741 212.065C101.312 212.143 99.8885 212.3 98.477 212.535C104.358 209.757 110.356 207.136 116.146 204.072H116.276C118.868 206.31 121.944 207.916 125.261 208.766C131.038 210.201 134.663 206.002 132.576 202.246C130.881 199.247 127.36 199.378 123.905 200.369C122.927 200.655 121.949 201.008 120.997 201.373C124.863 199.125 128.611 196.679 132.224 194.044L132.524 194.37V194.201C135.142 196.458 138.242 198.087 141.587 198.96C147.351 200.382 150.989 196.196 148.902 192.44C147.259 189.611 143.791 189.728 140.283 190.732ZM49.1078 308.887C47.9212 307.505 46.7997 306.057 45.7044 304.597C45.9652 304.362 46.2521 304.101 46.5389 303.814C48.1684 304.322 49.8549 304.624 51.5593 304.714V304.988L52.3547 304.818C52.772 306.879 53.2023 308.926 53.6587 310.973C53.1288 310.28 52.4368 309.727 51.6433 309.363C50.8498 308.999 49.9792 308.836 49.1078 308.887ZM53.3588 259.792C52.9546 261.33 52.6156 262.869 52.2896 264.421L52.094 264.147C52.094 260.965 52.1418 257.792 52.2374 254.628C52.3287 252.411 52.4851 250.207 52.6807 247.99C53.7536 249.083 54.9331 250.066 56.2015 250.924C55.0979 253.826 54.1532 256.787 53.3719 259.792H53.3588ZM58.7052 245.187C58.7834 244.613 58.8486 244.026 58.8747 243.452V242.579C59.3441 242.435 59.8266 242.266 60.2961 242.07C59.7745 243.1 59.2268 244.144 58.7182 245.187H58.7052ZM65.499 234.168C65.2737 233.652 64.946 233.187 64.5358 232.802C64.1257 232.416 63.6415 232.118 63.1127 231.925C59.8918 230.621 57.2838 232.968 55.2105 235.968L55.1062 236.111H54.8975C54.6789 236.062 54.4564 236.031 54.2325 236.02C54.2171 235.837 54.2485 235.653 54.3238 235.485C55.1494 230.774 56.2642 226.119 57.662 221.545C60.6555 221.925 63.695 221.69 66.5944 220.854C68.3857 220.384 69.9437 219.276 70.9758 217.738C71.5497 220.367 72.6449 222.854 74.1966 225.053C70.9886 227.782 68.0776 230.841 65.512 234.181L65.499 234.168Z" fill="#C971FF"/>
<path opacity="0.3" d="M140.283 190.732C137.796 191.544 135.354 192.488 132.968 193.562C134.272 192.61 135.576 191.619 136.88 190.615C142.685 185.945 148.211 180.938 153.427 175.619C147.306 181.565 140.769 187.069 133.867 192.088C134.819 190.435 135.655 188.719 136.371 186.951C137.675 183.704 137.91 180.431 134.819 178.696C130.999 176.558 126.382 179.752 127.595 185.216C128.335 188.267 129.778 191.102 131.807 193.497C127.303 196.615 122.598 199.433 117.724 201.933L117.267 202.168C118.298 200.383 119.208 198.532 119.993 196.626C121.219 193.392 121.532 190.106 118.428 188.385C114.607 186.233 109.991 189.441 111.217 194.905C111.945 197.914 113.355 200.716 115.338 203.094C109.483 205.976 103.432 208.427 97.4077 211.087L96.534 211.479C97.7098 210.216 98.8031 208.879 99.807 207.475C101.763 204.607 102.819 201.503 100.211 199.091C97.0034 196.118 91.7484 198.152 91.6701 203.785C91.6736 206.894 92.3966 209.96 93.7826 212.743C88.1451 215.377 82.7888 218.576 77.7956 222.289L77.6392 222.419C78.3145 221.349 78.9326 220.243 79.4908 219.107C80.9643 215.964 81.512 212.73 78.5389 210.761C77.9348 210.346 77.2443 210.073 76.5194 209.963C75.7945 209.852 75.0541 209.908 74.3538 210.125C73.6535 210.342 73.0115 210.715 72.4761 211.216C71.9407 211.717 71.5258 212.333 71.2626 213.017C70.8707 212.406 70.3388 211.896 69.7109 211.531C66.7248 209.81 63.7908 211.674 61.2741 214.308C60.6221 214.999 59.9701 215.743 59.4094 216.473C61.3507 211.085 63.7911 205.89 66.6987 200.955C69.4675 202.165 72.4532 202.799 75.4745 202.82C81.4207 202.82 83.9244 197.865 81.0035 194.787C78.6302 192.297 75.292 193.249 72.1363 195.074C71.0972 195.68 70.0917 196.342 69.1241 197.056C72.147 192.504 75.5776 188.235 79.3735 184.303C81.8608 186.315 84.7513 187.769 87.8494 188.567C93.6261 189.989 97.2512 185.803 95.1648 182.113C93.4696 179.114 89.9488 179.231 86.4933 180.235C84.8392 180.73 83.2189 181.331 81.6424 182.034C83.2202 180.496 84.8502 179.022 86.5063 177.562C88.6709 175.71 90.9138 173.924 93.1958 172.176C95.6493 174.134 98.4888 175.552 101.528 176.336C107.305 177.757 110.93 173.572 108.844 169.881C107.148 166.882 103.628 166.999 100.159 168.004C99.3506 168.238 98.5291 168.525 97.7337 168.825C100.746 166.673 103.797 164.574 106.862 162.488L109.691 160.545C112.241 162.68 115.234 164.222 118.454 165.056C124.231 166.478 127.869 162.292 125.783 158.602C124.074 155.603 120.567 155.72 117.098 156.724C115.733 157.141 114.39 157.624 113.069 158.171L114.816 156.867C115.885 156.098 116.955 155.316 117.998 154.494C119.302 153.516 120.541 152.434 121.805 151.391C122.536 150.817 123.227 150.204 123.918 149.578C126.478 151.737 129.491 153.292 132.733 154.129C138.51 155.55 142.135 151.365 140.048 147.674C138.353 144.675 134.832 144.792 131.377 145.797C129.439 146.395 127.54 147.114 125.691 147.948C128.051 145.757 130.333 143.475 132.498 141.102C132.642 140.933 132.772 140.763 132.928 140.607C133.854 139.576 134.767 138.533 135.654 137.451C136.54 136.369 137.688 134.947 138.653 133.643C142.616 128.442 145.877 122.743 148.355 116.691C145.758 122.671 142.387 128.283 138.327 133.383C134.311 138.504 129.828 143.24 124.935 147.531L124.4 147.987C125.512 146.094 126.496 144.13 127.347 142.106C128.586 138.872 128.886 135.586 125.783 133.865C121.975 131.713 117.346 134.921 118.571 140.385C119.359 143.62 120.931 146.612 123.148 149.096L122.001 150.087L120.697 151.208C119.941 151.821 119.158 152.408 118.376 152.995C117.959 153.308 117.554 153.634 117.072 153.946C115.963 154.768 114.842 155.563 113.708 156.346L112.078 157.454L110.226 158.758C111.308 156.911 112.258 154.989 113.069 153.008C114.307 149.761 114.607 146.488 111.517 144.766C107.696 142.615 103.067 145.823 104.293 151.286C105.049 154.425 106.547 157.336 108.661 159.775L107.357 160.662L102.285 163.987L101.281 164.639L98.4509 166.53L97.2251 167.352C95.9211 168.251 94.6171 169.164 93.3131 170.103C94.3609 168.226 95.2759 166.279 96.0515 164.274C97.3555 161.04 97.5902 157.754 94.4998 156.033C90.6791 153.881 86.0629 157.089 87.2887 162.553C88.0546 165.733 89.5855 168.679 91.7484 171.133C89.5316 172.763 87.3409 174.432 85.2284 176.18C83.6766 177.484 82.151 178.788 80.6514 180.196C81.3047 178.987 81.8881 177.742 82.3987 176.466C83.6245 173.219 83.9374 169.946 80.8339 168.225C77.0132 166.074 72.3971 169.281 73.6229 174.745C74.3506 177.755 75.7605 180.556 77.7435 182.934C73.5201 187.131 69.7162 191.73 66.3857 196.665C66.7638 195.242 67.0513 193.796 67.2463 192.336C67.6636 188.893 67.1681 185.66 63.7386 184.721C59.5137 183.56 55.8103 187.785 58.327 192.818C59.7748 195.589 61.846 197.986 64.3776 199.821C61.0928 205.186 58.3496 210.865 56.1885 216.773C56.1321 215.537 56.0102 214.305 55.8234 213.083C55.2366 209.653 53.8543 206.693 50.2944 206.758C45.913 206.849 43.5528 211.974 47.3996 216.069C49.4511 218.208 51.955 219.86 54.728 220.906C53.245 225.467 52.0388 230.114 51.116 234.82C50.9595 235.563 50.8421 236.307 50.6987 237.05C50.5422 237.193 50.3857 237.337 50.2423 237.493C50.0858 236.854 49.9032 236.189 49.6946 235.576C48.5993 232.29 46.7737 229.565 43.2659 230.191C38.9627 230.947 37.411 236.346 41.8446 239.827C44.0978 241.547 46.6952 242.762 49.4599 243.387C49.4599 243.518 49.5642 243.635 49.6294 243.765C49.1469 247.299 48.7818 250.859 48.5601 254.432C48.3906 257.04 48.2993 259.765 48.2472 262.439C44.5178 262.439 41.8837 266.533 44.4526 270.967C45.5366 272.805 46.9256 274.445 48.5601 275.818C48.8731 280.838 49.3686 285.858 50.0336 290.84C49.5063 290.352 48.861 290.01 48.1613 289.848C47.4616 289.685 46.7317 289.708 46.0434 289.914C43.6962 290.553 42.64 292.443 42.2619 294.765C41.4266 295.629 40.9592 296.784 40.9579 297.985C39.2105 295.377 37.5544 292.769 35.9505 290.018C38.3989 288.141 40.4286 285.774 41.9098 283.068C44.7134 277.852 41.5447 273.275 37.4632 274.383C34.1249 275.296 33.3947 278.686 33.5512 282.324C33.6033 283.704 33.734 285.08 33.9424 286.445L32.2211 283.42C30.7867 280.812 29.6131 278.204 28.2048 275.596C27.8658 274.957 27.5659 274.292 27.292 273.64C30.0393 272.256 32.4684 270.315 34.4249 267.941C38.1673 263.325 35.9114 258.253 31.6865 258.579C28.2439 258.853 26.8747 262.047 26.301 265.646C26.0774 267.216 25.9381 268.796 25.8837 270.38L24.658 267.55C22.0473 261.131 19.8989 254.533 18.2293 247.808C21.3388 246.706 24.1633 244.924 26.4966 242.592C30.6824 238.354 28.9481 233.099 24.7101 232.994C21.2676 232.916 19.5854 235.955 18.6466 239.514C18.1864 241.404 17.8424 243.32 17.6164 245.252C16.7036 241.392 15.9212 237.48 15.2692 233.516C14.8259 231.091 14.539 228.626 14.2391 226.175C17.5814 225.512 20.7294 224.099 23.4452 222.041C28.1396 218.39 27.1095 212.913 22.9106 212.3C19.5072 211.765 17.4469 214.569 16.0646 217.946C15.2554 220.077 14.5761 222.254 14.0304 224.466C13.7696 221.624 13.4697 218.768 13.3393 215.912C12.9481 210.016 12.9481 204.1 13.3393 198.204C12.744 204.095 12.5393 210.02 12.7264 215.938C12.7264 218.664 12.9611 221.376 13.1307 224.101C12.3857 222.248 11.5143 220.449 10.5227 218.716C8.74925 215.73 6.37598 213.5 3.08992 214.804C-0.965493 216.473 -1.31757 222.08 3.768 224.532C6.75076 225.902 10.0227 226.524 13.3002 226.344C13.5349 228.783 13.7435 231.208 14.1087 233.62C14.6172 237.532 15.2692 241.288 16.0386 245.082C15.2041 243.629 14.2763 242.23 13.2611 240.897C11.1095 238.171 8.47541 236.241 5.43711 238.002C1.64249 240.179 2.00761 245.826 7.36702 247.56C10.3997 248.502 13.6117 248.717 16.7427 248.186C18.2305 254.985 20.1868 261.673 22.5976 268.202L23.367 270.158C22.6771 269.245 21.9325 268.374 21.1372 267.55C18.7248 265.047 15.9212 263.391 13.0133 265.464C9.45341 268.072 10.4053 273.549 15.8821 274.774C18.9047 275.386 22.0273 275.297 25.01 274.514C25.2839 275.179 25.5577 275.818 25.8837 276.496C27.1877 279.182 28.3483 281.933 29.7174 284.567L30.8519 286.849C30.1738 286.263 29.4697 285.702 28.7394 285.18C25.8967 283.185 22.8193 282.09 20.3678 284.659C17.3426 287.827 19.2985 293.095 24.9318 293.265C27.8645 293.333 30.7763 292.755 33.4599 291.57C35.0769 294.491 36.7329 297.373 38.5324 300.202C39.1975 301.285 39.8364 302.354 40.5927 303.423C39.5698 302.488 38.4897 301.617 37.3588 300.815C34.5161 298.82 31.4387 297.725 28.9742 300.294C25.9619 303.462 27.9179 308.73 33.5512 308.9C36.7709 308.939 39.9535 308.21 42.8356 306.774C43.7745 308.078 44.7394 309.382 45.7305 310.686C43.6311 313.125 44.3222 317.206 48.5862 319.071C50.6572 319.934 52.8645 320.424 55.1062 320.518C55.367 320.727 55.6278 320.936 55.9147 321.131L56.0451 321.236C58.74 331.302 61.9347 341.221 65.6294 350.993C67.1942 355.152 68.8763 359.273 70.6106 363.368H54.9627V425.073H102.78V363.315H77.3262C75.1485 358.556 73.0491 353.744 71.0931 348.88C67.8983 340.9 65.0035 332.789 62.4868 324.561C62.915 324.687 63.3505 324.787 63.7908 324.861C64.3699 324.978 64.9639 325.005 65.5512 324.939L64.8731 320.649H64.4167C64.1447 320.61 63.8749 320.558 63.6082 320.492C63.0058 320.32 62.4173 320.102 61.8478 319.84L61.1697 319.527C63.6864 318.65 66.0235 317.325 68.0679 315.615C72.5927 311.703 71.3148 306.357 67.0899 305.901C63.6734 305.522 61.7435 308.417 60.5699 311.847C60.2178 312.825 59.9309 313.842 59.6832 314.833C59.4354 313.92 59.1877 313.007 58.953 312.095C58.2618 309.395 57.649 306.67 57.023 303.945C59.7542 303.093 62.2924 301.715 64.4949 299.889C69.0198 295.977 67.7288 290.644 63.5169 290.188C60.0874 289.809 58.1706 292.704 56.997 296.134C56.6449 297.125 56.345 298.155 56.0842 299.172C55.693 297.19 55.3148 295.195 54.9627 293.2C54.715 291.726 54.4803 290.24 54.2586 288.753C54.1803 286.641 54.1412 284.528 54.1673 282.403C54.1673 281.242 54.1673 280.082 54.2716 278.921C56.8282 279.729 59.5095 280.069 62.1869 279.925C68.1331 279.534 70.3238 274.448 67.2203 271.567C64.6905 269.206 61.4175 270.38 58.3792 272.388C57.0167 273.314 55.7104 274.32 54.4672 275.4C54.8334 270.437 55.5877 265.51 56.7231 260.665C57.3885 257.811 58.2202 254.998 59.2138 252.241C61.9403 253.181 64.823 253.584 67.7027 253.428C73.6489 253.05 75.8397 247.964 72.7362 245.069C70.2195 242.722 66.9334 243.883 63.8951 245.904C62.8345 246.633 61.8158 247.421 60.8437 248.264C61.9904 245.567 63.3237 242.952 64.834 240.44C67.8291 235.372 71.5849 230.794 75.97 226.866C78.2425 228.962 80.9304 230.557 83.8592 231.547C89.5185 233.399 93.4435 229.487 91.6832 225.653C90.2096 222.536 86.741 222.393 83.1681 223.136C81.7912 223.43 80.4327 223.805 79.0996 224.258L79.1909 224.179C84.0568 220.383 89.3003 217.097 94.8388 214.373C96.7928 216.932 99.2744 219.04 102.115 220.554C107.409 223.28 111.908 220.046 110.734 215.977C109.783 212.665 106.379 211.974 102.741 212.065C101.312 212.143 99.8885 212.3 98.477 212.535C104.358 209.757 110.356 207.136 116.146 204.072H116.276C118.868 206.31 121.944 207.916 125.261 208.766C131.038 210.201 134.663 206.002 132.576 202.246C130.881 199.247 127.36 199.378 123.905 200.369C122.927 200.655 121.949 201.008 120.997 201.373C124.863 199.125 128.611 196.679 132.224 194.044L132.524 194.37V194.201C135.142 196.458 138.242 198.087 141.587 198.96C147.351 200.382 150.989 196.196 148.902 192.44C147.259 189.611 143.791 189.728 140.283 190.732ZM49.1078 308.887C47.9212 307.505 46.7997 306.057 45.7044 304.597C45.9652 304.362 46.2521 304.101 46.5389 303.814C48.1684 304.322 49.8549 304.624 51.5593 304.714V304.988L52.3547 304.818C52.772 306.879 53.2023 308.926 53.6587 310.973C53.1288 310.28 52.4368 309.727 51.6433 309.363C50.8498 308.999 49.9792 308.836 49.1078 308.887ZM53.3588 259.792C52.9546 261.33 52.6156 262.869 52.2896 264.421L52.094 264.147C52.094 260.965 52.1418 257.792 52.2374 254.628C52.3287 252.411 52.4851 250.207 52.6807 247.99C53.7536 249.083 54.9331 250.066 56.2015 250.924C55.0979 253.826 54.1532 256.787 53.3719 259.792H53.3588ZM58.7052 245.187C58.7834 244.613 58.8486 244.026 58.8747 243.452V242.579C59.3441 242.435 59.8266 242.266 60.2961 242.07C59.7745 243.1 59.2268 244.144 58.7182 245.187H58.7052ZM65.499 234.168C65.2737 233.652 64.946 233.187 64.5358 232.802C64.1257 232.416 63.6415 232.118 63.1127 231.925C59.8918 230.621 57.2838 232.968 55.2105 235.968L55.1062 236.111H54.8975C54.6789 236.062 54.4564 236.031 54.2325 236.02C54.2171 235.837 54.2485 235.653 54.3238 235.485C55.1494 230.774 56.2642 226.119 57.662 221.545C60.6555 221.925 63.695 221.69 66.5944 220.854C68.3857 220.384 69.9437 219.276 70.9758 217.738C71.5497 220.367 72.6449 222.854 74.1966 225.053C70.9886 227.782 68.0776 230.841 65.512 234.181L65.499 234.168Z" fill="white"/>
<path d="M461.811 368.179C461.811 368.179 455.5 354.083 453.987 352.636C452.474 351.188 440.386 346.807 437.035 335.684C433.684 324.561 427.32 294.869 443.359 296.812C459.398 298.755 455.5 329.855 461.328 328.877C467.157 327.899 456.478 278.361 466.675 271.502C476.872 264.643 493.394 271.019 491.451 297.255C489.508 323.492 485.622 338.54 489.025 337.092C492.429 335.645 502.143 330.285 502.143 341.461C502.143 352.636 492.911 360.408 487.565 360.89C482.218 361.373 479.741 361.868 479.741 361.868V369.144L461.811 368.179Z" fill="#2E353A" stroke="#2E353A" stroke-linecap="round" stroke-linejoin="round"/>
<path d="M456.674 340.861C453.01 337.392 449.646 334.028 448.094 330.937C445.016 324.769 442.695 307.465 442.695 307.465" stroke="white" stroke-width="0.5" stroke-linecap="round" stroke-linejoin="round"/>
<path d="M437.227 315.916C439.652 326.021 439.991 333.637 447.319 342.504C451.231 347.303 461.585 351.371 462.746 355.609C463.784 360.708 464.563 365.857 465.08 371.035L470.87 371.426C470.87 371.426 472.043 361.386 468.731 354.227" stroke="white" stroke-width="0.5" stroke-linecap="round" stroke-linejoin="round"/>
<path d="M438.848 299.707C438.848 299.707 434.519 303.032 436.057 311.221" stroke="white" stroke-width="0.5" stroke-linecap="round" stroke-linejoin="round"/>
<path d="M466.58 329.529L464.285 333.246" stroke="white" stroke-width="0.5" stroke-linecap="round" stroke-linejoin="round"/>
<path d="M467.374 328.238L466.578 329.529" stroke="white" stroke-width="0.5" stroke-linecap="round" stroke-linejoin="round"/>
<path d="M475.078 272.714C475.078 272.714 466.211 272.336 466.211 280.812C466.211 287.971 468.402 312.408 467.932 323.583" stroke="white" stroke-width="0.5" stroke-linecap="round" stroke-linejoin="round"/>
<path d="M482.035 342.152C481.827 345.06 481.696 347.12 481.696 347.903C481.696 352.141 492.48 335.945 497.501 335.567C497.501 335.567 502.508 335.176 500.578 344.434C499.876 347.871 498.249 351.051 495.873 353.631C493.497 356.212 490.462 358.095 487.095 359.078C482.844 360.238 479.375 358.308 478.606 360.238C477.992 362.507 477.603 364.831 477.445 367.176" stroke="white" stroke-width="0.5" stroke-linecap="round" stroke-linejoin="round"/>
<path d="M484.551 280.76C485.221 283.556 485.537 286.426 485.49 289.301C485.49 298.325 483.769 319.606 482.621 333.976" stroke="white" stroke-width="0.5" stroke-linecap="round" stroke-linejoin="round"/>
<path d="M480.09 273.497C481.248 274.16 482.186 275.148 482.789 276.339" stroke="white" stroke-width="0.5" stroke-linecap="round" stroke-linejoin="round"/>
<path d="M473.817 339.804L473.543 345.203" stroke="white" stroke-width="0.5" stroke-linecap="round" stroke-linejoin="round"/>
<path d="M475.854 278.112C475.854 278.112 473.546 278.882 474.316 286.979C474.954 293.669 474.316 324.039 474.016 334.406" stroke="white" stroke-width="0.5" stroke-linecap="round" stroke-linejoin="round"/>
<path d="M500.149 337.875C496.842 344.063 491.545 348.956 485.114 351.762C474.682 356 474.317 354.07 474.317 358.282C474.317 362.494 473.926 370.24 473.926 370.24" stroke="white" stroke-width="0.5" stroke-linecap="round" stroke-linejoin="round"/>
<path d="M485.684 425.034H451.988L444.777 376.225H492.895L485.684 425.034Z" fill="#C971FF" stroke="#2E353A" stroke-linecap="round" stroke-linejoin="round"/>
<path d="M497.029 368.532H440.645V381.598H497.029V368.532Z" fill="#C971FF" stroke="#2E353A" stroke-linecap="round" stroke-linejoin="round"/>
<path d="M300.67 392.173V365.676H222.64V392.173C222.627 400.804 219.705 409.179 214.346 415.945L210.93 420.248H312.38L308.964 415.945C303.605 409.179 300.683 400.804 300.67 392.173Z" fill="white" stroke="#2E353A" stroke-linecap="round" stroke-linejoin="round"/>
<path d="M217.84 410.729H305.468C302.322 405.05 300.671 398.665 300.669 392.173V365.676H222.639V392.173C222.637 398.665 220.986 405.05 217.84 410.729Z" fill="#C971FF"/>
<path d="M407.401 138.807H115.894C109.787 138.807 104.836 143.758 104.836 149.865V362.976C104.836 369.084 109.787 374.034 115.894 374.034H407.401C413.508 374.034 418.459 369.084 418.459 362.976V149.865C418.459 143.758 413.508 138.807 407.401 138.807Z" fill="#2E353A" stroke="#2E353A" stroke-linecap="round" stroke-linejoin="round"/>
<path d="M104.836 337.47H418.472V362.963C418.472 365.896 417.307 368.709 415.233 370.782C413.16 372.856 410.347 374.021 407.414 374.021H115.907C112.974 374.021 110.161 372.856 108.088 370.782C106.014 368.709 104.849 365.896 104.849 362.963V337.47H104.836Z" fill="white" stroke="#2E353A" stroke-linecap="round" stroke-linejoin="round"/>
<path d="M402.693 153.451H120.613V319.632H402.693V153.451Z" fill="white" stroke="#2E353A" stroke-linecap="round" stroke-linejoin="round"/>
<path d="M267.443 355.752C267.443 354.607 267.103 353.488 266.467 352.536C265.831 351.583 264.927 350.841 263.869 350.403C262.811 349.965 261.647 349.85 260.523 350.074C259.4 350.297 258.369 350.848 257.559 351.658C256.749 352.468 256.198 353.499 255.975 354.623C255.751 355.746 255.866 356.91 256.304 357.968C256.742 359.026 257.484 359.93 258.436 360.566C259.389 361.202 260.508 361.542 261.653 361.542C263.189 361.542 264.661 360.932 265.747 359.846C266.833 358.76 267.443 357.288 267.443 355.752Z" fill="#2E353A" stroke="#2E353A" stroke-linecap="round" stroke-linejoin="round"/>
<path d="M312.393 420.3H210.93V425.033H312.393V420.3Z" fill="white" stroke="#2E353A" stroke-linecap="round" stroke-linejoin="round"/>
<path d="M400.048 165.161H122.832V179.727H400.048V165.161Z" fill="white" stroke="#2E353A" stroke-linecap="round" stroke-linejoin="round"/>
<path d="M168.576 179.727L165.251 170.729H122.832V179.727V191.658V312.551H400.048V179.727H168.576Z" fill="#C971FF" stroke="#2E353A" stroke-linecap="round" stroke-linejoin="round"/>
<path d="M197.441 245.591H327.423" stroke="#2E353A" stroke-width="2" stroke-linecap="round" stroke-linejoin="round"/>
<path d="M197.441 258.37H327.423" stroke="#2E353A" stroke-width="2" stroke-linecap="round" stroke-linejoin="round"/>
<path d="M197.441 271.149H327.423" stroke="#2E353A" stroke-width="2" stroke-linecap="round" stroke-linejoin="round"/>
<path d="M197.441 283.941H327.423" stroke="#2E353A" stroke-width="2" stroke-linecap="round" stroke-linejoin="round"/>
<path d="M320.554 211.518H202.765C201.552 211.519 200.352 211.282 199.231 210.82C198.11 210.358 197.091 209.679 196.233 208.823C195.374 207.967 194.693 206.95 194.227 205.831C193.762 204.711 193.521 203.511 193.52 202.299C193.518 201.086 193.755 199.885 194.217 198.765C194.68 197.644 195.358 196.625 196.214 195.767C197.07 194.908 198.087 194.227 199.207 193.761C200.326 193.295 201.526 193.055 202.739 193.053H320.554C321.769 193.052 322.972 193.289 324.095 193.753C325.217 194.217 326.237 194.898 327.096 195.757C327.955 196.616 328.636 197.636 329.1 198.758C329.564 199.881 329.802 201.084 329.8 202.299C329.798 203.511 329.558 204.711 329.092 205.831C328.627 206.95 327.945 207.967 327.087 208.823C326.228 209.679 325.209 210.358 324.089 210.82C322.968 211.282 321.767 211.519 320.554 211.518Z" fill="white" stroke="#2E353A" stroke-linecap="round" stroke-linejoin="round"/>
<path d="M320.556 211.517H304.465V193.027H320.556C321.771 193.025 322.974 193.263 324.096 193.727C325.219 194.191 326.239 194.872 327.097 195.731C327.956 196.59 328.637 197.61 329.101 198.732C329.565 199.855 329.803 201.058 329.801 202.272C329.803 203.487 329.565 204.69 329.101 205.812C328.637 206.935 327.956 207.955 327.097 208.813C326.239 209.672 325.219 210.353 324.096 210.817C322.974 211.281 321.771 211.519 320.556 211.517Z" fill="#2E353A" stroke="#2E353A" stroke-linecap="round" stroke-linejoin="round"/>
<path d="M316.971 195.374C316.205 194.656 315.243 194.182 314.207 194.011C313.171 193.84 312.108 193.98 311.152 194.413C310.195 194.847 309.389 195.554 308.835 196.445C308.281 197.337 308.003 198.373 308.038 199.422C308.073 200.472 308.418 201.487 309.03 202.34C309.642 203.194 310.493 203.846 311.476 204.215C312.458 204.585 313.529 204.654 314.551 204.415C315.573 204.176 316.502 203.639 317.219 202.872C317.697 202.366 318.07 201.771 318.317 201.12C318.563 200.469 318.679 199.776 318.657 199.081C318.636 198.385 318.477 197.701 318.189 197.067C317.902 196.433 317.493 195.862 316.984 195.387L316.971 195.374ZM316.449 202.155C315.874 202.766 315.13 203.193 314.311 203.382C313.493 203.571 312.637 203.513 311.851 203.216C311.066 202.919 310.386 202.396 309.897 201.713C309.409 201.03 309.134 200.217 309.106 199.378C309.079 198.539 309.301 197.71 309.744 196.997C310.188 196.283 310.832 195.717 311.597 195.37C312.361 195.022 313.212 194.909 314.041 195.045C314.869 195.18 315.64 195.558 316.254 196.131C317.078 196.904 317.562 197.973 317.599 199.102C317.635 200.232 317.222 201.33 316.449 202.155Z" fill="white"/>
<path d="M320.956 204.802C320.839 204.688 320.692 204.611 320.533 204.578C320.373 204.546 320.207 204.56 320.056 204.62L318.139 202.82C318.041 202.724 317.91 202.671 317.774 202.671C317.637 202.671 317.506 202.724 317.409 202.82L317.239 203.003C317.146 203.104 317.094 203.236 317.094 203.374C317.094 203.512 317.146 203.645 317.239 203.746L319.13 205.519C319.074 205.681 319.065 205.855 319.104 206.021C319.144 206.187 319.229 206.339 319.352 206.458L322.612 209.653C322.827 209.866 323.117 209.986 323.42 209.986C323.723 209.986 324.014 209.866 324.229 209.653C324.442 209.438 324.562 209.147 324.562 208.844C324.562 208.542 324.442 208.251 324.229 208.036L320.956 204.802Z" fill="white"/>
<path d="M354.64 267.289C355.021 268.234 355.588 269.092 356.307 269.813C357.026 270.535 357.883 271.104 358.826 271.488C360.299 272.088 362.268 271.957 364.537 273.235C369.662 276.117 382.454 273.548 391.726 274.539C400.997 275.53 413.489 265.268 413.489 265.268L450.275 267.289V230.777C450.275 230.777 411.885 232.381 403.566 229.173C395.246 225.966 385.975 219.263 381.815 219.576C377.656 219.889 343.426 223.736 343.426 223.736L354.627 267.289H354.64Z" fill="white" stroke="#2E353A" stroke-linecap="round" stroke-linejoin="round"/>
<path d="M345.121 120.069C337.525 120.91 330.35 123.984 324.502 128.903C318.654 133.821 314.395 140.364 312.265 147.703C310.136 155.042 310.23 162.847 312.536 170.133C314.843 177.418 319.258 183.856 325.223 188.632C331.188 193.409 338.436 196.309 346.049 196.966C353.662 197.623 361.3 196.008 367.995 192.324C374.691 188.641 380.144 183.055 383.664 176.272C387.185 169.49 388.615 161.816 387.774 154.22C387.219 149.176 385.675 144.29 383.231 139.843C380.786 135.396 377.489 131.474 373.527 128.302C369.566 125.13 365.018 122.771 360.144 121.358C355.269 119.945 350.164 119.507 345.121 120.069ZM352.788 189.285C346.695 189.962 340.539 188.817 335.096 185.994C329.654 183.172 325.171 178.8 322.214 173.43C319.257 168.06 317.959 161.933 318.484 155.825C319.008 149.717 321.332 143.902 325.162 139.115C328.992 134.328 334.155 130.784 339.999 128.932C345.842 127.079 352.104 127.001 357.992 128.707C363.88 130.413 369.13 133.827 373.078 138.517C377.026 143.207 379.495 148.962 380.172 155.055C380.622 159.101 380.27 163.195 379.137 167.105C378.004 171.015 376.112 174.663 373.57 177.841C371.027 181.02 367.883 183.666 364.317 185.63C360.751 187.593 356.834 188.835 352.788 189.285Z" fill="white" stroke="#2E353A" stroke-linecap="round" stroke-linejoin="round"/>
<path d="M344.914 117.864C337.318 118.704 330.143 121.779 324.295 126.697C318.447 131.616 314.188 138.159 312.058 145.498C309.929 152.837 310.023 160.642 312.329 167.928C314.636 175.213 319.05 181.651 325.016 186.427C330.981 191.203 338.229 194.103 345.842 194.761C353.455 195.418 361.093 193.802 367.788 190.119C374.484 186.436 379.936 180.85 383.457 174.067C386.978 167.285 388.408 159.611 387.567 152.015C386.437 141.832 381.308 132.514 373.31 126.11C365.312 119.706 355.098 116.74 344.914 117.864ZM352.581 187.08C346.488 187.756 340.332 186.611 334.889 183.789C329.447 180.967 324.964 176.594 322.007 171.224C319.05 165.854 317.752 159.728 318.277 153.62C318.801 147.512 321.125 141.697 324.955 136.91C328.785 132.123 333.948 128.579 339.792 126.727C345.635 124.874 351.897 124.796 357.785 126.502C363.673 128.208 368.923 131.622 372.871 136.312C376.819 141.002 379.288 146.757 379.965 152.85C380.415 156.895 380.063 160.99 378.93 164.9C377.797 168.809 375.905 172.458 373.363 175.636C370.82 178.815 367.676 181.461 364.11 183.425C360.544 185.388 356.627 186.63 352.581 187.08Z" fill="white" stroke="#2E353A" stroke-linecap="round" stroke-linejoin="round"/>
<path d="M354.689 195.387L352.862 195.589C350.8 195.817 349.314 197.674 349.542 199.735L352.508 226.512C352.736 228.573 354.593 230.059 356.654 229.831L358.482 229.629C360.543 229.4 362.029 227.544 361.801 225.483L358.835 198.706C358.607 196.644 356.751 195.158 354.689 195.387Z" fill="#C971FF" stroke="#2E353A" stroke-linecap="round" stroke-linejoin="round"/>
<path d="M354.093 217.737L358.005 217.32C359.687 217.14 361.372 217.63 362.695 218.685C364.019 219.739 364.873 221.273 365.072 222.953L370.927 275.908C371.165 278.073 370.534 280.244 369.172 281.943C367.81 283.642 365.829 284.732 363.664 284.971H363.403C362.331 285.09 361.246 284.997 360.21 284.697C359.173 284.396 358.207 283.894 357.365 283.22C356.523 282.545 355.823 281.711 355.304 280.765C354.785 279.819 354.457 278.78 354.34 277.708L348.485 224.766C348.391 223.927 348.463 223.078 348.697 222.268C348.932 221.457 349.323 220.701 349.85 220.042C350.377 219.383 351.029 218.835 351.768 218.428C352.507 218.021 353.319 217.764 354.158 217.672L354.093 217.737Z" fill="#2E353A" stroke="#2E353A" stroke-linecap="round" stroke-linejoin="round"/>
<path d="M359.773 261.864C359.773 261.864 350.501 262.203 349.197 263.807C347.893 265.411 348.128 270.992 350.645 271.631C357.061 273.313 370.7 272.335 371.235 271.187C371.77 270.04 372.865 263.363 370.048 262.646C366.648 262.125 363.213 261.864 359.773 261.864Z" fill="white" stroke="#2E353A" stroke-linecap="round" stroke-linejoin="round"/>
<path d="M357.103 248.928C357.103 248.928 346.319 248.524 344.637 250.467C342.954 252.41 342.628 259.673 345.471 260.769C352.721 263.546 369.034 262.464 369.777 261.03C370.521 259.595 372.138 252.149 368.943 250.95C365.748 249.75 357.103 248.928 357.103 248.928Z" fill="white" stroke="#2E353A" stroke-linecap="round" stroke-linejoin="round"/>
<path d="M355.551 234.324C355.551 234.324 344.024 233.88 342.224 235.967C340.425 238.053 340.072 245.799 343.111 246.972C350.935 249.945 367.887 249.945 368.682 248.407C369.478 246.868 371.616 237.766 368.2 236.475C364.783 235.184 355.551 234.324 355.551 234.324Z" fill="white" stroke="#2E353A" stroke-linecap="round" stroke-linejoin="round"/>
<path d="M348.903 220.658C348.903 220.658 337.376 220.228 335.576 222.301C333.777 224.374 333.346 232.368 336.463 233.307C339.579 234.246 361.239 236.28 362.034 234.754C362.829 233.229 364.968 224.101 361.552 222.81C358.135 221.519 348.903 220.658 348.903 220.658Z" fill="white" stroke="#2E353A" stroke-linecap="round" stroke-linejoin="round"/>
<path d="M386.652 259.008C384.583 258.439 382.622 257.531 380.85 256.322C371.578 249.919 371.891 235.21 371.891 235.21L369.661 234.571C367.82 233.87 366.092 232.899 364.537 231.689C365.283 234.728 365.72 237.834 365.841 240.961C365.807 242.679 365.136 244.323 363.957 245.574C362.779 246.825 361.177 247.593 359.464 247.729C356.582 248.055 355.304 248.367 354.339 244.534C353.375 240.7 348.589 225.339 348.263 223.096C347.976 221.062 351.392 217.437 356.83 216.576C365.189 217.254 373.43 219.588 381.854 219.588C384.785 219.863 387.594 220.897 390.004 222.588" fill="white"/>
<path d="M386.652 259.008C384.583 258.439 382.622 257.531 380.85 256.322C371.578 249.919 371.891 235.21 371.891 235.21L369.661 234.571C367.82 233.87 366.092 232.899 364.537 231.689C365.283 234.728 365.72 237.834 365.841 240.961C365.807 242.679 365.136 244.323 363.957 245.574C362.779 246.825 361.177 247.593 359.464 247.729C356.582 248.055 355.304 248.367 354.339 244.534C353.375 240.7 348.589 225.339 348.263 223.096C347.976 221.062 351.392 217.437 356.83 216.576C365.189 217.254 373.43 219.588 381.854 219.588C384.785 219.863 387.594 220.897 390.004 222.588" stroke="#2E353A" stroke-linecap="round" stroke-linejoin="round"/>
<path d="M395.461 259.817C394.445 259.868 393.427 259.868 392.41 259.817H395.461Z" fill="white"/>
<path d="M395.461 259.817C394.445 259.868 393.427 259.868 392.41 259.817" stroke="#2E353A" stroke-linecap="round" stroke-linejoin="round"/>
<path d="M402.281 258.552C400.067 259.252 397.778 259.69 395.461 259.856L402.281 258.552Z" fill="white"/>
<path d="M402.281 258.552C400.067 259.252 397.778 259.69 395.461 259.856" stroke="#2E353A" stroke-linecap="round" stroke-linejoin="round"/>
<path d="M413.801 254.405H425.315" stroke="#2E353A" stroke-linecap="round" stroke-linejoin="round"/>
<path d="M414.766 257.6H419.564" stroke="#2E353A" stroke-linecap="round" stroke-linejoin="round"/>
<path d="M371.891 235.211C371.891 235.211 378.254 235.211 382.427 231.416" stroke="#2E353A" stroke-linecap="round" stroke-linejoin="round"/>
<path d="M364.387 231.273C364.204 229.536 363.841 227.823 363.305 226.161" stroke="#2E353A" stroke-linecap="round" stroke-linejoin="round"/>
<path d="M354.251 242.852C354.251 242.852 353.038 239.488 354.511 238.275C355.985 237.062 359.897 235.315 360.575 236.658C361.253 238.001 362.726 244.195 362.322 245.408L361.918 246.621" stroke="#2E353A" stroke-width="0.5" stroke-linecap="round" stroke-linejoin="round"/>
<path d="M531.003 283.654H420.75V229.46H531.003" fill="#C971FF"/>
<path d="M531.003 283.654H420.75V229.46H531.003" stroke="#2E353A" stroke-linecap="round" stroke-linejoin="round"/>
<path d="M428.833 280.029C430.201 280.029 431.311 278.92 431.311 277.551C431.311 276.183 430.201 275.074 428.833 275.074C427.465 275.074 426.355 276.183 426.355 277.551C426.355 278.92 427.465 280.029 428.833 280.029Z" fill="white" stroke="#2E353A" stroke-linecap="round" stroke-linejoin="round"/>
<path d="M253.618 177.848C254.563 177.467 255.421 176.9 256.143 176.181C256.864 175.462 257.433 174.605 257.817 173.662C258.417 172.188 258.273 170.233 259.564 167.951C262.433 162.839 259.877 150.047 260.868 140.762C261.859 131.478 251.584 119.012 251.584 119.012L253.579 82.2261H217.067C217.067 82.2261 218.658 120.616 215.463 128.922C212.269 137.228 205.553 146.526 205.866 150.686C206.179 154.845 210.052 189.049 210.052 189.049L253.553 177.848H253.618Z" fill="white" stroke="#2E353A" stroke-linecap="round" stroke-linejoin="round"/>
<path d="M106.487 187.341C107.322 194.937 110.391 202.115 115.305 207.967C120.22 213.819 126.76 218.082 134.097 220.217C141.435 222.352 149.241 222.263 156.528 219.962C163.816 217.66 170.257 213.25 175.037 207.287C179.817 201.325 182.722 194.079 183.384 186.466C184.047 178.853 182.436 171.214 178.757 164.516C175.078 157.818 169.495 152.362 162.714 148.837C155.934 145.312 148.26 143.877 140.664 144.713H140.573C130.405 145.857 121.106 150.987 114.715 158.978C108.325 166.97 105.366 177.17 106.487 187.341ZM175.598 179.66C176.277 185.755 175.134 191.915 172.312 197.36C169.491 202.805 165.118 207.292 159.747 210.252C154.376 213.212 148.247 214.513 142.137 213.99C136.026 213.467 130.208 211.144 125.418 207.315C120.627 203.486 117.08 198.322 115.225 192.477C113.369 186.631 113.288 180.367 114.993 174.476C116.697 168.584 120.11 163.331 124.801 159.379C129.491 155.428 135.247 152.956 141.342 152.276C149.516 151.368 157.715 153.742 164.139 158.877C170.562 164.012 174.684 171.487 175.598 179.66Z" fill="white" stroke="#2E353A" stroke-linecap="round" stroke-linejoin="round"/>
<path d="M104.236 187.576C105.079 195.167 108.154 202.338 113.072 208.182C117.989 214.026 124.53 218.281 131.865 220.409C139.201 222.536 147.003 222.441 154.285 220.135C161.566 217.829 168.001 213.416 172.775 207.454C177.549 201.492 180.448 194.248 181.105 186.638C181.763 179.028 180.149 171.394 176.469 164.702C172.788 158.009 167.206 152.557 160.428 149.037C153.649 145.516 145.979 144.084 138.387 144.922C133.344 145.479 128.459 147.024 124.013 149.469C119.566 151.914 115.645 155.211 112.474 159.173C109.302 163.134 106.942 167.681 105.529 172.554C104.115 177.428 103.676 182.532 104.236 187.576ZM173.452 179.921C174.129 186.014 172.984 192.171 170.161 197.613C167.339 203.055 162.967 207.538 157.597 210.495C152.227 213.452 146.1 214.75 139.992 214.226C133.885 213.701 128.069 211.377 123.282 207.547C118.495 203.718 114.952 198.555 113.099 192.711C111.246 186.867 111.168 180.605 112.874 174.717C114.58 168.829 117.994 163.579 122.684 159.631C127.374 155.683 133.129 153.214 139.222 152.537C143.268 152.088 147.362 152.439 151.272 153.572C155.182 154.705 158.83 156.597 162.008 159.14C165.187 161.683 167.834 164.827 169.797 168.392C171.76 171.958 173.002 175.876 173.452 179.921Z" fill="white" stroke="#2E353A" stroke-linecap="round" stroke-linejoin="round"/>
<path d="M211.861 170.71L185.084 173.675C183.023 173.904 181.537 175.76 181.765 177.822L181.967 179.649C182.196 181.71 184.052 183.197 186.113 182.968L212.89 180.003C214.952 179.774 216.438 177.918 216.209 175.857L216.007 174.029C215.779 171.968 213.922 170.481 211.861 170.71Z" fill="#C971FF" stroke="#2E353A" stroke-linecap="round" stroke-linejoin="round"/>
<path d="M204.11 178.409L203.679 174.497C203.493 172.802 203.987 171.103 205.053 169.773C206.119 168.442 207.67 167.59 209.365 167.403L262.307 161.548C263.383 161.423 264.474 161.512 265.517 161.81C266.559 162.107 267.532 162.608 268.38 163.283C269.228 163.958 269.935 164.794 270.459 165.742C270.983 166.691 271.315 167.734 271.435 168.811V169.072C271.56 170.149 271.471 171.24 271.173 172.282C270.876 173.324 270.375 174.298 269.7 175.146C269.025 175.994 268.189 176.7 267.241 177.225C266.292 177.749 265.249 178.08 264.171 178.2L211.229 184.055C209.537 184.246 207.838 183.759 206.504 182.701C205.17 181.643 204.309 180.1 204.11 178.409Z" fill="#2E353A" stroke="#2E353A" stroke-linecap="round" stroke-linejoin="round"/>
<path d="M248.219 172.723C248.219 172.723 248.571 181.982 250.162 183.286C251.753 184.59 257.36 184.355 257.986 181.838C259.681 175.436 258.69 161.783 257.542 161.261C256.395 160.74 249.718 159.618 249.014 162.448C248.489 165.848 248.223 169.283 248.219 172.723Z" fill="white" stroke="#2E353A" stroke-linecap="round" stroke-linejoin="round"/>
<path d="M235.295 175.383C235.295 175.383 234.878 186.167 236.821 187.849C238.764 189.531 246.027 189.871 247.123 187.015C249.913 179.765 248.818 163.452 247.383 162.721C245.949 161.991 238.503 160.361 237.304 163.556C236.104 166.751 235.295 175.383 235.295 175.383Z" fill="white" stroke="#2E353A" stroke-linecap="round" stroke-linejoin="round"/>
<path d="M220.692 176.961C220.692 176.961 220.249 188.488 222.322 190.288C224.395 192.087 232.167 192.44 233.341 189.388C236.314 181.642 236.314 164.612 234.775 163.83C233.237 163.048 224.122 160.896 222.844 164.312C221.566 167.729 220.692 176.961 220.692 176.961Z" fill="white" stroke="#2E353A" stroke-linecap="round" stroke-linejoin="round"/>
<path d="M207.028 183.598C207.028 183.598 206.584 195.126 208.671 196.925C210.757 198.725 218.738 199.155 219.676 196.025C220.615 192.896 222.65 171.25 221.111 170.454C219.572 169.659 210.47 167.533 209.179 170.95C207.888 174.366 207.028 183.598 207.028 183.598Z" fill="white" stroke="#2E353A" stroke-linecap="round" stroke-linejoin="round"/>
<path d="M246.174 136.994C246.706 142.13 245.473 147.295 242.679 151.637C236.29 160.922 221.568 160.596 221.568 160.596L220.929 162.839C220.233 164.679 219.261 166.403 218.047 167.95C221.09 167.204 224.2 166.767 227.331 166.646C229.044 166.696 230.677 167.378 231.917 168.56C233.157 169.742 233.916 171.341 234.047 173.049C234.373 175.931 234.686 177.209 230.852 178.161C227.018 179.113 211.657 183.924 209.414 184.25C207.38 184.537 203.755 181.121 202.895 175.683C203.586 167.325 205.92 159.07 205.92 150.659C206.193 147.724 207.226 144.91 208.919 142.497" fill="white"/>
<path d="M246.174 136.994C246.706 142.13 245.473 147.295 242.679 151.637C236.29 160.922 221.568 160.596 221.568 160.596L220.929 162.839C220.233 164.679 219.261 166.403 218.047 167.95C221.09 167.204 224.2 166.767 227.331 166.646C229.044 166.696 230.677 167.378 231.917 168.56C233.157 169.742 233.916 171.341 234.047 173.049C234.373 175.931 234.686 177.209 230.852 178.161C227.018 179.113 211.657 183.924 209.414 184.25C207.38 184.537 203.755 181.121 202.895 175.683C203.586 167.325 205.92 159.07 205.92 150.659C206.193 147.724 207.226 144.91 208.919 142.497" stroke="#2E353A" stroke-linecap="round" stroke-linejoin="round"/>
<path d="M244.922 130.213C245.308 131.433 245.604 132.68 245.809 133.943L244.922 130.213Z" fill="white"/>
<path d="M244.922 130.213C245.308 131.433 245.604 132.68 245.809 133.943" stroke="#2E353A" stroke-linecap="round" stroke-linejoin="round"/>
<path d="M240.762 118.686V107.172" stroke="#2E353A" stroke-linecap="round" stroke-linejoin="round"/>
<path d="M243.957 117.734V112.935" stroke="#2E353A" stroke-linecap="round" stroke-linejoin="round"/>
<path d="M221.568 160.596C221.568 160.596 221.568 154.233 217.773 150.06" stroke="#2E353A" stroke-linecap="round" stroke-linejoin="round"/>
<path d="M217.639 168.107C215.903 168.286 214.19 168.644 212.527 169.176" stroke="#2E353A" stroke-linecap="round" stroke-linejoin="round"/>
<path d="M229.222 178.2C229.222 178.2 225.857 179.413 224.645 177.926C223.432 176.439 221.685 172.541 223.028 171.875C224.371 171.21 230.565 169.724 231.777 170.128L232.99 170.519" stroke="#2E353A" stroke-width="0.5" stroke-linecap="round" stroke-linejoin="round"/>
<path d="M270.023 1.48291V111.735H215.816V1.48291" fill="#C971FF"/>
<path d="M270.023 1.48291V111.735H215.816V1.48291" stroke="#2E353A" stroke-linecap="round" stroke-linejoin="round"/>
<path d="M263.903 106.128C265.272 106.128 266.381 105.019 266.381 103.65C266.381 102.282 265.272 101.173 263.903 101.173C262.535 101.173 261.426 102.282 261.426 103.65C261.426 105.019 262.535 106.128 263.903 106.128Z" fill="white" stroke="#2E353A" stroke-linecap="round" stroke-linejoin="round"/>
<path d="M199.071 374.216C198.692 375.162 198.126 376.021 197.407 376.743C196.687 377.465 195.83 378.033 194.885 378.415C193.412 379.028 191.456 378.885 189.174 380.163C184.062 383.044 171.27 380.489 161.985 381.467C152.701 382.445 140.235 372.195 140.235 372.195L103.41 374.216V337.705C103.41 337.705 141.8 339.308 150.119 336.114C158.439 332.919 167.71 326.19 171.87 326.516C176.029 326.842 210.259 330.676 210.259 330.676L199.071 374.216Z" fill="white" stroke="#2E353A" stroke-linecap="round" stroke-linejoin="round"/>
<path d="M208.525 227.074C216.12 227.915 223.296 230.989 229.144 235.907C234.992 240.826 239.25 247.369 241.38 254.708C243.51 262.047 243.416 269.852 241.11 277.138C238.803 284.423 234.388 290.861 228.423 295.637C222.458 300.413 215.21 303.314 207.597 303.971C199.983 304.628 192.346 303.013 185.65 299.329C178.955 295.646 173.502 290.06 169.982 283.277C166.461 276.495 165.031 268.821 165.871 261.225C166.999 251.044 172.125 241.727 180.121 235.325C188.118 228.923 198.33 225.959 208.512 227.087L208.525 227.074ZM200.857 296.29C206.953 296.969 213.112 295.825 218.557 293.004C224.003 290.182 228.489 285.81 231.449 280.439C234.409 275.067 235.71 268.939 235.188 262.829C234.665 256.718 232.342 250.9 228.513 246.109C224.683 241.319 219.519 237.772 213.674 235.916C207.829 234.06 201.564 233.98 195.673 235.684C189.782 237.389 184.528 240.802 180.577 245.492C176.625 250.182 174.153 255.939 173.474 262.034C172.565 270.207 174.94 278.407 180.075 284.83C185.209 291.254 192.685 295.376 200.857 296.29Z" fill="white" stroke="#2E353A" stroke-linecap="round" stroke-linejoin="round"/>
<path d="M208.759 224.87C216.351 225.713 223.522 228.788 229.367 233.707C235.211 238.626 239.465 245.167 241.592 252.503C243.719 259.84 243.623 267.642 241.316 274.924C239.009 282.206 234.594 288.64 228.63 293.413C222.667 298.186 215.422 301.084 207.811 301.74C200.201 302.395 192.567 300.78 185.875 297.098C179.183 293.415 173.733 287.831 170.214 281.051C166.695 274.271 165.265 266.601 166.106 259.008C166.664 253.966 168.21 249.083 170.656 244.638C173.102 240.193 176.399 236.273 180.36 233.103C184.321 229.933 188.868 227.574 193.741 226.161C198.613 224.749 203.717 224.31 208.759 224.87ZM201.092 294.086C207.187 294.765 213.346 293.621 218.792 290.8C224.237 287.978 228.723 283.606 231.683 278.235C234.644 272.863 235.944 266.735 235.422 260.625C234.899 254.514 232.576 248.696 228.747 243.905C224.917 239.115 219.754 235.568 213.908 233.712C208.063 231.857 201.799 231.776 195.907 233.48C190.016 235.185 184.763 238.598 180.811 243.288C176.86 247.978 174.388 253.735 173.708 259.83C172.803 268 175.18 276.194 180.315 282.613C185.449 289.031 192.923 293.149 201.092 294.06V294.086Z" fill="white" stroke="#2E353A" stroke-linecap="round" stroke-linejoin="round"/>
<path d="M194.824 305.713L191.859 332.49C191.63 334.551 193.116 336.407 195.178 336.636L197.005 336.838C199.067 337.066 200.923 335.58 201.152 333.519L204.117 306.742C204.345 304.68 202.859 302.824 200.798 302.596L198.97 302.393C196.909 302.165 195.053 303.651 194.824 305.713Z" fill="#C971FF" stroke="#2E353A" stroke-linecap="round" stroke-linejoin="round"/>
<path d="M190.291 392.029H190.031C188.953 391.911 187.909 391.58 186.959 391.056C186.01 390.533 185.173 389.826 184.498 388.978C183.822 388.129 183.322 387.155 183.025 386.112C182.728 385.069 182.64 383.978 182.767 382.901L188.622 329.959C188.713 329.119 188.969 328.306 189.375 327.565C189.781 326.824 190.329 326.171 190.988 325.643C191.648 325.115 192.404 324.722 193.216 324.487C194.027 324.252 194.877 324.179 195.716 324.273L199.628 324.704C201.323 324.891 202.874 325.743 203.94 327.073C205.006 328.404 205.5 330.103 205.313 331.797L199.459 384.805C199.337 385.881 199.004 386.923 198.48 387.871C197.955 388.819 197.249 389.654 196.401 390.329C195.553 391.004 194.58 391.505 193.539 391.803C192.497 392.101 191.407 392.191 190.331 392.068L190.291 392.029Z" fill="#2E353A" stroke="#2E353A" stroke-linecap="round" stroke-linejoin="round"/>
<path d="M193.856 368.857C193.856 368.857 203.114 369.209 204.418 370.8C205.722 372.391 205.488 377.985 202.971 378.624C196.568 380.319 182.916 379.328 182.394 378.18C181.872 377.033 180.751 370.356 183.581 369.639C186.981 369.118 190.416 368.857 193.856 368.857Z" fill="white" stroke="#2E353A" stroke-linecap="round" stroke-linejoin="round"/>
<path d="M196.567 355.961C196.567 355.961 207.351 355.543 209.033 357.486C210.715 359.429 211.054 366.692 208.198 367.788C200.948 370.565 184.635 369.483 183.905 368.049C183.175 366.614 181.545 359.168 184.74 357.969C187.934 356.769 196.567 355.961 196.567 355.961Z" fill="white" stroke="#2E353A" stroke-linecap="round" stroke-linejoin="round"/>
<path d="M198.146 341.315C198.146 341.315 209.674 340.885 211.473 342.958C213.273 345.032 213.625 352.804 210.586 353.964C202.762 356.95 185.81 356.937 185.015 355.411C184.22 353.886 182.081 344.758 185.497 343.467C188.914 342.176 198.146 341.315 198.146 341.315Z" fill="white" stroke="#2E353A" stroke-linecap="round" stroke-linejoin="round"/>
<path d="M204.78 327.664C204.78 327.664 216.307 327.22 218.107 329.294C219.906 331.367 220.337 339.374 217.207 340.313C214.077 341.251 192.431 343.273 191.636 341.747C190.84 340.221 188.715 331.093 192.131 329.815C195.548 328.538 204.78 327.664 204.78 327.664Z" fill="white" stroke="#2E353A" stroke-linecap="round" stroke-linejoin="round"/>
<path d="M159.949 366.874C164.497 367.053 168.987 365.809 172.794 363.315C182.078 356.912 181.752 342.203 181.752 342.203L183.995 341.564C185.835 340.868 187.559 339.897 189.106 338.682C188.36 341.721 187.923 344.827 187.802 347.954C187.852 349.667 188.533 351.302 189.715 352.544C190.897 353.786 192.496 354.548 194.205 354.682C197.087 354.995 198.365 355.321 199.33 351.474C200.295 347.628 205.08 332.28 205.406 330.05C205.732 327.82 202.277 324.377 196.839 323.53C188.481 324.221 180.226 326.555 171.816 326.555C168.882 326.829 166.07 327.858 163.653 329.541" fill="white"/>
<path d="M159.949 366.874C164.497 367.053 168.987 365.809 172.794 363.315C182.078 356.912 181.752 342.203 181.752 342.203L183.995 341.564C185.835 340.868 187.559 339.897 189.106 338.682C188.36 341.721 187.923 344.827 187.802 347.954C187.852 349.667 188.533 351.302 189.715 352.544C190.897 353.786 192.496 354.548 194.205 354.682C197.087 354.995 198.365 355.321 199.33 351.474C200.295 347.628 205.08 332.28 205.406 330.05C205.732 327.82 202.277 324.377 196.839 323.53C188.481 324.221 180.226 326.555 171.816 326.555C168.882 326.829 166.07 327.858 163.653 329.541" stroke="#2E353A" stroke-linecap="round" stroke-linejoin="round"/>
<path d="M151.398 365.558C153.222 366.118 155.095 366.498 156.993 366.692L151.398 365.558Z" fill="white"/>
<path d="M151.398 365.558C153.222 366.118 155.095 366.498 156.993 366.692" stroke="#2E353A" stroke-linecap="round" stroke-linejoin="round"/>
<path d="M139.874 361.398H128.359" stroke="#2E353A" stroke-linecap="round" stroke-linejoin="round"/>
<path d="M138.916 364.592H134.117" stroke="#2E353A" stroke-linecap="round" stroke-linejoin="round"/>
<path d="M181.786 342.203C181.786 342.203 175.423 342.203 171.25 338.408" stroke="#2E353A" stroke-linecap="round" stroke-linejoin="round"/>
<path d="M189.293 338.265C189.472 336.529 189.83 334.816 190.362 333.154" stroke="#2E353A" stroke-linecap="round" stroke-linejoin="round"/>
<path d="M199.386 349.844C199.386 349.844 200.599 346.48 199.113 345.267C197.626 344.054 193.727 342.307 193.062 343.65C192.397 344.993 190.91 351.2 191.315 352.4L191.719 353.613" stroke="#2E353A" stroke-width="0.5" stroke-linecap="round" stroke-linejoin="round"/>
<path d="M22.668 390.659H132.921V336.452H22.668" fill="#C971FF"/>
<path d="M22.668 390.659H132.921V336.452H22.668" stroke="#2E353A" stroke-linecap="round" stroke-linejoin="round"/>
<path d="M122.359 384.544C122.359 385.034 122.505 385.513 122.777 385.92C123.049 386.327 123.436 386.645 123.889 386.833C124.342 387.02 124.84 387.069 125.32 386.973C125.801 386.878 126.242 386.642 126.589 386.295C126.935 385.949 127.171 385.507 127.267 385.027C127.363 384.546 127.313 384.048 127.126 383.595C126.938 383.143 126.621 382.756 126.213 382.483C125.806 382.211 125.327 382.066 124.837 382.066C124.18 382.066 123.55 382.327 123.085 382.792C122.62 383.256 122.359 383.886 122.359 384.544Z" fill="white" stroke="#2E353A" stroke-linecap="round" stroke-linejoin="round"/>
</svg>
