<svg width="593" height="442" viewBox="0 0 593 442" fill="none" xmlns="http://www.w3.org/2000/svg">
<path d="M592.119 387.72H0V388.016H592.119V387.72Z" fill="#EBEBEB"/>
<path d="M194.914 405.981H155.692V406.277H194.914V405.981Z" fill="#EBEBEB"/>
<path d="M306.528 402.771H296.237V403.068H306.528V402.771Z" fill="#EBEBEB"/>
<path d="M84.8505 397.774H62.125V398.07H84.8505V397.774Z" fill="#EBEBEB"/>
<path d="M492.382 395.784H461.498V396.08H492.382V395.784Z" fill="#EBEBEB"/>
<path d="M450.946 395.784H423.188V396.08H450.946V395.784Z" fill="#EBEBEB"/>
<path d="M532.801 409.995H421.861V410.291H532.801V409.995Z" fill="#EBEBEB"/>
<path d="M280.665 334.903H52.0002C50.2088 334.9 48.4919 334.186 47.2264 332.918C45.9608 331.65 45.25 329.932 45.25 328.141V6.70279C45.2656 4.92173 45.9833 3.21874 47.2472 1.96373C48.511 0.708717 50.219 0.00305106 52.0002 0H280.665C282.458 0 284.178 0.712424 285.446 1.98055C286.714 3.24867 287.427 4.96861 287.427 6.762V328.141C287.427 329.934 286.714 331.654 285.446 332.922C284.178 334.19 282.458 334.903 280.665 334.903ZM52.0002 0.236849C50.2873 0.239986 48.6457 0.922599 47.4357 2.13486C46.2257 3.34712 45.5461 4.98997 45.5461 6.70279V328.141C45.5461 329.854 46.2257 331.496 47.4357 332.709C48.6457 333.921 50.2873 334.604 52.0002 334.607H280.665C282.379 334.604 284.022 333.921 285.233 332.709C286.445 331.497 287.128 329.855 287.131 328.141V6.70279C287.128 4.98888 286.445 3.34606 285.233 2.13414C284.022 0.922214 282.379 0.239979 280.665 0.236849H52.0002Z" fill="#EBEBEB"/>
<path d="M536.827 334.903H308.151C306.358 334.9 304.64 334.186 303.373 332.919C302.105 331.651 301.392 329.933 301.389 328.141V6.70279C301.407 4.92065 302.128 3.21767 303.393 1.96299C304.659 0.708303 306.368 0.00301778 308.151 0H536.827C538.606 0.00616337 540.311 0.713207 541.573 1.96788C542.834 3.22256 543.55 4.92377 543.565 6.70279V328.141C543.565 329.93 542.856 331.646 541.593 332.914C540.33 334.181 538.616 334.896 536.827 334.903ZM308.151 0.236849C306.437 0.239979 304.794 0.922214 303.582 2.13414C302.37 3.34606 301.688 4.98888 301.685 6.70279V328.141C301.688 329.855 302.37 331.497 303.582 332.709C304.794 333.921 306.437 334.604 308.151 334.607H536.827C538.541 334.604 540.184 333.921 541.396 332.709C542.608 331.497 543.29 329.855 543.293 328.141V6.70279C543.29 4.98888 542.608 3.34606 541.396 2.13414C540.184 0.922214 538.541 0.239979 536.827 0.236849H308.151Z" fill="#EBEBEB"/>
<path d="M377.298 384.191H405.187V262.167H377.298V384.191Z" fill="#F0F0F0"/>
<path d="M277.053 387.72H399.847V384.191H277.053V387.72Z" fill="#F0F0F0"/>
<path d="M377.298 262.167H271.688V384.191H377.298V262.167Z" fill="#F5F5F5"/>
<path d="M366.333 269.012H282.654V320.455H366.333V269.012Z" fill="#F0F0F0"/>
<path d="M366.333 325.902H282.654V377.346H366.333V325.902Z" fill="#F0F0F0"/>
<path d="M346.188 277.976H302.81C301.453 277.978 300.11 277.711 298.857 277.192C297.604 276.672 296.466 275.91 295.508 274.95C294.551 273.989 293.793 272.848 293.278 271.593C292.763 270.339 292.501 268.994 292.507 267.638H356.456C356.462 268.991 356.201 270.333 355.688 271.585C355.175 272.838 354.421 273.977 353.467 274.937C352.513 275.897 351.379 276.66 350.13 277.182C348.881 277.703 347.542 277.973 346.188 277.976Z" fill="#F5F5F5"/>
<path d="M346.189 334.867H302.81C300.081 334.867 297.463 333.783 295.533 331.853C293.603 329.923 292.519 327.306 292.519 324.576H356.468C356.468 327.303 355.385 329.919 353.458 331.849C351.531 333.778 348.916 334.864 346.189 334.867Z" fill="#F5F5F5"/>
<path d="M491.199 384.191H519.087V262.167H491.199V384.191Z" fill="#F0F0F0"/>
<path d="M390.941 387.72H513.734V384.191H390.941V387.72Z" fill="#F0F0F0"/>
<path d="M491.199 262.167H385.588V384.191H491.199V262.167Z" fill="#F5F5F5"/>
<path d="M480.233 269.012H396.554V320.455H480.233V269.012Z" fill="#F0F0F0"/>
<path d="M480.233 325.902H396.554V377.346H480.233V325.902Z" fill="#F0F0F0"/>
<path d="M460.077 277.976H416.698C413.969 277.976 411.351 276.892 409.421 274.962C407.491 273.032 406.407 270.415 406.407 267.685H470.356C470.356 270.413 469.274 273.028 467.346 274.958C465.419 276.888 462.804 277.973 460.077 277.976Z" fill="#F5F5F5"/>
<path d="M460.077 334.867H416.698C413.969 334.867 411.351 333.783 409.421 331.853C407.491 329.923 406.407 327.306 406.407 324.576H470.356C470.356 327.303 469.274 329.919 467.346 331.849C465.419 333.778 462.804 334.864 460.077 334.867Z" fill="#F5F5F5"/>
<path d="M131.948 98.2207H179.72V42.9997L131.948 42.9997V98.2207Z" fill="#E6E6E6"/>
<path d="M126.501 98.2207H178.441V42.9997L126.501 42.9997V98.2207Z" fill="#F5F5F5"/>
<path d="M174.083 93.8746V47.3577H130.846V93.8746H174.083Z" fill="white"/>
<path d="M163.614 82.6006V80.9071C163.611 75.0002 161.263 69.3362 157.087 65.1594C152.91 60.9826 147.246 58.6347 141.339 58.6316V60.3251C141.339 66.2329 143.686 71.8988 147.863 76.0762C152.041 80.2537 157.707 82.6006 163.614 82.6006Z" fill="#F5F5F5"/>
<path d="M339.45 202.446L519.099 202.446V34.4021L339.45 34.4021V202.446Z" fill="#E6E6E6"/>
<path d="M333.885 202.446L516.494 202.446V34.4021L333.885 34.4021V202.446Z" fill="#F0F0F0"/>
<path d="M339.45 208.438L519.099 208.438V202.446L339.45 202.446V208.438Z" fill="#E6E6E6"/>
<path d="M324.6 208.438L507.209 208.438V202.446L324.6 202.446V208.438Z" fill="#F0F0F0"/>
<path d="M508.69 193.422V43.426L341.665 43.426V193.422H508.69Z" fill="#FAFAFA"/>
<path d="M461.332 193.434L433.514 43.426H387.684L415.502 193.434H461.332Z" fill="white"/>
<path d="M505.09 142.535C505.248 142.523 505.395 142.449 505.499 142.329C505.603 142.21 505.656 142.054 505.647 141.895V49.2997C505.647 49.1521 505.588 49.0106 505.484 48.9062C505.379 48.8018 505.238 48.7432 505.09 48.7432C504.942 48.7432 504.801 48.8018 504.696 48.9062C504.592 49.0106 504.533 49.1521 504.533 49.2997V141.895C504.524 142.054 504.576 142.21 504.681 142.329C504.785 142.449 504.932 142.523 505.09 142.535Z" fill="#F0F0F0"/>
<path d="M405.649 193.434L377.843 43.426H359.973L387.779 193.434H405.649Z" fill="white"/>
<path d="M342.66 193.422V43.426H341.665V193.422H342.66Z" fill="#E6E6E6"/>
<path opacity="0.4" d="M332.037 54.9723H511.674L512.397 46.9431H332.748L332.037 54.9723Z" fill="#E6E6E6"/>
<path opacity="0.4" d="M332.037 64.2212H511.674L512.397 56.1802H332.748L332.037 64.2212Z" fill="#E6E6E6"/>
<path opacity="0.4" d="M332.037 73.4583H511.674L512.397 65.4292H332.748L332.037 73.4583Z" fill="#E6E6E6"/>
<path opacity="0.4" d="M332.037 82.7072H511.674L512.397 74.6663H332.748L332.037 82.7072Z" fill="#E6E6E6"/>
<path opacity="0.4" d="M332.037 91.9444H511.674L512.397 83.9153H332.748L332.037 91.9444Z" fill="#E6E6E6"/>
<path opacity="0.4" d="M332.037 101.193H511.674L512.397 93.1521H332.748L332.037 101.193Z" fill="#E6E6E6"/>
<path opacity="0.4" d="M332.037 110.43H511.674L512.397 102.401H332.748L332.037 110.43Z" fill="#E6E6E6"/>
<path opacity="0.4" d="M332.037 119.679H511.674L512.397 111.638H332.748L332.037 119.679Z" fill="#E6E6E6"/>
<path opacity="0.4" d="M332.037 128.916H511.674L512.397 120.887H332.748L332.037 128.916Z" fill="#E6E6E6"/>
<path d="M98.0787 188.306H135.347V145.543H98.0787V188.306Z" fill="#E6E6E6"/>
<path d="M93.8627 188.306H134.091V145.543H93.8627V188.306Z" fill="#F5F5F5"/>
<path d="M130.729 184.931V148.906H97.2382V184.931H130.729Z" fill="white"/>
<path d="M122.604 167.582V166.267C122.604 165.134 122.381 164.012 121.947 162.965C121.513 161.918 120.877 160.967 120.075 160.167C119.273 159.366 118.322 158.731 117.274 158.299C116.227 157.866 115.105 157.644 113.971 157.646C111.693 157.658 109.512 158.572 107.906 160.188C106.299 161.803 105.397 163.989 105.397 166.267V167.582C105.397 169.868 106.306 172.061 107.923 173.678C109.539 175.294 111.732 176.203 114.019 176.203C116.299 176.193 118.483 175.281 120.092 173.665C121.701 172.049 122.604 169.862 122.604 167.582Z" fill="#F5F5F5"/>
<path d="M191.03 172.982H242.201V114.03H191.03V172.982Z" fill="#E6E6E6"/>
<path d="M185.227 172.982H240.673V114.03H185.227V172.982Z" fill="#F5F5F5"/>
<path d="M236.031 168.351V118.696H189.869V168.351H236.031Z" fill="white"/>
<path d="M214.88 134.305L223.644 149.486C223.839 149.825 223.942 150.209 223.942 150.6C223.942 150.991 223.839 151.375 223.643 151.714C223.447 152.052 223.166 152.333 222.827 152.529C222.489 152.724 222.104 152.826 221.713 152.826H204.187C203.796 152.826 203.411 152.724 203.073 152.529C202.734 152.333 202.452 152.052 202.257 151.714C202.061 151.375 201.958 150.991 201.958 150.6C201.958 150.209 202.061 149.825 202.256 149.486L211.02 134.305C211.217 133.968 211.499 133.689 211.838 133.495C212.176 133.301 212.56 133.199 212.95 133.199C213.34 133.199 213.724 133.301 214.062 133.495C214.401 133.689 214.683 133.968 214.88 134.305Z" fill="#F5F5F5"/>
<path d="M106.605 387.708H134.731V299.032H106.605L106.605 387.708Z" fill="#E6E6E6"/>
<path d="M111.946 387.72H106.605V372.526H117.548L111.946 387.72Z" fill="#F0F0F0"/>
<path d="M211.706 387.708H239.832V299.032H211.706V387.708Z" fill="#E6E6E6"/>
<path d="M106.617 378.388H216.373V299.032H106.617L106.617 378.388Z" fill="#F0F0F0"/>
<path d="M110.75 304.018V359.405H159.695V304.018H110.75Z" fill="#E6E6E6"/>
<path d="M163.283 304.018V359.405H212.227V304.018H163.283Z" fill="#E6E6E6"/>
<path d="M182.917 308.269H192.593C194.671 308.275 196.728 307.859 198.64 307.044C200.552 306.23 202.278 305.035 203.713 303.532H171.738C173.179 305.043 174.915 306.243 176.837 307.058C178.76 307.873 180.829 308.285 182.917 308.269Z" fill="#F0F0F0"/>
<path d="M129.887 308.269H139.574C141.652 308.275 143.709 307.858 145.621 307.043C147.533 306.229 149.259 305.034 150.694 303.532H118.72C120.16 305.041 121.894 306.239 123.814 307.054C125.735 307.868 127.801 308.282 129.887 308.269Z" fill="#F0F0F0"/>
<path d="M211.032 387.72H216.373V372.526H205.43L211.032 387.72Z" fill="#F0F0F0"/>
<path d="M182.077 287.154C182.074 288.361 182.43 289.541 183.099 290.546C183.767 291.55 184.719 292.334 185.833 292.797C186.948 293.261 188.174 293.383 189.358 293.149C190.542 292.915 191.63 292.335 192.484 291.483C193.338 290.63 193.92 289.544 194.156 288.36C194.393 287.177 194.272 285.95 193.811 284.835C193.35 283.72 192.568 282.767 191.565 282.096C190.562 281.425 189.382 281.067 188.175 281.067C186.561 281.07 185.013 281.712 183.871 282.853C182.728 283.993 182.083 285.54 182.077 287.154Z" fill="#E0E0E0"/>
<path d="M190.935 289.286C194.296 289.286 197.022 286.561 197.022 283.199C197.022 279.837 194.296 277.112 190.935 277.112C187.573 277.112 184.848 279.837 184.848 283.199C184.848 286.561 187.573 289.286 190.935 289.286Z" fill="#E0E0E0"/>
<path d="M151.583 288.137C151.583 289.341 151.94 290.518 152.608 291.519C153.277 292.52 154.228 293.3 155.34 293.761C156.452 294.222 157.676 294.342 158.857 294.107C160.038 293.872 161.122 293.293 161.974 292.441C162.825 291.59 163.405 290.506 163.64 289.325C163.874 288.144 163.754 286.92 163.293 285.808C162.832 284.696 162.052 283.745 161.051 283.076C160.05 282.407 158.873 282.05 157.67 282.05C156.055 282.05 154.507 282.692 153.365 283.833C152.224 284.975 151.583 286.523 151.583 288.137Z" fill="#E0E0E0"/>
<path d="M199.082 291.666C203.209 291.666 206.555 288.321 206.555 284.194C206.555 280.067 203.209 276.721 199.082 276.721C194.955 276.721 191.61 280.067 191.61 284.194C191.61 288.321 194.955 291.666 199.082 291.666Z" fill="#E0E0E0"/>
<path d="M176.807 277.313C176.805 278.792 177.241 280.238 178.061 281.468C178.88 282.698 180.047 283.658 181.412 284.225C182.777 284.793 184.28 284.942 185.73 284.655C187.181 284.368 188.513 283.658 189.559 282.613C190.606 281.569 191.318 280.237 191.608 278.787C191.897 277.337 191.75 275.834 191.185 274.468C190.619 273.102 189.662 271.934 188.432 271.113C187.203 270.291 185.758 269.853 184.28 269.853C182.301 269.856 180.404 270.642 179.003 272.04C177.603 273.439 176.813 275.334 176.807 277.313Z" fill="#E0E0E0"/>
<path d="M164.964 279.22C164.962 280.698 165.398 282.144 166.218 283.374C167.038 284.605 168.204 285.564 169.569 286.132C170.934 286.699 172.437 286.849 173.887 286.562C175.338 286.275 176.67 285.564 177.717 284.52C178.763 283.475 179.476 282.144 179.765 280.694C180.054 279.244 179.907 277.741 179.342 276.375C178.777 275.009 177.819 273.841 176.59 273.019C175.361 272.198 173.915 271.759 172.437 271.759C170.457 271.759 168.558 272.545 167.157 273.943C165.756 275.342 164.968 277.24 164.964 279.22Z" fill="#E0E0E0"/>
<path d="M169.974 285.248C169.974 286.653 170.39 288.027 171.171 289.195C171.952 290.364 173.062 291.274 174.36 291.812C175.658 292.35 177.087 292.491 178.465 292.216C179.844 291.942 181.11 291.266 182.103 290.272C183.097 289.278 183.774 288.012 184.048 286.634C184.322 285.255 184.181 283.827 183.644 282.528C183.106 281.23 182.195 280.12 181.027 279.34C179.858 278.559 178.484 278.142 177.079 278.142C175.195 278.142 173.387 278.891 172.055 280.223C170.722 281.556 169.974 283.363 169.974 285.248Z" fill="#E0E0E0"/>
<path d="M157.61 284.786C157.61 286.303 158.06 287.787 158.904 289.049C159.747 290.311 160.945 291.295 162.348 291.875C163.75 292.456 165.293 292.608 166.781 292.312C168.27 292.016 169.637 291.285 170.71 290.212C171.784 289.139 172.515 287.771 172.811 286.283C173.107 284.794 172.955 283.251 172.374 281.849C171.793 280.447 170.81 279.248 169.548 278.405C168.286 277.562 166.802 277.112 165.284 277.112C163.249 277.112 161.297 277.92 159.858 279.359C158.419 280.799 157.61 282.75 157.61 284.786Z" fill="#E0E0E0"/>
<path d="M210.996 287.154C210.996 287.154 210.167 298.997 178.11 298.997C146.052 298.997 145.211 287.154 145.211 287.154H210.996Z" fill="#F0F0F0"/>
<path d="M296.059 441.2C422.871 441.2 525.671 435.198 525.671 427.794C525.671 420.391 422.871 414.389 296.059 414.389C169.248 414.389 66.4473 420.391 66.4473 427.794C66.4473 435.198 169.248 441.2 296.059 441.2Z" fill="#F5F5F5"/>
<path d="M364.473 76.8571C363.51 73.6749 362.233 70.5965 360.66 67.6674L363.028 59.9106L347.716 44.5866L339.959 46.9551C337.03 45.3822 333.952 44.1048 330.77 43.1418L326.956 36.0364H305.285L301.483 43.1418C298.3 44.1025 295.222 45.38 292.294 46.9551L284.537 44.5866L269.213 59.9106L271.581 67.6674C270.017 70.5993 268.744 73.6772 267.78 76.8571L260.615 80.6703V102.342L267.78 106.143C268.742 109.324 270.015 112.402 271.581 115.333L269.213 123.09L284.537 138.414L292.294 136.045C295.224 137.612 298.303 138.885 301.483 139.847L305.285 146.952H326.956L330.77 139.847C333.949 138.882 337.027 137.609 339.959 136.045L347.716 138.414L363.04 123.09L360.672 115.333C362.247 112.405 363.524 109.326 364.485 106.143L371.649 102.342V80.6703L364.473 76.8571ZM316.12 122.284C310.031 122.284 304.078 120.479 299.014 117.095C293.951 113.712 290.004 108.903 287.674 103.277C285.344 97.651 284.734 91.4601 285.922 85.4874C287.11 79.5147 290.042 74.0284 294.349 69.7223C298.655 65.4162 304.141 62.4837 310.114 61.2957C316.086 60.1076 322.277 60.7174 327.903 63.0478C333.53 65.3783 338.338 69.3247 341.722 74.3881C345.105 79.4516 346.911 85.4045 346.911 91.4943C346.911 99.6603 343.667 107.492 337.892 113.266C332.118 119.041 324.287 122.284 316.12 122.284Z" fill="#BE53FF"/>
<path opacity="0.2" d="M364.473 76.8571C363.51 73.6749 362.233 70.5965 360.66 67.6674L363.028 59.9106L347.716 44.5866L339.959 46.9551C337.03 45.3822 333.952 44.1048 330.77 43.1418L326.956 36.0364H305.285L301.483 43.1418C298.3 44.1025 295.222 45.38 292.294 46.9551L284.537 44.5866L269.213 59.9106L271.581 67.6674C270.017 70.5993 268.744 73.6772 267.78 76.8571L260.615 80.6703V102.342L267.78 106.143C268.742 109.324 270.015 112.402 271.581 115.333L269.213 123.09L284.537 138.414L292.294 136.045C295.224 137.612 298.303 138.885 301.483 139.847L305.285 146.952H326.956L330.77 139.847C333.949 138.882 337.027 137.609 339.959 136.045L347.716 138.414L363.04 123.09L360.672 115.333C362.247 112.405 363.524 109.326 364.485 106.143L371.649 102.342V80.6703L364.473 76.8571ZM316.12 122.284C310.031 122.284 304.078 120.479 299.014 117.095C293.951 113.712 290.004 108.903 287.674 103.277C285.344 97.651 284.734 91.4601 285.922 85.4874C287.11 79.5147 290.042 74.0284 294.349 69.7223C298.655 65.4162 304.141 62.4837 310.114 61.2957C316.086 60.1076 322.277 60.7174 327.903 63.0478C333.53 65.3783 338.338 69.3247 341.722 74.3881C345.105 79.4516 346.911 85.4045 346.911 91.4943C346.911 99.6603 343.667 107.492 337.892 113.266C332.118 119.041 324.287 122.284 316.12 122.284Z" fill="white"/>
<path d="M316.121 81.2979C314.102 81.2979 312.128 81.8965 310.449 83.0182C308.771 84.1399 307.462 85.7342 306.69 87.5995C305.917 89.4648 305.715 91.5173 306.109 93.4975C306.503 95.4777 307.475 97.2966 308.902 98.7242C310.33 100.152 312.149 101.124 314.129 101.518C316.109 101.912 318.162 101.71 320.027 100.937C321.893 100.164 323.487 98.8561 324.608 97.1773C325.73 95.4986 326.329 93.525 326.329 91.506C326.329 88.7986 325.253 86.2021 323.339 84.2877C321.425 82.3733 318.828 81.2979 316.121 81.2979Z" fill="#BE53FF"/>
<path d="M518.697 111.236C517.321 106.686 515.5 102.283 513.261 98.0905L516.648 87.006L494.775 65.1331L483.679 68.5319C479.501 66.2674 475.1 64.4419 470.546 63.0844L465.11 52.8525H434.142L428.695 63.0844C424.142 64.4462 419.741 66.2716 415.562 68.5319L404.477 65.1331L382.58 87.0297L385.967 98.1142C383.719 102.302 381.898 106.706 380.532 111.259L370.288 116.695V147.663L380.52 153.11C381.884 157.66 383.705 162.06 385.956 166.243L382.569 177.316L404.465 199.213L415.55 195.826C419.734 198.079 424.139 199.896 428.695 201.249L434.142 211.493H465.11L470.546 201.261C475.096 199.894 479.496 198.068 483.679 195.814L494.775 199.201L516.672 177.304L513.285 166.22C515.518 162.031 517.33 157.632 518.697 153.087L528.929 147.639V116.671L518.697 111.236ZM449.62 188.294C438.516 188.294 427.661 185.001 418.428 178.832C409.195 172.663 401.999 163.894 397.749 153.635C393.5 143.376 392.388 132.087 394.554 121.196C396.721 110.305 402.068 100.301 409.92 92.4488C417.772 84.5968 427.776 79.2496 438.667 77.0832C449.558 74.9169 460.847 76.0287 471.106 80.2782C481.365 84.5276 490.134 91.7238 496.303 100.957C502.472 110.19 505.765 121.045 505.765 132.149C505.765 139.522 504.313 146.823 501.491 153.635C498.67 160.447 494.534 166.636 489.321 171.85C484.107 177.063 477.918 181.199 471.106 184.02C464.294 186.842 456.993 188.294 449.62 188.294Z" fill="#BE53FF"/>
<path d="M449.62 83.8796C440.071 83.882 430.737 86.7156 422.799 92.0223C414.861 97.3289 408.674 104.87 405.022 113.693C401.369 122.515 400.415 132.223 402.279 141.588C404.144 150.952 408.743 159.554 415.496 166.305C422.248 173.056 430.851 177.654 440.217 179.516C449.582 181.378 459.289 180.421 468.111 176.766C476.932 173.111 484.472 166.923 489.777 158.984C495.082 151.044 497.913 141.71 497.913 132.161C497.897 119.359 492.804 107.086 483.75 98.0341C474.696 88.9826 462.422 83.8922 449.62 83.8796ZM449.62 174.012C441.342 174.014 433.249 171.562 426.365 166.965C419.481 162.367 414.115 155.832 410.946 148.185C407.777 140.538 406.946 132.123 408.56 124.004C410.173 115.885 414.158 108.426 420.011 102.572C425.863 96.718 433.32 92.7309 441.439 91.1151C449.557 89.4993 457.973 90.3274 465.621 93.4946C473.269 96.6619 479.806 102.026 484.405 108.909C489.004 115.791 491.459 123.883 491.459 132.161C491.446 143.255 487.035 153.891 479.191 161.736C471.348 169.582 460.713 173.996 449.62 174.012Z" fill="#BE53FF"/>
<path opacity="0.2" d="M449.62 83.8796C440.071 83.882 430.737 86.7156 422.799 92.0223C414.861 97.3289 408.674 104.87 405.022 113.693C401.369 122.515 400.415 132.223 402.279 141.588C404.144 150.952 408.743 159.554 415.496 166.305C422.248 173.056 430.851 177.654 440.217 179.516C449.582 181.378 459.289 180.421 468.111 176.766C476.932 173.111 484.472 166.923 489.777 158.984C495.082 151.044 497.913 141.71 497.913 132.161C497.897 119.359 492.804 107.086 483.75 98.0341C474.696 88.9826 462.422 83.8922 449.62 83.8796ZM449.62 174.012C441.342 174.014 433.249 171.562 426.365 166.965C419.481 162.367 414.115 155.832 410.946 148.185C407.777 140.538 406.946 132.123 408.56 124.004C410.173 115.885 414.158 108.426 420.011 102.572C425.863 96.718 433.32 92.7309 441.439 91.1151C449.557 89.4993 457.973 90.3274 465.621 93.4946C473.269 96.6619 479.806 102.026 484.405 108.909C489.004 115.791 491.459 123.883 491.459 132.161C491.446 143.255 487.035 153.891 479.191 161.736C471.348 169.582 460.713 173.996 449.62 174.012Z" fill="black"/>
<path d="M338.692 214.537C338.378 214.537 338.077 214.412 337.855 214.19C337.633 213.968 337.508 213.666 337.508 213.352V210.984C337.508 210.67 337.633 210.369 337.855 210.146C338.077 209.924 338.378 209.8 338.692 209.8C339.006 209.8 339.307 209.924 339.529 210.146C339.752 210.369 339.876 210.67 339.876 210.984V213.352C339.876 213.666 339.752 213.968 339.529 214.19C339.307 214.412 339.006 214.537 338.692 214.537Z" fill="#BE53FF"/>
<path d="M320.254 183.936C319.167 183.237 318.316 182.226 317.814 181.035C317.69 180.746 317.456 180.518 317.164 180.401C316.872 180.285 316.546 180.289 316.257 180.413C315.968 180.537 315.74 180.771 315.624 181.063C315.507 181.355 315.511 181.681 315.635 181.97C316.331 183.587 317.488 184.963 318.963 185.925C319.154 186.049 319.376 186.114 319.602 186.115C319.859 186.117 320.109 186.035 320.315 185.883C320.521 185.731 320.672 185.516 320.746 185.27C320.819 185.024 320.811 184.761 320.722 184.521C320.634 184.28 320.469 184.075 320.254 183.936Z" fill="#BE53FF"/>
<path d="M316.121 169.145C316.435 169.145 316.736 169.02 316.958 168.798C317.18 168.576 317.305 168.275 317.305 167.961V163.425C317.305 163.111 317.18 162.81 316.958 162.588C316.736 162.365 316.435 162.241 316.121 162.241C315.807 162.241 315.505 162.365 315.283 162.588C315.061 162.81 314.937 163.111 314.937 163.425V167.961C314.937 168.275 315.061 168.576 315.283 168.798C315.505 169.02 315.807 169.145 316.121 169.145Z" fill="#BE53FF"/>
<path d="M328.449 184.978H323.901C323.587 184.978 323.286 185.103 323.064 185.325C322.842 185.547 322.717 185.848 322.717 186.162C322.717 186.476 322.842 186.778 323.064 187C323.286 187.222 323.587 187.347 323.901 187.347H328.449C328.763 187.347 329.064 187.222 329.286 187C329.508 186.778 329.633 186.476 329.633 186.162C329.633 185.848 329.508 185.547 329.286 185.325C329.064 185.103 328.763 184.978 328.449 184.978Z" fill="#BE53FF"/>
<path d="M317.305 177.044V172.508C317.305 172.194 317.18 171.893 316.958 171.671C316.736 171.448 316.435 171.324 316.121 171.324C315.807 171.324 315.505 171.448 315.283 171.671C315.061 171.893 314.937 172.194 314.937 172.508V177.044C314.937 177.358 315.061 177.659 315.283 177.881C315.505 178.103 315.807 178.228 316.121 178.228C316.435 178.228 316.736 178.103 316.958 177.881C317.18 177.659 317.305 177.358 317.305 177.044Z" fill="#BE53FF"/>
<path d="M339.806 192.676C339.764 192.365 339.602 192.083 339.353 191.892C339.104 191.701 338.79 191.617 338.479 191.657C338.325 191.683 338.177 191.739 338.045 191.822C337.912 191.905 337.798 192.014 337.707 192.142C337.617 192.269 337.553 192.414 337.519 192.566C337.485 192.719 337.481 192.877 337.508 193.031C337.546 193.306 337.566 193.582 337.567 193.86V197.412C337.567 197.727 337.692 198.028 337.914 198.25C338.136 198.472 338.438 198.597 338.752 198.597C339.066 198.597 339.367 198.472 339.589 198.25C339.811 198.028 339.936 197.727 339.936 197.412V193.86C339.918 193.463 339.875 193.067 339.806 192.676Z" fill="#BE53FF"/>
<path d="M338.692 200.717C338.378 200.717 338.077 200.841 337.855 201.063C337.633 201.285 337.508 201.587 337.508 201.901V206.448C337.508 206.762 337.633 207.064 337.855 207.286C338.077 207.508 338.378 207.633 338.692 207.633C339.006 207.633 339.307 207.508 339.529 207.286C339.752 207.064 339.876 206.762 339.876 206.448V201.901C339.876 201.587 339.752 201.285 339.529 201.063C339.307 200.841 339.006 200.717 338.692 200.717Z" fill="#BE53FF"/>
<path d="M337.662 187.974C336.503 186.65 334.972 185.705 333.268 185.262C333.118 185.223 332.961 185.214 332.806 185.236C332.652 185.258 332.504 185.31 332.369 185.389C332.235 185.468 332.118 185.573 332.024 185.698C331.931 185.822 331.863 185.964 331.824 186.115C331.785 186.266 331.776 186.423 331.798 186.577C331.82 186.731 331.872 186.88 331.951 187.014C332.03 187.148 332.135 187.265 332.259 187.359C332.384 187.452 332.525 187.521 332.676 187.56C333.921 187.881 335.039 188.57 335.886 189.537C335.997 189.664 336.133 189.765 336.286 189.834C336.439 189.904 336.606 189.94 336.774 189.94C337.001 189.94 337.224 189.874 337.415 189.75C337.606 189.627 337.758 189.451 337.851 189.243C337.945 189.036 337.977 188.806 337.944 188.581C337.91 188.356 337.812 188.145 337.662 187.974Z" fill="#BE53FF"/>
<path d="M316.121 160.014C315.807 160.014 315.505 159.89 315.283 159.667C315.061 159.445 314.937 159.144 314.937 158.83V156.462C314.937 156.148 315.061 155.846 315.283 155.624C315.505 155.402 315.807 155.277 316.121 155.277C316.435 155.277 316.736 155.402 316.958 155.624C317.18 155.846 317.305 156.148 317.305 156.462V158.83C317.305 159.144 317.18 159.445 316.958 159.667C316.736 159.89 316.435 160.014 316.121 160.014Z" fill="#BE53FF"/>
<path d="M394.789 274.163H120.591V278.557H394.789V274.163Z" fill="#BE53FF"/>
<path d="M394.79 278.556H454.286V274.163H394.79V278.556Z" fill="#BE53FF"/>
<path opacity="0.2" d="M394.79 278.556H454.286V274.163H394.79V278.556Z" fill="black"/>
<path d="M434.414 283.258H140.462L130.633 278.556H444.243L434.414 283.258Z" fill="#BE53FF"/>
<path opacity="0.6" d="M434.414 283.258H140.462L130.633 278.556H444.243L434.414 283.258Z" fill="white"/>
<path d="M149.344 283.258V423.401H153.11L157.847 283.258H149.344Z" fill="#BE53FF"/>
<path d="M193.8 283.258V423.401H197.566L202.303 283.258H193.8Z" fill="#BE53FF"/>
<path d="M434.414 283.258V423.401H430.66L425.911 283.258H434.414Z" fill="#BE53FF"/>
<path d="M389.97 283.258V423.401H386.204L381.467 283.258H389.97Z" fill="#BE53FF"/>
<path d="M300.489 220.967L288.113 271.38L287.77 274.163H373.13L373.485 271.38L385.849 220.967H300.489Z" fill="#BE53FF"/>
<path opacity="0.3" d="M300.489 220.967L288.113 271.38L287.77 274.163H373.13L373.485 271.38L385.849 220.967H300.489Z" fill="black"/>
<path d="M383.231 220.967H297.86L285.496 271.38H370.856L383.231 220.967Z" fill="#BE53FF"/>
<path d="M369.044 269.071L380.295 223.276H299.672L288.433 269.071H369.044Z" fill="white"/>
<path d="M348.616 271.38L348.261 274.163H254.268L254.611 271.38H348.616Z" fill="#BE53FF"/>
<path opacity="0.6" d="M348.616 271.38L348.261 274.163H254.268L254.611 271.38H348.616Z" fill="white"/>
<path d="M171.052 264.997C170.992 263.193 170.286 261.471 169.062 260.145C167.838 258.819 166.178 257.977 164.384 257.773V256.411C164.383 256.333 164.366 256.255 164.334 256.183C164.302 256.111 164.256 256.046 164.198 255.992C164.141 255.938 164.073 255.896 164 255.868C163.926 255.84 163.847 255.828 163.768 255.831H150.979C150.899 255.828 150.82 255.84 150.746 255.868C150.671 255.895 150.603 255.937 150.545 255.991C150.486 256.045 150.439 256.11 150.406 256.182C150.373 256.254 150.354 256.332 150.351 256.411V274.175H164.384V272.233C166.18 272.031 167.844 271.188 169.068 269.859C170.293 268.53 170.997 266.804 171.052 264.997ZM164.384 269.935V260.071C165.568 260.245 166.649 260.839 167.431 261.745C168.213 262.65 168.643 263.807 168.643 265.003C168.643 266.199 168.213 267.356 167.431 268.261C166.649 269.167 165.568 269.761 164.384 269.935Z" fill="#BE53FF"/>
<path d="M410.41 274.163H422.299L418.782 248.122H410.41V274.163Z" fill="#263238"/>
<path d="M392.978 274.163H415.502L419.683 243.681H397.17L392.978 274.163Z" fill="#BE53FF"/>
<path opacity="0.3" d="M392.978 274.163H415.502L419.683 243.681H397.17L392.978 274.163Z" fill="black"/>
<path d="M389.97 274.163H413.406L417.598 243.681H394.162L389.97 274.163Z" fill="#BE53FF"/>
<path opacity="0.4" d="M411.333 271.759L414.862 246.085H396.234L392.705 271.759H411.333Z" fill="white"/>
<path d="M233.934 229.162L232.963 230.204L231.921 231.388C231.222 232.194 230.523 233.011 229.86 233.851C228.534 235.533 227.255 237.25 226.059 239.015C223.679 242.427 221.693 246.098 220.138 249.957C219.413 251.791 218.851 253.686 218.456 255.618C218.267 256.707 218.148 257.181 218.089 257.643C218.023 258.011 218.023 258.388 218.089 258.756C218.288 259.335 218.599 259.869 219.006 260.326C219.412 260.783 219.906 261.155 220.457 261.421C221.257 261.913 222.097 262.337 222.968 262.688C223.426 262.877 223.9 263.055 224.389 263.221C224.839 263.386 225.408 263.552 225.763 263.694V270.219C224.934 270.338 224.33 270.433 223.631 270.48C222.933 270.527 222.257 270.539 221.559 270.48C220.122 270.451 218.693 270.268 217.296 269.935C215.721 269.565 214.212 268.958 212.819 268.135C211.182 267.177 209.775 265.871 208.698 264.31C207.589 262.648 206.854 260.765 206.543 258.792C206.463 258.329 206.412 257.863 206.389 257.394C206.365 256.944 206.365 256.494 206.389 256.044V255.381C206.375 255.204 206.375 255.025 206.389 254.848L206.483 253.806C206.786 251.099 207.358 248.43 208.189 245.836C209.793 240.854 212.05 236.107 214.903 231.72C216.274 229.566 217.765 227.49 219.368 225.503C220.161 224.508 220.979 223.537 221.831 222.578C222.246 222.092 222.684 221.618 223.134 221.145C223.584 220.671 223.998 220.256 224.614 219.664L233.934 229.162Z" fill="#B55B52"/>
<path d="M223.406 263.552L228.925 259.502L232.063 270.847C232.063 270.847 227.172 272.659 223.442 270.22L223.406 263.552Z" fill="#B55B52"/>
<path d="M236.587 256.778L238.742 266.276L232.063 270.847L228.925 259.502L236.587 256.778Z" fill="#B55B52"/>
<path d="M271.487 185.629C271.238 186.328 271.416 187.027 271.877 187.181C272.339 187.335 272.908 186.908 273.145 186.21C273.381 185.511 273.216 184.8 272.766 184.646C272.316 184.492 271.735 184.919 271.487 185.629Z" fill="#263238"/>
<path d="M271.356 187.003C271.448 189.442 271.875 191.857 272.623 194.18C272.027 194.351 271.4 194.39 270.787 194.296C270.174 194.202 269.588 193.977 269.07 193.635L271.356 187.003Z" fill="#A02724"/>
<path d="M270.35 180.869C270.438 180.898 270.534 180.898 270.622 180.869C271.141 180.695 271.695 180.648 272.236 180.73C272.778 180.813 273.292 181.022 273.736 181.342C273.826 181.407 273.936 181.436 274.045 181.423C274.154 181.41 274.255 181.356 274.326 181.273C274.398 181.189 274.436 181.082 274.432 180.972C274.428 180.862 274.382 180.757 274.305 180.679C273.749 180.265 273.102 179.99 272.418 179.876C271.734 179.763 271.033 179.815 270.373 180.028C270.287 180.057 270.212 180.113 270.159 180.188C270.106 180.262 270.077 180.351 270.077 180.442C270.077 180.534 270.106 180.623 270.159 180.697C270.212 180.771 270.287 180.827 270.373 180.857L270.35 180.869Z" fill="#263238"/>
<path d="M245.516 188.211C246.843 194.949 248.157 207.301 243.444 211.801C243.444 211.801 245.291 218.634 257.821 218.634C271.593 218.634 264.405 211.801 264.405 211.801C256.885 210.001 257.074 204.423 258.389 199.189L245.516 188.211Z" fill="#B55B52"/>
<path d="M241.644 214.146C240.649 211.979 239.571 209.504 241.81 208.734C244.285 207.881 257.832 207.005 262.498 208.604C263.115 208.772 263.692 209.061 264.196 209.454C264.7 209.848 265.12 210.338 265.432 210.896C265.744 211.454 265.942 212.069 266.014 212.704C266.085 213.339 266.029 213.982 265.85 214.596L241.644 214.146Z" fill="#263238"/>
<path d="M288.954 225.704C291.856 230.927 294.97 236.303 298.12 241.466C301.27 246.63 304.574 251.769 308.103 256.459C308.98 257.643 309.892 258.768 310.792 259.893C311.242 260.473 311.715 260.947 312.177 261.48L312.864 262.262L313.042 262.463L313.125 262.558L313.208 262.664C313.759 263.198 314.423 263.602 315.15 263.848C316.269 264.238 317.423 264.519 318.596 264.689C324.352 265.27 330.156 265.203 335.898 264.488L337.698 270.764C336.099 271.475 334.607 271.949 333.02 272.541C331.433 273.133 329.87 273.524 328.283 273.926C324.919 274.77 321.471 275.231 318.004 275.3C316.057 275.331 314.114 275.137 312.213 274.72C309.879 274.256 307.678 273.277 305.771 271.854L304.977 271.203L304.788 271.037L304.669 270.918L304.444 270.693L303.52 269.781C302.916 269.178 302.253 268.597 301.709 267.958C300.524 266.714 299.411 265.471 298.381 264.192C294.243 259.192 290.427 253.935 286.953 248.453C285.224 245.753 283.558 243.026 281.955 240.27C280.345 237.487 278.794 234.764 277.29 231.827L288.954 225.704Z" fill="#B55B52"/>
<path d="M226.947 213.885C218.302 215.863 208.402 239.418 208.402 239.418L225.751 251.26C230.066 245.072 233.895 238.559 237.203 231.779C242.33 221.05 235.781 211.86 226.947 213.885Z" fill="#BE53FF"/>
<path opacity="0.2" d="M233.129 228.901L224.934 250.739L225.739 251.307C225.739 251.307 229.292 246.322 233.129 239.595V228.901Z" fill="black"/>
<path d="M278.58 214.347C278.58 214.347 288.386 225.432 279.125 293.999H229.825C229.493 286.432 234.242 249.531 226.947 213.874C232.395 212.825 237.906 212.128 243.444 211.789C250.425 211.38 257.424 211.38 264.405 211.789C269.189 212.271 273.929 213.126 278.58 214.347Z" fill="#BE53FF"/>
<path opacity="0.2" d="M273.097 234.183C274.383 241.965 277.746 249.256 282.832 255.286C283.033 250.869 283.116 246.902 283.104 243.361L273.097 234.183Z" fill="black"/>
<path d="M268.822 221.832C267.637 230.559 284.809 252.847 284.809 252.847L302.087 241.004C302.087 241.004 297.291 228.724 289.226 220.671C280.036 211.434 270.172 212.334 268.822 221.832Z" fill="#BE53FF"/>
<path d="M333.955 264.547L340.989 261.657L348.225 267.129C348.225 267.129 341.321 273.239 335.045 270.859L333.955 264.547Z" fill="#B55B52"/>
<path d="M345.632 261.373L350.937 265.163L348.19 267.129L340.954 261.658L345.632 261.373Z" fill="#B55B52"/>
<path d="M248.583 175.99C246.12 184.801 244.225 189.834 247.044 195.767C251.272 204.708 263.292 204.459 268.36 196.572C272.908 189.466 276.176 176.25 268.929 169.891C267.337 168.478 265.411 167.494 263.333 167.035C261.255 166.576 259.094 166.655 257.055 167.267C255.016 167.878 253.168 169 251.685 170.527C250.202 172.054 249.135 173.934 248.583 175.99Z" fill="#B55B52"/>
<path d="M267.342 176.084C263.789 186.198 259.609 197.306 249.4 195.198C242.816 193.836 242.295 183.237 239.927 178.417C237.83 174.19 237.961 165.687 242.295 165.58C240.353 162.762 250.17 152.447 256.873 157.894C258.59 155.526 270.965 148.551 280.131 159.623C288.765 170.092 284.537 178.82 267.342 176.084Z" fill="#263238"/>
<path d="M259.348 182.55C259.111 184.809 259.618 187.084 260.793 189.028C262.368 191.562 264.677 190.591 265.53 187.998C266.288 185.629 266.371 181.544 264.18 179.898C261.989 178.252 259.68 179.827 259.348 182.55Z" fill="#B55B52"/>
<path d="M334.997 416.71C336.181 416.71 337.366 416.544 337.709 416.011C337.807 415.87 337.859 415.703 337.859 415.532C337.859 415.36 337.807 415.193 337.709 415.052C337.551 414.803 337.306 414.621 337.022 414.543C335.483 414.128 332.285 415.964 332.131 416.047C332.091 416.067 332.058 416.1 332.039 416.141C332.02 416.182 332.015 416.228 332.025 416.272C332.032 416.314 332.052 416.353 332.081 416.385C332.111 416.416 332.149 416.439 332.19 416.449C333.117 416.618 334.056 416.705 334.997 416.71ZM336.465 414.922C336.603 414.902 336.742 414.902 336.88 414.922C336.969 414.938 337.054 414.975 337.128 415.028C337.201 415.081 337.262 415.15 337.306 415.23C337.46 415.502 337.413 415.632 337.306 415.703C336.88 416.307 334.547 416.319 332.83 416.07C333.956 415.455 335.191 415.065 336.465 414.922Z" fill="#BE53FF"/>
<path d="M332.214 416.449H332.309C333.422 415.952 335.625 413.963 335.447 412.897C335.447 412.648 335.234 412.352 334.642 412.281C334.429 412.262 334.215 412.286 334.012 412.352C333.809 412.417 333.62 412.521 333.458 412.66C332.274 413.619 332.037 416.106 332.025 416.213C332.021 416.25 332.026 416.289 332.04 416.324C332.055 416.359 332.078 416.39 332.108 416.414C332.14 416.433 332.177 416.445 332.214 416.449ZM334.464 412.719H334.595C334.986 412.719 335.009 412.92 335.021 412.968C335.128 413.595 333.624 415.159 332.487 415.834C332.581 414.791 332.995 413.803 333.671 413.003C333.892 412.814 334.174 412.713 334.464 412.719Z" fill="#BE53FF"/>
<path d="M321.497 416.236H330.71L332.807 394.884H323.593L321.497 416.236Z" fill="#B55B52"/>
<path d="M331.231 415.17H321.177C320.992 415.171 320.813 415.235 320.668 415.351C320.524 415.468 320.424 415.629 320.384 415.81L318.56 423.957C318.513 424.156 318.512 424.363 318.557 424.561C318.602 424.76 318.692 424.946 318.82 425.105C318.948 425.264 319.111 425.392 319.295 425.478C319.48 425.564 319.682 425.607 319.886 425.604C323.51 425.544 328.756 425.331 333.315 425.331C338.656 425.331 343.263 425.615 349.516 425.615C353.305 425.615 354.359 421.79 352.773 421.447C345.561 419.872 339.675 419.706 333.446 415.857C332.785 415.429 332.019 415.191 331.231 415.17Z" fill="#263238"/>
<path opacity="0.2" d="M332.794 394.896L331.729 405.898H322.503L323.581 394.896H332.794Z" fill="black"/>
<path d="M298.061 416.698C298.451 416.749 298.848 416.722 299.229 416.618C299.609 416.515 299.965 416.336 300.275 416.094C300.384 415.944 300.443 415.764 300.443 415.579C300.443 415.394 300.384 415.213 300.275 415.064C300.205 414.934 300.107 414.821 299.989 414.733C299.87 414.645 299.733 414.584 299.588 414.555C298.238 414.235 295.692 415.976 295.586 416.047C295.552 416.073 295.525 416.107 295.509 416.147C295.492 416.186 295.486 416.229 295.491 416.272C295.499 416.313 295.519 416.35 295.549 416.379C295.578 416.409 295.616 416.429 295.657 416.437C296.446 416.61 297.252 416.697 298.061 416.698ZM299.245 414.945C299.331 414.933 299.419 414.933 299.505 414.945C299.59 414.958 299.671 414.99 299.741 415.039C299.811 415.089 299.868 415.154 299.908 415.23C300.109 415.597 299.991 415.739 299.908 415.798C299.517 416.307 297.634 416.319 296.249 416.094C297.14 415.491 298.156 415.098 299.221 414.945H299.245Z" fill="#BE53FF"/>
<path d="M295.716 416.449H295.811C296.77 415.928 298.618 413.915 298.416 412.897C298.386 412.734 298.299 412.586 298.172 412.48C298.044 412.374 297.883 412.316 297.718 412.316C297.552 412.296 297.385 412.311 297.225 412.36C297.066 412.409 296.919 412.491 296.794 412.601C295.728 413.477 295.503 416.153 295.491 416.248C295.491 416.288 295.5 416.327 295.519 416.362C295.537 416.398 295.565 416.427 295.598 416.449C295.636 416.461 295.678 416.461 295.716 416.449ZM297.575 412.719H297.67C297.954 412.719 297.978 412.885 297.99 412.944C298.108 413.548 296.924 415.076 295.977 415.798C296.04 414.747 296.42 413.74 297.066 412.909C297.208 412.786 297.389 412.719 297.575 412.719Z" fill="#BE53FF"/>
<path d="M285.152 416.236H294.366L298.996 394.884H289.783L285.152 416.236Z" fill="#B55B52"/>
<path d="M295.017 415.17H284.667C284.483 415.172 284.306 415.236 284.164 415.352C284.021 415.469 283.923 415.63 283.885 415.81L282.062 423.958C282.019 424.158 282.022 424.365 282.07 424.563C282.118 424.762 282.211 424.947 282.341 425.105C282.47 425.264 282.634 425.391 282.819 425.477C283.005 425.563 283.207 425.606 283.412 425.604C287.024 425.544 288.788 425.331 293.336 425.331C296.142 425.331 299.731 425.615 303.603 425.615C307.476 425.615 307.973 421.79 306.386 421.447C299.281 419.896 298.795 417.752 296.521 415.703C296.102 415.348 295.567 415.158 295.017 415.17Z" fill="#263238"/>
<g opacity="0.2">
<path opacity="0.2" d="M289.783 394.896H298.996L296.604 405.898H287.391L289.783 394.896Z" fill="black"/>
</g>
<path d="M279.125 294.011C279.125 294.011 348.166 301.318 347.408 336.537C346.919 358.656 342.666 380.53 334.831 401.22H321.142C321.142 401.22 321.84 378.874 321.379 342.813C321.236 332.001 299.411 328.437 278.083 327.182C269.051 326.614 260.358 323.533 252.984 318.287C245.61 313.041 239.848 305.839 236.35 297.493L234.894 294.011H279.125Z" fill="#263238"/>
<path d="M338.183 397.549C338.254 397.549 337.295 404.027 337.295 404.027H318.347L317.826 398.248L338.183 397.549Z" fill="#BE53FF"/>
<path d="M264.345 294.011C264.345 294.011 314.391 310.59 315.659 331.149C318.027 368.973 299.423 401.22 299.423 401.22H285.603C285.603 401.22 290.849 385.233 292.708 350.961C295.076 307.914 214.75 350.89 229.801 294.011H264.345Z" fill="#263238"/>
<path d="M303.603 397.549C303.674 397.549 301.862 404.027 301.862 404.027H282.915L283.258 398.248L303.603 397.549Z" fill="#BE53FF"/>
<path d="M300.441 330.272H223.466C223.466 327.942 224.392 325.707 226.039 324.059C227.687 322.411 229.922 321.485 232.253 321.485H291.654C293.985 321.485 296.22 322.411 297.868 324.059C299.516 325.707 300.441 327.942 300.441 330.272Z" fill="#BE53FF"/>
<path d="M227.03 330.26L215.425 427.558H217.912L232.632 330.26H227.03Z" fill="#BE53FF"/>
<path opacity="0.4" d="M227.03 330.26L215.425 427.558H217.912L232.632 330.26H227.03Z" fill="black"/>
<path d="M242.556 330.26L242.331 427.558H244.806L248.157 330.26H242.556Z" fill="#BE53FF"/>
<path opacity="0.4" d="M242.556 330.26L242.331 427.558H244.806L248.157 330.26H242.556Z" fill="black"/>
<path d="M296.876 330.26L308.482 427.558H305.995L291.287 330.26H296.876Z" fill="#BE53FF"/>
<path opacity="0.4" d="M296.876 330.26L308.482 427.558H305.995L291.287 330.26H296.876Z" fill="black"/>
<path d="M281.351 330.26L281.576 427.558H279.101L275.75 330.26H281.351Z" fill="#BE53FF"/>
<path opacity="0.4" d="M281.351 330.26L281.576 427.558H279.101L275.75 330.26H281.351Z" fill="black"/>
</svg>
