<svg width="30" height="34" viewBox="0 0 30 34" fill="none" xmlns="http://www.w3.org/2000/svg">
<path d="M15 29.0995L17.5 26.3668M20.625 26.3668C21.4538 26.3668 22.2487 26.007 22.8347 25.3664C23.4208 24.7258 23.75 23.8569 23.75 22.951C23.75 22.045 23.4208 21.1762 22.8347 20.5356C22.2487 19.895 21.4538 19.5351 20.625 19.5351C19.7962 19.5351 19.0013 19.895 18.4153 20.5356C17.8292 21.1762 17.5 22.045 17.5 22.951C17.5 23.8569 17.8292 24.7258 18.4153 25.3664C19.0013 26.007 19.7962 26.3668 20.625 26.3668V26.3668ZM12.5 7.23806L15 4.50537L12.5 7.23806ZM9.375 14.0698C10.2038 14.0698 10.9987 13.7099 11.5847 13.0693C12.1708 12.4287 12.5 11.5599 12.5 10.6539C12.5 9.74797 12.1708 8.87913 11.5847 8.23854C10.9987 7.59794 10.2038 7.23806 9.375 7.23806C8.5462 7.23806 7.75134 7.59794 7.16529 8.23854C6.57924 8.87913 6.25 9.74797 6.25 10.6539C6.25 11.5599 6.57924 12.4287 7.16529 13.0693C7.75134 13.7099 8.5462 14.0698 9.375 14.0698V14.0698ZM10 22.2678L20 11.3371L10 22.2678ZM6.875 29.0995C7.7038 29.0995 8.49866 28.7396 9.08471 28.099C9.67076 27.4585 10 26.5896 10 25.6837C10 24.7777 9.67076 23.9089 9.08471 23.2683C8.49866 22.6277 7.7038 22.2678 6.875 22.2678C6.0462 22.2678 5.25134 22.6277 4.66529 23.2683C4.07924 23.9089 3.75 24.7777 3.75 25.6837C3.75 26.5896 4.07924 27.4585 4.66529 28.099C5.25134 28.7396 6.0462 29.0995 6.875 29.0995V29.0995ZM23.125 11.3371C23.9538 11.3371 24.7487 10.9772 25.3347 10.3366C25.9208 9.696 26.25 8.82717 26.25 7.92123C26.25 7.01529 25.9208 6.14645 25.3347 5.50585C24.7487 4.86525 23.9538 4.50537 23.125 4.50537C22.2962 4.50537 21.5013 4.86525 20.9153 5.50585C20.3292 6.14645 20 7.01529 20 7.92123C20 8.82717 20.3292 9.696 20.9153 10.3366C21.5013 10.9772 22.2962 11.3371 23.125 11.3371Z" stroke="#4445D4" stroke-width="2.06171" stroke-linecap="round" stroke-linejoin="round"/>
</svg>
