<svg width="18" height="28" viewBox="0 0 18 28" fill="none" xmlns="http://www.w3.org/2000/svg">
<path d="M14.25 1.75C14.7141 1.75 15.1592 1.93437 15.4874 2.26256C15.8156 2.59075 16 3.03587 16 3.5V24.5C16 24.9641 15.8156 25.4092 15.4874 25.7374C15.1592 26.0656 14.7141 26.25 14.25 26.25H3.75C3.28587 26.25 2.84075 26.0656 2.51256 25.7374C2.18437 25.4092 2 24.9641 2 24.5V3.5C2 3.03587 2.18437 2.59075 2.51256 2.26256C2.84075 1.93437 3.28587 1.75 3.75 1.75H14.25ZM3.75 0C2.82174 0 1.9315 0.368749 1.27513 1.02513C0.618749 1.6815 0.25 2.57174 0.25 3.5V24.5C0.25 25.4283 0.618749 26.3185 1.27513 26.9749C1.9315 27.6313 2.82174 28 3.75 28H14.25C15.1783 28 16.0685 27.6313 16.7249 26.9749C17.3813 26.3185 17.75 25.4283 17.75 24.5V3.5C17.75 2.57174 17.3813 1.6815 16.7249 1.02513C16.0685 0.368749 15.1783 0 14.25 0L3.75 0Z" fill="#4445D4"/>
<path d="M9 24.5C9.46413 24.5 9.90925 24.3156 10.2374 23.9874C10.5656 23.6592 10.75 23.2141 10.75 22.75C10.75 22.2859 10.5656 21.8408 10.2374 21.5126C9.90925 21.1844 9.46413 21 9 21C8.53587 21 8.09075 21.1844 7.76256 21.5126C7.43437 21.8408 7.25 22.2859 7.25 22.75C7.25 23.2141 7.43437 23.6592 7.76256 23.9874C8.09075 24.3156 8.53587 24.5 9 24.5Z" fill="#4445D4"/>
</svg>
