<svg width="30" height="30" viewBox="0 0 30 30" fill="none" xmlns="http://www.w3.org/2000/svg">
<path d="M18.7124 12.0209C19.08 12.021 19.4348 12.1561 19.7094 12.4005C19.984 12.645 20.1592 12.9817 20.2019 13.3469L20.2124 13.5209V20.0729C20.2222 21.4407 19.6954 22.7578 18.745 23.7415C17.7946 24.7252 16.4964 25.2971 15.1291 25.3344C13.7617 25.3717 12.4343 24.8715 11.4317 23.941C10.4291 23.0106 9.83118 21.7242 9.76639 20.3579L9.75889 20.0729V13.5209C9.75898 13.1533 9.89408 12.7985 10.1385 12.5239C10.383 12.2493 10.7197 12.074 11.0849 12.0314L11.2589 12.0209H18.7124ZM18.7124 13.5209H11.2589V20.0729C11.2567 21.0414 11.6317 21.9726 12.3044 22.6693C12.9771 23.366 13.8946 23.7735 14.8626 23.8052C15.8305 23.837 16.7728 23.4907 17.4898 22.8396C18.2067 22.1886 18.642 21.2839 18.7034 20.3174L18.7124 20.0729V13.5209ZM8.66239 12.0209C8.44414 12.3975 8.31102 12.8173 8.27239 13.2509L8.25889 13.5209H4.52389V19.1309C4.52373 19.596 4.64008 20.0537 4.86231 20.4622C5.08455 20.8707 5.40558 21.2171 5.79611 21.4696C6.18663 21.7222 6.6342 21.8729 7.09794 21.9079C7.56169 21.943 8.02683 21.8613 8.45089 21.6704C8.57089 22.1639 8.74489 22.6364 8.96839 23.0804C8.33677 23.3457 7.65074 23.4556 6.96785 23.401C6.28497 23.3463 5.62514 23.1287 5.04374 22.7664C4.46233 22.404 3.9763 21.9076 3.62641 21.3186C3.27653 20.7296 3.073 20.0653 3.03289 19.3814L3.02539 19.1294V13.5209C3.02544 13.1535 3.16032 12.7989 3.40446 12.5243C3.6486 12.2498 3.98501 12.0744 4.34989 12.0314L4.52539 12.0209H8.66089H8.66239ZM21.3104 12.0209H25.4864C25.854 12.021 26.2088 12.1561 26.4834 12.4005C26.758 12.645 26.9332 12.9817 26.9759 13.3469L26.9864 13.5209V19.1309C26.9864 19.8403 26.8103 20.5385 26.4739 21.163C26.1375 21.7875 25.6512 22.3187 25.0588 22.7089C24.4664 23.0991 23.7864 23.3361 23.0797 23.3985C22.3731 23.461 21.6621 23.3471 21.0104 23.0669C21.2324 22.6199 21.4064 22.1474 21.5249 21.6524C21.9323 21.8425 22.3798 21.9311 22.8289 21.9106C23.2781 21.8901 23.7156 21.7611 24.104 21.5347C24.4925 21.3083 24.8203 20.9911 25.0595 20.6104C25.2986 20.2296 25.442 19.7966 25.4774 19.3484L25.4864 19.1309V13.5209H21.7124L21.7034 13.2974C21.6706 12.8476 21.5363 12.4112 21.3104 12.0209ZM14.9834 4.4834C15.8695 4.4834 16.7194 4.83542 17.346 5.46203C17.9726 6.08863 18.3246 6.93849 18.3246 7.82465C18.3246 8.7108 17.9726 9.56066 17.346 10.1873C16.7194 10.8139 15.8695 11.1659 14.9834 11.1659C14.0972 11.1659 13.2474 10.8139 12.6208 10.1873C11.9942 9.56066 11.6421 8.7108 11.6421 7.82465C11.6421 6.93849 11.9942 6.08863 12.6208 5.46203C13.2474 4.83542 14.0972 4.4834 14.9834 4.4834ZM22.4639 5.4254C23.2251 5.4254 23.9552 5.7278 24.4935 6.26607C25.0317 6.80435 25.3341 7.53441 25.3341 8.29565C25.3341 9.05689 25.0317 9.78694 24.4935 10.3252C23.9552 10.8635 23.2251 11.1659 22.4639 11.1659C21.7027 11.1659 20.9726 10.8635 20.4343 10.3252C19.896 9.78694 19.5936 9.05689 19.5936 8.29565C19.5936 7.53441 19.896 6.80435 20.4343 6.26607C20.9726 5.7278 21.7027 5.4254 22.4639 5.4254ZM7.52539 5.4254C8.28663 5.4254 9.01669 5.7278 9.55496 6.26607C10.0932 6.80435 10.3956 7.53441 10.3956 8.29565C10.3956 9.05689 10.0932 9.78694 9.55496 10.3252C9.01669 10.8635 8.28663 11.1659 7.52539 11.1659C6.76415 11.1659 6.03409 10.8635 5.49582 10.3252C4.95754 9.78694 4.65514 9.05689 4.65514 8.29565C4.65514 7.53441 4.95754 6.80435 5.49582 6.26607C6.03409 5.7278 6.76415 5.4254 7.52539 5.4254ZM14.9834 5.9834C14.4951 5.9834 14.0267 6.17739 13.6814 6.52269C13.3361 6.86799 13.1421 7.33632 13.1421 7.82465C13.1421 8.31298 13.3361 8.78131 13.6814 9.12661C14.0267 9.47191 14.4951 9.6659 14.9834 9.6659C15.4717 9.6659 15.94 9.47191 16.2854 9.12661C16.6307 8.78131 16.8246 8.31298 16.8246 7.82465C16.8246 7.33632 16.6307 6.86799 16.2854 6.52269C15.94 6.17739 15.4717 5.9834 14.9834 5.9834ZM22.4639 6.9254C22.1005 6.9254 21.7519 7.06976 21.495 7.32673C21.238 7.58371 21.0936 7.93224 21.0936 8.29565C21.0936 8.65906 21.238 9.00759 21.495 9.26456C21.7519 9.52153 22.1005 9.6659 22.4639 9.6659C22.8273 9.6659 23.1758 9.52153 23.4328 9.26456C23.6898 9.00759 23.8341 8.65906 23.8341 8.29565C23.8341 7.93224 23.6898 7.58371 23.4328 7.32673C23.1758 7.06976 22.8273 6.9254 22.4639 6.9254ZM7.52539 6.9254C7.16198 6.9254 6.81345 7.06976 6.55648 7.32673C6.29951 7.58371 6.15514 7.93224 6.15514 8.29565C6.15514 8.65906 6.29951 9.00759 6.55648 9.26456C6.81345 9.52153 7.16198 9.6659 7.52539 9.6659C7.8888 9.6659 8.23733 9.52153 8.4943 9.26456C8.75128 9.00759 8.89564 8.65906 8.89564 8.29565C8.89564 7.93224 8.75128 7.58371 8.4943 7.32673C8.23733 7.06976 7.8888 6.9254 7.52539 6.9254Z" fill="#4445D4"/>
</svg>
