<svg width="30" height="30" viewBox="0 0 30 30" fill="none" xmlns="http://www.w3.org/2000/svg">
<path d="M20 21.25H16.25V16.25H13.75V21.25H10V22.5H2.5V25H10V26.25H20V25H27.5V22.5H20V21.25Z" fill="#4445D4"/>
<path d="M22.5 5H15.2587L14.1925 3.9325L14.0087 3.75H7.5C7.00292 3.75066 6.52639 3.94842 6.17491 4.29991C5.82342 4.65139 5.62566 5.12792 5.625 5.625V15.625C5.62566 16.1221 5.82342 16.5986 6.17491 16.9501C6.52639 17.3016 7.00292 17.4993 7.5 17.5H22.5C22.9971 17.4993 23.4736 17.3016 23.8251 16.9501C24.1766 16.5986 24.3743 16.1221 24.375 15.625V6.875C24.3743 6.37792 24.1766 5.90139 23.8251 5.54991C23.4736 5.19842 22.9971 5.00066 22.5 5ZM21.875 7.5V15H8.125V6.25H12.8663L13.9325 7.3175L14.1163 7.5H21.875Z" fill="#4445D4"/>
</svg>
