<svg width="27" height="30" viewBox="0 0 27 30" fill="none" xmlns="http://www.w3.org/2000/svg">
<path d="M15.75 22.708C14.523 22.0597 13.4692 21.0773 12.69 19.8551H3.375V5.09858H23.625V7.87772C24.5358 8.57745 25.3023 9.47811 25.875 10.5216V5.09858C25.875 4.4463 25.6379 3.82074 25.216 3.35951C24.794 2.89828 24.2217 2.63916 23.625 2.63916H3.375C2.77826 2.63916 2.20597 2.89828 1.78401 3.35951C1.36205 3.82074 1.125 4.4463 1.125 5.09858V19.8551C1.125 20.5073 1.36205 21.1329 1.78401 21.5941C2.20597 22.0554 2.77826 22.3145 3.375 22.3145H11.25V24.7739H9V27.2333H18V24.7739H15.75V22.708Z" fill="#4445D4"/>
<path d="M19.125 7.55811C17.79 7.55811 16.4849 7.99083 15.3749 8.80156C14.2649 9.6123 13.3997 10.7646 12.8888 12.1128C12.3779 13.461 12.2443 14.9445 12.5047 16.3758C12.7652 17.807 13.408 19.1217 14.352 20.1536C15.296 21.1854 16.4988 21.8881 17.8081 22.1728C19.1175 22.4575 20.4747 22.3114 21.7081 21.753C22.9415 21.1945 23.9957 20.2488 24.7374 19.0355C25.4791 17.8221 25.875 16.3956 25.875 14.9364C25.875 12.9795 25.1638 11.1028 23.898 9.71914C22.6321 8.33545 20.9152 7.55811 19.125 7.55811ZM19.125 16.7809C18.7912 16.7809 18.465 16.6727 18.1875 16.4701C17.91 16.2674 17.6937 15.9793 17.566 15.6422C17.4382 15.3052 17.4048 14.9343 17.4699 14.5765C17.535 14.2187 17.6958 13.89 17.9318 13.6321C18.1678 13.3741 18.4684 13.1984 18.7958 13.1272C19.1231 13.0561 19.4624 13.0926 19.7708 13.2322C20.0791 13.3718 20.3427 13.6082 20.5281 13.9116C20.7135 14.2149 20.8125 14.5715 20.8125 14.9364C20.8125 15.4256 20.6347 15.8947 20.3182 16.2407C20.0018 16.5866 19.5726 16.7809 19.125 16.7809Z" fill="#4445D4"/>
</svg>
