<svg width="28" height="27" viewBox="0 0 28 27" fill="none" xmlns="http://www.w3.org/2000/svg">
<path d="M7.0013 6.75V5.625C7.0013 2.25 8.7513 1.125 11.668 1.125H16.3346C19.2513 1.125 21.0013 2.8125 21.0013 5.625V6.75C24.5013 6.75 26.8346 9 26.8346 12.375C26.8346 15.75 24.5013 18 21.0013 18L7.0013 6.75ZM16.3346 6.75H7.0013C3.5013 6.75 1.16797 8.4375 1.16797 12.375C1.16797 16.3125 3.5013 18 7.0013 18L16.3346 6.75ZM9.33464 21.375H18.668V13.5H9.33464V21.375ZM14.0013 21.375V25.875V21.375ZM10.5013 25.875H17.5013H10.5013Z" stroke="#4445D4" stroke-width="2.06171"/>
</svg>
