<svg width="29" height="32" viewBox="0 0 29 32" fill="none" xmlns="http://www.w3.org/2000/svg">
<path d="M24.168 2.81055H4.83464C4.1937 2.81055 3.57901 3.08886 3.12579 3.58425C2.67258 4.07965 2.41797 4.75155 2.41797 5.45214V21.3017C2.41797 22.0023 2.67258 22.6742 3.12579 23.1696C3.57901 23.665 4.1937 23.9433 4.83464 23.9433H12.0846V26.5849H8.45963V29.2265H20.543V26.5849H16.918V23.9433H24.168C24.8089 23.9433 25.4236 23.665 25.8768 23.1696C26.33 22.6742 26.5846 22.0023 26.5846 21.3017V5.45214C26.5846 4.75155 26.33 4.07965 25.8768 3.58425C25.4236 3.08886 24.8089 2.81055 24.168 2.81055ZM24.168 21.3017H4.83464V5.45214H24.168V21.3017ZM20.2409 17.3393C20.2409 17.9523 20.0181 18.5402 19.6215 18.9737C19.225 19.4072 18.6871 19.6507 18.1263 19.6507C17.5655 19.6507 17.0276 19.4072 16.6311 18.9737C16.2345 18.5402 16.0117 17.9523 16.0117 17.3393L12.0846 15.1732C11.7788 15.4305 11.4132 15.5891 11.0292 15.631C10.6451 15.6728 10.2581 15.5962 9.91179 15.41C9.56552 15.2237 9.2739 14.9351 9.06998 14.577C8.86605 14.2188 8.75796 13.8054 8.75796 13.3835C8.75796 12.9617 8.86605 12.5483 9.06998 12.1901C9.2739 11.832 9.56552 11.5434 9.91179 11.3571C10.2581 11.1708 10.6451 11.0943 11.0292 11.1361C11.4132 11.1779 11.7788 11.3365 12.0846 11.5938L16.0117 9.41453C16.005 8.88456 16.1631 8.36781 16.4603 7.94902C16.7575 7.53023 17.1761 7.23426 17.6474 7.10964C18.1187 6.98502 18.6147 7.03916 19.0542 7.26317C19.4937 7.48719 19.8504 7.86778 20.066 8.34253C20.2816 8.81729 20.3432 9.35803 20.2407 9.87607C20.1382 10.3941 19.8777 10.8587 19.5019 11.1937C19.1261 11.5286 18.6574 11.7141 18.1725 11.7196C17.6876 11.7251 17.2155 11.5504 16.8334 11.224L12.9426 13.3769L16.8334 15.5034C17.1453 15.2335 17.5208 15.0658 17.9164 15.0198C18.312 14.9738 18.7113 15.0515 19.0682 15.2437C19.425 15.436 19.7246 15.7349 19.9322 16.1059C20.1398 16.4768 20.2468 16.9045 20.2409 17.3393Z" fill="#4445D4"/>
</svg>
