<svg width="64" height="63" viewBox="0 0 64 63" fill="none" xmlns="http://www.w3.org/2000/svg">
<path d="M55.1113 14H39.1113V57.75H58.6669V17.5C58.6669 16.5717 58.2923 15.6815 57.6255 15.0251C56.9587 14.3687 56.0543 14 55.1113 14ZM46.2224 43.75H42.6669V40.25H46.2224V43.75ZM46.2224 35H42.6669V31.5H46.2224V35ZM46.2224 26.25H42.6669V22.75H46.2224V26.25ZM53.3336 43.75H49.778V40.25H53.3336V43.75ZM53.3336 35H49.778V31.5H53.3336V35ZM53.3336 26.25H49.778V22.75H53.3336V26.25Z" fill="#874FA9"/>
<path d="M31.7869 5.25H10.8802C9.88065 5.25 8.92201 5.64087 8.21521 6.33663C7.50841 7.03239 7.11133 7.97605 7.11133 8.96V57.75H16.0002V52.5H26.6669V57.75H35.5558V8.96C35.5558 7.97605 35.1587 7.03239 34.4519 6.33663C33.7451 5.64087 32.7865 5.25 31.7869 5.25ZM16.0002 43.75H12.4447V40.25H16.0002V43.75ZM16.0002 35H12.4447V31.5H16.0002V35ZM16.0002 26.25H12.4447V22.75H16.0002V26.25ZM16.0002 17.5H12.4447V14H16.0002V17.5ZM23.1113 43.75H19.5558V40.25H23.1113V43.75ZM23.1113 35H19.5558V31.5H23.1113V35ZM23.1113 26.25H19.5558V22.75H23.1113V26.25ZM23.1113 17.5H19.5558V14H23.1113V17.5ZM30.2224 43.75H26.6669V40.25H30.2224V43.75ZM30.2224 35H26.6669V31.5H30.2224V35ZM30.2224 26.25H26.6669V22.75H30.2224V26.25ZM30.2224 17.5H26.6669V14H30.2224V17.5Z" fill="#874FA9"/>
</svg>
