<svg width="61" height="65" viewBox="0 0 61 65" fill="none" xmlns="http://www.w3.org/2000/svg">
<path d="M11.4375 56.875C11.4375 56.875 7.625 56.875 7.625 52.8125C7.625 48.75 11.4375 36.5625 30.5 36.5625C49.5625 36.5625 53.375 48.75 53.375 52.8125C53.375 56.875 49.5625 56.875 49.5625 56.875H11.4375ZM30.5 32.5C33.5334 32.5 36.4426 31.216 38.5875 28.9304C40.7325 26.6448 41.9375 23.5448 41.9375 20.3125C41.9375 17.0802 40.7325 13.9802 38.5875 11.6946C36.4426 9.40904 33.5334 8.125 30.5 8.125C27.4666 8.125 24.5574 9.40904 22.4125 11.6946C20.2675 13.9802 19.0625 17.0802 19.0625 20.3125C19.0625 23.5448 20.2675 26.6448 22.4125 28.9304C24.5574 31.216 27.4666 32.5 30.5 32.5Z" fill="#874FA9"/>
</svg>
